G04 Layer_Color=8388736*
%FSLAX25Y25*%
%MOIN*%
G70*
G01*
G75*
G36*
X-37980Y-17054D02*
Y-36767D01*
Y-36786D01*
Y-36864D01*
X-37961Y-36981D01*
Y-37097D01*
X-37902Y-37428D01*
X-37805Y-37739D01*
X-37786Y-37758D01*
X-37766Y-37797D01*
X-37727Y-37875D01*
X-37650Y-37953D01*
X-37572Y-38050D01*
X-37475Y-38147D01*
X-37339Y-38244D01*
X-37202Y-38341D01*
X-37183D01*
X-37144Y-38361D01*
X-37066Y-38400D01*
X-36969Y-38438D01*
X-36833Y-38477D01*
X-36678Y-38516D01*
X-36503Y-38555D01*
X-36289Y-38594D01*
X-36269D01*
X-36191Y-38614D01*
X-36075D01*
X-35919Y-38633D01*
X-35608Y-38652D01*
X-35433Y-38672D01*
X-35278D01*
Y-39760D01*
X-42685Y-40188D01*
X-42898Y-39994D01*
Y-38614D01*
X-43015Y-38575D01*
X-43054Y-38614D01*
X-43151Y-38711D01*
X-43307Y-38866D01*
X-43540Y-39041D01*
X-43831Y-39274D01*
X-44162Y-39508D01*
X-44570Y-39741D01*
X-45017Y-39974D01*
X-45037D01*
X-45076Y-39994D01*
X-45134Y-40033D01*
X-45231Y-40071D01*
X-45348Y-40110D01*
X-45484Y-40149D01*
X-45795Y-40266D01*
X-46184Y-40363D01*
X-46611Y-40460D01*
X-47058Y-40538D01*
X-47545Y-40558D01*
X-47681D01*
X-47836Y-40538D01*
X-48050Y-40519D01*
X-48303Y-40480D01*
X-48614Y-40441D01*
X-48944Y-40363D01*
X-49314Y-40266D01*
X-49683Y-40149D01*
X-50091Y-40013D01*
X-50519Y-39819D01*
X-50927Y-39605D01*
X-51355Y-39352D01*
X-51763Y-39041D01*
X-52152Y-38691D01*
X-52541Y-38302D01*
X-52560Y-38283D01*
X-52618Y-38205D01*
X-52715Y-38069D01*
X-52852Y-37894D01*
X-52988Y-37661D01*
X-53163Y-37408D01*
X-53338Y-37078D01*
X-53513Y-36728D01*
X-53707Y-36320D01*
X-53882Y-35892D01*
X-54057Y-35406D01*
X-54193Y-34881D01*
X-54329Y-34337D01*
X-54426Y-33753D01*
X-54485Y-33131D01*
X-54504Y-32470D01*
Y-32432D01*
Y-32334D01*
X-54485Y-32159D01*
X-54465Y-31945D01*
X-54446Y-31654D01*
X-54387Y-31343D01*
X-54329Y-30974D01*
X-54232Y-30585D01*
X-54115Y-30176D01*
X-53960Y-29729D01*
X-53785Y-29282D01*
X-53571Y-28816D01*
X-53318Y-28349D01*
X-53027Y-27902D01*
X-52696Y-27435D01*
X-52307Y-27008D01*
X-52288Y-26988D01*
X-52210Y-26911D01*
X-52074Y-26794D01*
X-51919Y-26658D01*
X-51705Y-26483D01*
X-51452Y-26289D01*
X-51160Y-26075D01*
X-50810Y-25861D01*
X-50441Y-25666D01*
X-50033Y-25453D01*
X-49605Y-25258D01*
X-49139Y-25083D01*
X-48633Y-24947D01*
X-48108Y-24830D01*
X-47564Y-24753D01*
X-46981Y-24733D01*
X-46670D01*
X-46534Y-24753D01*
X-46242Y-24772D01*
X-45873Y-24811D01*
X-45503Y-24850D01*
X-45095Y-24928D01*
X-44687Y-25025D01*
X-44667D01*
X-44629Y-25044D01*
X-44590D01*
X-44512Y-25064D01*
X-44298Y-25122D01*
X-44065Y-25200D01*
X-43773Y-25297D01*
X-43481Y-25414D01*
X-43209Y-25550D01*
X-42937Y-25686D01*
Y-20767D01*
Y-20748D01*
Y-20670D01*
X-42957Y-20554D01*
Y-20418D01*
X-42996Y-20262D01*
X-43034Y-20087D01*
X-43093Y-19893D01*
X-43170Y-19718D01*
X-43190Y-19698D01*
X-43209Y-19640D01*
X-43268Y-19543D01*
X-43326Y-19446D01*
X-43520Y-19193D01*
X-43637Y-19076D01*
X-43773Y-18960D01*
X-43793Y-18940D01*
X-43851Y-18901D01*
X-43948Y-18843D01*
X-44084Y-18785D01*
X-44259Y-18707D01*
X-44453Y-18629D01*
X-44687Y-18551D01*
X-44940Y-18493D01*
X-44978D01*
X-45056Y-18474D01*
X-45192Y-18454D01*
X-45367Y-18415D01*
X-45581Y-18376D01*
X-45834Y-18338D01*
X-46339Y-18279D01*
Y-17191D01*
X-38213Y-16802D01*
X-37980Y-17054D01*
D02*
G37*
G36*
X-143306Y-24753D02*
X-143092Y-24772D01*
X-142820Y-24792D01*
X-142509Y-24850D01*
X-142178Y-24928D01*
X-141809Y-25005D01*
X-141420Y-25122D01*
X-141031Y-25278D01*
X-140623Y-25453D01*
X-140215Y-25666D01*
X-139807Y-25919D01*
X-139418Y-26211D01*
X-139029Y-26561D01*
X-138679Y-26950D01*
X-138660Y-26969D01*
X-138601Y-27047D01*
X-138504Y-27183D01*
X-138388Y-27358D01*
X-138251Y-27572D01*
X-138115Y-27824D01*
X-137941Y-28135D01*
X-137766Y-28505D01*
X-137610Y-28894D01*
X-137435Y-29321D01*
X-137299Y-29807D01*
X-137143Y-30313D01*
X-137046Y-30876D01*
X-136949Y-31460D01*
X-136891Y-32082D01*
X-136871Y-32743D01*
Y-32781D01*
Y-32879D01*
X-136891Y-33054D01*
X-136910Y-33268D01*
X-136930Y-33559D01*
X-136988Y-33870D01*
X-137046Y-34220D01*
X-137143Y-34628D01*
X-137241Y-35037D01*
X-137396Y-35484D01*
X-137552Y-35931D01*
X-137766Y-36397D01*
X-137999Y-36864D01*
X-138290Y-37311D01*
X-138621Y-37778D01*
X-138990Y-38205D01*
X-139010Y-38225D01*
X-139087Y-38302D01*
X-139204Y-38419D01*
X-139379Y-38555D01*
X-139573Y-38730D01*
X-139826Y-38925D01*
X-140118Y-39119D01*
X-140448Y-39333D01*
X-140818Y-39547D01*
X-141226Y-39741D01*
X-141673Y-39935D01*
X-142139Y-40110D01*
X-142645Y-40246D01*
X-143189Y-40363D01*
X-143753Y-40441D01*
X-144356Y-40460D01*
X-144725D01*
X-144861Y-40441D01*
X-145192Y-40421D01*
X-145561Y-40383D01*
X-145950Y-40344D01*
X-146339Y-40266D01*
X-146708Y-40169D01*
X-146747Y-40149D01*
X-146863Y-40110D01*
X-147019Y-40052D01*
X-147233Y-39974D01*
X-147466Y-39877D01*
X-147699Y-39741D01*
X-147952Y-39624D01*
X-148185Y-39469D01*
X-148302D01*
Y-43668D01*
Y-43687D01*
Y-43746D01*
X-148283Y-43862D01*
X-148263Y-43979D01*
X-148205Y-44271D01*
X-148146Y-44426D01*
X-148069Y-44581D01*
X-148049Y-44601D01*
X-148030Y-44640D01*
X-147971Y-44718D01*
X-147894Y-44795D01*
X-147699Y-44990D01*
X-147427Y-45165D01*
X-147408D01*
X-147349Y-45184D01*
X-147252Y-45223D01*
X-147136Y-45262D01*
X-146961Y-45301D01*
X-146766Y-45359D01*
X-146533Y-45398D01*
X-146280Y-45456D01*
X-146241D01*
X-146144Y-45476D01*
X-146008Y-45495D01*
X-145833Y-45534D01*
X-145639Y-45554D01*
X-145425Y-45592D01*
X-145211Y-45612D01*
X-145017Y-45631D01*
Y-46739D01*
X-155884D01*
Y-45631D01*
X-155825D01*
X-155728Y-45612D01*
X-155631Y-45592D01*
X-155495Y-45573D01*
X-155339Y-45554D01*
X-155145Y-45534D01*
X-154950Y-45495D01*
X-154931D01*
X-154853Y-45476D01*
X-154756Y-45456D01*
X-154639Y-45437D01*
X-154348Y-45398D01*
X-154212Y-45359D01*
X-154095Y-45340D01*
X-154076D01*
X-154017Y-45301D01*
X-153940Y-45262D01*
X-153823Y-45204D01*
X-153726Y-45126D01*
X-153609Y-45029D01*
X-153512Y-44893D01*
X-153434Y-44756D01*
Y-44737D01*
X-153415Y-44679D01*
X-153376Y-44601D01*
X-153337Y-44504D01*
X-153317Y-44368D01*
X-153279Y-44212D01*
X-153259Y-43862D01*
Y-28485D01*
Y-28466D01*
X-153279Y-28407D01*
Y-28310D01*
X-153317Y-28194D01*
X-153395Y-27902D01*
X-153512Y-27610D01*
Y-27591D01*
X-153551Y-27552D01*
X-153590Y-27474D01*
X-153648Y-27397D01*
X-153726Y-27280D01*
X-153823Y-27183D01*
X-153959Y-27066D01*
X-154095Y-26950D01*
X-154115D01*
X-154153Y-26911D01*
X-154212Y-26872D01*
X-154309Y-26833D01*
X-154426Y-26794D01*
X-154562Y-26736D01*
X-154737Y-26677D01*
X-154912Y-26638D01*
X-154931D01*
X-154989Y-26619D01*
X-155087Y-26599D01*
X-155203Y-26561D01*
X-155359Y-26522D01*
X-155514Y-26502D01*
X-155864Y-26444D01*
Y-25355D01*
X-148535Y-24967D01*
X-148302Y-25180D01*
Y-26833D01*
X-148185Y-26872D01*
X-148166Y-26852D01*
X-148146Y-26833D01*
X-148088Y-26774D01*
X-148010Y-26697D01*
X-147816Y-26522D01*
X-147544Y-26289D01*
X-147213Y-26036D01*
X-146844Y-25783D01*
X-146436Y-25530D01*
X-145989Y-25297D01*
X-145969D01*
X-145930Y-25278D01*
X-145872Y-25239D01*
X-145775Y-25200D01*
X-145678Y-25161D01*
X-145542Y-25122D01*
X-145230Y-25005D01*
X-144881Y-24908D01*
X-144472Y-24811D01*
X-144045Y-24753D01*
X-143597Y-24733D01*
X-143461D01*
X-143306Y-24753D01*
D02*
G37*
G36*
X-183158Y-24830D02*
X-184324D01*
Y-24811D01*
X-184344Y-24772D01*
X-184383Y-24694D01*
X-184422Y-24597D01*
X-184460Y-24461D01*
X-184519Y-24325D01*
X-184597Y-24150D01*
X-184694Y-23956D01*
X-184888Y-23528D01*
X-185160Y-23023D01*
X-185452Y-22478D01*
X-185821Y-21914D01*
X-185841Y-21895D01*
X-185860Y-21837D01*
X-185918Y-21759D01*
X-185996Y-21662D01*
X-186191Y-21409D01*
X-186443Y-21117D01*
X-186735Y-20806D01*
X-187065Y-20534D01*
X-187221Y-20418D01*
X-187396Y-20320D01*
X-187551Y-20262D01*
X-187726Y-20223D01*
X-187746D01*
X-187804Y-20204D01*
X-187921D01*
X-188057Y-20184D01*
X-188232Y-20165D01*
X-188426D01*
X-188659Y-20145D01*
X-188912Y-20126D01*
X-188951D01*
X-189029Y-20107D01*
X-189165D01*
X-189320Y-20087D01*
X-189515D01*
X-189709Y-20068D01*
X-190817D01*
Y-36825D01*
Y-36844D01*
Y-36922D01*
X-190798Y-37019D01*
Y-37156D01*
X-190740Y-37447D01*
X-190623Y-37778D01*
X-190603Y-37797D01*
X-190584Y-37836D01*
X-190526Y-37914D01*
X-190448Y-38011D01*
X-190351Y-38108D01*
X-190215Y-38225D01*
X-190059Y-38341D01*
X-189865Y-38438D01*
X-189845D01*
X-189806Y-38458D01*
X-189709Y-38497D01*
X-189593Y-38516D01*
X-189456Y-38555D01*
X-189262Y-38614D01*
X-189048Y-38652D01*
X-188795Y-38711D01*
X-188757D01*
X-188679Y-38730D01*
X-188543Y-38750D01*
X-188368Y-38788D01*
X-188154Y-38808D01*
X-187960Y-38847D01*
X-187746Y-38886D01*
X-187532Y-38905D01*
Y-40071D01*
X-199449D01*
Y-38905D01*
X-199371D01*
X-199274Y-38886D01*
X-199138Y-38866D01*
X-198963D01*
X-198768Y-38847D01*
X-198515Y-38808D01*
X-198243Y-38788D01*
X-198205D01*
X-198107Y-38769D01*
X-197971Y-38750D01*
X-197816Y-38730D01*
X-197446Y-38672D01*
X-197291Y-38614D01*
X-197155Y-38575D01*
X-197135Y-38555D01*
X-197057Y-38536D01*
X-196960Y-38477D01*
X-196844Y-38400D01*
X-196572Y-38205D01*
X-196474Y-38069D01*
X-196377Y-37933D01*
X-196358Y-37914D01*
X-196338Y-37855D01*
X-196299Y-37778D01*
X-196260Y-37661D01*
X-196222Y-37525D01*
X-196202Y-37350D01*
X-196163Y-37175D01*
Y-36981D01*
Y-20068D01*
X-197213D01*
X-197407Y-20087D01*
X-197602D01*
X-197835Y-20107D01*
X-198088Y-20126D01*
X-198205D01*
X-198341Y-20145D01*
X-198496D01*
X-198690Y-20165D01*
X-198885Y-20184D01*
X-199079Y-20204D01*
X-199274Y-20223D01*
X-199313D01*
X-199429Y-20262D01*
X-199604Y-20340D01*
X-199837Y-20476D01*
X-199973Y-20573D01*
X-200129Y-20690D01*
X-200285Y-20826D01*
X-200440Y-20981D01*
X-200615Y-21176D01*
X-200809Y-21390D01*
X-200984Y-21642D01*
X-201179Y-21914D01*
X-201198Y-21934D01*
X-201218Y-21992D01*
X-201276Y-22070D01*
X-201354Y-22187D01*
X-201431Y-22323D01*
X-201529Y-22478D01*
X-201626Y-22653D01*
X-201743Y-22867D01*
X-201995Y-23314D01*
X-202229Y-23800D01*
X-202462Y-24306D01*
X-202656Y-24830D01*
X-203823D01*
Y-18726D01*
X-183158D01*
Y-24830D01*
D02*
G37*
G36*
X-121747Y-29866D02*
X-122797D01*
Y-29846D01*
X-122816Y-29788D01*
X-122855Y-29710D01*
X-122894Y-29613D01*
X-122952Y-29477D01*
X-123030Y-29321D01*
X-123224Y-28952D01*
X-123477Y-28524D01*
X-123788Y-28077D01*
X-124177Y-27630D01*
X-124624Y-27183D01*
X-124644Y-27163D01*
X-124682Y-27124D01*
X-124741Y-27086D01*
X-124838Y-27008D01*
X-124955Y-26911D01*
X-125110Y-26813D01*
X-125266Y-26716D01*
X-125441Y-26599D01*
X-125849Y-26405D01*
X-126315Y-26211D01*
X-126568Y-26133D01*
X-126840Y-26094D01*
X-127112Y-26055D01*
X-127385Y-26036D01*
X-127579D01*
X-127773Y-26055D01*
X-128045Y-26094D01*
X-128337Y-26152D01*
X-128629Y-26250D01*
X-128920Y-26366D01*
X-129192Y-26522D01*
X-129212Y-26541D01*
X-129290Y-26619D01*
X-129406Y-26716D01*
X-129523Y-26872D01*
X-129640Y-27066D01*
X-129756Y-27299D01*
X-129834Y-27552D01*
X-129853Y-27863D01*
Y-27883D01*
Y-27922D01*
Y-27980D01*
X-129834Y-28058D01*
X-129795Y-28252D01*
X-129737Y-28505D01*
X-129620Y-28777D01*
X-129445Y-29049D01*
X-129348Y-29166D01*
X-129212Y-29302D01*
X-129076Y-29418D01*
X-128901Y-29516D01*
X-128881D01*
X-128862Y-29535D01*
X-128804Y-29574D01*
X-128726Y-29593D01*
X-128629Y-29652D01*
X-128493Y-29691D01*
X-128357Y-29749D01*
X-128201Y-29827D01*
X-128007Y-29885D01*
X-127812Y-29963D01*
X-127579Y-30040D01*
X-127346Y-30138D01*
X-126801Y-30293D01*
X-126179Y-30468D01*
X-126140D01*
X-126063Y-30507D01*
X-125927Y-30546D01*
X-125732Y-30604D01*
X-125518Y-30663D01*
X-125266Y-30760D01*
X-124974Y-30857D01*
X-124682Y-30974D01*
X-124041Y-31246D01*
X-123399Y-31557D01*
X-123069Y-31751D01*
X-122777Y-31945D01*
X-122505Y-32159D01*
X-122252Y-32373D01*
X-122233Y-32393D01*
X-122194Y-32432D01*
X-122136Y-32490D01*
X-122058Y-32587D01*
X-121961Y-32704D01*
X-121844Y-32840D01*
X-121747Y-33015D01*
X-121611Y-33190D01*
X-121494Y-33404D01*
X-121397Y-33637D01*
X-121280Y-33890D01*
X-121183Y-34162D01*
X-121105Y-34434D01*
X-121047Y-34745D01*
X-121008Y-35075D01*
X-120989Y-35406D01*
Y-35425D01*
Y-35522D01*
X-121008Y-35639D01*
X-121028Y-35814D01*
X-121047Y-36028D01*
X-121086Y-36261D01*
X-121144Y-36514D01*
X-121222Y-36805D01*
X-121339Y-37117D01*
X-121455Y-37428D01*
X-121611Y-37739D01*
X-121805Y-38069D01*
X-122039Y-38380D01*
X-122291Y-38672D01*
X-122583Y-38963D01*
X-122933Y-39236D01*
X-122952Y-39255D01*
X-123030Y-39294D01*
X-123127Y-39352D01*
X-123283Y-39449D01*
X-123477Y-39547D01*
X-123710Y-39663D01*
X-123983Y-39780D01*
X-124294Y-39897D01*
X-124624Y-40033D01*
X-125013Y-40149D01*
X-125421Y-40266D01*
X-125868Y-40363D01*
X-126354Y-40460D01*
X-126879Y-40519D01*
X-127423Y-40558D01*
X-127987Y-40577D01*
X-128240D01*
X-128376Y-40558D01*
X-128512D01*
X-128707Y-40538D01*
X-128881Y-40519D01*
X-129329Y-40480D01*
X-129815Y-40402D01*
X-130320Y-40285D01*
X-130845Y-40149D01*
X-130864D01*
X-130903Y-40130D01*
X-130981Y-40110D01*
X-131078Y-40071D01*
X-131195Y-40033D01*
X-131311Y-39994D01*
X-131623Y-39877D01*
X-131972Y-39760D01*
X-132322Y-39605D01*
X-132672Y-39430D01*
X-132983Y-39255D01*
X-133430Y-40266D01*
X-134597D01*
X-134791Y-34667D01*
X-133703D01*
X-133683Y-34706D01*
X-133664Y-34784D01*
X-133605Y-34920D01*
X-133528Y-35114D01*
X-133430Y-35348D01*
X-133294Y-35600D01*
X-133139Y-35892D01*
X-132964Y-36203D01*
X-132944Y-36242D01*
X-132867Y-36339D01*
X-132769Y-36494D01*
X-132614Y-36708D01*
X-132439Y-36942D01*
X-132225Y-37194D01*
X-132011Y-37466D01*
X-131759Y-37719D01*
X-131720Y-37758D01*
X-131623Y-37836D01*
X-131486Y-37953D01*
X-131292Y-38108D01*
X-131039Y-38302D01*
X-130767Y-38497D01*
X-130475Y-38691D01*
X-130145Y-38866D01*
X-130126D01*
X-130106Y-38886D01*
X-129990Y-38944D01*
X-129795Y-39002D01*
X-129562Y-39080D01*
X-129270Y-39177D01*
X-128940Y-39236D01*
X-128570Y-39294D01*
X-128182Y-39313D01*
X-127948D01*
X-127832Y-39294D01*
X-127715D01*
X-127404Y-39255D01*
X-127074Y-39177D01*
X-126743Y-39099D01*
X-126413Y-38963D01*
X-126140Y-38788D01*
X-126102Y-38769D01*
X-126024Y-38691D01*
X-125927Y-38555D01*
X-125791Y-38380D01*
X-125674Y-38147D01*
X-125557Y-37875D01*
X-125479Y-37525D01*
X-125460Y-37136D01*
Y-37117D01*
Y-37039D01*
X-125479Y-36922D01*
X-125499Y-36786D01*
X-125538Y-36631D01*
X-125596Y-36456D01*
X-125674Y-36300D01*
X-125771Y-36145D01*
X-125791Y-36125D01*
X-125829Y-36086D01*
X-125888Y-36009D01*
X-125985Y-35911D01*
X-126102Y-35814D01*
X-126238Y-35697D01*
X-126413Y-35581D01*
X-126607Y-35464D01*
X-126626Y-35445D01*
X-126704Y-35406D01*
X-126821Y-35367D01*
X-126976Y-35289D01*
X-127171Y-35212D01*
X-127385Y-35134D01*
X-127637Y-35037D01*
X-127890Y-34959D01*
X-127929Y-34939D01*
X-128007Y-34920D01*
X-128162Y-34881D01*
X-128376Y-34823D01*
X-128629Y-34745D01*
X-128920Y-34648D01*
X-129251Y-34550D01*
X-129620Y-34453D01*
X-129640D01*
X-129659Y-34434D01*
X-129717Y-34414D01*
X-129795Y-34395D01*
X-129970Y-34337D01*
X-130223Y-34259D01*
X-130495Y-34162D01*
X-130787Y-34064D01*
X-131078Y-33948D01*
X-131370Y-33831D01*
X-131409Y-33812D01*
X-131486Y-33773D01*
X-131642Y-33695D01*
X-131836Y-33598D01*
X-132050Y-33462D01*
X-132303Y-33287D01*
X-132595Y-33092D01*
X-132886Y-32859D01*
X-132925Y-32840D01*
X-133003Y-32762D01*
X-133119Y-32626D01*
X-133275Y-32470D01*
X-133450Y-32257D01*
X-133625Y-32023D01*
X-133819Y-31751D01*
X-133975Y-31460D01*
Y-31440D01*
X-133994Y-31421D01*
X-134033Y-31304D01*
X-134091Y-31129D01*
X-134169Y-30896D01*
X-134247Y-30604D01*
X-134305Y-30274D01*
X-134344Y-29885D01*
X-134363Y-29477D01*
Y-29457D01*
Y-29379D01*
X-134344Y-29263D01*
Y-29127D01*
X-134305Y-28952D01*
X-134266Y-28738D01*
X-134208Y-28505D01*
X-134150Y-28252D01*
X-134053Y-27980D01*
X-133936Y-27708D01*
X-133780Y-27416D01*
X-133625Y-27144D01*
X-133411Y-26852D01*
X-133178Y-26580D01*
X-132905Y-26308D01*
X-132595Y-26055D01*
X-132575Y-26036D01*
X-132517Y-25997D01*
X-132400Y-25939D01*
X-132264Y-25841D01*
X-132089Y-25744D01*
X-131875Y-25628D01*
X-131623Y-25511D01*
X-131331Y-25394D01*
X-131020Y-25278D01*
X-130670Y-25142D01*
X-130281Y-25044D01*
X-129853Y-24947D01*
X-129426Y-24850D01*
X-128940Y-24792D01*
X-128434Y-24753D01*
X-127909Y-24733D01*
X-127559D01*
X-127423Y-24753D01*
X-127093Y-24772D01*
X-126704Y-24811D01*
X-126277Y-24850D01*
X-125829Y-24928D01*
X-125402Y-25025D01*
X-125382D01*
X-125343Y-25044D01*
X-125285D01*
X-125207Y-25064D01*
X-124993Y-25122D01*
X-124721Y-25200D01*
X-124410Y-25297D01*
X-124080Y-25394D01*
X-123769Y-25511D01*
X-123458Y-25628D01*
X-123127Y-24733D01*
X-121980D01*
X-121747Y-29866D01*
D02*
G37*
G36*
X-169997Y-24830D02*
X-169880D01*
X-169744Y-24850D01*
X-169414Y-24928D01*
X-169064Y-25025D01*
X-168695Y-25180D01*
X-168325Y-25394D01*
X-168150Y-25530D01*
X-167975Y-25686D01*
X-167956D01*
X-167936Y-25725D01*
X-167839Y-25841D01*
X-167703Y-26036D01*
X-167548Y-26289D01*
X-167392Y-26599D01*
X-167256Y-26988D01*
X-167159Y-27435D01*
X-167120Y-27669D01*
Y-27922D01*
Y-27941D01*
Y-27980D01*
Y-28038D01*
X-167139Y-28116D01*
X-167159Y-28330D01*
X-167217Y-28602D01*
X-167295Y-28913D01*
X-167431Y-29243D01*
X-167606Y-29593D01*
X-167839Y-29924D01*
X-167878Y-29963D01*
X-167975Y-30060D01*
X-168131Y-30196D01*
X-168325Y-30351D01*
X-168597Y-30507D01*
X-168928Y-30643D01*
X-169297Y-30740D01*
X-169492Y-30760D01*
X-169705Y-30779D01*
X-169880D01*
X-170094Y-30740D01*
X-170347Y-30701D01*
X-170639Y-30643D01*
X-170950Y-30546D01*
X-171261Y-30410D01*
X-171552Y-30235D01*
X-171591Y-30215D01*
X-171669Y-30138D01*
X-171785Y-30002D01*
X-171922Y-29827D01*
X-172077Y-29593D01*
X-172194Y-29321D01*
X-172272Y-28991D01*
X-172310Y-28602D01*
Y-28582D01*
Y-28524D01*
Y-28427D01*
Y-28310D01*
X-172291Y-28038D01*
X-172272Y-27922D01*
X-172252Y-27805D01*
Y-27785D01*
X-172233Y-27746D01*
Y-27688D01*
X-172213Y-27630D01*
X-172155Y-27435D01*
X-172116Y-27241D01*
X-172155D01*
X-172233Y-27261D01*
X-172369Y-27280D01*
X-172544Y-27319D01*
X-172777Y-27377D01*
X-173010Y-27455D01*
X-173282Y-27572D01*
X-173574Y-27727D01*
X-173613Y-27746D01*
X-173710Y-27805D01*
X-173846Y-27902D01*
X-174021Y-28038D01*
X-174235Y-28213D01*
X-174449Y-28407D01*
X-174682Y-28641D01*
X-174896Y-28913D01*
Y-37175D01*
Y-37194D01*
Y-37253D01*
Y-37350D01*
X-174876Y-37486D01*
X-174838Y-37758D01*
X-174740Y-38050D01*
Y-38069D01*
X-174701Y-38108D01*
X-174663Y-38166D01*
X-174604Y-38244D01*
X-174429Y-38419D01*
X-174313Y-38516D01*
X-174177Y-38594D01*
X-174157D01*
X-174118Y-38614D01*
X-174041Y-38652D01*
X-173924Y-38691D01*
X-173768Y-38730D01*
X-173593Y-38769D01*
X-173360Y-38827D01*
X-173107Y-38866D01*
X-173069D01*
X-172991Y-38886D01*
X-172855Y-38905D01*
X-172699Y-38925D01*
X-172330Y-38963D01*
X-172174Y-38983D01*
X-172019D01*
Y-40071D01*
X-182089D01*
Y-38983D01*
X-181953D01*
X-181855Y-38963D01*
X-181622Y-38944D01*
X-181350Y-38925D01*
X-181331D01*
X-181292Y-38905D01*
X-181214D01*
X-181117Y-38886D01*
X-180903Y-38827D01*
X-180689Y-38769D01*
X-180670D01*
X-180611Y-38730D01*
X-180534Y-38691D01*
X-180417Y-38633D01*
X-180203Y-38477D01*
X-180106Y-38380D01*
X-180028Y-38263D01*
Y-38244D01*
X-179989Y-38205D01*
X-179970Y-38127D01*
X-179931Y-38011D01*
X-179892Y-37894D01*
X-179873Y-37739D01*
X-179834Y-37544D01*
Y-37350D01*
Y-28582D01*
Y-28563D01*
Y-28485D01*
X-179853Y-28388D01*
X-179873Y-28252D01*
X-179892Y-28096D01*
X-179950Y-27941D01*
X-180009Y-27766D01*
X-180106Y-27610D01*
X-180125Y-27591D01*
X-180145Y-27533D01*
X-180203Y-27455D01*
X-180281Y-27358D01*
X-180475Y-27144D01*
X-180709Y-26930D01*
X-180728D01*
X-180747Y-26891D01*
X-180825Y-26852D01*
X-180903Y-26813D01*
X-181000Y-26774D01*
X-181117Y-26716D01*
X-181408Y-26619D01*
X-181428D01*
X-181486Y-26599D01*
X-181564Y-26580D01*
X-181681Y-26561D01*
X-181797Y-26522D01*
X-181953Y-26502D01*
X-182303Y-26444D01*
Y-25355D01*
X-175129Y-24967D01*
X-174896Y-25200D01*
Y-27397D01*
X-174838D01*
X-174818Y-27377D01*
X-174799Y-27338D01*
X-174740Y-27280D01*
X-174663Y-27202D01*
X-174449Y-26988D01*
X-174177Y-26716D01*
X-173846Y-26405D01*
X-173477Y-26094D01*
X-173069Y-25783D01*
X-172641Y-25511D01*
X-172621D01*
X-172583Y-25472D01*
X-172524Y-25453D01*
X-172447Y-25394D01*
X-172330Y-25355D01*
X-172213Y-25297D01*
X-171902Y-25161D01*
X-171533Y-25025D01*
X-171125Y-24928D01*
X-170697Y-24850D01*
X-170230Y-24811D01*
X-170094D01*
X-169997Y-24830D01*
D02*
G37*
G36*
X-64399Y-24753D02*
X-63971Y-24772D01*
X-63524Y-24811D01*
X-63058Y-24850D01*
X-62591Y-24908D01*
X-62533D01*
X-62474Y-24928D01*
X-62377Y-24947D01*
X-62280Y-24967D01*
X-62144Y-24986D01*
X-61852Y-25064D01*
X-61522Y-25161D01*
X-61152Y-25278D01*
X-60764Y-25433D01*
X-60394Y-25628D01*
X-60375D01*
X-60355Y-25647D01*
X-60239Y-25725D01*
X-60064Y-25841D01*
X-59850Y-26016D01*
X-59617Y-26230D01*
X-59383Y-26502D01*
X-59131Y-26813D01*
X-58917Y-27163D01*
Y-27183D01*
X-58897Y-27202D01*
X-58859Y-27261D01*
X-58820Y-27338D01*
X-58781Y-27435D01*
X-58742Y-27552D01*
X-58684Y-27708D01*
X-58625Y-27863D01*
X-58528Y-28232D01*
X-58431Y-28680D01*
X-58373Y-29185D01*
X-58353Y-29749D01*
Y-29768D01*
Y-29827D01*
Y-29924D01*
Y-30060D01*
Y-30215D01*
Y-30410D01*
Y-30643D01*
Y-30896D01*
X-58373Y-31187D01*
Y-31479D01*
Y-31829D01*
X-58392Y-32179D01*
Y-32548D01*
X-58411Y-32956D01*
X-58431Y-33792D01*
Y-33812D01*
Y-33890D01*
Y-34006D01*
Y-34162D01*
X-58450Y-34356D01*
Y-34570D01*
Y-34803D01*
Y-35037D01*
X-58470Y-35561D01*
Y-36047D01*
X-58489Y-36281D01*
Y-36494D01*
Y-36689D01*
Y-36844D01*
Y-36883D01*
Y-36961D01*
X-58470Y-37078D01*
Y-37233D01*
X-58411Y-37583D01*
X-58353Y-37758D01*
X-58295Y-37914D01*
X-58275Y-37933D01*
X-58256Y-37972D01*
X-58217Y-38050D01*
X-58139Y-38127D01*
X-58061Y-38225D01*
X-57945Y-38322D01*
X-57828Y-38419D01*
X-57673Y-38497D01*
X-57653D01*
X-57614Y-38516D01*
X-57556Y-38536D01*
X-57478Y-38555D01*
X-57362Y-38575D01*
X-57226Y-38594D01*
X-57070Y-38614D01*
X-56876Y-38633D01*
X-56545D01*
X-56390Y-38652D01*
X-55865D01*
Y-39760D01*
X-55904Y-39780D01*
X-55981Y-39799D01*
X-56117Y-39858D01*
X-56312Y-39935D01*
X-56545Y-40013D01*
X-56798Y-40110D01*
X-57109Y-40188D01*
X-57439Y-40285D01*
X-57478D01*
X-57595Y-40324D01*
X-57770Y-40363D01*
X-58003Y-40402D01*
X-58295Y-40441D01*
X-58625Y-40480D01*
X-58975Y-40499D01*
X-59345Y-40519D01*
X-59636D01*
X-59792Y-40499D01*
X-59967Y-40480D01*
X-60375Y-40441D01*
X-60803Y-40383D01*
X-61250Y-40285D01*
X-61677Y-40149D01*
X-61872Y-40071D01*
X-62047Y-39974D01*
X-62086Y-39955D01*
X-62183Y-39877D01*
X-62338Y-39741D01*
X-62513Y-39566D01*
X-62727Y-39352D01*
X-62922Y-39080D01*
X-63096Y-38769D01*
X-63233Y-38400D01*
X-63310D01*
X-63330Y-38419D01*
X-63407Y-38477D01*
X-63505Y-38594D01*
X-63641Y-38711D01*
X-63796Y-38847D01*
X-63952Y-39002D01*
X-64321Y-39294D01*
X-64341Y-39313D01*
X-64399Y-39352D01*
X-64496Y-39410D01*
X-64613Y-39508D01*
X-64768Y-39586D01*
X-64943Y-39702D01*
X-65332Y-39897D01*
X-65371Y-39916D01*
X-65449Y-39955D01*
X-65585Y-40013D01*
X-65760Y-40071D01*
X-65974Y-40149D01*
X-66207Y-40227D01*
X-66693Y-40383D01*
X-66732D01*
X-66809Y-40402D01*
X-66965Y-40441D01*
X-67159Y-40460D01*
X-67432Y-40499D01*
X-67743Y-40538D01*
X-68112Y-40558D01*
X-68695D01*
X-68812Y-40538D01*
X-68967Y-40519D01*
X-69142Y-40499D01*
X-69337Y-40480D01*
X-69551Y-40421D01*
X-70017Y-40305D01*
X-70523Y-40130D01*
X-70775Y-40013D01*
X-71028Y-39858D01*
X-71281Y-39702D01*
X-71514Y-39527D01*
X-71533Y-39508D01*
X-71572Y-39488D01*
X-71631Y-39430D01*
X-71708Y-39333D01*
X-71806Y-39236D01*
X-71903Y-39119D01*
X-72019Y-38963D01*
X-72117Y-38808D01*
X-72233Y-38614D01*
X-72350Y-38400D01*
X-72544Y-37953D01*
X-72622Y-37680D01*
X-72680Y-37408D01*
X-72719Y-37117D01*
X-72739Y-36805D01*
Y-36786D01*
Y-36767D01*
Y-36650D01*
X-72719Y-36456D01*
X-72700Y-36242D01*
X-72680Y-35970D01*
X-72622Y-35697D01*
X-72564Y-35425D01*
X-72486Y-35153D01*
X-72467Y-35114D01*
X-72428Y-35037D01*
X-72369Y-34900D01*
X-72292Y-34745D01*
X-72175Y-34550D01*
X-72039Y-34337D01*
X-71883Y-34123D01*
X-71708Y-33928D01*
X-71689Y-33909D01*
X-71631Y-33851D01*
X-71533Y-33753D01*
X-71417Y-33637D01*
X-71261Y-33520D01*
X-71067Y-33384D01*
X-70872Y-33248D01*
X-70659Y-33131D01*
X-70639Y-33112D01*
X-70561Y-33073D01*
X-70425Y-33015D01*
X-70270Y-32937D01*
X-70075Y-32859D01*
X-69862Y-32762D01*
X-69609Y-32645D01*
X-69356Y-32548D01*
X-69337D01*
X-69298Y-32529D01*
X-69220Y-32490D01*
X-69123Y-32451D01*
X-68987Y-32412D01*
X-68831Y-32354D01*
X-68637Y-32296D01*
X-68442Y-32237D01*
X-68209Y-32159D01*
X-67957Y-32082D01*
X-67704Y-31984D01*
X-67412Y-31907D01*
X-66790Y-31712D01*
X-66110Y-31518D01*
X-66090D01*
X-66032Y-31498D01*
X-65935Y-31460D01*
X-65799Y-31421D01*
X-65643Y-31382D01*
X-65468Y-31324D01*
X-65040Y-31187D01*
X-64593Y-31032D01*
X-64127Y-30876D01*
X-63680Y-30701D01*
X-63485Y-30624D01*
X-63310Y-30546D01*
Y-29107D01*
Y-29088D01*
Y-29049D01*
Y-28952D01*
Y-28855D01*
X-63330Y-28699D01*
X-63349Y-28543D01*
X-63369Y-28349D01*
X-63388Y-28135D01*
Y-28116D01*
X-63407Y-28038D01*
Y-27922D01*
X-63446Y-27766D01*
X-63466Y-27610D01*
X-63524Y-27435D01*
X-63641Y-27086D01*
Y-27066D01*
X-63680Y-27008D01*
X-63738Y-26911D01*
X-63796Y-26794D01*
X-63894Y-26677D01*
X-64010Y-26541D01*
X-64146Y-26405D01*
X-64302Y-26269D01*
X-64321Y-26250D01*
X-64380Y-26211D01*
X-64477Y-26172D01*
X-64613Y-26094D01*
X-64788Y-26036D01*
X-64982Y-25997D01*
X-65215Y-25958D01*
X-65488Y-25939D01*
X-65721D01*
X-65876Y-25958D01*
X-66071Y-25978D01*
X-66246Y-26016D01*
X-66440Y-26075D01*
X-66615Y-26133D01*
X-66635D01*
X-66693Y-26172D01*
X-66771Y-26211D01*
X-66868Y-26250D01*
X-67101Y-26386D01*
X-67334Y-26522D01*
Y-26541D01*
X-67315Y-26580D01*
X-67295Y-26638D01*
X-67276Y-26736D01*
X-67237Y-26872D01*
X-67198Y-27027D01*
X-67140Y-27222D01*
X-67062Y-27435D01*
X-67043Y-27455D01*
X-67023Y-27533D01*
X-66984Y-27669D01*
X-66946Y-27824D01*
X-66907Y-27999D01*
X-66887Y-28194D01*
X-66848Y-28407D01*
Y-28621D01*
Y-28641D01*
Y-28660D01*
Y-28719D01*
X-66868Y-28796D01*
X-66907Y-28991D01*
X-66984Y-29263D01*
Y-29282D01*
X-67004Y-29321D01*
X-67043Y-29399D01*
X-67082Y-29477D01*
X-67218Y-29671D01*
X-67393Y-29866D01*
X-67412Y-29885D01*
X-67451Y-29924D01*
X-67529Y-29963D01*
X-67626Y-30040D01*
X-67743Y-30118D01*
X-67859Y-30196D01*
X-68170Y-30332D01*
X-68190D01*
X-68248Y-30351D01*
X-68345Y-30371D01*
X-68501Y-30410D01*
X-68676Y-30429D01*
X-68909Y-30468D01*
X-69181Y-30487D01*
X-69609D01*
X-69706Y-30468D01*
X-69920Y-30449D01*
X-70211Y-30410D01*
X-70503Y-30332D01*
X-70834Y-30235D01*
X-71125Y-30079D01*
X-71397Y-29885D01*
X-71417Y-29866D01*
X-71495Y-29768D01*
X-71592Y-29652D01*
X-71708Y-29457D01*
X-71845Y-29243D01*
X-71942Y-28971D01*
X-72019Y-28660D01*
X-72039Y-28310D01*
Y-28291D01*
Y-28271D01*
X-72019Y-28174D01*
X-72000Y-27999D01*
X-71961Y-27805D01*
X-71883Y-27572D01*
X-71767Y-27299D01*
X-71592Y-27047D01*
X-71378Y-26794D01*
X-71339Y-26755D01*
X-71261Y-26677D01*
X-71125Y-26561D01*
X-70931Y-26405D01*
X-70697Y-26230D01*
X-70406Y-26055D01*
X-70095Y-25861D01*
X-69745Y-25686D01*
X-69726D01*
X-69706Y-25666D01*
X-69648Y-25647D01*
X-69570Y-25608D01*
X-69376Y-25530D01*
X-69123Y-25433D01*
X-68792Y-25317D01*
X-68423Y-25200D01*
X-68015Y-25083D01*
X-67568Y-24986D01*
X-67548D01*
X-67509Y-24967D01*
X-67451D01*
X-67354Y-24947D01*
X-67237Y-24928D01*
X-67121Y-24908D01*
X-66809Y-24850D01*
X-66460Y-24811D01*
X-66071Y-24772D01*
X-65682Y-24753D01*
X-65274Y-24733D01*
X-64749D01*
X-64399Y-24753D01*
D02*
G37*
G36*
X-106992Y-18163D02*
X-106778D01*
X-106525Y-18182D01*
X-106253Y-18202D01*
X-105942Y-18240D01*
X-105612Y-18279D01*
X-105262Y-18338D01*
X-104504Y-18474D01*
X-103707Y-18668D01*
X-102910Y-18940D01*
X-102890D01*
X-102812Y-18979D01*
X-102696Y-19018D01*
X-102560Y-19076D01*
X-102385Y-19154D01*
X-102171Y-19251D01*
X-101918Y-19368D01*
X-101665Y-19504D01*
X-101102Y-19815D01*
X-100499Y-20184D01*
X-99877Y-20612D01*
X-99274Y-21117D01*
X-99255Y-21137D01*
X-99197Y-21176D01*
X-99119Y-21254D01*
X-99022Y-21370D01*
X-98886Y-21506D01*
X-98730Y-21681D01*
X-98555Y-21876D01*
X-98361Y-22090D01*
X-98166Y-22342D01*
X-97972Y-22595D01*
X-97758Y-22886D01*
X-97544Y-23198D01*
X-97136Y-23858D01*
X-96767Y-24597D01*
X-96747Y-24617D01*
X-96728Y-24694D01*
X-96689Y-24811D01*
X-96611Y-24947D01*
X-96553Y-25142D01*
X-96475Y-25375D01*
X-96378Y-25647D01*
X-96300Y-25939D01*
X-96203Y-26269D01*
X-96125Y-26638D01*
X-96047Y-27008D01*
X-95969Y-27435D01*
X-95911Y-27863D01*
X-95872Y-28310D01*
X-95853Y-28777D01*
X-95833Y-29263D01*
Y-29282D01*
Y-29302D01*
Y-29360D01*
Y-29418D01*
X-95853Y-29632D01*
Y-29885D01*
X-95892Y-30215D01*
X-95931Y-30585D01*
X-95989Y-31012D01*
X-96067Y-31479D01*
X-96164Y-31965D01*
X-96281Y-32490D01*
X-96436Y-33034D01*
X-96611Y-33579D01*
X-96825Y-34142D01*
X-97078Y-34706D01*
X-97369Y-35250D01*
X-97700Y-35795D01*
X-97719Y-35834D01*
X-97777Y-35911D01*
X-97894Y-36067D01*
X-98050Y-36242D01*
X-98244Y-36475D01*
X-98477Y-36747D01*
X-98749Y-37039D01*
X-99060Y-37350D01*
X-99410Y-37680D01*
X-99799Y-38011D01*
X-100227Y-38341D01*
X-100693Y-38672D01*
X-101199Y-39002D01*
X-101743Y-39313D01*
X-102326Y-39586D01*
X-102948Y-39838D01*
Y-39858D01*
Y-39916D01*
X-102929Y-40013D01*
Y-40130D01*
X-102910Y-40285D01*
X-102890Y-40460D01*
X-102851Y-40674D01*
X-102793Y-40888D01*
X-102676Y-41374D01*
X-102482Y-41879D01*
X-102365Y-42151D01*
X-102229Y-42404D01*
X-102054Y-42657D01*
X-101879Y-42910D01*
X-101860Y-42929D01*
X-101840Y-42968D01*
X-101782Y-43026D01*
X-101685Y-43124D01*
X-101588Y-43221D01*
X-101471Y-43318D01*
X-101179Y-43571D01*
X-100810Y-43804D01*
X-100402Y-44018D01*
X-100169Y-44115D01*
X-99935Y-44173D01*
X-99683Y-44212D01*
X-99430Y-44232D01*
X-99119D01*
X-98905Y-44212D01*
X-98672D01*
X-98419Y-44173D01*
X-98166Y-44154D01*
X-97913Y-44115D01*
X-97875D01*
X-97797Y-44096D01*
X-97680Y-44076D01*
X-97505Y-44057D01*
X-97330Y-44018D01*
X-97117Y-43979D01*
X-96708Y-43882D01*
Y-45204D01*
X-96747Y-45223D01*
X-96805Y-45243D01*
X-96864Y-45262D01*
X-96961Y-45301D01*
X-97078Y-45340D01*
X-97214Y-45379D01*
X-97350Y-45417D01*
X-97525Y-45476D01*
X-97719Y-45534D01*
X-97933Y-45592D01*
X-98166Y-45651D01*
X-98400Y-45709D01*
X-98672Y-45787D01*
X-99274Y-45923D01*
X-99294D01*
X-99352Y-45942D01*
X-99449Y-45962D01*
X-99566Y-45981D01*
X-99721Y-46020D01*
X-99896Y-46040D01*
X-100110Y-46078D01*
X-100344Y-46117D01*
X-100596Y-46156D01*
X-100868Y-46195D01*
X-101471Y-46253D01*
X-102113Y-46292D01*
X-102793Y-46312D01*
X-102910D01*
X-103046Y-46292D01*
X-103221D01*
X-103435Y-46273D01*
X-103687Y-46234D01*
X-103959Y-46176D01*
X-104251Y-46117D01*
X-104581Y-46040D01*
X-104912Y-45942D01*
X-105262Y-45826D01*
X-105612Y-45670D01*
X-105962Y-45495D01*
X-106312Y-45301D01*
X-106642Y-45068D01*
X-106953Y-44795D01*
X-106973Y-44776D01*
X-107031Y-44718D01*
X-107109Y-44640D01*
X-107206Y-44523D01*
X-107342Y-44368D01*
X-107478Y-44173D01*
X-107633Y-43960D01*
X-107789Y-43707D01*
X-107945Y-43415D01*
X-108100Y-43104D01*
X-108256Y-42754D01*
X-108392Y-42385D01*
X-108528Y-41977D01*
X-108625Y-41530D01*
X-108703Y-41063D01*
X-108761Y-40577D01*
X-108781D01*
X-108858Y-40558D01*
X-108975D01*
X-109130Y-40538D01*
X-109325Y-40499D01*
X-109539Y-40460D01*
X-109791Y-40421D01*
X-110064Y-40363D01*
X-110375Y-40305D01*
X-110686Y-40227D01*
X-111347Y-40052D01*
X-112046Y-39819D01*
X-112746Y-39527D01*
X-112766Y-39508D01*
X-112824Y-39488D01*
X-112921Y-39449D01*
X-113057Y-39372D01*
X-113213Y-39294D01*
X-113407Y-39197D01*
X-113602Y-39061D01*
X-113835Y-38925D01*
X-114340Y-38614D01*
X-114885Y-38225D01*
X-115429Y-37778D01*
X-115973Y-37272D01*
X-115993Y-37253D01*
X-116032Y-37214D01*
X-116109Y-37136D01*
X-116207Y-37019D01*
X-116323Y-36883D01*
X-116459Y-36728D01*
X-116595Y-36533D01*
X-116770Y-36320D01*
X-116926Y-36086D01*
X-117120Y-35834D01*
X-117295Y-35542D01*
X-117470Y-35250D01*
X-117820Y-34609D01*
X-118151Y-33909D01*
Y-33890D01*
X-118189Y-33812D01*
X-118228Y-33715D01*
X-118267Y-33559D01*
X-118325Y-33384D01*
X-118403Y-33170D01*
X-118481Y-32917D01*
X-118539Y-32645D01*
X-118617Y-32334D01*
X-118695Y-32004D01*
X-118753Y-31654D01*
X-118831Y-31285D01*
X-118909Y-30487D01*
X-118948Y-29632D01*
Y-29593D01*
Y-29516D01*
Y-29379D01*
X-118928Y-29185D01*
Y-28971D01*
X-118909Y-28699D01*
X-118870Y-28388D01*
X-118831Y-28058D01*
X-118792Y-27708D01*
X-118734Y-27338D01*
X-118578Y-26541D01*
X-118345Y-25725D01*
X-118209Y-25317D01*
X-118053Y-24908D01*
X-118034Y-24889D01*
X-118015Y-24811D01*
X-117956Y-24694D01*
X-117898Y-24558D01*
X-117801Y-24364D01*
X-117684Y-24150D01*
X-117567Y-23917D01*
X-117412Y-23645D01*
X-117062Y-23081D01*
X-116634Y-22459D01*
X-116148Y-21837D01*
X-115604Y-21254D01*
X-115585Y-21234D01*
X-115526Y-21195D01*
X-115448Y-21117D01*
X-115332Y-21001D01*
X-115176Y-20884D01*
X-115001Y-20729D01*
X-114787Y-20573D01*
X-114554Y-20398D01*
X-114301Y-20223D01*
X-114029Y-20029D01*
X-113718Y-19854D01*
X-113388Y-19659D01*
X-112688Y-19290D01*
X-111930Y-18960D01*
X-111910Y-18940D01*
X-111833Y-18921D01*
X-111716Y-18882D01*
X-111560Y-18824D01*
X-111366Y-18765D01*
X-111133Y-18707D01*
X-110861Y-18629D01*
X-110569Y-18551D01*
X-110239Y-18474D01*
X-109889Y-18396D01*
X-109519Y-18338D01*
X-109111Y-18279D01*
X-108275Y-18182D01*
X-107400Y-18143D01*
X-107167D01*
X-106992Y-18163D01*
D02*
G37*
G36*
X-76743Y-25200D02*
Y-36825D01*
Y-36844D01*
Y-36903D01*
X-76724Y-37019D01*
Y-37136D01*
X-76666Y-37428D01*
X-76549Y-37719D01*
X-76530Y-37739D01*
X-76510Y-37778D01*
X-76452Y-37855D01*
X-76393Y-37933D01*
X-76199Y-38127D01*
X-75927Y-38341D01*
X-75907D01*
X-75869Y-38380D01*
X-75810Y-38400D01*
X-75732Y-38438D01*
X-75635Y-38497D01*
X-75499Y-38536D01*
X-75208Y-38614D01*
X-75130D01*
X-75033Y-38633D01*
X-74916D01*
X-74780Y-38652D01*
X-74624D01*
X-74274Y-38672D01*
Y-39760D01*
X-81448Y-40188D01*
X-81662Y-39994D01*
Y-38011D01*
X-81759D01*
X-81778Y-38030D01*
X-81837Y-38089D01*
X-81953Y-38186D01*
X-82070Y-38302D01*
X-82225Y-38438D01*
X-82400Y-38594D01*
X-82770Y-38925D01*
X-82789Y-38944D01*
X-82847Y-39002D01*
X-82964Y-39080D01*
X-83100Y-39197D01*
X-83275Y-39313D01*
X-83470Y-39449D01*
X-83683Y-39586D01*
X-83936Y-39722D01*
X-83975Y-39741D01*
X-84072Y-39780D01*
X-84208Y-39858D01*
X-84403Y-39935D01*
X-84617Y-40033D01*
X-84869Y-40130D01*
X-85394Y-40305D01*
X-85433D01*
X-85511Y-40344D01*
X-85686Y-40363D01*
X-85900Y-40402D01*
X-86172Y-40441D01*
X-86522Y-40480D01*
X-86910Y-40499D01*
X-87377Y-40519D01*
X-87591D01*
X-87746Y-40499D01*
X-87941Y-40480D01*
X-88155Y-40441D01*
X-88407Y-40402D01*
X-88660Y-40344D01*
X-88932Y-40285D01*
X-89224Y-40188D01*
X-89515Y-40071D01*
X-89807Y-39935D01*
X-90079Y-39780D01*
X-90351Y-39605D01*
X-90623Y-39391D01*
X-90857Y-39158D01*
X-90876Y-39138D01*
X-90915Y-39099D01*
X-90973Y-39022D01*
X-91051Y-38905D01*
X-91129Y-38769D01*
X-91246Y-38594D01*
X-91343Y-38400D01*
X-91459Y-38166D01*
X-91576Y-37894D01*
X-91673Y-37622D01*
X-91790Y-37292D01*
X-91868Y-36942D01*
X-91945Y-36572D01*
X-92004Y-36184D01*
X-92043Y-35736D01*
X-92062Y-35289D01*
Y-28524D01*
Y-28505D01*
Y-28427D01*
X-92081Y-28310D01*
Y-28174D01*
X-92159Y-27863D01*
X-92218Y-27708D01*
X-92295Y-27552D01*
X-92315Y-27533D01*
X-92334Y-27494D01*
X-92393Y-27416D01*
X-92451Y-27338D01*
X-92645Y-27124D01*
X-92898Y-26911D01*
X-92917Y-26891D01*
X-92956Y-26872D01*
X-93015Y-26833D01*
X-93112Y-26774D01*
X-93209Y-26736D01*
X-93345Y-26677D01*
X-93501Y-26619D01*
X-93676Y-26580D01*
X-93695D01*
X-93753Y-26561D01*
X-93851Y-26541D01*
X-93948Y-26522D01*
X-94239Y-26483D01*
X-94531Y-26444D01*
Y-25355D01*
X-87280Y-24967D01*
X-87105Y-25200D01*
Y-35212D01*
Y-35231D01*
Y-35270D01*
Y-35367D01*
X-87085Y-35464D01*
Y-35600D01*
X-87066Y-35736D01*
X-87027Y-36086D01*
X-86969Y-36456D01*
X-86852Y-36825D01*
X-86716Y-37194D01*
X-86522Y-37505D01*
X-86502Y-37544D01*
X-86405Y-37622D01*
X-86269Y-37739D01*
X-86094Y-37855D01*
X-85861Y-37991D01*
X-85569Y-38108D01*
X-85258Y-38186D01*
X-84889Y-38225D01*
X-84714D01*
X-84500Y-38186D01*
X-84247Y-38147D01*
X-83936Y-38089D01*
X-83625Y-37991D01*
X-83295Y-37855D01*
X-82964Y-37680D01*
X-82945D01*
X-82925Y-37661D01*
X-82828Y-37583D01*
X-82673Y-37466D01*
X-82478Y-37311D01*
X-82284Y-37136D01*
X-82070Y-36942D01*
X-81875Y-36728D01*
X-81701Y-36494D01*
Y-28369D01*
Y-28349D01*
Y-28291D01*
X-81720Y-28194D01*
Y-28058D01*
X-81798Y-27766D01*
X-81837Y-27610D01*
X-81914Y-27455D01*
Y-27435D01*
X-81953Y-27377D01*
X-81992Y-27319D01*
X-82051Y-27222D01*
X-82225Y-27008D01*
X-82478Y-26794D01*
X-82498D01*
X-82537Y-26755D01*
X-82595Y-26736D01*
X-82673Y-26697D01*
X-82789Y-26638D01*
X-82925Y-26599D01*
X-83081Y-26561D01*
X-83256Y-26541D01*
X-83275D01*
X-83333Y-26522D01*
X-83431D01*
X-83567Y-26502D01*
X-83722Y-26483D01*
X-83878D01*
X-84267Y-26444D01*
Y-25355D01*
X-76977Y-24967D01*
X-76743Y-25200D01*
D02*
G37*
G36*
X-158858D02*
Y-37156D01*
Y-37175D01*
Y-37233D01*
X-158838Y-37350D01*
Y-37466D01*
X-158761Y-37758D01*
X-158722Y-37914D01*
X-158644Y-38050D01*
X-158625Y-38069D01*
X-158605Y-38108D01*
X-158547Y-38166D01*
X-158469Y-38263D01*
X-158372Y-38341D01*
X-158275Y-38438D01*
X-157983Y-38594D01*
X-157964D01*
X-157925Y-38614D01*
X-157867Y-38633D01*
X-157789Y-38672D01*
X-157594Y-38750D01*
X-157342Y-38847D01*
X-157322D01*
X-157283Y-38866D01*
X-157205Y-38886D01*
X-157108Y-38905D01*
X-156856Y-38944D01*
X-156564Y-38983D01*
Y-40071D01*
X-166090D01*
Y-38983D01*
X-165954D01*
X-165856Y-38963D01*
X-165604Y-38944D01*
X-165331Y-38925D01*
X-165312D01*
X-165273Y-38905D01*
X-165195D01*
X-165098Y-38886D01*
X-164904Y-38827D01*
X-164690Y-38769D01*
X-164671D01*
X-164612Y-38730D01*
X-164534Y-38691D01*
X-164418Y-38633D01*
X-164204Y-38477D01*
X-164087Y-38380D01*
X-164009Y-38263D01*
X-163990Y-38244D01*
X-163971Y-38205D01*
X-163932Y-38127D01*
X-163893Y-38011D01*
X-163854Y-37894D01*
X-163835Y-37739D01*
X-163796Y-37544D01*
Y-37350D01*
Y-28582D01*
Y-28563D01*
Y-28485D01*
X-163815Y-28388D01*
X-163835Y-28271D01*
X-163893Y-27980D01*
X-163971Y-27824D01*
X-164048Y-27669D01*
X-164068Y-27649D01*
X-164087Y-27591D01*
X-164146Y-27533D01*
X-164204Y-27435D01*
X-164398Y-27222D01*
X-164651Y-27008D01*
X-164671D01*
X-164709Y-26969D01*
X-164768Y-26950D01*
X-164845Y-26891D01*
X-164962Y-26852D01*
X-165118Y-26794D01*
X-165273Y-26736D01*
X-165468Y-26677D01*
X-165487D01*
X-165565Y-26658D01*
X-165662Y-26619D01*
X-165798Y-26580D01*
X-165954Y-26541D01*
X-166109Y-26502D01*
X-166459Y-26444D01*
Y-25355D01*
X-159091Y-24967D01*
X-158858Y-25200D01*
D02*
G37*
G36*
X-80683Y-487278D02*
X-80516Y-487295D01*
X-80317Y-487328D01*
X-80083Y-487361D01*
X-79850Y-487411D01*
X-79600Y-487478D01*
X-79334Y-487561D01*
X-79084Y-487645D01*
X-78817Y-487761D01*
X-78567Y-487911D01*
X-78317Y-488061D01*
X-78084Y-488244D01*
X-77884Y-488461D01*
X-77868Y-488478D01*
X-77834Y-488511D01*
X-77784Y-488578D01*
X-77718Y-488678D01*
X-77634Y-488794D01*
X-77551Y-488944D01*
X-77451Y-489111D01*
X-77351Y-489311D01*
X-77251Y-489527D01*
X-77151Y-489761D01*
X-77068Y-490027D01*
X-76985Y-490294D01*
X-76918Y-490610D01*
X-76868Y-490927D01*
X-76835Y-491260D01*
X-76818Y-491627D01*
Y-497957D01*
Y-497974D01*
Y-498041D01*
Y-498124D01*
X-76801Y-498241D01*
X-76768Y-498490D01*
X-76735Y-498607D01*
X-76685Y-498724D01*
Y-498740D01*
X-76651Y-498774D01*
X-76618Y-498824D01*
X-76568Y-498890D01*
X-76485Y-498957D01*
X-76402Y-499040D01*
X-76285Y-499107D01*
X-76152Y-499173D01*
X-76135D01*
X-76118Y-499190D01*
X-76018Y-499223D01*
X-75852Y-499290D01*
X-75652Y-499357D01*
X-75635D01*
X-75602Y-499373D01*
X-75535Y-499390D01*
X-75452Y-499407D01*
X-75352Y-499423D01*
X-75235Y-499440D01*
X-74952Y-499473D01*
Y-500406D01*
X-82682D01*
Y-499473D01*
X-82582D01*
X-82516Y-499457D01*
X-82332Y-499440D01*
X-82099Y-499423D01*
X-82082D01*
X-82049Y-499407D01*
X-81983D01*
X-81899Y-499390D01*
X-81733Y-499340D01*
X-81649Y-499323D01*
X-81583Y-499290D01*
X-81566D01*
X-81533Y-499257D01*
X-81433Y-499173D01*
X-81300Y-499057D01*
X-81183Y-498874D01*
Y-498857D01*
X-81166Y-498824D01*
X-81150Y-498757D01*
X-81116Y-498674D01*
X-81100Y-498557D01*
X-81083Y-498424D01*
X-81066Y-498257D01*
Y-498074D01*
Y-492026D01*
Y-492010D01*
Y-491960D01*
Y-491893D01*
Y-491810D01*
X-81083Y-491693D01*
X-81100Y-491576D01*
X-81133Y-491277D01*
X-81183Y-490960D01*
X-81283Y-490627D01*
X-81400Y-490327D01*
X-81566Y-490044D01*
X-81583Y-490010D01*
X-81649Y-489944D01*
X-81766Y-489827D01*
X-81916Y-489711D01*
X-82116Y-489594D01*
X-82366Y-489477D01*
X-82649Y-489411D01*
X-82982Y-489377D01*
X-83165D01*
X-83299Y-489394D01*
X-83449Y-489411D01*
X-83615Y-489444D01*
X-83948Y-489544D01*
X-83965D01*
X-84032Y-489577D01*
X-84115Y-489611D01*
X-84232Y-489661D01*
X-84365Y-489727D01*
X-84515Y-489794D01*
X-84831Y-489994D01*
X-84848Y-490010D01*
X-84898Y-490044D01*
X-84965Y-490094D01*
X-85048Y-490160D01*
X-85231Y-490327D01*
X-85431Y-490527D01*
X-85448Y-490544D01*
X-85465Y-490577D01*
X-85514Y-490627D01*
X-85565Y-490677D01*
X-85681Y-490843D01*
X-85798Y-490993D01*
Y-497924D01*
Y-497941D01*
Y-498007D01*
Y-498091D01*
X-85781Y-498190D01*
X-85748Y-498440D01*
X-85681Y-498690D01*
Y-498707D01*
X-85648Y-498740D01*
X-85615Y-498790D01*
X-85581Y-498857D01*
X-85448Y-499007D01*
X-85248Y-499140D01*
X-85231D01*
X-85215Y-499157D01*
X-85165Y-499173D01*
X-85115Y-499207D01*
X-84948Y-499273D01*
X-84732Y-499357D01*
X-84715D01*
X-84681Y-499373D01*
X-84615Y-499390D01*
X-84532Y-499407D01*
X-84332Y-499440D01*
X-84115Y-499473D01*
Y-500406D01*
X-91962D01*
Y-499473D01*
X-91845D01*
X-91762Y-499457D01*
X-91562Y-499440D01*
X-91329Y-499423D01*
X-91312D01*
X-91279Y-499407D01*
X-91212D01*
X-91129Y-499390D01*
X-90946Y-499340D01*
X-90762Y-499290D01*
X-90746D01*
X-90696Y-499257D01*
X-90629Y-499223D01*
X-90529Y-499173D01*
X-90346Y-499040D01*
X-90263Y-498957D01*
X-90196Y-498857D01*
Y-498840D01*
X-90163Y-498807D01*
X-90146Y-498740D01*
X-90113Y-498640D01*
X-90079Y-498540D01*
X-90063Y-498407D01*
X-90029Y-498241D01*
Y-498074D01*
Y-490560D01*
Y-490544D01*
Y-490494D01*
X-90046Y-490410D01*
X-90063Y-490310D01*
X-90079Y-490194D01*
X-90113Y-490060D01*
X-90179Y-489927D01*
X-90246Y-489777D01*
X-90263Y-489761D01*
X-90279Y-489711D01*
X-90329Y-489644D01*
X-90379Y-489544D01*
X-90562Y-489344D01*
X-90779Y-489144D01*
X-90796D01*
X-90812Y-489111D01*
X-90879Y-489078D01*
X-90946Y-489044D01*
X-91029Y-489011D01*
X-91129Y-488961D01*
X-91379Y-488878D01*
X-91395D01*
X-91445Y-488861D01*
X-91512Y-488844D01*
X-91612Y-488828D01*
X-91712Y-488794D01*
X-91845Y-488778D01*
X-92145Y-488728D01*
Y-487795D01*
X-85998Y-487462D01*
X-85798Y-487661D01*
Y-489527D01*
X-85748D01*
X-85731Y-489511D01*
X-85681Y-489477D01*
X-85615Y-489411D01*
X-85514Y-489311D01*
X-85381Y-489194D01*
X-85231Y-489078D01*
X-85065Y-488928D01*
X-84881Y-488761D01*
X-84865Y-488744D01*
X-84798Y-488678D01*
X-84698Y-488594D01*
X-84565Y-488494D01*
X-84415Y-488378D01*
X-84265Y-488244D01*
X-84098Y-488128D01*
X-83932Y-488011D01*
X-83915Y-487995D01*
X-83849Y-487961D01*
X-83732Y-487911D01*
X-83599Y-487828D01*
X-83415Y-487745D01*
X-83199Y-487661D01*
X-82949Y-487578D01*
X-82682Y-487495D01*
X-82666D01*
X-82649Y-487478D01*
X-82549Y-487462D01*
X-82382Y-487428D01*
X-82183Y-487378D01*
X-81933Y-487328D01*
X-81649Y-487295D01*
X-81349Y-487278D01*
X-81033Y-487262D01*
X-80833D01*
X-80683Y-487278D01*
D02*
G37*
G36*
X-110421Y-487345D02*
X-110321D01*
X-110205Y-487361D01*
X-109921Y-487428D01*
X-109622Y-487511D01*
X-109305Y-487645D01*
X-108988Y-487828D01*
X-108838Y-487945D01*
X-108689Y-488078D01*
X-108672D01*
X-108655Y-488111D01*
X-108572Y-488211D01*
X-108455Y-488378D01*
X-108322Y-488594D01*
X-108189Y-488861D01*
X-108072Y-489194D01*
X-107989Y-489577D01*
X-107956Y-489777D01*
Y-489994D01*
Y-490010D01*
Y-490044D01*
Y-490094D01*
X-107972Y-490160D01*
X-107989Y-490344D01*
X-108039Y-490577D01*
X-108106Y-490843D01*
X-108222Y-491127D01*
X-108372Y-491427D01*
X-108572Y-491710D01*
X-108605Y-491743D01*
X-108689Y-491826D01*
X-108822Y-491943D01*
X-108988Y-492076D01*
X-109222Y-492210D01*
X-109505Y-492326D01*
X-109821Y-492410D01*
X-109988Y-492426D01*
X-110171Y-492443D01*
X-110321D01*
X-110504Y-492410D01*
X-110721Y-492376D01*
X-110971Y-492326D01*
X-111238Y-492243D01*
X-111504Y-492126D01*
X-111754Y-491976D01*
X-111787Y-491960D01*
X-111854Y-491893D01*
X-111954Y-491776D01*
X-112071Y-491627D01*
X-112204Y-491427D01*
X-112304Y-491193D01*
X-112370Y-490910D01*
X-112404Y-490577D01*
Y-490560D01*
Y-490510D01*
Y-490427D01*
Y-490327D01*
X-112387Y-490094D01*
X-112370Y-489994D01*
X-112354Y-489894D01*
Y-489877D01*
X-112337Y-489844D01*
Y-489794D01*
X-112320Y-489744D01*
X-112270Y-489577D01*
X-112237Y-489411D01*
X-112270D01*
X-112337Y-489427D01*
X-112454Y-489444D01*
X-112604Y-489477D01*
X-112804Y-489527D01*
X-113004Y-489594D01*
X-113237Y-489694D01*
X-113487Y-489827D01*
X-113520Y-489844D01*
X-113603Y-489894D01*
X-113720Y-489977D01*
X-113870Y-490094D01*
X-114053Y-490244D01*
X-114236Y-490410D01*
X-114436Y-490610D01*
X-114620Y-490843D01*
Y-497924D01*
Y-497941D01*
Y-497991D01*
Y-498074D01*
X-114603Y-498190D01*
X-114569Y-498424D01*
X-114486Y-498674D01*
Y-498690D01*
X-114453Y-498724D01*
X-114420Y-498774D01*
X-114370Y-498840D01*
X-114220Y-498990D01*
X-114120Y-499074D01*
X-114003Y-499140D01*
X-113986D01*
X-113953Y-499157D01*
X-113886Y-499190D01*
X-113786Y-499223D01*
X-113653Y-499257D01*
X-113503Y-499290D01*
X-113303Y-499340D01*
X-113087Y-499373D01*
X-113054D01*
X-112987Y-499390D01*
X-112870Y-499407D01*
X-112737Y-499423D01*
X-112420Y-499457D01*
X-112287Y-499473D01*
X-112154D01*
Y-500406D01*
X-120784D01*
Y-499473D01*
X-120667D01*
X-120584Y-499457D01*
X-120384Y-499440D01*
X-120151Y-499423D01*
X-120134D01*
X-120101Y-499407D01*
X-120034D01*
X-119951Y-499390D01*
X-119767Y-499340D01*
X-119584Y-499290D01*
X-119568D01*
X-119518Y-499257D01*
X-119451Y-499223D01*
X-119351Y-499173D01*
X-119168Y-499040D01*
X-119084Y-498957D01*
X-119018Y-498857D01*
Y-498840D01*
X-118984Y-498807D01*
X-118968Y-498740D01*
X-118935Y-498640D01*
X-118901Y-498540D01*
X-118885Y-498407D01*
X-118851Y-498241D01*
Y-498074D01*
Y-490560D01*
Y-490544D01*
Y-490477D01*
X-118868Y-490394D01*
X-118885Y-490277D01*
X-118901Y-490144D01*
X-118951Y-490010D01*
X-119001Y-489860D01*
X-119084Y-489727D01*
X-119101Y-489711D01*
X-119118Y-489661D01*
X-119168Y-489594D01*
X-119234Y-489511D01*
X-119401Y-489327D01*
X-119601Y-489144D01*
X-119617D01*
X-119634Y-489111D01*
X-119701Y-489078D01*
X-119767Y-489044D01*
X-119851Y-489011D01*
X-119951Y-488961D01*
X-120201Y-488878D01*
X-120217D01*
X-120267Y-488861D01*
X-120334Y-488844D01*
X-120434Y-488828D01*
X-120534Y-488794D01*
X-120667Y-488778D01*
X-120967Y-488728D01*
Y-487795D01*
X-114819Y-487462D01*
X-114620Y-487661D01*
Y-489544D01*
X-114569D01*
X-114553Y-489527D01*
X-114536Y-489494D01*
X-114486Y-489444D01*
X-114420Y-489377D01*
X-114236Y-489194D01*
X-114003Y-488961D01*
X-113720Y-488694D01*
X-113403Y-488428D01*
X-113054Y-488161D01*
X-112687Y-487928D01*
X-112670D01*
X-112637Y-487895D01*
X-112587Y-487878D01*
X-112520Y-487828D01*
X-112420Y-487795D01*
X-112320Y-487745D01*
X-112054Y-487628D01*
X-111737Y-487511D01*
X-111388Y-487428D01*
X-111021Y-487361D01*
X-110621Y-487328D01*
X-110504D01*
X-110421Y-487345D01*
D02*
G37*
G36*
X-121983Y-488561D02*
X-122017D01*
X-122083Y-488578D01*
X-122216Y-488611D01*
X-122366Y-488661D01*
X-122566Y-488711D01*
X-122766Y-488794D01*
X-122983Y-488878D01*
X-123216Y-488994D01*
X-123249Y-489011D01*
X-123316Y-489061D01*
X-123433Y-489127D01*
X-123583Y-489244D01*
X-123766Y-489377D01*
X-123982Y-489544D01*
X-124216Y-489761D01*
X-124449Y-489994D01*
X-124466Y-490010D01*
X-124499Y-490044D01*
X-124549Y-490094D01*
X-124616Y-490160D01*
X-124782Y-490344D01*
X-124999Y-490577D01*
X-125249Y-490827D01*
X-125482Y-491077D01*
X-125715Y-491327D01*
X-125915Y-491527D01*
X-125932Y-491543D01*
X-125998Y-491627D01*
X-126115Y-491743D01*
X-126265Y-491910D01*
X-126481Y-492126D01*
X-126731Y-492410D01*
X-127048Y-492743D01*
X-127414Y-493126D01*
Y-493143D01*
X-127381Y-493159D01*
X-127348Y-493209D01*
X-127298Y-493276D01*
X-127248Y-493376D01*
X-127164Y-493476D01*
X-127081Y-493609D01*
X-126981Y-493742D01*
X-126865Y-493909D01*
X-126748Y-494092D01*
X-126598Y-494292D01*
X-126448Y-494509D01*
X-126281Y-494759D01*
X-126115Y-495009D01*
X-125915Y-495275D01*
X-125715Y-495575D01*
X-125698Y-495592D01*
X-125665Y-495642D01*
X-125599Y-495725D01*
X-125532Y-495842D01*
X-125432Y-495975D01*
X-125315Y-496141D01*
X-125182Y-496325D01*
X-125049Y-496508D01*
X-124749Y-496941D01*
X-124416Y-497391D01*
X-124099Y-497841D01*
X-123783Y-498274D01*
X-123766Y-498290D01*
X-123716Y-498357D01*
X-123649Y-498440D01*
X-123549Y-498557D01*
X-123433Y-498674D01*
X-123299Y-498807D01*
X-123000Y-499074D01*
X-122983Y-499090D01*
X-122916Y-499123D01*
X-122816Y-499173D01*
X-122666Y-499240D01*
X-122466Y-499307D01*
X-122233Y-499373D01*
X-121950Y-499423D01*
X-121617Y-499473D01*
Y-500406D01*
X-129664D01*
Y-499473D01*
X-129563D01*
X-129447Y-499457D01*
X-129297Y-499440D01*
X-129147D01*
X-128964Y-499423D01*
X-128797Y-499390D01*
X-128631Y-499373D01*
X-128614D01*
X-128564Y-499357D01*
X-128497Y-499340D01*
X-128414Y-499307D01*
X-128331Y-499273D01*
X-128264Y-499223D01*
X-128214Y-499157D01*
X-128197Y-499074D01*
Y-499057D01*
X-128214Y-498990D01*
X-128247Y-498890D01*
X-128314Y-498757D01*
Y-498740D01*
X-128331Y-498724D01*
X-128381Y-498607D01*
X-128464Y-498457D01*
X-128581Y-498274D01*
X-128597Y-498257D01*
X-128631Y-498190D01*
X-128697Y-498107D01*
X-128780Y-497957D01*
X-128897Y-497791D01*
X-129047Y-497574D01*
X-129214Y-497307D01*
X-129430Y-497008D01*
Y-496991D01*
X-129464Y-496974D01*
X-129497Y-496924D01*
X-129530Y-496858D01*
X-129647Y-496691D01*
X-129797Y-496475D01*
X-129963Y-496241D01*
X-130163Y-495975D01*
X-130563Y-495408D01*
Y-495425D01*
X-130596Y-495442D01*
X-130630Y-495492D01*
X-130680Y-495558D01*
X-130830Y-495708D01*
X-130996Y-495925D01*
X-131196Y-496158D01*
X-131396Y-496391D01*
X-131613Y-496658D01*
X-131813Y-496891D01*
X-131829Y-496924D01*
X-131896Y-496991D01*
X-131996Y-497124D01*
X-132129Y-497291D01*
X-132296Y-497491D01*
X-132462Y-497707D01*
X-132662Y-497957D01*
X-132862Y-498224D01*
Y-498241D01*
X-132896Y-498257D01*
X-132979Y-498357D01*
X-133062Y-498507D01*
X-133145Y-498657D01*
X-133162Y-498690D01*
X-133179Y-498757D01*
X-133195Y-498824D01*
X-133212Y-498874D01*
Y-498890D01*
Y-498924D01*
X-133195Y-498974D01*
X-133162Y-499040D01*
X-133112Y-499107D01*
X-133029Y-499190D01*
X-132929Y-499257D01*
X-132796Y-499323D01*
X-132779D01*
X-132712Y-499340D01*
X-132629Y-499373D01*
X-132512Y-499390D01*
X-132362Y-499423D01*
X-132179Y-499457D01*
X-131996Y-499473D01*
X-131779D01*
Y-500406D01*
X-137011D01*
Y-499473D01*
X-136994D01*
X-136961Y-499457D01*
X-136911D01*
X-136844Y-499423D01*
X-136644Y-499373D01*
X-136411Y-499307D01*
X-136161Y-499207D01*
X-135878Y-499090D01*
X-135611Y-498957D01*
X-135361Y-498790D01*
X-135328Y-498774D01*
X-135261Y-498707D01*
X-135145Y-498624D01*
X-135011Y-498524D01*
X-134728Y-498274D01*
X-134611Y-498157D01*
X-134512Y-498057D01*
X-134495Y-498041D01*
X-134462Y-498007D01*
X-134412Y-497957D01*
X-134345Y-497891D01*
X-134178Y-497707D01*
X-133962Y-497458D01*
X-133695Y-497208D01*
X-133429Y-496924D01*
X-133162Y-496641D01*
X-132912Y-496375D01*
X-132879Y-496341D01*
X-132796Y-496258D01*
X-132646Y-496108D01*
X-132446Y-495891D01*
X-132196Y-495625D01*
X-131896Y-495308D01*
X-131546Y-494925D01*
X-131163Y-494509D01*
Y-494492D01*
X-131196Y-494459D01*
X-131229Y-494409D01*
X-131296Y-494325D01*
X-131363Y-494225D01*
X-131446Y-494109D01*
X-131546Y-493975D01*
X-131663Y-493809D01*
X-131779Y-493642D01*
X-131913Y-493459D01*
X-132229Y-493026D01*
X-132562Y-492559D01*
X-132946Y-492026D01*
X-132962Y-492010D01*
X-132995Y-491960D01*
X-133045Y-491876D01*
X-133112Y-491776D01*
X-133212Y-491660D01*
X-133312Y-491510D01*
X-133429Y-491343D01*
X-133545Y-491177D01*
X-133828Y-490794D01*
X-134112Y-490394D01*
X-134395Y-489994D01*
X-134678Y-489611D01*
X-134695Y-489594D01*
X-134745Y-489527D01*
X-134811Y-489444D01*
X-134911Y-489344D01*
X-135045Y-489227D01*
X-135178Y-489111D01*
X-135345Y-488994D01*
X-135528Y-488894D01*
X-135545Y-488878D01*
X-135611Y-488861D01*
X-135728Y-488811D01*
X-135878Y-488761D01*
X-136061Y-488694D01*
X-136294Y-488644D01*
X-136544Y-488594D01*
X-136827Y-488561D01*
Y-487628D01*
X-128947D01*
Y-488561D01*
X-129214D01*
X-129347Y-488578D01*
X-129480Y-488594D01*
X-129797Y-488628D01*
X-129813D01*
X-129863Y-488644D01*
X-129930D01*
X-129997Y-488661D01*
X-130080Y-488694D01*
X-130147Y-488711D01*
X-130197Y-488761D01*
X-130213Y-488794D01*
Y-488811D01*
X-130197Y-488878D01*
X-130180Y-488961D01*
X-130147Y-489061D01*
X-130130Y-489094D01*
X-130097Y-489161D01*
X-130047Y-489261D01*
X-129980Y-489377D01*
X-129963Y-489394D01*
X-129930Y-489461D01*
X-129880Y-489544D01*
X-129797Y-489677D01*
X-129680Y-489860D01*
X-129547Y-490060D01*
X-129397Y-490310D01*
X-129214Y-490594D01*
Y-490610D01*
X-129197Y-490627D01*
X-129114Y-490727D01*
X-129014Y-490893D01*
X-128864Y-491110D01*
X-128697Y-491360D01*
X-128514Y-491643D01*
X-128297Y-491943D01*
X-128081Y-492276D01*
Y-492260D01*
X-128048Y-492243D01*
X-127981Y-492160D01*
X-127881Y-492026D01*
X-127748Y-491860D01*
X-127581Y-491677D01*
X-127431Y-491476D01*
X-127264Y-491293D01*
X-127114Y-491110D01*
X-127098Y-491093D01*
X-127048Y-491027D01*
X-126948Y-490927D01*
X-126831Y-490777D01*
X-126698Y-490594D01*
X-126515Y-490377D01*
X-126315Y-490127D01*
X-126098Y-489827D01*
X-126082Y-489811D01*
X-126065Y-489777D01*
X-126015Y-489727D01*
X-125982Y-489661D01*
X-125882Y-489511D01*
X-125848Y-489444D01*
X-125815Y-489377D01*
X-125798Y-489344D01*
X-125782Y-489294D01*
X-125765Y-489227D01*
X-125748Y-489178D01*
Y-489161D01*
Y-489144D01*
X-125782Y-489044D01*
X-125815Y-488994D01*
X-125865Y-488928D01*
X-125932Y-488861D01*
X-126032Y-488794D01*
X-126048Y-488778D01*
X-126082Y-488761D01*
X-126165Y-488728D01*
X-126265Y-488694D01*
X-126415Y-488661D01*
X-126598Y-488611D01*
X-126831Y-488578D01*
X-127114Y-488561D01*
Y-487628D01*
X-121983D01*
Y-488561D01*
D02*
G37*
G36*
X-139460Y-487661D02*
Y-497624D01*
Y-497641D01*
Y-497691D01*
X-139443Y-497791D01*
Y-497891D01*
X-139393Y-498140D01*
X-139293Y-498390D01*
X-139276Y-498407D01*
X-139260Y-498440D01*
X-139210Y-498507D01*
X-139160Y-498574D01*
X-138993Y-498740D01*
X-138760Y-498924D01*
X-138743D01*
X-138710Y-498957D01*
X-138660Y-498974D01*
X-138593Y-499007D01*
X-138510Y-499057D01*
X-138393Y-499090D01*
X-138143Y-499157D01*
X-138077D01*
X-137994Y-499173D01*
X-137893D01*
X-137777Y-499190D01*
X-137644D01*
X-137344Y-499207D01*
Y-500140D01*
X-143491Y-500506D01*
X-143675Y-500340D01*
Y-498640D01*
X-143758D01*
X-143774Y-498657D01*
X-143825Y-498707D01*
X-143924Y-498790D01*
X-144024Y-498890D01*
X-144158Y-499007D01*
X-144308Y-499140D01*
X-144624Y-499423D01*
X-144641Y-499440D01*
X-144691Y-499490D01*
X-144791Y-499557D01*
X-144907Y-499657D01*
X-145057Y-499757D01*
X-145224Y-499873D01*
X-145407Y-499990D01*
X-145624Y-500106D01*
X-145657Y-500123D01*
X-145740Y-500156D01*
X-145857Y-500223D01*
X-146024Y-500290D01*
X-146207Y-500373D01*
X-146423Y-500456D01*
X-146873Y-500606D01*
X-146907D01*
X-146973Y-500639D01*
X-147123Y-500656D01*
X-147306Y-500690D01*
X-147540Y-500723D01*
X-147840Y-500756D01*
X-148173Y-500773D01*
X-148573Y-500789D01*
X-148756D01*
X-148889Y-500773D01*
X-149056Y-500756D01*
X-149239Y-500723D01*
X-149456Y-500690D01*
X-149672Y-500639D01*
X-149905Y-500590D01*
X-150155Y-500506D01*
X-150405Y-500406D01*
X-150655Y-500290D01*
X-150888Y-500156D01*
X-151122Y-500006D01*
X-151355Y-499823D01*
X-151555Y-499623D01*
X-151571Y-499607D01*
X-151605Y-499573D01*
X-151655Y-499507D01*
X-151721Y-499407D01*
X-151788Y-499290D01*
X-151888Y-499140D01*
X-151971Y-498974D01*
X-152071Y-498774D01*
X-152171Y-498540D01*
X-152254Y-498307D01*
X-152354Y-498024D01*
X-152421Y-497724D01*
X-152488Y-497407D01*
X-152538Y-497074D01*
X-152571Y-496691D01*
X-152588Y-496308D01*
Y-490510D01*
Y-490494D01*
Y-490427D01*
X-152604Y-490327D01*
Y-490210D01*
X-152671Y-489944D01*
X-152721Y-489811D01*
X-152788Y-489677D01*
X-152804Y-489661D01*
X-152821Y-489627D01*
X-152871Y-489561D01*
X-152921Y-489494D01*
X-153087Y-489311D01*
X-153304Y-489127D01*
X-153321Y-489111D01*
X-153354Y-489094D01*
X-153404Y-489061D01*
X-153487Y-489011D01*
X-153571Y-488977D01*
X-153687Y-488928D01*
X-153821Y-488878D01*
X-153970Y-488844D01*
X-153987D01*
X-154037Y-488828D01*
X-154120Y-488811D01*
X-154204Y-488794D01*
X-154454Y-488761D01*
X-154703Y-488728D01*
Y-487795D01*
X-148489Y-487462D01*
X-148339Y-487661D01*
Y-496241D01*
Y-496258D01*
Y-496291D01*
Y-496375D01*
X-148323Y-496458D01*
Y-496574D01*
X-148306Y-496691D01*
X-148273Y-496991D01*
X-148223Y-497307D01*
X-148123Y-497624D01*
X-148006Y-497941D01*
X-147840Y-498207D01*
X-147823Y-498241D01*
X-147740Y-498307D01*
X-147623Y-498407D01*
X-147473Y-498507D01*
X-147273Y-498624D01*
X-147023Y-498724D01*
X-146757Y-498790D01*
X-146440Y-498824D01*
X-146290D01*
X-146107Y-498790D01*
X-145890Y-498757D01*
X-145624Y-498707D01*
X-145357Y-498624D01*
X-145074Y-498507D01*
X-144791Y-498357D01*
X-144774D01*
X-144757Y-498341D01*
X-144674Y-498274D01*
X-144541Y-498174D01*
X-144374Y-498041D01*
X-144208Y-497891D01*
X-144024Y-497724D01*
X-143858Y-497541D01*
X-143708Y-497341D01*
Y-490377D01*
Y-490360D01*
Y-490310D01*
X-143725Y-490227D01*
Y-490110D01*
X-143791Y-489860D01*
X-143825Y-489727D01*
X-143891Y-489594D01*
Y-489577D01*
X-143924Y-489527D01*
X-143958Y-489477D01*
X-144008Y-489394D01*
X-144158Y-489211D01*
X-144374Y-489028D01*
X-144391D01*
X-144424Y-488994D01*
X-144474Y-488977D01*
X-144541Y-488944D01*
X-144641Y-488894D01*
X-144757Y-488861D01*
X-144891Y-488828D01*
X-145041Y-488811D01*
X-145057D01*
X-145107Y-488794D01*
X-145191D01*
X-145307Y-488778D01*
X-145440Y-488761D01*
X-145574D01*
X-145907Y-488728D01*
Y-487795D01*
X-139660Y-487462D01*
X-139460Y-487661D01*
D02*
G37*
G36*
X-161521Y-16802D02*
X-161424D01*
X-161307Y-16821D01*
X-161016Y-16880D01*
X-160685Y-16977D01*
X-160335Y-17132D01*
X-159985Y-17327D01*
X-159635Y-17599D01*
X-159616D01*
X-159597Y-17638D01*
X-159499Y-17735D01*
X-159363Y-17910D01*
X-159188Y-18143D01*
X-159033Y-18435D01*
X-158897Y-18765D01*
X-158800Y-19154D01*
X-158761Y-19348D01*
Y-19562D01*
Y-19582D01*
Y-19621D01*
Y-19679D01*
X-158780Y-19757D01*
X-158800Y-19971D01*
X-158877Y-20243D01*
X-158975Y-20534D01*
X-159130Y-20865D01*
X-159363Y-21195D01*
X-159499Y-21351D01*
X-159655Y-21506D01*
X-159694Y-21545D01*
X-159810Y-21623D01*
X-159985Y-21759D01*
X-160238Y-21895D01*
X-160549Y-22051D01*
X-160899Y-22187D01*
X-161307Y-22264D01*
X-161735Y-22303D01*
X-161852D01*
X-161949Y-22284D01*
X-162046D01*
X-162163Y-22264D01*
X-162454Y-22206D01*
X-162785Y-22109D01*
X-163135Y-21973D01*
X-163485Y-21778D01*
X-163835Y-21506D01*
Y-21487D01*
X-163873Y-21467D01*
X-163971Y-21370D01*
X-164107Y-21195D01*
X-164262Y-20962D01*
X-164437Y-20690D01*
X-164573Y-20340D01*
X-164671Y-19971D01*
X-164690Y-19776D01*
X-164709Y-19562D01*
Y-19543D01*
Y-19504D01*
Y-19446D01*
X-164690Y-19368D01*
X-164671Y-19154D01*
X-164593Y-18882D01*
X-164496Y-18571D01*
X-164340Y-18240D01*
X-164126Y-17910D01*
X-163990Y-17754D01*
X-163835Y-17599D01*
X-163815Y-17579D01*
X-163796Y-17560D01*
X-163679Y-17463D01*
X-163485Y-17346D01*
X-163251Y-17191D01*
X-162940Y-17035D01*
X-162571Y-16918D01*
X-162182Y-16821D01*
X-161735Y-16782D01*
X-161618D01*
X-161521Y-16802D01*
D02*
G37*
G36*
X-99392Y-487278D02*
X-99209D01*
X-99009Y-487295D01*
X-98792Y-487312D01*
X-98326Y-487378D01*
X-97843Y-487445D01*
X-97343Y-487561D01*
X-96893Y-487711D01*
X-96877D01*
X-96843Y-487728D01*
X-96777Y-487761D01*
X-96693Y-487795D01*
X-96593Y-487828D01*
X-96477Y-487895D01*
X-96210Y-488028D01*
X-95910Y-488195D01*
X-95577Y-488394D01*
X-95261Y-488644D01*
X-94961Y-488911D01*
X-94944D01*
X-94927Y-488944D01*
X-94844Y-489044D01*
X-94711Y-489194D01*
X-94544Y-489411D01*
X-94378Y-489661D01*
X-94194Y-489960D01*
X-94028Y-490294D01*
X-93894Y-490660D01*
Y-490677D01*
X-93878Y-490710D01*
X-93861Y-490760D01*
X-93844Y-490827D01*
X-93811Y-490927D01*
X-93778Y-491027D01*
X-93711Y-491293D01*
X-93661Y-491593D01*
X-93595Y-491960D01*
X-93561Y-492343D01*
X-93545Y-492743D01*
Y-493576D01*
X-102258D01*
Y-493609D01*
Y-493692D01*
Y-493826D01*
X-102241Y-494009D01*
X-102225Y-494225D01*
X-102208Y-494492D01*
X-102174Y-494775D01*
X-102125Y-495075D01*
X-102008Y-495725D01*
X-101925Y-496058D01*
X-101825Y-496391D01*
X-101708Y-496724D01*
X-101575Y-497041D01*
X-101425Y-497341D01*
X-101242Y-497607D01*
X-101225Y-497624D01*
X-101192Y-497657D01*
X-101125Y-497741D01*
X-101042Y-497824D01*
X-100942Y-497924D01*
X-100808Y-498041D01*
X-100642Y-498157D01*
X-100459Y-498290D01*
X-100242Y-498424D01*
X-100009Y-498540D01*
X-99742Y-498657D01*
X-99442Y-498757D01*
X-99126Y-498840D01*
X-98776Y-498907D01*
X-98409Y-498957D01*
X-98010Y-498974D01*
X-97893D01*
X-97810Y-498957D01*
X-97693D01*
X-97576Y-498940D01*
X-97293Y-498890D01*
X-96960Y-498807D01*
X-96593Y-498707D01*
X-96210Y-498540D01*
X-95844Y-498324D01*
X-95827D01*
X-95794Y-498290D01*
X-95744Y-498257D01*
X-95677Y-498207D01*
X-95494Y-498057D01*
X-95261Y-497857D01*
X-95011Y-497607D01*
X-94727Y-497324D01*
X-94444Y-496991D01*
X-94178Y-496625D01*
X-93195Y-497341D01*
X-93211Y-497374D01*
X-93278Y-497458D01*
X-93378Y-497607D01*
X-93511Y-497791D01*
X-93661Y-498007D01*
X-93861Y-498241D01*
X-94061Y-498474D01*
X-94294Y-498724D01*
X-94328Y-498757D01*
X-94411Y-498824D01*
X-94544Y-498957D01*
X-94711Y-499107D01*
X-94927Y-499273D01*
X-95177Y-499473D01*
X-95444Y-499657D01*
X-95744Y-499840D01*
X-95760D01*
X-95777Y-499857D01*
X-95827Y-499890D01*
X-95894Y-499923D01*
X-96060Y-500006D01*
X-96293Y-500106D01*
X-96543Y-500223D01*
X-96843Y-500356D01*
X-97160Y-500473D01*
X-97493Y-500573D01*
X-97510D01*
X-97526Y-500590D01*
X-97576D01*
X-97643Y-500606D01*
X-97726Y-500623D01*
X-97826Y-500656D01*
X-98076Y-500690D01*
X-98376Y-500739D01*
X-98726Y-500789D01*
X-99109Y-500806D01*
X-99526Y-500823D01*
X-99709D01*
X-99842Y-500806D01*
X-100009D01*
X-100192Y-500789D01*
X-100408Y-500773D01*
X-100642Y-500756D01*
X-101158Y-500690D01*
X-101725Y-500590D01*
X-102275Y-500473D01*
X-102824Y-500290D01*
X-102841D01*
X-102891Y-500256D01*
X-102957Y-500240D01*
X-103058Y-500190D01*
X-103174Y-500140D01*
X-103307Y-500073D01*
X-103624Y-499906D01*
X-103990Y-499707D01*
X-104374Y-499457D01*
X-104757Y-499157D01*
X-105107Y-498840D01*
X-105123Y-498824D01*
X-105140Y-498790D01*
X-105190Y-498740D01*
X-105257Y-498674D01*
X-105323Y-498590D01*
X-105406Y-498490D01*
X-105606Y-498224D01*
X-105823Y-497907D01*
X-106056Y-497541D01*
X-106273Y-497141D01*
X-106456Y-496691D01*
Y-496674D01*
X-106473Y-496641D01*
X-106489Y-496558D01*
X-106523Y-496475D01*
X-106556Y-496358D01*
X-106589Y-496225D01*
X-106639Y-496058D01*
X-106673Y-495875D01*
X-106706Y-495691D01*
X-106756Y-495475D01*
X-106823Y-495025D01*
X-106873Y-494509D01*
X-106889Y-493975D01*
Y-493959D01*
Y-493909D01*
Y-493842D01*
Y-493742D01*
X-106873Y-493626D01*
X-106856Y-493492D01*
Y-493342D01*
X-106823Y-493159D01*
X-106773Y-492776D01*
X-106689Y-492359D01*
X-106573Y-491910D01*
X-106406Y-491460D01*
Y-491443D01*
X-106389Y-491410D01*
X-106356Y-491343D01*
X-106323Y-491260D01*
X-106273Y-491160D01*
X-106206Y-491027D01*
X-106056Y-490743D01*
X-105856Y-490410D01*
X-105623Y-490044D01*
X-105357Y-489677D01*
X-105040Y-489311D01*
X-105023Y-489294D01*
X-105007Y-489277D01*
X-104957Y-489227D01*
X-104873Y-489161D01*
X-104790Y-489078D01*
X-104690Y-488994D01*
X-104574Y-488894D01*
X-104424Y-488794D01*
X-104107Y-488561D01*
X-103724Y-488311D01*
X-103307Y-488078D01*
X-102824Y-487845D01*
X-102808D01*
X-102758Y-487811D01*
X-102691Y-487795D01*
X-102591Y-487745D01*
X-102458Y-487711D01*
X-102308Y-487661D01*
X-102141Y-487611D01*
X-101958Y-487545D01*
X-101741Y-487495D01*
X-101508Y-487445D01*
X-101008Y-487345D01*
X-100442Y-487278D01*
X-99842Y-487262D01*
X-99542D01*
X-99392Y-487278D01*
D02*
G37*
G36*
X-162467D02*
X-162101Y-487295D01*
X-161717Y-487328D01*
X-161318Y-487361D01*
X-160918Y-487411D01*
X-160868D01*
X-160818Y-487428D01*
X-160734Y-487445D01*
X-160651Y-487462D01*
X-160535Y-487478D01*
X-160285Y-487545D01*
X-160001Y-487628D01*
X-159685Y-487728D01*
X-159352Y-487861D01*
X-159035Y-488028D01*
X-159018D01*
X-159002Y-488045D01*
X-158902Y-488111D01*
X-158752Y-488211D01*
X-158569Y-488361D01*
X-158369Y-488544D01*
X-158169Y-488778D01*
X-157952Y-489044D01*
X-157769Y-489344D01*
Y-489361D01*
X-157752Y-489377D01*
X-157719Y-489427D01*
X-157686Y-489494D01*
X-157652Y-489577D01*
X-157619Y-489677D01*
X-157569Y-489811D01*
X-157519Y-489944D01*
X-157436Y-490260D01*
X-157352Y-490644D01*
X-157302Y-491077D01*
X-157286Y-491560D01*
Y-491576D01*
Y-491627D01*
Y-491710D01*
Y-491826D01*
Y-491960D01*
Y-492126D01*
Y-492326D01*
Y-492543D01*
X-157302Y-492793D01*
Y-493043D01*
Y-493342D01*
X-157319Y-493642D01*
Y-493959D01*
X-157336Y-494309D01*
X-157352Y-495025D01*
Y-495042D01*
Y-495108D01*
Y-495208D01*
Y-495342D01*
X-157369Y-495508D01*
Y-495691D01*
Y-495891D01*
Y-496091D01*
X-157386Y-496541D01*
Y-496958D01*
X-157402Y-497158D01*
Y-497341D01*
Y-497507D01*
Y-497641D01*
Y-497674D01*
Y-497741D01*
X-157386Y-497841D01*
Y-497974D01*
X-157336Y-498274D01*
X-157286Y-498424D01*
X-157236Y-498557D01*
X-157219Y-498574D01*
X-157202Y-498607D01*
X-157169Y-498674D01*
X-157103Y-498740D01*
X-157036Y-498824D01*
X-156936Y-498907D01*
X-156836Y-498990D01*
X-156703Y-499057D01*
X-156686D01*
X-156653Y-499074D01*
X-156603Y-499090D01*
X-156536Y-499107D01*
X-156436Y-499123D01*
X-156319Y-499140D01*
X-156186Y-499157D01*
X-156020Y-499173D01*
X-155736D01*
X-155603Y-499190D01*
X-155153D01*
Y-500140D01*
X-155187Y-500156D01*
X-155253Y-500173D01*
X-155370Y-500223D01*
X-155536Y-500290D01*
X-155736Y-500356D01*
X-155953Y-500440D01*
X-156219Y-500506D01*
X-156503Y-500590D01*
X-156536D01*
X-156636Y-500623D01*
X-156786Y-500656D01*
X-156986Y-500690D01*
X-157236Y-500723D01*
X-157519Y-500756D01*
X-157819Y-500773D01*
X-158135Y-500789D01*
X-158385D01*
X-158519Y-500773D01*
X-158669Y-500756D01*
X-159018Y-500723D01*
X-159385Y-500673D01*
X-159768Y-500590D01*
X-160135Y-500473D01*
X-160301Y-500406D01*
X-160451Y-500323D01*
X-160485Y-500306D01*
X-160568Y-500240D01*
X-160701Y-500123D01*
X-160851Y-499973D01*
X-161034Y-499790D01*
X-161201Y-499557D01*
X-161351Y-499290D01*
X-161467Y-498974D01*
X-161534D01*
X-161551Y-498990D01*
X-161617Y-499040D01*
X-161701Y-499140D01*
X-161817Y-499240D01*
X-161951Y-499357D01*
X-162084Y-499490D01*
X-162400Y-499740D01*
X-162417Y-499757D01*
X-162467Y-499790D01*
X-162550Y-499840D01*
X-162650Y-499923D01*
X-162784Y-499990D01*
X-162934Y-500090D01*
X-163267Y-500256D01*
X-163300Y-500273D01*
X-163367Y-500306D01*
X-163483Y-500356D01*
X-163633Y-500406D01*
X-163816Y-500473D01*
X-164016Y-500540D01*
X-164433Y-500673D01*
X-164466D01*
X-164533Y-500690D01*
X-164666Y-500723D01*
X-164833Y-500739D01*
X-165066Y-500773D01*
X-165333Y-500806D01*
X-165649Y-500823D01*
X-166149D01*
X-166249Y-500806D01*
X-166382Y-500789D01*
X-166532Y-500773D01*
X-166699Y-500756D01*
X-166882Y-500706D01*
X-167282Y-500606D01*
X-167715Y-500456D01*
X-167931Y-500356D01*
X-168148Y-500223D01*
X-168365Y-500090D01*
X-168565Y-499940D01*
X-168581Y-499923D01*
X-168615Y-499906D01*
X-168665Y-499857D01*
X-168731Y-499773D01*
X-168815Y-499690D01*
X-168898Y-499590D01*
X-168998Y-499457D01*
X-169081Y-499323D01*
X-169181Y-499157D01*
X-169281Y-498974D01*
X-169448Y-498590D01*
X-169514Y-498357D01*
X-169564Y-498124D01*
X-169597Y-497874D01*
X-169614Y-497607D01*
Y-497591D01*
Y-497574D01*
Y-497474D01*
X-169597Y-497307D01*
X-169581Y-497124D01*
X-169564Y-496891D01*
X-169514Y-496658D01*
X-169464Y-496425D01*
X-169398Y-496191D01*
X-169381Y-496158D01*
X-169348Y-496091D01*
X-169298Y-495975D01*
X-169231Y-495842D01*
X-169131Y-495675D01*
X-169014Y-495492D01*
X-168881Y-495308D01*
X-168731Y-495142D01*
X-168714Y-495125D01*
X-168665Y-495075D01*
X-168581Y-494992D01*
X-168481Y-494892D01*
X-168348Y-494792D01*
X-168181Y-494675D01*
X-168015Y-494559D01*
X-167832Y-494459D01*
X-167815Y-494442D01*
X-167748Y-494409D01*
X-167632Y-494359D01*
X-167498Y-494292D01*
X-167332Y-494225D01*
X-167148Y-494142D01*
X-166932Y-494042D01*
X-166715Y-493959D01*
X-166699D01*
X-166665Y-493942D01*
X-166599Y-493909D01*
X-166515Y-493876D01*
X-166399Y-493842D01*
X-166265Y-493792D01*
X-166099Y-493742D01*
X-165932Y-493692D01*
X-165732Y-493626D01*
X-165516Y-493559D01*
X-165299Y-493476D01*
X-165049Y-493409D01*
X-164516Y-493243D01*
X-163933Y-493076D01*
X-163917D01*
X-163866Y-493059D01*
X-163783Y-493026D01*
X-163667Y-492993D01*
X-163533Y-492959D01*
X-163383Y-492909D01*
X-163017Y-492793D01*
X-162634Y-492659D01*
X-162234Y-492526D01*
X-161851Y-492376D01*
X-161684Y-492310D01*
X-161534Y-492243D01*
Y-491010D01*
Y-490993D01*
Y-490960D01*
Y-490877D01*
Y-490794D01*
X-161551Y-490660D01*
X-161567Y-490527D01*
X-161584Y-490360D01*
X-161601Y-490177D01*
Y-490160D01*
X-161617Y-490094D01*
Y-489994D01*
X-161651Y-489860D01*
X-161667Y-489727D01*
X-161717Y-489577D01*
X-161817Y-489277D01*
Y-489261D01*
X-161851Y-489211D01*
X-161901Y-489127D01*
X-161951Y-489028D01*
X-162034Y-488928D01*
X-162134Y-488811D01*
X-162250Y-488694D01*
X-162384Y-488578D01*
X-162400Y-488561D01*
X-162450Y-488528D01*
X-162534Y-488494D01*
X-162650Y-488428D01*
X-162800Y-488378D01*
X-162967Y-488344D01*
X-163167Y-488311D01*
X-163400Y-488295D01*
X-163600D01*
X-163733Y-488311D01*
X-163900Y-488328D01*
X-164050Y-488361D01*
X-164216Y-488411D01*
X-164366Y-488461D01*
X-164383D01*
X-164433Y-488494D01*
X-164500Y-488528D01*
X-164583Y-488561D01*
X-164783Y-488678D01*
X-164983Y-488794D01*
Y-488811D01*
X-164966Y-488844D01*
X-164949Y-488894D01*
X-164933Y-488977D01*
X-164899Y-489094D01*
X-164866Y-489227D01*
X-164816Y-489394D01*
X-164750Y-489577D01*
X-164733Y-489594D01*
X-164716Y-489661D01*
X-164683Y-489777D01*
X-164649Y-489911D01*
X-164616Y-490060D01*
X-164600Y-490227D01*
X-164566Y-490410D01*
Y-490594D01*
Y-490610D01*
Y-490627D01*
Y-490677D01*
X-164583Y-490743D01*
X-164616Y-490910D01*
X-164683Y-491143D01*
Y-491160D01*
X-164699Y-491193D01*
X-164733Y-491260D01*
X-164766Y-491327D01*
X-164883Y-491493D01*
X-165033Y-491660D01*
X-165049Y-491677D01*
X-165083Y-491710D01*
X-165149Y-491743D01*
X-165233Y-491810D01*
X-165333Y-491876D01*
X-165433Y-491943D01*
X-165699Y-492060D01*
X-165716D01*
X-165766Y-492076D01*
X-165849Y-492093D01*
X-165982Y-492126D01*
X-166132Y-492143D01*
X-166332Y-492176D01*
X-166565Y-492193D01*
X-166932D01*
X-167015Y-492176D01*
X-167199Y-492160D01*
X-167448Y-492126D01*
X-167698Y-492060D01*
X-167982Y-491976D01*
X-168231Y-491843D01*
X-168465Y-491677D01*
X-168481Y-491660D01*
X-168548Y-491576D01*
X-168631Y-491476D01*
X-168731Y-491310D01*
X-168848Y-491127D01*
X-168931Y-490893D01*
X-168998Y-490627D01*
X-169014Y-490327D01*
Y-490310D01*
Y-490294D01*
X-168998Y-490210D01*
X-168981Y-490060D01*
X-168948Y-489894D01*
X-168881Y-489694D01*
X-168781Y-489461D01*
X-168631Y-489244D01*
X-168448Y-489028D01*
X-168415Y-488994D01*
X-168348Y-488928D01*
X-168231Y-488828D01*
X-168065Y-488694D01*
X-167865Y-488544D01*
X-167615Y-488394D01*
X-167348Y-488228D01*
X-167049Y-488078D01*
X-167032D01*
X-167015Y-488061D01*
X-166965Y-488045D01*
X-166899Y-488011D01*
X-166732Y-487945D01*
X-166515Y-487861D01*
X-166232Y-487761D01*
X-165916Y-487661D01*
X-165566Y-487561D01*
X-165183Y-487478D01*
X-165166D01*
X-165133Y-487462D01*
X-165083D01*
X-164999Y-487445D01*
X-164899Y-487428D01*
X-164799Y-487411D01*
X-164533Y-487361D01*
X-164233Y-487328D01*
X-163900Y-487295D01*
X-163567Y-487278D01*
X-163217Y-487262D01*
X-162767D01*
X-162467Y-487278D01*
D02*
G37*
%LPC*%
G36*
X-45698Y-26211D02*
X-45756D01*
X-45834Y-26230D01*
X-45950D01*
X-46067Y-26269D01*
X-46223Y-26308D01*
X-46378Y-26347D01*
X-46573Y-26425D01*
X-46747Y-26522D01*
X-46961Y-26619D01*
X-47156Y-26774D01*
X-47370Y-26930D01*
X-47564Y-27124D01*
X-47758Y-27358D01*
X-47953Y-27610D01*
X-48147Y-27922D01*
X-48167Y-27941D01*
X-48186Y-27999D01*
X-48225Y-28096D01*
X-48303Y-28232D01*
X-48361Y-28407D01*
X-48439Y-28621D01*
X-48536Y-28874D01*
X-48614Y-29166D01*
X-48711Y-29477D01*
X-48789Y-29846D01*
X-48886Y-30235D01*
X-48944Y-30663D01*
X-49003Y-31129D01*
X-49061Y-31635D01*
X-49080Y-32159D01*
X-49100Y-32723D01*
Y-32743D01*
Y-32781D01*
Y-32840D01*
Y-32937D01*
Y-33034D01*
Y-33170D01*
X-49080Y-33462D01*
X-49061Y-33792D01*
X-49041Y-34162D01*
X-49003Y-34550D01*
X-48944Y-34920D01*
Y-34939D01*
Y-34959D01*
X-48905Y-35075D01*
X-48866Y-35270D01*
X-48808Y-35503D01*
X-48711Y-35775D01*
X-48614Y-36067D01*
X-48478Y-36378D01*
X-48322Y-36689D01*
X-48303Y-36728D01*
X-48244Y-36825D01*
X-48147Y-36961D01*
X-48030Y-37136D01*
X-47855Y-37350D01*
X-47681Y-37544D01*
X-47447Y-37758D01*
X-47214Y-37933D01*
X-47175Y-37953D01*
X-47097Y-38011D01*
X-46942Y-38069D01*
X-46747Y-38147D01*
X-46514Y-38244D01*
X-46223Y-38302D01*
X-45911Y-38361D01*
X-45562Y-38380D01*
X-45406D01*
X-45251Y-38361D01*
X-45037Y-38341D01*
X-44803Y-38302D01*
X-44551Y-38225D01*
X-44298Y-38147D01*
X-44065Y-38030D01*
X-44045Y-38011D01*
X-43968Y-37972D01*
X-43851Y-37894D01*
X-43695Y-37778D01*
X-43520Y-37642D01*
X-43326Y-37486D01*
X-43132Y-37311D01*
X-42937Y-37097D01*
Y-28582D01*
Y-28563D01*
X-42957Y-28524D01*
X-42976Y-28446D01*
X-43015Y-28349D01*
X-43112Y-28116D01*
X-43248Y-27824D01*
Y-27805D01*
X-43287Y-27746D01*
X-43326Y-27669D01*
X-43384Y-27572D01*
X-43540Y-27299D01*
X-43754Y-27027D01*
X-43773Y-27008D01*
X-43812Y-26969D01*
X-43870Y-26911D01*
X-43968Y-26833D01*
X-44084Y-26736D01*
X-44220Y-26658D01*
X-44395Y-26561D01*
X-44570Y-26463D01*
X-44590Y-26444D01*
X-44648Y-26425D01*
X-44765Y-26386D01*
X-44901Y-26327D01*
X-45056Y-26289D01*
X-45251Y-26250D01*
X-45464Y-26230D01*
X-45698Y-26211D01*
D02*
G37*
G36*
X-145736Y-27027D02*
X-145891D01*
X-146066Y-27047D01*
X-146300Y-27066D01*
X-146533Y-27105D01*
X-146805Y-27183D01*
X-147058Y-27261D01*
X-147291Y-27377D01*
X-147311Y-27397D01*
X-147388Y-27435D01*
X-147505Y-27513D01*
X-147641Y-27610D01*
X-147797Y-27727D01*
X-147971Y-27883D01*
X-148127Y-28058D01*
X-148302Y-28252D01*
Y-36786D01*
Y-36805D01*
X-148283Y-36844D01*
X-148263Y-36903D01*
X-148224Y-37000D01*
X-148185Y-37097D01*
X-148127Y-37233D01*
X-148049Y-37389D01*
X-147971Y-37564D01*
X-147952Y-37583D01*
X-147933Y-37642D01*
X-147874Y-37719D01*
X-147816Y-37836D01*
X-147661Y-38089D01*
X-147466Y-38322D01*
X-147447Y-38341D01*
X-147388Y-38380D01*
X-147311Y-38458D01*
X-147213Y-38536D01*
X-147077Y-38633D01*
X-146941Y-38730D01*
X-146611Y-38905D01*
X-146591D01*
X-146533Y-38944D01*
X-146436Y-38963D01*
X-146300Y-39002D01*
X-146144Y-39041D01*
X-145969Y-39061D01*
X-145561Y-39099D01*
X-145503D01*
X-145425Y-39080D01*
X-145308D01*
X-145192Y-39041D01*
X-145036Y-39022D01*
X-144706Y-38905D01*
X-144511Y-38808D01*
X-144317Y-38711D01*
X-144122Y-38575D01*
X-143928Y-38419D01*
X-143714Y-38244D01*
X-143520Y-38030D01*
X-143345Y-37778D01*
X-143170Y-37505D01*
X-143150Y-37486D01*
X-143131Y-37428D01*
X-143092Y-37330D01*
X-143034Y-37214D01*
X-142956Y-37039D01*
X-142878Y-36844D01*
X-142800Y-36592D01*
X-142723Y-36320D01*
X-142645Y-36009D01*
X-142567Y-35659D01*
X-142489Y-35270D01*
X-142412Y-34842D01*
X-142353Y-34395D01*
X-142315Y-33890D01*
X-142276Y-33365D01*
Y-32801D01*
Y-32781D01*
Y-32743D01*
Y-32684D01*
Y-32607D01*
Y-32393D01*
X-142295Y-32101D01*
X-142315Y-31790D01*
X-142353Y-31421D01*
X-142451Y-30663D01*
Y-30643D01*
Y-30624D01*
X-142470Y-30565D01*
X-142489Y-30487D01*
X-142528Y-30293D01*
X-142587Y-30040D01*
X-142664Y-29749D01*
X-142762Y-29457D01*
X-142878Y-29127D01*
X-143034Y-28816D01*
X-143053Y-28777D01*
X-143112Y-28680D01*
X-143189Y-28524D01*
X-143325Y-28349D01*
X-143481Y-28135D01*
X-143656Y-27922D01*
X-143889Y-27708D01*
X-144122Y-27513D01*
X-144161Y-27494D01*
X-144239Y-27435D01*
X-144375Y-27358D01*
X-144570Y-27261D01*
X-144803Y-27183D01*
X-145075Y-27105D01*
X-145386Y-27047D01*
X-145736Y-27027D01*
D02*
G37*
G36*
X-63310Y-31926D02*
X-63349Y-31945D01*
X-63466Y-31984D01*
X-63621Y-32043D01*
X-63835Y-32120D01*
X-64107Y-32218D01*
X-64380Y-32334D01*
X-65002Y-32587D01*
X-65040Y-32607D01*
X-65138Y-32645D01*
X-65293Y-32723D01*
X-65488Y-32820D01*
X-65701Y-32937D01*
X-65935Y-33073D01*
X-66149Y-33209D01*
X-66362Y-33365D01*
X-66382Y-33384D01*
X-66460Y-33442D01*
X-66557Y-33540D01*
X-66673Y-33656D01*
X-66829Y-33812D01*
X-66965Y-34006D01*
X-67101Y-34220D01*
X-67237Y-34453D01*
X-67257Y-34473D01*
X-67276Y-34570D01*
X-67334Y-34706D01*
X-67393Y-34881D01*
X-67451Y-35114D01*
X-67490Y-35367D01*
X-67529Y-35659D01*
X-67548Y-35989D01*
Y-36009D01*
Y-36047D01*
Y-36106D01*
Y-36184D01*
X-67529Y-36378D01*
X-67490Y-36631D01*
X-67412Y-36922D01*
X-67334Y-37194D01*
X-67198Y-37447D01*
X-67023Y-37680D01*
X-67004Y-37700D01*
X-66926Y-37758D01*
X-66809Y-37855D01*
X-66654Y-37933D01*
X-66460Y-38030D01*
X-66226Y-38127D01*
X-65974Y-38186D01*
X-65701Y-38205D01*
X-65565D01*
X-65410Y-38186D01*
X-65215Y-38166D01*
X-65002Y-38127D01*
X-64768Y-38069D01*
X-64555Y-37991D01*
X-64341Y-37875D01*
X-64321Y-37855D01*
X-64243Y-37816D01*
X-64146Y-37739D01*
X-64010Y-37642D01*
X-63874Y-37525D01*
X-63699Y-37389D01*
X-63544Y-37214D01*
X-63388Y-37039D01*
X-63310Y-31926D01*
D02*
G37*
G36*
X-107109Y-19601D02*
X-107517D01*
X-107653Y-19621D01*
X-107847Y-19640D01*
X-108081Y-19679D01*
X-108333Y-19737D01*
X-108625Y-19815D01*
X-108936Y-19932D01*
X-109266Y-20068D01*
X-109597Y-20223D01*
X-109947Y-20437D01*
X-110297Y-20690D01*
X-110627Y-20981D01*
X-110958Y-21331D01*
X-111269Y-21739D01*
X-111541Y-22187D01*
X-111560Y-22226D01*
X-111599Y-22303D01*
X-111677Y-22459D01*
X-111755Y-22673D01*
X-111871Y-22925D01*
X-111988Y-23256D01*
X-112105Y-23625D01*
X-112241Y-24072D01*
X-112377Y-24558D01*
X-112494Y-25103D01*
X-112610Y-25705D01*
X-112727Y-26347D01*
X-112805Y-27047D01*
X-112882Y-27805D01*
X-112921Y-28621D01*
X-112941Y-29477D01*
Y-29496D01*
Y-29574D01*
Y-29671D01*
Y-29807D01*
Y-30002D01*
X-112921Y-30196D01*
Y-30449D01*
X-112902Y-30701D01*
X-112882Y-30974D01*
X-112863Y-31285D01*
X-112824Y-31926D01*
X-112746Y-32587D01*
X-112649Y-33268D01*
Y-33287D01*
X-112630Y-33345D01*
X-112610Y-33442D01*
X-112591Y-33559D01*
X-112552Y-33715D01*
X-112513Y-33890D01*
X-112474Y-34103D01*
X-112416Y-34317D01*
X-112280Y-34803D01*
X-112105Y-35309D01*
X-111910Y-35853D01*
X-111677Y-36358D01*
Y-36378D01*
X-111638Y-36417D01*
X-111599Y-36494D01*
X-111560Y-36572D01*
X-111483Y-36689D01*
X-111405Y-36825D01*
X-111211Y-37117D01*
X-110958Y-37447D01*
X-110666Y-37797D01*
X-110336Y-38127D01*
X-109966Y-38438D01*
X-109947D01*
X-109908Y-38477D01*
X-109850Y-38497D01*
X-109772Y-38555D01*
X-109675Y-38614D01*
X-109558Y-38672D01*
X-109403Y-38730D01*
X-109247Y-38808D01*
X-108878Y-38944D01*
X-108431Y-39061D01*
X-107945Y-39138D01*
X-107400Y-39177D01*
X-107264D01*
X-107148Y-39158D01*
X-107011D01*
X-106875Y-39138D01*
X-106525Y-39080D01*
X-106117Y-39002D01*
X-105690Y-38866D01*
X-105242Y-38691D01*
X-104834Y-38438D01*
X-104815D01*
X-104795Y-38400D01*
X-104737Y-38361D01*
X-104659Y-38302D01*
X-104465Y-38127D01*
X-104212Y-37894D01*
X-103940Y-37603D01*
X-103668Y-37253D01*
X-103376Y-36844D01*
X-103123Y-36378D01*
Y-36358D01*
X-103085Y-36320D01*
X-103065Y-36242D01*
X-103007Y-36125D01*
X-102948Y-36009D01*
X-102890Y-35853D01*
X-102812Y-35678D01*
X-102754Y-35464D01*
X-102676Y-35250D01*
X-102579Y-35017D01*
X-102424Y-34492D01*
X-102268Y-33890D01*
X-102151Y-33268D01*
Y-33248D01*
X-102132Y-33190D01*
X-102113Y-33092D01*
X-102093Y-32956D01*
X-102074Y-32801D01*
X-102054Y-32607D01*
X-102015Y-32373D01*
X-101996Y-32120D01*
X-101957Y-31848D01*
X-101938Y-31557D01*
X-101918Y-31226D01*
X-101879Y-30896D01*
X-101860Y-30157D01*
X-101840Y-29360D01*
Y-29341D01*
Y-29282D01*
Y-29185D01*
Y-29049D01*
Y-28874D01*
X-101860Y-28680D01*
Y-28466D01*
X-101879Y-28213D01*
Y-27960D01*
X-101899Y-27669D01*
X-101957Y-27066D01*
X-102015Y-26425D01*
X-102113Y-25764D01*
Y-25744D01*
X-102132Y-25686D01*
Y-25589D01*
X-102171Y-25472D01*
X-102190Y-25317D01*
X-102229Y-25142D01*
X-102268Y-24928D01*
X-102326Y-24714D01*
X-102443Y-24228D01*
X-102599Y-23703D01*
X-102793Y-23159D01*
X-103007Y-22634D01*
Y-22614D01*
X-103026Y-22576D01*
X-103065Y-22498D01*
X-103123Y-22400D01*
X-103182Y-22284D01*
X-103260Y-22167D01*
X-103454Y-21856D01*
X-103707Y-21506D01*
X-103998Y-21137D01*
X-104329Y-20767D01*
X-104718Y-20437D01*
X-104737Y-20418D01*
X-104756Y-20398D01*
X-104834Y-20359D01*
X-104912Y-20301D01*
X-105009Y-20243D01*
X-105145Y-20165D01*
X-105281Y-20087D01*
X-105456Y-20009D01*
X-105845Y-19873D01*
X-106292Y-19737D01*
X-106817Y-19640D01*
X-107109Y-19601D01*
D02*
G37*
G36*
X-100042Y-488311D02*
X-100142D01*
X-100209Y-488328D01*
X-100392Y-488361D01*
X-100609Y-488444D01*
X-100858Y-488561D01*
X-100992Y-488644D01*
X-101125Y-488744D01*
X-101258Y-488861D01*
X-101391Y-488994D01*
X-101508Y-489144D01*
X-101625Y-489327D01*
Y-489344D01*
X-101641Y-489377D01*
X-101675Y-489427D01*
X-101708Y-489511D01*
X-101758Y-489627D01*
X-101808Y-489761D01*
X-101858Y-489911D01*
X-101925Y-490094D01*
X-101975Y-490310D01*
X-102041Y-490544D01*
X-102091Y-490794D01*
X-102141Y-491077D01*
X-102174Y-491393D01*
X-102208Y-491726D01*
X-102241Y-492093D01*
X-102258Y-492493D01*
X-98126Y-492443D01*
Y-492426D01*
Y-492410D01*
Y-492310D01*
Y-492160D01*
X-98143Y-491960D01*
Y-491726D01*
X-98159Y-491460D01*
X-98176Y-491177D01*
X-98209Y-490877D01*
Y-490860D01*
Y-490843D01*
X-98226Y-490743D01*
X-98243Y-490594D01*
X-98276Y-490410D01*
X-98309Y-490194D01*
X-98359Y-489977D01*
X-98409Y-489744D01*
X-98476Y-489544D01*
X-98493Y-489511D01*
X-98509Y-489444D01*
X-98559Y-489344D01*
X-98626Y-489211D01*
X-98709Y-489061D01*
X-98826Y-488911D01*
X-98943Y-488761D01*
X-99076Y-488628D01*
X-99092Y-488611D01*
X-99142Y-488578D01*
X-99226Y-488528D01*
X-99342Y-488461D01*
X-99476Y-488411D01*
X-99642Y-488361D01*
X-99825Y-488328D01*
X-100042Y-488311D01*
D02*
G37*
G36*
X-161534Y-493426D02*
X-161567Y-493442D01*
X-161667Y-493476D01*
X-161801Y-493526D01*
X-161984Y-493592D01*
X-162217Y-493676D01*
X-162450Y-493776D01*
X-162984Y-493992D01*
X-163017Y-494009D01*
X-163100Y-494042D01*
X-163233Y-494109D01*
X-163400Y-494192D01*
X-163583Y-494292D01*
X-163783Y-494409D01*
X-163966Y-494525D01*
X-164150Y-494659D01*
X-164166Y-494675D01*
X-164233Y-494725D01*
X-164316Y-494808D01*
X-164416Y-494909D01*
X-164550Y-495042D01*
X-164666Y-495208D01*
X-164783Y-495392D01*
X-164899Y-495592D01*
X-164916Y-495608D01*
X-164933Y-495691D01*
X-164983Y-495808D01*
X-165033Y-495958D01*
X-165083Y-496158D01*
X-165116Y-496375D01*
X-165149Y-496625D01*
X-165166Y-496908D01*
Y-496924D01*
Y-496958D01*
Y-497008D01*
Y-497074D01*
X-165149Y-497241D01*
X-165116Y-497458D01*
X-165049Y-497707D01*
X-164983Y-497941D01*
X-164866Y-498157D01*
X-164716Y-498357D01*
X-164699Y-498374D01*
X-164633Y-498424D01*
X-164533Y-498507D01*
X-164400Y-498574D01*
X-164233Y-498657D01*
X-164033Y-498740D01*
X-163816Y-498790D01*
X-163583Y-498807D01*
X-163467D01*
X-163333Y-498790D01*
X-163167Y-498774D01*
X-162984Y-498740D01*
X-162784Y-498690D01*
X-162600Y-498624D01*
X-162417Y-498524D01*
X-162400Y-498507D01*
X-162334Y-498474D01*
X-162250Y-498407D01*
X-162134Y-498324D01*
X-162017Y-498224D01*
X-161867Y-498107D01*
X-161734Y-497957D01*
X-161601Y-497807D01*
X-161534Y-493426D01*
D02*
G37*
%LPD*%
M02*
