G04 Layer_Color=16711935*
%FSLAX25Y25*%
%MOIN*%
G70*
G01*
G75*
%ADD11C,0.00500*%
%ADD12C,0.01000*%
D11*
X-23228Y-503583D02*
G03*
X-23228Y-503583I-6299J0D01*
G01*
X-204173Y-21417D02*
G03*
X-204173Y-21417I-6299J0D01*
G01*
X-23228D02*
G03*
X-23228Y-21417I-6299J0D01*
G01*
X-204169Y-503583D02*
G03*
X-204169Y-503583I-6299J0D01*
G01*
D12*
X-187927Y-67618D02*
G03*
X-187927Y-67618I-15500J0D01*
G01*
X-18636D02*
G03*
X-18636Y-67618I-15500J0D01*
G01*
X-136746Y-103051D02*
G03*
X-136746Y-103051I-15500J0D01*
G01*
X-69817D02*
G03*
X-69817Y-103051I-15500J0D01*
G01*
X-203230Y-166043D02*
G03*
X-203230Y-166043I-12008J0D01*
G01*
Y-232972D02*
G03*
X-203230Y-232972I-12008J0D01*
G01*
Y-299902D02*
G03*
X-203230Y-299902I-12008J0D01*
G01*
Y-366831D02*
G03*
X-203230Y-366831I-12008J0D01*
G01*
Y-433760D02*
G03*
X-203230Y-433760I-12008J0D01*
G01*
X-140238Y-166043D02*
G03*
X-140238Y-166043I-12008J0D01*
G01*
Y-232972D02*
G03*
X-140238Y-232972I-12008J0D01*
G01*
Y-299902D02*
G03*
X-140238Y-299902I-12008J0D01*
G01*
Y-366831D02*
G03*
X-140238Y-366831I-12008J0D01*
G01*
Y-433760D02*
G03*
X-140238Y-433760I-12008J0D01*
G01*
X-77246Y-166043D02*
G03*
X-77246Y-166043I-12008J0D01*
G01*
Y-232972D02*
G03*
X-77246Y-232972I-12008J0D01*
G01*
Y-299902D02*
G03*
X-77246Y-299902I-12008J0D01*
G01*
Y-366831D02*
G03*
X-77246Y-366831I-12008J0D01*
G01*
Y-433760D02*
G03*
X-77246Y-433760I-12008J0D01*
G01*
X-14254Y-166043D02*
G03*
X-14254Y-166043I-12008J0D01*
G01*
Y-232972D02*
G03*
X-14254Y-232972I-12008J0D01*
G01*
Y-299902D02*
G03*
X-14254Y-299902I-12008J0D01*
G01*
Y-366831D02*
G03*
X-14254Y-366831I-12008J0D01*
G01*
Y-433760D02*
G03*
X-14254Y-433760I-12008J0D01*
G01*
M02*
