M48
;Layer_Color=9474304
;FILE_FORMAT=2:5
INCH,LZ
;TYPE=PLATED
T1F00S00C0.02800
T2F00S00C0.03000
T3F00S00C0.03150
T4F00S00C0.03543
T5F00S00C0.03937
T6F00S00C0.05906
T7F00S00C0.08661
T8F00S00C0.11811
%
T01
X-0075984Y-0142913
X-0051984Y-0126504
X-0041984Y-0122504
X-0017984Y-0106504
X0014016Y-0124504
X0010016Y-0134504
X0022016Y-0136504
X0028016Y-0142504
X0066016Y-0120504
X0064016Y-0108504
X0070016Y-0102504
X0064016Y-0072504
X0055118Y-0075606
X0060016Y-0052504
X0074016
X0086016Y-0026504
X0060016Y-0022504
X0054016Y-0024504
X0060016Y0003496
X0026016Y0039496
X0004016Y0019496
X0010016Y-0024504
X001063Y-0045118
X0023075Y-0059961
X0019559Y-0064961
X0017559Y-0074961
X-0009984Y-0084504
X-0017984Y-0080504
X-0003984Y-0098504
Y-0058504
X-0005984Y-0038504
X-0015984Y-0044504
X-0041984Y-0042504
X-0067984Y-0038504
X-0075984Y-0024504
X-0093984Y-0008504
X-0105984Y-0000504
X-0085984Y0021496
X-0048457Y-0018032
X-0047984Y-0066504
X-0059984
X-0071984Y-0060504
X-0083984Y-0068504
X-007337Y-0080504
X-0005984Y0039496
X-0053984Y0063496
X-0081984Y0081496
X-0053984Y0129496
X0016016
X0059252Y013226
X0072016Y0147496
Y0185496
T02
X0016016Y-0032504
T03
X-0067992Y-0187894
X-0057992Y-0167894
X-0067992Y-0137894
X-0005
Y-0187894
X0005Y-0167894
X0067992
X0057992Y-0187894
Y-0137894
X-0067984Y-0008504
X-0057984Y0011496
X-0067984Y0041496
T04
X-0016378Y0190945
Y0200945
X-0006378
Y0190945
X0003622
Y0200945
X0013622
Y0190945
X0023622
Y0200945
T05
X-009252Y0167323
X-0082677
X-0072835
X-0041339Y013189
X-0031496
X-0021654
X0025591
X0035433
X0045276
X0076772Y0167323
X0086614
X0096457
T06
X-0094488Y-0196772
Y-0184567
Y-015189
Y-0129842
Y-0117638
X-0031496
Y-0129842
Y-015189
Y-0184567
Y-0196772
X0031496
Y-0184567
Y-015189
Y-0129842
Y-0117638
X0094488
Y-0129842
Y-015189
Y-0184567
Y-0196772
Y-0084961
Y-0062913
Y-0050709
Y-0018032
Y0004016
Y001622
Y0048898
X0031496
Y001622
Y0004016
Y-0018032
Y-0050709
Y-0062913
Y-0084961
X-0031496
Y-0062913
Y-0050709
Y-0018032
Y0004016
Y001622
Y0048898
X-0094488
Y001622
Y0004016
Y-0018032
Y-0050709
Y-0062913
Y-0084961
Y0070945
Y008315
Y0115827
X-0031496
Y008315
Y0070945
X0031496
Y008315
Y0115827
X0094488
Y008315
Y0070945
T07
X-0103543Y0194882
X-0061811
X-0052362Y0159449
X-001063
X0014567
X0056299
X0065748Y0194882
X010748
T08
X-0094488Y-017126
X-0031496
Y-0104331
X-0094488
X0031496
X0094488
Y-017126
X0031496
Y-0037402
X0094488
Y0029528
X0031496
X-0031496
X-0094488
Y-0037402
X-0031496
Y0096457
X-0094488
X0031496
X0094488
M30
