G04 Layer_Color=8388736*
%FSLAX25Y25*%
%MOIN*%
G70*
G01*
G75*
%ADD37C,0.10642*%
%ADD38C,0.06800*%
%ADD39C,0.12611*%
%ADD40C,0.06706*%
%ADD41R,0.06706X0.06706*%
%ADD42R,0.05918X0.05918*%
%ADD43C,0.05918*%
D37*
X31496Y-62913D02*
D03*
Y-50709D02*
D03*
Y-18032D02*
D03*
X-94488Y4016D02*
D03*
Y16220D02*
D03*
Y48898D02*
D03*
Y-129842D02*
D03*
Y-117638D02*
D03*
Y-84961D02*
D03*
X-31496Y4016D02*
D03*
Y16220D02*
D03*
Y48898D02*
D03*
Y-129842D02*
D03*
Y-117638D02*
D03*
Y-84961D02*
D03*
X-94488Y-196772D02*
D03*
Y-184567D02*
D03*
Y-151890D02*
D03*
Y70945D02*
D03*
Y83150D02*
D03*
Y115827D02*
D03*
X-31496Y-196772D02*
D03*
Y-184567D02*
D03*
Y-151890D02*
D03*
Y70945D02*
D03*
Y83150D02*
D03*
Y115827D02*
D03*
X-94488Y-62913D02*
D03*
Y-50709D02*
D03*
Y-18032D02*
D03*
X-31496Y-62913D02*
D03*
Y-50709D02*
D03*
Y-18032D02*
D03*
X94488Y4016D02*
D03*
Y16220D02*
D03*
Y48898D02*
D03*
Y-129842D02*
D03*
Y-117638D02*
D03*
Y-84961D02*
D03*
X31496Y4016D02*
D03*
Y16220D02*
D03*
Y48898D02*
D03*
Y-129842D02*
D03*
Y-117638D02*
D03*
Y-84961D02*
D03*
X94488Y-196772D02*
D03*
Y-184567D02*
D03*
Y-151890D02*
D03*
Y70945D02*
D03*
Y83150D02*
D03*
Y115827D02*
D03*
X31496Y-196772D02*
D03*
Y-184567D02*
D03*
Y-151890D02*
D03*
Y70945D02*
D03*
Y83150D02*
D03*
Y115827D02*
D03*
X94488Y-62913D02*
D03*
Y-50709D02*
D03*
Y-18032D02*
D03*
D38*
X31496Y-37402D02*
D03*
X45276Y131890D02*
D03*
X25591D02*
D03*
X35433D02*
D03*
X-94488Y29528D02*
D03*
Y-104331D02*
D03*
X-31496Y29528D02*
D03*
Y-104331D02*
D03*
X-94488Y-171260D02*
D03*
Y96457D02*
D03*
X-31496Y-171260D02*
D03*
Y96457D02*
D03*
X-94488Y-37402D02*
D03*
X-31496D02*
D03*
X94488Y29528D02*
D03*
Y-104331D02*
D03*
X31496Y29528D02*
D03*
Y-104331D02*
D03*
X94488Y-171260D02*
D03*
Y96457D02*
D03*
X31496Y-171260D02*
D03*
Y96457D02*
D03*
X94488Y-37402D02*
D03*
X-72835Y167323D02*
D03*
X-92520D02*
D03*
X-82677D02*
D03*
X-21654Y131890D02*
D03*
X-41339D02*
D03*
X-31496D02*
D03*
X96457Y167323D02*
D03*
X76772D02*
D03*
X86614D02*
D03*
X16016Y-32504D02*
D03*
D39*
X14567Y159449D02*
D03*
X56299D02*
D03*
X-103543Y194882D02*
D03*
X-61811D02*
D03*
X-52362Y159449D02*
D03*
X-10630D02*
D03*
X65748Y194882D02*
D03*
X107480D02*
D03*
D40*
X-16378Y200945D02*
D03*
Y190945D02*
D03*
X-6378Y200945D02*
D03*
Y190945D02*
D03*
X3622Y200945D02*
D03*
Y190945D02*
D03*
X13622Y200945D02*
D03*
Y190945D02*
D03*
X23622Y200945D02*
D03*
D41*
Y190945D02*
D03*
D42*
X-5000Y-137894D02*
D03*
X-67984Y41496D02*
D03*
X-67992Y-137894D02*
D03*
X57992D02*
D03*
D43*
X5000Y-167894D02*
D03*
X-5000Y-187894D02*
D03*
X-57984Y11496D02*
D03*
X-67984Y-8504D02*
D03*
X-57992Y-167894D02*
D03*
X-67992Y-187894D02*
D03*
X67992Y-167894D02*
D03*
X57992Y-187894D02*
D03*
M02*
