G04 Layer_Color=65535*
%FSLAX25Y25*%
%MOIN*%
G70*
G01*
G75*
%ADD10C,0.01000*%
%ADD34C,0.00984*%
%ADD35C,0.00600*%
%ADD36C,0.00787*%
D10*
X-77192Y79499D02*
X-78192Y78499D01*
Y76500D01*
X-77192Y75500D01*
X-76193D01*
X-75193Y76500D01*
Y78499D01*
X-74193Y79499D01*
X-73194D01*
X-72194Y78499D01*
Y76500D01*
X-73194Y75500D01*
X-78192Y81498D02*
X-72194D01*
X-75193D01*
X-76193Y82498D01*
Y84497D01*
X-75193Y85497D01*
X-72194D01*
Y90495D02*
Y88496D01*
X-73194Y87496D01*
X-75193D01*
X-76193Y88496D01*
Y90495D01*
X-75193Y91495D01*
X-74193D01*
Y87496D01*
X-76193Y93494D02*
X-72194D01*
X-74193D01*
X-75193Y94494D01*
X-76193Y95494D01*
Y96493D01*
X-70195Y99492D02*
X-76193D01*
Y102491D01*
X-75193Y103491D01*
X-73194D01*
X-72194Y102491D01*
Y99492D01*
X-76193Y106490D02*
Y108489D01*
X-75193Y109489D01*
X-72194D01*
Y106490D01*
X-73194Y105490D01*
X-74193Y106490D01*
Y109489D01*
X-72194Y117486D02*
Y119486D01*
Y118486D01*
X-76193D01*
Y117486D01*
X-72194Y122485D02*
Y125484D01*
X-73194Y126484D01*
X-74193Y125484D01*
Y123485D01*
X-75193Y122485D01*
X-76193Y123485D01*
Y126484D01*
X-64596Y76500D02*
Y78499D01*
X-63596Y79499D01*
X-60597D01*
Y76500D01*
X-61597Y75500D01*
X-62596Y76500D01*
Y79499D01*
X-60597Y88496D02*
X-65595D01*
X-63596D01*
Y87496D01*
Y89495D01*
Y88496D01*
X-65595D01*
X-66595Y89495D01*
X-64596Y92494D02*
X-61597D01*
X-60597Y93494D01*
Y96493D01*
X-64596D01*
X-60597Y98493D02*
X-64596D01*
Y101492D01*
X-63596Y102491D01*
X-60597D01*
Y104491D02*
X-64596D01*
Y107490D01*
X-63596Y108489D01*
X-60597D01*
X-64596Y110489D02*
X-61597D01*
X-60597Y111488D01*
Y114487D01*
X-59597D01*
X-58598Y113488D01*
Y112488D01*
X-60597Y114487D02*
X-64596D01*
X-52999Y75500D02*
X-50000D01*
X-49000Y76500D01*
X-50000Y77499D01*
X-49000Y78499D01*
X-50000Y79499D01*
X-52999D01*
X-49000Y82498D02*
Y84497D01*
X-50000Y85497D01*
X-51999D01*
X-52999Y84497D01*
Y82498D01*
X-51999Y81498D01*
X-50000D01*
X-49000Y82498D01*
X-52999Y87496D02*
X-49000D01*
X-50999D01*
X-51999Y88496D01*
X-52999Y89495D01*
Y90495D01*
X-54998Y97493D02*
X-49000D01*
Y94494D01*
X-50000Y93494D01*
X-51999D01*
X-52999Y94494D01*
Y97493D01*
X-11594Y70999D02*
Y67000D01*
X-8595D01*
Y68999D01*
Y67000D01*
X-5596D01*
X-9595Y72998D02*
X-6596D01*
X-5596Y73998D01*
Y76997D01*
X-9595D01*
X-5596Y78996D02*
X-9595D01*
Y81995D01*
X-8595Y82995D01*
X-5596D01*
Y84994D02*
X-11594D01*
X-7596D02*
X-9595Y87993D01*
X-7596Y84994D02*
X-5596Y87993D01*
X-9595Y90992D02*
X-6596D01*
X-5596Y91992D01*
Y94991D01*
X-4597D01*
X-3597Y93991D01*
Y92992D01*
X-5596Y94991D02*
X-9595D01*
X1002Y70999D02*
X3Y69999D01*
Y68000D01*
X1002Y67000D01*
X5001D01*
X6001Y68000D01*
Y69999D01*
X5001Y70999D01*
X3Y72998D02*
X6001D01*
X3002D01*
X2002Y73998D01*
Y75997D01*
X3002Y76997D01*
X6001D01*
X2002Y78996D02*
X5001D01*
X6001Y79996D01*
Y82995D01*
X2002D01*
X6001Y84994D02*
X2002D01*
Y87993D01*
X3002Y88993D01*
X6001D01*
Y90992D02*
X3D01*
X4001D02*
X2002Y93991D01*
X4001Y90992D02*
X6001Y93991D01*
X2002Y96990D02*
X5001D01*
X6001Y97990D01*
Y100989D01*
X7000D01*
X8000Y99989D01*
Y98990D01*
X6001Y100989D02*
X2002D01*
X-15193Y-87000D02*
Y-85001D01*
Y-86000D01*
X-9195D01*
Y-87000D01*
Y-85001D01*
X-13193Y-72005D02*
Y-75004D01*
X-12194Y-76004D01*
X-10194D01*
X-9195Y-75004D01*
Y-72005D01*
Y-69006D02*
Y-67006D01*
X-10194Y-66007D01*
X-12194D01*
X-13193Y-67006D01*
Y-69006D01*
X-12194Y-70006D01*
X-10194D01*
X-9195Y-69006D01*
X-13193Y-64007D02*
X-10194D01*
X-9195Y-63008D01*
Y-60009D01*
X-13193D01*
X-9195Y-58009D02*
Y-56010D01*
Y-57010D01*
X-15193D01*
Y-58009D01*
Y-49012D02*
X-9195D01*
Y-52011D01*
X-10194Y-53011D01*
X-12194D01*
X-13193Y-52011D01*
Y-49012D01*
Y-37016D02*
Y-40015D01*
X-12194Y-41015D01*
X-10194D01*
X-9195Y-40015D01*
Y-37016D01*
X-13193Y-35017D02*
X-9195D01*
X-11194D01*
X-12194Y-34017D01*
X-13193Y-33018D01*
Y-32018D01*
Y-29019D02*
X-10194D01*
X-9195Y-28019D01*
Y-25020D01*
X-13193D01*
X-9195Y-23021D02*
Y-20022D01*
X-10194Y-19022D01*
X-11194Y-20022D01*
Y-22021D01*
X-12194Y-23021D01*
X-13193Y-22021D01*
Y-19022D01*
X-15193Y-17023D02*
X-9195D01*
X-12194D01*
X-13193Y-16023D01*
Y-14024D01*
X-12194Y-13024D01*
X-9195D01*
X-3596Y-86000D02*
Y-84001D01*
X-2596Y-83001D01*
X403D01*
Y-86000D01*
X-597Y-87000D01*
X-1596Y-86000D01*
Y-83001D01*
X-5595Y-75004D02*
X403D01*
Y-72005D01*
X-597Y-71005D01*
X-1596D01*
X-2596D01*
X-3596Y-72005D01*
Y-75004D01*
Y-69006D02*
X-597D01*
X403Y-68006D01*
Y-65007D01*
X-3596D01*
Y-63008D02*
X403D01*
X-1596D01*
X-2596Y-62008D01*
X-3596Y-61008D01*
Y-60009D01*
Y-57010D02*
X403D01*
X-1596D01*
X-2596Y-56010D01*
X-3596Y-55010D01*
Y-54011D01*
X403Y-51012D02*
Y-49012D01*
Y-50012D01*
X-3596D01*
Y-51012D01*
X-4595Y-45014D02*
X-3596D01*
Y-46013D01*
Y-44014D01*
Y-45014D01*
X-597D01*
X403Y-44014D01*
Y-40015D02*
Y-38016D01*
X-597Y-37016D01*
X-2596D01*
X-3596Y-38016D01*
Y-40015D01*
X-2596Y-41015D01*
X-597D01*
X403Y-40015D01*
X6002Y-87000D02*
X10001D01*
X8001D01*
X7002Y-86000D01*
X6002Y-85001D01*
Y-84001D01*
X10001Y-81002D02*
Y-79003D01*
Y-80002D01*
X6002D01*
Y-81002D01*
X12000Y-74004D02*
Y-73005D01*
X11000Y-72005D01*
X6002D01*
Y-75004D01*
X7002Y-76004D01*
X9001D01*
X10001Y-75004D01*
Y-72005D01*
X4003Y-70006D02*
X10001D01*
X7002D01*
X6002Y-69006D01*
Y-67006D01*
X7002Y-66007D01*
X10001D01*
X5002Y-63008D02*
X6002D01*
Y-64007D01*
Y-62008D01*
Y-63008D01*
X9001D01*
X10001Y-62008D01*
Y-53011D02*
X6002D01*
Y-50012D01*
X7002Y-49012D01*
X10001D01*
Y-46013D02*
Y-44014D01*
X9001Y-43014D01*
X7002D01*
X6002Y-44014D01*
Y-46013D01*
X7002Y-47013D01*
X9001D01*
X10001Y-46013D01*
X6002Y-41015D02*
X9001D01*
X10001Y-40015D01*
X9001Y-39015D01*
X10001Y-38016D01*
X9001Y-37016D01*
X6002D01*
X57713Y-109741D02*
X63711D01*
Y-106742D01*
X62712Y-105743D01*
X61712D01*
X60712Y-106742D01*
Y-109741D01*
Y-106742D01*
X59712Y-105743D01*
X58713D01*
X57713Y-106742D01*
Y-109741D01*
X59712Y-102744D02*
Y-100744D01*
X60712Y-99745D01*
X63711D01*
Y-102744D01*
X62712Y-103743D01*
X61712Y-102744D01*
Y-99745D01*
X57713Y-97745D02*
X63711D01*
Y-94746D01*
X62712Y-93747D01*
X61712D01*
X60712D01*
X59712Y-94746D01*
Y-97745D01*
Y-90748D02*
Y-88748D01*
X60712Y-87748D01*
X63711D01*
Y-90748D01*
X62712Y-91747D01*
X61712Y-90748D01*
Y-87748D01*
X57713Y-85749D02*
X63711D01*
Y-82750D01*
X62712Y-81751D01*
X61712D01*
X60712D01*
X59712Y-82750D01*
Y-85749D01*
X63711Y-78751D02*
Y-76752D01*
X62712Y-75752D01*
X60712D01*
X59712Y-76752D01*
Y-78751D01*
X60712Y-79751D01*
X62712D01*
X63711Y-78751D01*
Y-72753D02*
Y-70754D01*
X62712Y-69754D01*
X60712D01*
X59712Y-70754D01*
Y-72753D01*
X60712Y-73753D01*
X62712D01*
X63711Y-72753D01*
Y-64756D02*
Y-66755D01*
X62712Y-67755D01*
X60712D01*
X59712Y-66755D01*
Y-64756D01*
X60712Y-63756D01*
X61712D01*
Y-67755D01*
X59712Y-61757D02*
X62712D01*
X63711Y-60757D01*
Y-57758D01*
X64711D01*
X65711Y-58758D01*
Y-59758D01*
X63711Y-57758D02*
X59712D01*
X58713Y-55759D02*
X57713Y-54759D01*
Y-52760D01*
X58713Y-51760D01*
X59712D01*
X61712Y-53759D01*
X62712D02*
X63711D01*
X-67998Y-108501D02*
X-68997Y-109501D01*
Y-111500D01*
X-67998Y-112500D01*
X-66998D01*
X-65998Y-111500D01*
Y-109501D01*
X-64999Y-108501D01*
X-63999D01*
X-62999Y-109501D01*
Y-111500D01*
X-63999Y-112500D01*
X-61000Y-106502D02*
X-66998D01*
Y-103503D01*
X-65998Y-102503D01*
X-63999D01*
X-62999Y-103503D01*
Y-106502D01*
X-66998Y-99504D02*
Y-97505D01*
X-65998Y-96505D01*
X-62999D01*
Y-99504D01*
X-63999Y-100504D01*
X-64999Y-99504D01*
Y-96505D01*
X-62999Y-94506D02*
X-66998D01*
Y-91507D01*
X-65998Y-90507D01*
X-62999D01*
Y-88508D02*
Y-86508D01*
Y-87508D01*
X-66998D01*
Y-88508D01*
X-62999Y-83509D02*
X-68997D01*
X-64999D02*
X-66998Y-80510D01*
X-64999Y-83509D02*
X-62999Y-80510D01*
Y-76512D02*
Y-74512D01*
X-63999Y-73513D01*
X-65998D01*
X-66998Y-74512D01*
Y-76512D01*
X-65998Y-77511D01*
X-63999D01*
X-62999Y-76512D01*
X-61000Y-71513D02*
X-66998D01*
Y-68514D01*
X-65998Y-67514D01*
X-63999D01*
X-62999Y-68514D01*
Y-71513D01*
Y-65515D02*
Y-63516D01*
Y-64516D01*
X-66998D01*
Y-65515D01*
X-67998Y-59517D02*
X-66998D01*
Y-60517D01*
Y-58517D01*
Y-59517D01*
X-63999D01*
X-62999Y-58517D01*
X-66998Y-54519D02*
Y-52519D01*
X-65998Y-51520D01*
X-62999D01*
Y-54519D01*
X-63999Y-55518D01*
X-64999Y-54519D01*
Y-51520D01*
X19745Y-554D02*
X17745D01*
X18745D01*
Y-5552D01*
X17745Y-6552D01*
X16746D01*
X15746Y-5552D01*
X25743Y-6552D02*
X21744D01*
X25743Y-2553D01*
Y-1553D01*
X24743Y-554D01*
X22744D01*
X21744Y-1553D01*
X27742D02*
X28742Y-554D01*
X30741D01*
X31741Y-1553D01*
Y-5552D01*
X30741Y-6552D01*
X28742D01*
X27742Y-5552D01*
Y-1553D01*
X8016Y169496D02*
Y175494D01*
X11015D01*
X12015Y174494D01*
Y172495D01*
X11015Y171495D01*
X8016D01*
X17013Y169496D02*
Y175494D01*
X14014Y172495D01*
X18012D01*
X-3501Y-209502D02*
X-4501Y-208502D01*
X-6500D01*
X-7500Y-209502D01*
Y-213500D01*
X-6500Y-214500D01*
X-4501D01*
X-3501Y-213500D01*
X-1502Y-208502D02*
Y-214500D01*
Y-211501D01*
X2497D01*
Y-208502D01*
Y-214500D01*
X4496Y-209502D02*
X5496Y-208502D01*
X7495D01*
X8495Y-209502D01*
Y-210501D01*
X7495Y-211501D01*
X6496D01*
X7495D01*
X8495Y-212501D01*
Y-213500D01*
X7495Y-214500D01*
X5496D01*
X4496Y-213500D01*
X-106242Y66363D02*
X-108242D01*
X-107242D01*
Y61365D01*
X-108242Y60365D01*
X-109241D01*
X-110241Y61365D01*
X-104243Y60365D02*
X-102243D01*
X-103243D01*
Y66363D01*
X-104243Y65364D01*
X-106242Y-67537D02*
X-108242D01*
X-107242D01*
Y-72535D01*
X-108242Y-73535D01*
X-109241D01*
X-110241Y-72535D01*
X-100244Y-73535D02*
X-104243D01*
X-100244Y-69536D01*
Y-68536D01*
X-101244Y-67537D01*
X-103243D01*
X-104243Y-68536D01*
X-43247Y66376D02*
X-45247D01*
X-44247D01*
Y61377D01*
X-45247Y60378D01*
X-46246D01*
X-47246Y61377D01*
X-41248Y65376D02*
X-40248Y66376D01*
X-38249D01*
X-37249Y65376D01*
Y64376D01*
X-38249Y63377D01*
X-39249D01*
X-38249D01*
X-37249Y62377D01*
Y61377D01*
X-38249Y60378D01*
X-40248D01*
X-41248Y61377D01*
X-43247Y-67483D02*
X-45247D01*
X-44247D01*
Y-72481D01*
X-45247Y-73481D01*
X-46246D01*
X-47246Y-72481D01*
X-38249Y-73481D02*
Y-67483D01*
X-41248Y-70482D01*
X-37249D01*
X-106242Y-134437D02*
X-108242D01*
X-107242D01*
Y-139435D01*
X-108242Y-140435D01*
X-109241D01*
X-110241Y-139435D01*
X-100244Y-134437D02*
X-104243D01*
Y-137436D01*
X-102243Y-136436D01*
X-101244D01*
X-100244Y-137436D01*
Y-139435D01*
X-101244Y-140435D01*
X-103243D01*
X-104243Y-139435D01*
X-106242Y133263D02*
X-108242D01*
X-107242D01*
Y128265D01*
X-108242Y127265D01*
X-109241D01*
X-110241Y128265D01*
X-100244Y133263D02*
X-102243Y132264D01*
X-104243Y130264D01*
Y128265D01*
X-103243Y127265D01*
X-101244D01*
X-100244Y128265D01*
Y129265D01*
X-101244Y130264D01*
X-104243D01*
X-43247Y-134412D02*
X-45247D01*
X-44247D01*
Y-139410D01*
X-45247Y-140410D01*
X-46246D01*
X-47246Y-139410D01*
X-41248Y-134412D02*
X-37249D01*
Y-135412D01*
X-41248Y-139410D01*
Y-140410D01*
X-51986Y127494D02*
X-53985D01*
X-52985D01*
Y122496D01*
X-53985Y121496D01*
X-54985D01*
X-55984Y122496D01*
X-49986Y126494D02*
X-48987Y127494D01*
X-46987D01*
X-45987Y126494D01*
Y125495D01*
X-46987Y124495D01*
X-45987Y123495D01*
Y122496D01*
X-46987Y121496D01*
X-48987D01*
X-49986Y122496D01*
Y123495D01*
X-48987Y124495D01*
X-49986Y125495D01*
Y126494D01*
X-48987Y124495D02*
X-46987D01*
X-106242Y-637D02*
X-108242D01*
X-107242D01*
Y-5635D01*
X-108242Y-6635D01*
X-109241D01*
X-110241Y-5635D01*
X-104243D02*
X-103243Y-6635D01*
X-101244D01*
X-100244Y-5635D01*
Y-1636D01*
X-101244Y-637D01*
X-103243D01*
X-104243Y-1636D01*
Y-2636D01*
X-103243Y-3636D01*
X-100244D01*
X-43247Y-554D02*
X-45247D01*
X-44247D01*
Y-5552D01*
X-45247Y-6552D01*
X-46246D01*
X-47246Y-5552D01*
X-41248Y-6552D02*
X-39249D01*
X-40248D01*
Y-554D01*
X-41248Y-1553D01*
X-36250D02*
X-35250Y-554D01*
X-33251D01*
X-32251Y-1553D01*
Y-5552D01*
X-33251Y-6552D01*
X-35250D01*
X-36250Y-5552D01*
Y-1553D01*
X75499Y62498D02*
X73499D01*
X74499D01*
Y57500D01*
X73499Y56500D01*
X72500D01*
X71500Y57500D01*
X77498Y56500D02*
X79497D01*
X78498D01*
Y62498D01*
X77498Y61498D01*
X82496Y56500D02*
X84496D01*
X83496D01*
Y62498D01*
X82496Y61498D01*
X82737Y-67483D02*
X80738D01*
X81737D01*
Y-72481D01*
X80738Y-73481D01*
X79738D01*
X78738Y-72481D01*
X84736Y-73481D02*
X86736D01*
X85736D01*
Y-67483D01*
X84736Y-68482D01*
X93733Y-73481D02*
X89735D01*
X93733Y-69482D01*
Y-68482D01*
X92734Y-67483D01*
X90734D01*
X89735Y-68482D01*
X15499Y64498D02*
X13499D01*
X14499D01*
Y59500D01*
X13499Y58500D01*
X12500D01*
X11500Y59500D01*
X17498Y58500D02*
X19497D01*
X18498D01*
Y64498D01*
X17498Y63498D01*
X22496D02*
X23496Y64498D01*
X25495D01*
X26495Y63498D01*
Y62499D01*
X25495Y61499D01*
X24496D01*
X25495D01*
X26495Y60499D01*
Y59500D01*
X25495Y58500D01*
X23496D01*
X22496Y59500D01*
X19745Y-67483D02*
X17745D01*
X18745D01*
Y-72481D01*
X17745Y-73481D01*
X16746D01*
X15746Y-72481D01*
X21744Y-73481D02*
X23743D01*
X22744D01*
Y-67483D01*
X21744Y-68482D01*
X29741Y-73481D02*
Y-67483D01*
X26743Y-70482D01*
X30741D01*
X82737Y-134412D02*
X80738D01*
X81737D01*
Y-139410D01*
X80738Y-140410D01*
X79738D01*
X78738Y-139410D01*
X84736Y-140410D02*
X86736D01*
X85736D01*
Y-134412D01*
X84736Y-135412D01*
X93733Y-134412D02*
X89735D01*
Y-137411D01*
X91734Y-136411D01*
X92734D01*
X93733Y-137411D01*
Y-139410D01*
X92734Y-140410D01*
X90734D01*
X89735Y-139410D01*
X90499Y132998D02*
X88499D01*
X89499D01*
Y128000D01*
X88499Y127000D01*
X87500D01*
X86500Y128000D01*
X92498Y127000D02*
X94497D01*
X93498D01*
Y132998D01*
X92498Y131998D01*
X101495Y132998D02*
X99496Y131998D01*
X97496Y129999D01*
Y128000D01*
X98496Y127000D01*
X100496D01*
X101495Y128000D01*
Y128999D01*
X100496Y129999D01*
X97496D01*
X19745Y-134412D02*
X17745D01*
X18745D01*
Y-139410D01*
X17745Y-140410D01*
X16746D01*
X15746Y-139410D01*
X21744Y-140410D02*
X23743D01*
X22744D01*
Y-134412D01*
X21744Y-135412D01*
X26743Y-134412D02*
X30741D01*
Y-135412D01*
X26743Y-139410D01*
Y-140410D01*
X28499Y132498D02*
X26499D01*
X27499D01*
Y127500D01*
X26499Y126500D01*
X25500D01*
X24500Y127500D01*
X30498Y126500D02*
X32497D01*
X31498D01*
Y132498D01*
X30498Y131498D01*
X35496D02*
X36496Y132498D01*
X38495D01*
X39495Y131498D01*
Y130499D01*
X38495Y129499D01*
X39495Y128499D01*
Y127500D01*
X38495Y126500D01*
X36496D01*
X35496Y127500D01*
Y128499D01*
X36496Y129499D01*
X35496Y130499D01*
Y131498D01*
X36496Y129499D02*
X38495D01*
X82737Y-554D02*
X80738D01*
X81737D01*
Y-5552D01*
X80738Y-6552D01*
X79738D01*
X78738Y-5552D01*
X84736Y-6552D02*
X86736D01*
X85736D01*
Y-554D01*
X84736Y-1553D01*
X89735Y-5552D02*
X90734Y-6552D01*
X92734D01*
X93733Y-5552D01*
Y-1553D01*
X92734Y-554D01*
X90734D01*
X89735Y-1553D01*
Y-2553D01*
X90734Y-3553D01*
X93733D01*
X-89984Y205496D02*
Y211494D01*
X-86985D01*
X-85985Y210494D01*
Y208495D01*
X-86985Y207495D01*
X-89984D01*
X-83986Y205496D02*
X-81987D01*
X-82986D01*
Y211494D01*
X-83986Y210494D01*
X-11984Y169496D02*
Y175494D01*
X-8985D01*
X-7986Y174494D01*
Y172495D01*
X-8985Y171495D01*
X-11984D01*
X-1987Y169496D02*
X-5986D01*
X-1987Y173495D01*
Y174494D01*
X-2987Y175494D01*
X-4986D01*
X-5986Y174494D01*
X66016Y205496D02*
Y211494D01*
X69015D01*
X70015Y210494D01*
Y208495D01*
X69015Y207495D01*
X66016D01*
X72014Y210494D02*
X73014Y211494D01*
X75013D01*
X76012Y210494D01*
Y209495D01*
X75013Y208495D01*
X74013D01*
X75013D01*
X76012Y207495D01*
Y206496D01*
X75013Y205496D01*
X73014D01*
X72014Y206496D01*
X-66001Y-28002D02*
X-67001Y-27002D01*
X-69000D01*
X-70000Y-28002D01*
Y-32000D01*
X-69000Y-33000D01*
X-67001D01*
X-66001Y-32000D01*
X-64002Y-27002D02*
Y-33000D01*
Y-30001D01*
X-60003D01*
Y-27002D01*
Y-33000D01*
X-58004D02*
X-56005D01*
X-57004D01*
Y-27002D01*
X-58004Y-28002D01*
X-68001Y-208502D02*
X-69001Y-207502D01*
X-71000D01*
X-72000Y-208502D01*
Y-212500D01*
X-71000Y-213500D01*
X-69001D01*
X-68001Y-212500D01*
X-66002Y-207502D02*
Y-213500D01*
Y-210501D01*
X-62003D01*
Y-207502D01*
Y-213500D01*
X-56005D02*
X-60004D01*
X-56005Y-209501D01*
Y-208502D01*
X-57005Y-207502D01*
X-59004D01*
X-60004Y-208502D01*
X58999Y-210002D02*
X57999Y-209002D01*
X56000D01*
X55000Y-210002D01*
Y-214000D01*
X56000Y-215000D01*
X57999D01*
X58999Y-214000D01*
X60998Y-209002D02*
Y-215000D01*
Y-212001D01*
X64997D01*
Y-209002D01*
Y-215000D01*
X69995D02*
Y-209002D01*
X66996Y-212001D01*
X70995D01*
D34*
X-11575Y-137894D02*
G03*
X-11575Y-137894I-492J0D01*
G01*
X-74559Y41496D02*
G03*
X-74559Y41496I-492J0D01*
G01*
X-74567Y-137894D02*
G03*
X-74567Y-137894I-492J0D01*
G01*
X51417D02*
G03*
X51417Y-137894I-492J0D01*
G01*
D35*
X36996Y-57402D02*
X45496D01*
X46496Y-56402D01*
Y-18902D01*
X37496Y-9902D02*
X46496Y-18902D01*
X25996Y-9902D02*
X37496D01*
X14996Y-20902D02*
X25996Y-9902D01*
X14996Y-56402D02*
Y-20902D01*
Y-56402D02*
X15496Y-56902D01*
X24496D01*
X-88988Y9528D02*
X-80488D01*
X-79488Y10528D01*
Y48028D01*
X-88488Y57028D02*
X-79488Y48028D01*
X-99988Y57028D02*
X-88488D01*
X-110988Y46028D02*
X-99988Y57028D01*
X-110988Y10528D02*
Y46028D01*
Y10528D02*
X-110488Y10028D01*
X-101488D01*
X-88988Y-124331D02*
X-80488D01*
X-79488Y-123331D01*
Y-85831D01*
X-88488Y-76831D02*
X-79488Y-85831D01*
X-99988Y-76831D02*
X-88488D01*
X-110988Y-87831D02*
X-99988Y-76831D01*
X-110988Y-123331D02*
Y-87831D01*
Y-123331D02*
X-110488Y-123831D01*
X-101488D01*
X-25996Y9528D02*
X-17496D01*
X-16496Y10528D01*
Y48028D01*
X-25496Y57028D02*
X-16496Y48028D01*
X-36996Y57028D02*
X-25496D01*
X-47996Y46028D02*
X-36996Y57028D01*
X-47996Y10528D02*
Y46028D01*
Y10528D02*
X-47496Y10028D01*
X-38496D01*
X-25996Y-124331D02*
X-17496D01*
X-16496Y-123331D01*
Y-85831D01*
X-25496Y-76831D02*
X-16496Y-85831D01*
X-36996Y-76831D02*
X-25496D01*
X-47996Y-87831D02*
X-36996Y-76831D01*
X-47996Y-123331D02*
Y-87831D01*
Y-123331D02*
X-47496Y-123831D01*
X-38496D01*
X-88988Y-191260D02*
X-80488D01*
X-79488Y-190260D01*
Y-152760D01*
X-88488Y-143760D02*
X-79488Y-152760D01*
X-99988Y-143760D02*
X-88488D01*
X-110988Y-154760D02*
X-99988Y-143760D01*
X-110988Y-190260D02*
Y-154760D01*
Y-190260D02*
X-110488Y-190760D01*
X-101488D01*
X-88988Y76457D02*
X-80488D01*
X-79488Y77457D01*
Y114957D01*
X-88488Y123957D02*
X-79488Y114957D01*
X-99988Y123957D02*
X-88488D01*
X-110988Y112957D02*
X-99988Y123957D01*
X-110988Y77457D02*
Y112957D01*
Y77457D02*
X-110488Y76957D01*
X-101488D01*
X-25996Y-191260D02*
X-17496D01*
X-16496Y-190260D01*
Y-152760D01*
X-25496Y-143760D02*
X-16496Y-152760D01*
X-36996Y-143760D02*
X-25496D01*
X-47996Y-154760D02*
X-36996Y-143760D01*
X-47996Y-190260D02*
Y-154760D01*
Y-190260D02*
X-47496Y-190760D01*
X-38496D01*
X-25996Y76457D02*
X-17496D01*
X-16496Y77457D01*
Y114957D01*
X-25496Y123957D02*
X-16496Y114957D01*
X-36996Y123957D02*
X-25496D01*
X-47996Y112957D02*
X-36996Y123957D01*
X-47996Y77457D02*
Y112957D01*
Y77457D02*
X-47496Y76957D01*
X-38496D01*
X-88988Y-57402D02*
X-80488D01*
X-79488Y-56402D01*
Y-18902D01*
X-88488Y-9902D02*
X-79488Y-18902D01*
X-99988Y-9902D02*
X-88488D01*
X-110988Y-20902D02*
X-99988Y-9902D01*
X-110988Y-56402D02*
Y-20902D01*
Y-56402D02*
X-110488Y-56902D01*
X-101488D01*
X-25996Y-57402D02*
X-17496D01*
X-16496Y-56402D01*
Y-18902D01*
X-25496Y-9902D02*
X-16496Y-18902D01*
X-36996Y-9902D02*
X-25496D01*
X-47996Y-20902D02*
X-36996Y-9902D01*
X-47996Y-56402D02*
Y-20902D01*
Y-56402D02*
X-47496Y-56902D01*
X-38496D01*
X99988Y9528D02*
X108488D01*
X109488Y10528D01*
Y48028D01*
X100488Y57028D02*
X109488Y48028D01*
X88988Y57028D02*
X100488D01*
X77988Y46028D02*
X88988Y57028D01*
X77988Y10528D02*
Y46028D01*
Y10528D02*
X78488Y10028D01*
X87488D01*
X99988Y-124331D02*
X108488D01*
X109488Y-123331D01*
Y-85831D01*
X100488Y-76831D02*
X109488Y-85831D01*
X88988Y-76831D02*
X100488D01*
X77988Y-87831D02*
X88988Y-76831D01*
X77988Y-123331D02*
Y-87831D01*
Y-123331D02*
X78488Y-123831D01*
X87488D01*
X36996Y9528D02*
X45496D01*
X46496Y10528D01*
Y48028D01*
X37496Y57028D02*
X46496Y48028D01*
X25996Y57028D02*
X37496D01*
X14996Y46028D02*
X25996Y57028D01*
X14996Y10528D02*
Y46028D01*
Y10528D02*
X15496Y10028D01*
X24496D01*
X36996Y-124331D02*
X45496D01*
X46496Y-123331D01*
Y-85831D01*
X37496Y-76831D02*
X46496Y-85831D01*
X25996Y-76831D02*
X37496D01*
X14996Y-87831D02*
X25996Y-76831D01*
X14996Y-123331D02*
Y-87831D01*
Y-123331D02*
X15496Y-123831D01*
X24496D01*
X99988Y-191260D02*
X108488D01*
X109488Y-190260D01*
Y-152760D01*
X100488Y-143760D02*
X109488Y-152760D01*
X88988Y-143760D02*
X100488D01*
X77988Y-154760D02*
X88988Y-143760D01*
X77988Y-190260D02*
Y-154760D01*
Y-190260D02*
X78488Y-190760D01*
X87488D01*
X99988Y76457D02*
X108488D01*
X109488Y77457D01*
Y114957D01*
X100488Y123957D02*
X109488Y114957D01*
X88988Y123957D02*
X100488D01*
X77988Y112957D02*
X88988Y123957D01*
X77988Y77457D02*
Y112957D01*
Y77457D02*
X78488Y76957D01*
X87488D01*
X36996Y-191260D02*
X45496D01*
X46496Y-190260D01*
Y-152760D01*
X37496Y-143760D02*
X46496Y-152760D01*
X25996Y-143760D02*
X37496D01*
X14996Y-154760D02*
X25996Y-143760D01*
X14996Y-190260D02*
Y-154760D01*
Y-190260D02*
X15496Y-190760D01*
X24496D01*
X36996Y76457D02*
X45496D01*
X46496Y77457D01*
Y114957D01*
X37496Y123957D02*
X46496Y114957D01*
X25996Y123957D02*
X37496D01*
X14996Y112957D02*
X25996Y123957D01*
X14996Y77457D02*
Y112957D01*
Y77457D02*
X15496Y76957D01*
X24496D01*
X99988Y-57402D02*
X108488D01*
X109488Y-56402D01*
Y-18902D01*
X100488Y-9902D02*
X109488Y-18902D01*
X88988Y-9902D02*
X100488D01*
X77988Y-20902D02*
X88988Y-9902D01*
X77988Y-56402D02*
Y-20902D01*
Y-56402D02*
X78488Y-56902D01*
X87488D01*
D36*
X9508Y-200886D02*
Y-125886D01*
X-9508D02*
X9508D01*
X-9508Y-200886D02*
X9508D01*
X-9508D02*
Y-125886D01*
X-53476Y-21496D02*
Y53504D01*
X-72492D02*
X-53476D01*
X-72492Y-21496D02*
X-53476D01*
X-72492D02*
Y53504D01*
X-53484Y-200886D02*
Y-125886D01*
X-72500D02*
X-53484D01*
X-72500Y-200886D02*
X-53484D01*
X-72500D02*
Y-125886D01*
X72500Y-200886D02*
Y-125886D01*
X53484D02*
X72500D01*
X53484Y-200886D02*
X72500D01*
X53484D02*
Y-125886D01*
M02*
