G04 Layer_Physical_Order=2*
G04 Layer_Color=16711680*
%FSLAX25Y25*%
%MOIN*%
G70*
G01*
G75*
%ADD10C,0.01000*%
%ADD11C,0.09843*%
%ADD12C,0.06000*%
%ADD13C,0.11811*%
%ADD14C,0.05906*%
%ADD15R,0.05906X0.05906*%
%ADD16R,0.05118X0.05118*%
%ADD17C,0.05118*%
%ADD18C,0.05000*%
%ADD19R,0.05512X0.04134*%
%ADD20R,0.03347X0.05118*%
%ADD21R,0.06299X0.11024*%
%ADD22R,0.10236X0.06299*%
%ADD23R,0.05906X0.02165*%
%ADD24R,0.03937X0.03150*%
%ADD25R,0.02756X0.04724*%
%ADD26R,0.04528X0.05709*%
%ADD27R,0.05709X0.04528*%
%ADD28R,0.03150X0.03937*%
%ADD29R,0.04724X0.02756*%
%ADD30R,0.05118X0.03347*%
%ADD31R,0.04134X0.05512*%
%ADD32C,0.02000*%
%ADD33C,0.05000*%
G36*
X114173Y198070D02*
X113673Y197945D01*
X113250Y198737D01*
X112387Y199788D01*
X111335Y200651D01*
X110136Y201293D01*
X108834Y201688D01*
X107480Y201821D01*
X106127Y201688D01*
X104825Y201293D01*
X103625Y200651D01*
X102574Y199788D01*
X101711Y198737D01*
X101070Y197537D01*
X100675Y196236D01*
X100541Y194882D01*
X100675Y193528D01*
X101070Y192227D01*
X101711Y191027D01*
X102574Y189975D01*
X103625Y189112D01*
X104825Y188471D01*
X106127Y188076D01*
X107480Y187943D01*
X108834Y188076D01*
X110136Y188471D01*
X111335Y189112D01*
X112387Y189975D01*
X113250Y191027D01*
X113673Y191819D01*
X114173Y191694D01*
Y-218504D01*
X-112848D01*
Y218332D01*
X-112706Y218504D01*
X114173D01*
Y198070D01*
D02*
G37*
%LPC*%
G36*
X51098Y-2347D02*
X45752D01*
Y-9465D01*
X46896D01*
Y-12701D01*
X44276D01*
Y-13746D01*
X35608D01*
X34802Y-13084D01*
X33773Y-12535D01*
X32657Y-12196D01*
X31496Y-12082D01*
X30335Y-12196D01*
X29219Y-12535D01*
X28190Y-13084D01*
X27289Y-13824D01*
X26549Y-14726D01*
X25999Y-15755D01*
X25660Y-16871D01*
X25546Y-18032D01*
X25660Y-19192D01*
X25999Y-20308D01*
X26549Y-21337D01*
X27289Y-22239D01*
X27612Y-22504D01*
X27443Y-22975D01*
X13171D01*
X13073Y-22739D01*
X12512Y-22008D01*
X11781Y-21447D01*
X10929Y-21094D01*
X10016Y-20974D01*
X9102Y-21094D01*
X8251Y-21447D01*
X7519Y-22008D01*
X6959Y-22739D01*
X6606Y-23590D01*
X6486Y-24504D01*
X6606Y-25418D01*
X6959Y-26269D01*
X7519Y-27000D01*
X8251Y-27561D01*
X9102Y-27914D01*
X10016Y-28034D01*
X10929Y-27914D01*
X11781Y-27561D01*
X12512Y-27000D01*
X13073Y-26269D01*
X13171Y-26033D01*
X44276D01*
Y-30606D01*
X43852Y-30791D01*
X43488D01*
Y-36925D01*
X51000D01*
Y-30791D01*
X50636D01*
X50213Y-30606D01*
Y-26033D01*
X50861D01*
X50959Y-26269D01*
X51520Y-27000D01*
X52251Y-27561D01*
X53102Y-27914D01*
X54016Y-28034D01*
X54929Y-27914D01*
X55781Y-27561D01*
X56512Y-27000D01*
X57073Y-26269D01*
X57381Y-25524D01*
X57714Y-25366D01*
X57942Y-25324D01*
X58251Y-25561D01*
X59102Y-25914D01*
X60016Y-26034D01*
X60929Y-25914D01*
X61781Y-25561D01*
X62512Y-25000D01*
X62673Y-24790D01*
X63173Y-24917D01*
Y-24917D01*
X70685D01*
Y-18783D01*
X68458D01*
Y-16650D01*
X70784D01*
Y-10122D01*
X63075D01*
Y-16650D01*
X65400D01*
Y-18783D01*
X63173D01*
Y-20107D01*
X62673Y-20218D01*
X62512Y-20008D01*
X61781Y-19447D01*
X60929Y-19094D01*
X60016Y-18974D01*
X59102Y-19094D01*
X58251Y-19447D01*
X57520Y-20008D01*
X56959Y-20739D01*
X56650Y-21483D01*
X56318Y-21642D01*
X56089Y-21683D01*
X55781Y-21447D01*
X54929Y-21094D01*
X54016Y-20974D01*
X53102Y-21094D01*
X52251Y-21447D01*
X51520Y-22008D01*
X50959Y-22739D01*
X50861Y-22975D01*
X35549D01*
X35380Y-22504D01*
X35703Y-22239D01*
X36443Y-21337D01*
X36993Y-20308D01*
X37332Y-19192D01*
X37446Y-18032D01*
X37374Y-17305D01*
X37820Y-16805D01*
X44276D01*
Y-17850D01*
X50213D01*
Y-12701D01*
X49955D01*
Y-9465D01*
X51098D01*
Y-2347D01*
D02*
G37*
G36*
X-64460Y-9004D02*
X-67484D01*
Y-12028D01*
X-67055Y-11971D01*
X-66189Y-11613D01*
X-65446Y-11042D01*
X-64875Y-10299D01*
X-64517Y-9433D01*
X-64460Y-9004D01*
D02*
G37*
G36*
X-106799Y-21736D02*
X-109858D01*
Y-23910D01*
X-106799D01*
Y-21736D01*
D02*
G37*
G36*
X-102740D02*
X-105799D01*
Y-23910D01*
X-102740D01*
Y-21736D01*
D02*
G37*
G36*
X-12189Y-7169D02*
X-19307D01*
Y-12516D01*
X-19140D01*
X-18717Y-12701D01*
Y-13746D01*
X-27384D01*
X-28190Y-13084D01*
X-29219Y-12535D01*
X-30335Y-12196D01*
X-31496Y-12082D01*
X-32657Y-12196D01*
X-33773Y-12535D01*
X-34802Y-13084D01*
X-35703Y-13824D01*
X-36443Y-14726D01*
X-36993Y-15755D01*
X-37332Y-16871D01*
X-37446Y-18032D01*
X-37332Y-19192D01*
X-36993Y-20308D01*
X-36443Y-21337D01*
X-35703Y-22239D01*
X-34802Y-22979D01*
X-33773Y-23528D01*
X-32657Y-23867D01*
X-31496Y-23981D01*
X-30335Y-23867D01*
X-29219Y-23528D01*
X-28190Y-22979D01*
X-27289Y-22239D01*
X-26549Y-21337D01*
X-25999Y-20308D01*
X-25660Y-19192D01*
X-25546Y-18032D01*
X-25618Y-17305D01*
X-25172Y-16805D01*
X-18717D01*
Y-17850D01*
X-12779D01*
Y-12701D01*
X-12356Y-12516D01*
X-12189D01*
Y-7169D01*
D02*
G37*
G36*
X-68484Y-9004D02*
X-71508D01*
X-71452Y-9433D01*
X-71093Y-10299D01*
X-70523Y-11042D01*
X-69779Y-11613D01*
X-68913Y-11971D01*
X-68484Y-12028D01*
Y-9004D01*
D02*
G37*
G36*
Y-4980D02*
X-68913Y-5037D01*
X-69779Y-5395D01*
X-70523Y-5966D01*
X-71093Y-6709D01*
X-71452Y-7575D01*
X-71508Y-8004D01*
X-68484D01*
Y-4980D01*
D02*
G37*
G36*
X-67484Y-4980D02*
Y-8004D01*
X-64460D01*
X-64517Y-7575D01*
X-64875Y-6709D01*
X-65446Y-5966D01*
X-66189Y-5395D01*
X-67055Y-5037D01*
X-67484Y-4980D01*
D02*
G37*
G36*
X-16248Y-3650D02*
X-19307D01*
Y-5823D01*
X-16248D01*
Y-3650D01*
D02*
G37*
G36*
X60016Y7026D02*
X59102Y6906D01*
X58251Y6553D01*
X57520Y5992D01*
X56959Y5261D01*
X56606Y4410D01*
X56486Y3496D01*
X56606Y2582D01*
X56959Y1731D01*
X57520Y1000D01*
X58251Y439D01*
X58546Y317D01*
X58603Y29D01*
X58934Y-467D01*
X63075Y-4608D01*
Y-9563D01*
X70784D01*
Y-3035D01*
X65828D01*
X62373Y420D01*
X62406Y919D01*
X62512Y1000D01*
X63073Y1731D01*
X63426Y2582D01*
X63546Y3496D01*
X63426Y4410D01*
X63073Y5261D01*
X62512Y5992D01*
X61781Y6553D01*
X60929Y6906D01*
X60016Y7026D01*
D02*
G37*
G36*
X54618Y-6406D02*
X52445D01*
Y-9465D01*
X54618D01*
Y-6406D01*
D02*
G37*
G36*
X57791D02*
X55618D01*
Y-9465D01*
X57791D01*
Y-6406D01*
D02*
G37*
G36*
X-102740Y-24909D02*
X-105799D01*
Y-27083D01*
X-102740D01*
Y-24909D01*
D02*
G37*
G36*
X-6677Y-72878D02*
X-14583D01*
Y-73459D01*
X-15026Y-73548D01*
X-15522Y-73879D01*
X-18618Y-76974D01*
X-42598D01*
X-43184Y-77091D01*
X-43680Y-77422D01*
X-43997Y-77740D01*
X-47378D01*
Y-83677D01*
X-42228D01*
Y-80297D01*
X-41965Y-80033D01*
X-35568D01*
X-35399Y-80504D01*
X-35703Y-80753D01*
X-36443Y-81655D01*
X-36993Y-82684D01*
X-37220Y-83431D01*
X-38441D01*
X-39026Y-83548D01*
X-39522Y-83879D01*
X-44998Y-89354D01*
X-51394D01*
Y-94346D01*
X-51932Y-94453D01*
X-52428Y-94785D01*
X-55066Y-97422D01*
X-55397Y-97919D01*
X-55514Y-98504D01*
Y-117866D01*
X-55397Y-118451D01*
X-55066Y-118948D01*
X-51477Y-122536D01*
X-51711Y-123010D01*
X-51984Y-122974D01*
X-52898Y-123094D01*
X-53749Y-123447D01*
X-54448Y-123982D01*
X-56087D01*
Y-122937D01*
X-62024D01*
Y-128087D01*
X-56087D01*
Y-127041D01*
X-55444D01*
X-55394Y-127418D01*
X-55041Y-128269D01*
X-54480Y-129000D01*
X-53749Y-129561D01*
X-53027Y-129860D01*
X-53127Y-130360D01*
X-61988D01*
X-62573Y-130477D01*
X-63070Y-130808D01*
X-66596Y-134335D01*
X-71551D01*
Y-141453D01*
X-64433D01*
Y-136497D01*
X-61355Y-133419D01*
X-51815D01*
X-48916Y-136318D01*
X-48420Y-136649D01*
X-47835Y-136766D01*
X-46866D01*
Y-137909D01*
X-44837D01*
Y-144768D01*
X-47063D01*
Y-150902D01*
X-39551D01*
Y-144768D01*
X-41778D01*
Y-137909D01*
X-39748D01*
Y-134431D01*
X-37455Y-132138D01*
X-36901Y-132291D01*
X-36443Y-133148D01*
X-35703Y-134050D01*
X-34802Y-134790D01*
X-33773Y-135339D01*
X-32657Y-135678D01*
X-31996Y-135743D01*
Y-129842D01*
X-30996D01*
Y-135743D01*
X-30335Y-135678D01*
X-29219Y-135339D01*
X-28190Y-134790D01*
X-27289Y-134050D01*
X-26549Y-133148D01*
X-25999Y-132120D01*
X-25514Y-132242D01*
Y-135871D01*
X-33066Y-143422D01*
X-33397Y-143919D01*
X-33514Y-144504D01*
Y-146314D01*
X-33773Y-146393D01*
X-34802Y-146943D01*
X-35703Y-147682D01*
X-36443Y-148584D01*
X-36993Y-149613D01*
X-37332Y-150729D01*
X-37446Y-151890D01*
X-37332Y-153050D01*
X-36993Y-154167D01*
X-36443Y-155195D01*
X-35703Y-156097D01*
X-34802Y-156837D01*
X-33773Y-157387D01*
X-32657Y-157725D01*
X-31496Y-157840D01*
X-30335Y-157725D01*
X-29219Y-157387D01*
X-28530Y-157018D01*
X-21596Y-163953D01*
X-21803Y-164453D01*
X-23441D01*
Y-170587D01*
X-15929D01*
Y-164453D01*
X-18156D01*
Y-163701D01*
X-18272Y-163116D01*
X-18604Y-162619D01*
X-26367Y-154856D01*
X-25999Y-154167D01*
X-25660Y-153050D01*
X-25546Y-151890D01*
X-25660Y-150729D01*
X-25999Y-149613D01*
X-26549Y-148584D01*
X-27289Y-147682D01*
X-28190Y-146943D01*
X-29219Y-146393D01*
X-30335Y-146054D01*
X-30455Y-146042D01*
Y-145137D01*
X-22903Y-137585D01*
X-22571Y-137089D01*
X-22455Y-136504D01*
Y-98504D01*
X-22571Y-97919D01*
X-22903Y-97422D01*
X-24903Y-95423D01*
X-25399Y-95091D01*
X-25984Y-94974D01*
X-35984D01*
X-36569Y-95091D01*
X-37066Y-95423D01*
X-41066Y-99423D01*
X-41397Y-99919D01*
X-41514Y-100504D01*
Y-109871D01*
X-42595Y-110951D01*
X-43095Y-110744D01*
Y-106283D01*
X-51394D01*
Y-117640D01*
X-51856Y-117832D01*
X-52455Y-117233D01*
Y-99137D01*
X-51856Y-98538D01*
X-51394Y-98729D01*
Y-102378D01*
X-43095D01*
Y-91777D01*
X-37807Y-86490D01*
X-37220D01*
X-36993Y-87238D01*
X-36443Y-88266D01*
X-35703Y-89168D01*
X-34802Y-89908D01*
X-33773Y-90458D01*
X-32657Y-90796D01*
X-31496Y-90911D01*
X-30335Y-90796D01*
X-29219Y-90458D01*
X-28190Y-89908D01*
X-27289Y-89168D01*
X-26549Y-88266D01*
X-25999Y-87238D01*
X-25660Y-86121D01*
X-25546Y-84961D01*
X-25660Y-83800D01*
X-25999Y-82684D01*
X-26549Y-81655D01*
X-27289Y-80753D01*
X-27593Y-80504D01*
X-27424Y-80033D01*
X-21832D01*
X-21502Y-80409D01*
X-21514Y-80504D01*
X-21394Y-81418D01*
X-21042Y-82269D01*
X-20481Y-83000D01*
X-19749Y-83561D01*
X-18898Y-83914D01*
X-17984Y-84034D01*
X-17071Y-83914D01*
X-16219Y-83561D01*
X-15488Y-83000D01*
X-14967Y-82322D01*
X-14583Y-82043D01*
X-13073D01*
X-12852Y-82492D01*
X-13041Y-82739D01*
X-13394Y-83590D01*
X-13514Y-84504D01*
X-13394Y-85418D01*
X-13041Y-86269D01*
X-12481Y-87000D01*
X-11749Y-87561D01*
X-10898Y-87914D01*
X-9984Y-88034D01*
X-9071Y-87914D01*
X-8219Y-87561D01*
X-7488Y-87000D01*
X-6927Y-86269D01*
X-6574Y-85418D01*
X-6454Y-84504D01*
X-6574Y-83590D01*
X-6927Y-82739D01*
X-7117Y-82492D01*
X-6895Y-82043D01*
X-6677D01*
Y-77878D01*
X-14092D01*
X-14262Y-77878D01*
X-14648Y-77444D01*
X-14643Y-77326D01*
X-14361Y-77043D01*
X-6677D01*
Y-72878D01*
D02*
G37*
G36*
X55118Y-72076D02*
X54204Y-72196D01*
X53353Y-72549D01*
X52622Y-73110D01*
X52061Y-73841D01*
X51708Y-74693D01*
X51588Y-75606D01*
X51708Y-76520D01*
X52061Y-77371D01*
X52075Y-77390D01*
X51854Y-77839D01*
X51362D01*
Y-83973D01*
X58874D01*
Y-77839D01*
X58382D01*
X58161Y-77390D01*
X58175Y-77371D01*
X58528Y-76520D01*
X58648Y-75606D01*
X58528Y-74693D01*
X58175Y-73841D01*
X57614Y-73110D01*
X56883Y-72549D01*
X56032Y-72196D01*
X55118Y-72076D01*
D02*
G37*
G36*
X-94488Y-79011D02*
X-95649Y-79125D01*
X-96765Y-79464D01*
X-97794Y-80014D01*
X-98695Y-80753D01*
X-99435Y-81655D01*
X-99585Y-81935D01*
X-102740D01*
Y-80791D01*
X-109858D01*
Y-86138D01*
X-102740D01*
Y-84994D01*
X-100435D01*
X-100324Y-86121D01*
X-99985Y-87238D01*
X-99435Y-88266D01*
X-98695Y-89168D01*
X-97794Y-89908D01*
X-96765Y-90458D01*
X-95649Y-90796D01*
X-94488Y-90911D01*
X-93327Y-90796D01*
X-92211Y-90458D01*
X-91522Y-90089D01*
X-88011Y-93601D01*
X-87514Y-93933D01*
X-86929Y-94049D01*
X-82890D01*
Y-102378D01*
X-74591D01*
Y-89354D01*
X-82890D01*
Y-90990D01*
X-86296D01*
X-89359Y-87927D01*
X-88991Y-87238D01*
X-88653Y-86121D01*
X-88538Y-84961D01*
X-88653Y-83800D01*
X-88991Y-82684D01*
X-89541Y-81655D01*
X-90281Y-80753D01*
X-91183Y-80014D01*
X-92211Y-79464D01*
X-93327Y-79125D01*
X-94488Y-79011D01*
D02*
G37*
G36*
X1736Y-91004D02*
X-1028D01*
Y-94358D01*
X1736D01*
Y-91004D01*
D02*
G37*
G36*
X-2028Y-86650D02*
X-4791D01*
Y-90004D01*
X-2028D01*
Y-86650D01*
D02*
G37*
G36*
X1736D02*
X-1028D01*
Y-90004D01*
X1736D01*
Y-86650D01*
D02*
G37*
G36*
X-11130Y-50461D02*
X-14583D01*
Y-52043D01*
X-11130D01*
Y-50461D01*
D02*
G37*
G36*
X10630Y-41588D02*
X9716Y-41708D01*
X8865Y-42061D01*
X8134Y-42622D01*
X7573Y-43353D01*
X7220Y-44204D01*
X7100Y-45118D01*
X7220Y-46032D01*
X7573Y-46883D01*
X7952Y-47378D01*
X7706Y-47878D01*
X6677D01*
Y-52043D01*
X14583D01*
Y-47878D01*
X13554D01*
X13308Y-47378D01*
X13687Y-46883D01*
X14040Y-46032D01*
X14160Y-45118D01*
X14040Y-44204D01*
X13687Y-43353D01*
X13126Y-42622D01*
X12395Y-42061D01*
X11544Y-41708D01*
X10630Y-41588D01*
D02*
G37*
G36*
X-106799Y-24909D02*
X-109858D01*
Y-27083D01*
X-106799D01*
Y-24909D01*
D02*
G37*
G36*
X85547Y-69079D02*
X79413D01*
Y-76591D01*
X85547D01*
Y-74364D01*
X103225D01*
X103331Y-74470D01*
Y-77850D01*
X109268D01*
Y-72701D01*
X105887D01*
X104940Y-71753D01*
X104444Y-71422D01*
X103858Y-71305D01*
X85547D01*
Y-69079D01*
D02*
G37*
G36*
X93988Y-63413D02*
X88587D01*
X88653Y-64074D01*
X88991Y-65190D01*
X89541Y-66219D01*
X90281Y-67121D01*
X91183Y-67861D01*
X92211Y-68410D01*
X93327Y-68749D01*
X93988Y-68814D01*
Y-63413D01*
D02*
G37*
G36*
X100389D02*
X94988D01*
Y-68814D01*
X95649Y-68749D01*
X96765Y-68410D01*
X97794Y-67861D01*
X98695Y-67121D01*
X99435Y-66219D01*
X99985Y-65190D01*
X100324Y-64074D01*
X100389Y-63413D01*
D02*
G37*
G36*
X-12189Y-3650D02*
X-15248D01*
Y-5823D01*
X-12189D01*
Y-3650D01*
D02*
G37*
G36*
X78240Y3461D02*
X75181D01*
Y1287D01*
X78240D01*
Y3461D01*
D02*
G37*
G36*
X82299D02*
X79240D01*
Y1287D01*
X82299D01*
Y3461D01*
D02*
G37*
G36*
X82177Y9933D02*
X79118D01*
Y7760D01*
X82177D01*
Y9933D01*
D02*
G37*
G36*
X37397Y3516D02*
X31996D01*
Y-1885D01*
X32657Y-1820D01*
X33773Y-1481D01*
X34802Y-931D01*
X35703Y-192D01*
X36443Y710D01*
X36993Y1739D01*
X37332Y2855D01*
X37397Y3516D01*
D02*
G37*
G36*
X93988D02*
X88587D01*
X88653Y2855D01*
X88991Y1739D01*
X89541Y710D01*
X90281Y-192D01*
X91183Y-931D01*
X92211Y-1481D01*
X93327Y-1820D01*
X93988Y-1885D01*
Y3516D01*
D02*
G37*
G36*
X100389D02*
X94988D01*
Y-1885D01*
X95649Y-1820D01*
X96765Y-1481D01*
X97794Y-931D01*
X98695Y-192D01*
X99435Y710D01*
X99985Y1739D01*
X100324Y2855D01*
X100389Y3516D01*
D02*
G37*
G36*
X-105016Y37693D02*
X-110953D01*
Y32543D01*
X-109481D01*
X-109397Y32123D01*
X-109066Y31627D01*
X-107829Y30390D01*
Y20587D01*
X-110055D01*
Y14453D01*
X-102543D01*
Y20587D01*
X-104770D01*
Y31024D01*
X-104886Y31609D01*
X-105176Y32043D01*
X-105053Y32503D01*
X-105036Y32543D01*
X-105016D01*
Y37693D01*
D02*
G37*
G36*
X7693Y28854D02*
X181D01*
Y22720D01*
X1647D01*
X1817Y22220D01*
X1519Y21992D01*
X958Y21261D01*
X606Y20410D01*
X486Y19496D01*
X606Y18582D01*
X958Y17731D01*
X1519Y17000D01*
X2251Y16439D01*
X3102Y16086D01*
X4016Y15966D01*
X4929Y16086D01*
X5781Y16439D01*
X6512Y17000D01*
X7073Y17731D01*
X7426Y18582D01*
X7546Y19496D01*
X7426Y20410D01*
X7073Y21261D01*
X6512Y21992D01*
X6215Y22220D01*
X6384Y22720D01*
X7693D01*
Y28854D01*
D02*
G37*
G36*
X18717Y37535D02*
X12779D01*
Y34797D01*
X7693D01*
Y36335D01*
X181D01*
Y30201D01*
X7693D01*
Y31738D01*
X14055D01*
X14640Y31855D01*
X15137Y32186D01*
X15336Y32386D01*
X18717D01*
Y37535D01*
D02*
G37*
G36*
X86236Y9933D02*
X83177D01*
Y7760D01*
X86236D01*
Y9933D01*
D02*
G37*
G36*
X82177Y13106D02*
X79118D01*
Y10933D01*
X82177D01*
Y13106D01*
D02*
G37*
G36*
X86236D02*
X83177D01*
Y10933D01*
X86236D01*
Y13106D01*
D02*
G37*
G36*
X30996Y3516D02*
X25595D01*
X25660Y2855D01*
X25999Y1739D01*
X26549Y710D01*
X27289Y-192D01*
X28190Y-931D01*
X29219Y-1481D01*
X30335Y-1820D01*
X30996Y-1885D01*
Y3516D01*
D02*
G37*
G36*
X-102543Y13106D02*
X-110055D01*
Y6972D01*
X-107514D01*
Y2651D01*
X-107749Y2553D01*
X-108481Y1992D01*
X-109042Y1261D01*
X-109394Y410D01*
X-109514Y-504D01*
X-109394Y-1418D01*
X-109042Y-2269D01*
X-108481Y-3000D01*
X-107749Y-3561D01*
X-106898Y-3914D01*
X-105984Y-4034D01*
X-105071Y-3914D01*
X-104219Y-3561D01*
X-103488Y-3000D01*
X-102927Y-2269D01*
X-102574Y-1418D01*
X-102454Y-504D01*
X-102574Y410D01*
X-102927Y1261D01*
X-103488Y1992D01*
X-104219Y2553D01*
X-104455Y2651D01*
Y6972D01*
X-102543D01*
Y13106D01*
D02*
G37*
G36*
X-16248Y-476D02*
X-19307D01*
Y-2650D01*
X-16248D01*
Y-476D01*
D02*
G37*
G36*
X-12189D02*
X-15248D01*
Y-2650D01*
X-12189D01*
Y-476D01*
D02*
G37*
G36*
X54618Y-2347D02*
X52445D01*
Y-5406D01*
X54618D01*
Y-2347D01*
D02*
G37*
G36*
X57791D02*
X55618D01*
Y-5406D01*
X57791D01*
Y-2347D01*
D02*
G37*
G36*
X-85984Y25026D02*
X-86898Y24906D01*
X-87749Y24553D01*
X-88481Y23992D01*
X-89042Y23261D01*
X-89394Y22410D01*
X-89514Y21496D01*
X-89394Y20582D01*
X-89042Y19731D01*
X-88481Y19000D01*
X-87749Y18439D01*
X-87514Y18341D01*
Y130D01*
X-92835Y-5192D01*
X-93071Y-5094D01*
X-93984Y-4974D01*
X-94898Y-5094D01*
X-95749Y-5447D01*
X-96481Y-6008D01*
X-97041Y-6739D01*
X-97394Y-7590D01*
X-97514Y-8504D01*
X-97394Y-9418D01*
X-97041Y-10269D01*
X-96481Y-11000D01*
X-95749Y-11561D01*
X-95472Y-11676D01*
X-95548Y-12186D01*
X-95649Y-12196D01*
X-96765Y-12535D01*
X-97794Y-13084D01*
X-98695Y-13824D01*
X-99435Y-14726D01*
X-99985Y-15755D01*
X-100212Y-16502D01*
X-102740D01*
Y-15043D01*
X-109858D01*
Y-20390D01*
X-102740D01*
Y-19561D01*
X-100212D01*
X-99985Y-20308D01*
X-99435Y-21337D01*
X-98695Y-22239D01*
X-97794Y-22979D01*
X-96765Y-23528D01*
X-95649Y-23867D01*
X-94488Y-23981D01*
X-93327Y-23867D01*
X-92211Y-23528D01*
X-91183Y-22979D01*
X-90281Y-22239D01*
X-89541Y-21337D01*
X-88991Y-20308D01*
X-88764Y-19561D01*
X-51612D01*
X-51514Y-19797D01*
X-50953Y-20528D01*
X-50222Y-21089D01*
X-49370Y-21441D01*
X-48457Y-21562D01*
X-47543Y-21441D01*
X-46692Y-21089D01*
X-45961Y-20528D01*
X-45399Y-19797D01*
X-45047Y-18945D01*
X-44927Y-18032D01*
X-45047Y-17118D01*
X-45399Y-16266D01*
X-45961Y-15535D01*
X-46692Y-14974D01*
X-47543Y-14622D01*
X-48457Y-14501D01*
X-49370Y-14622D01*
X-50222Y-14974D01*
X-50953Y-15535D01*
X-51514Y-16266D01*
X-51612Y-16502D01*
X-88764D01*
X-88991Y-15755D01*
X-89541Y-14726D01*
X-90281Y-13824D01*
X-91183Y-13084D01*
X-92211Y-12535D01*
X-92818Y-12350D01*
X-92844Y-11820D01*
X-92219Y-11561D01*
X-91488Y-11000D01*
X-90927Y-10269D01*
X-90574Y-9418D01*
X-90454Y-8504D01*
X-90574Y-7590D01*
X-90672Y-7355D01*
X-84903Y-1585D01*
X-84571Y-1089D01*
X-84455Y-504D01*
Y18341D01*
X-84219Y18439D01*
X-83488Y19000D01*
X-82927Y19731D01*
X-82574Y20582D01*
X-82454Y21496D01*
X-82574Y22410D01*
X-82927Y23261D01*
X-83488Y23992D01*
X-84219Y24553D01*
X-85071Y24906D01*
X-85984Y25026D01*
D02*
G37*
G36*
X-88587Y3516D02*
X-93988D01*
Y-1885D01*
X-93327Y-1820D01*
X-92211Y-1481D01*
X-91183Y-931D01*
X-90281Y-192D01*
X-89541Y710D01*
X-88991Y1739D01*
X-88653Y2855D01*
X-88587Y3516D01*
D02*
G37*
G36*
X-31996D02*
X-37397D01*
X-37332Y2855D01*
X-36993Y1739D01*
X-36443Y710D01*
X-35703Y-192D01*
X-34802Y-931D01*
X-33773Y-1481D01*
X-32657Y-1820D01*
X-31996Y-1885D01*
Y3516D01*
D02*
G37*
G36*
X-25595D02*
X-30996D01*
Y-1885D01*
X-30335Y-1820D01*
X-29219Y-1481D01*
X-28190Y-931D01*
X-27289Y-192D01*
X-26549Y710D01*
X-25999Y1739D01*
X-25660Y2855D01*
X-25595Y3516D01*
D02*
G37*
G36*
X78240Y287D02*
X75181D01*
Y-1886D01*
X78240D01*
Y287D01*
D02*
G37*
G36*
X82299D02*
X79240D01*
Y-1886D01*
X82299D01*
Y287D01*
D02*
G37*
G36*
X-94988Y3516D02*
X-100389D01*
X-100324Y2855D01*
X-99985Y1739D01*
X-99435Y710D01*
X-98695Y-192D01*
X-97794Y-931D01*
X-96765Y-1481D01*
X-95649Y-1820D01*
X-94988Y-1885D01*
Y3516D01*
D02*
G37*
G36*
X-2028Y-91004D02*
X-4791D01*
Y-94358D01*
X-2028D01*
Y-91004D01*
D02*
G37*
G36*
X57492Y-188394D02*
X54468D01*
X54525Y-188823D01*
X54883Y-189689D01*
X55454Y-190432D01*
X56197Y-191003D01*
X57063Y-191361D01*
X57492Y-191418D01*
Y-188394D01*
D02*
G37*
G36*
X-64468Y-188393D02*
X-67492D01*
Y-191418D01*
X-67063Y-191361D01*
X-66197Y-191003D01*
X-65454Y-190432D01*
X-64883Y-189689D01*
X-64525Y-188823D01*
X-64468Y-188393D01*
D02*
G37*
G36*
X57492Y-184370D02*
X57063Y-184426D01*
X56197Y-184785D01*
X55454Y-185355D01*
X54883Y-186099D01*
X54525Y-186965D01*
X54468Y-187394D01*
X57492D01*
Y-184370D01*
D02*
G37*
G36*
X61516Y-188394D02*
X58492D01*
Y-191418D01*
X58921Y-191361D01*
X59787Y-191003D01*
X60531Y-190432D01*
X61101Y-189689D01*
X61460Y-188823D01*
X61516Y-188394D01*
D02*
G37*
G36*
X-5500Y-188394D02*
X-8524D01*
X-8467Y-188823D01*
X-8109Y-189689D01*
X-7538Y-190432D01*
X-6795Y-191003D01*
X-5929Y-191361D01*
X-5500Y-191418D01*
Y-188394D01*
D02*
G37*
G36*
X-1476D02*
X-4500D01*
Y-191418D01*
X-4071Y-191361D01*
X-3205Y-191003D01*
X-2462Y-190432D01*
X-1891Y-189689D01*
X-1533Y-188823D01*
X-1476Y-188394D01*
D02*
G37*
G36*
X-68492Y-184370D02*
X-68921Y-184426D01*
X-69787Y-184785D01*
X-70530Y-185355D01*
X-71101Y-186099D01*
X-71460Y-186965D01*
X-71516Y-187393D01*
X-68492D01*
Y-184370D01*
D02*
G37*
G36*
X-67492Y-184370D02*
Y-187393D01*
X-64468D01*
X-64525Y-186965D01*
X-64883Y-186099D01*
X-65454Y-185355D01*
X-66197Y-184785D01*
X-67063Y-184426D01*
X-67492Y-184370D01*
D02*
G37*
G36*
X-20185Y-175500D02*
X-23441D01*
Y-178067D01*
X-20185D01*
Y-175500D01*
D02*
G37*
G36*
X58492Y-184370D02*
Y-187394D01*
X61516D01*
X61460Y-186965D01*
X61101Y-186099D01*
X60531Y-185355D01*
X59787Y-184785D01*
X58921Y-184426D01*
X58492Y-184370D01*
D02*
G37*
G36*
X-5500Y-184370D02*
X-5929Y-184426D01*
X-6795Y-184785D01*
X-7538Y-185355D01*
X-8109Y-186099D01*
X-8467Y-186965D01*
X-8524Y-187394D01*
X-5500D01*
Y-184370D01*
D02*
G37*
G36*
X-4500D02*
Y-187394D01*
X-1476D01*
X-1533Y-186965D01*
X-1891Y-186099D01*
X-2462Y-185355D01*
X-3205Y-184785D01*
X-4071Y-184426D01*
X-4500Y-184370D01*
D02*
G37*
G36*
X-68492Y-188393D02*
X-71516D01*
X-71460Y-188823D01*
X-71101Y-189689D01*
X-70530Y-190432D01*
X-69787Y-191003D01*
X-68921Y-191361D01*
X-68492Y-191418D01*
Y-188393D01*
D02*
G37*
G36*
X-25595Y-197272D02*
X-30996D01*
Y-202672D01*
X-30335Y-202607D01*
X-29219Y-202269D01*
X-28190Y-201719D01*
X-27289Y-200979D01*
X-26549Y-200077D01*
X-25999Y-199049D01*
X-25660Y-197932D01*
X-25595Y-197272D01*
D02*
G37*
G36*
X30996D02*
X25595D01*
X25660Y-197932D01*
X25999Y-199049D01*
X26549Y-200077D01*
X27289Y-200979D01*
X28190Y-201719D01*
X29219Y-202269D01*
X30335Y-202607D01*
X30996Y-202672D01*
Y-197272D01*
D02*
G37*
G36*
X37397D02*
X31996D01*
Y-202672D01*
X32657Y-202607D01*
X33773Y-202269D01*
X34802Y-201719D01*
X35703Y-200979D01*
X36443Y-200077D01*
X36993Y-199049D01*
X37332Y-197932D01*
X37397Y-197272D01*
D02*
G37*
G36*
X-94988D02*
X-100389D01*
X-100324Y-197932D01*
X-99985Y-199049D01*
X-99435Y-200077D01*
X-98695Y-200979D01*
X-97794Y-201719D01*
X-96765Y-202269D01*
X-95649Y-202607D01*
X-94988Y-202672D01*
Y-197272D01*
D02*
G37*
G36*
X-88587D02*
X-93988D01*
Y-202672D01*
X-93327Y-202607D01*
X-92211Y-202269D01*
X-91183Y-201719D01*
X-90281Y-200979D01*
X-89541Y-200077D01*
X-88991Y-199049D01*
X-88653Y-197932D01*
X-88587Y-197272D01*
D02*
G37*
G36*
X-31996D02*
X-37397D01*
X-37332Y-197932D01*
X-36993Y-199049D01*
X-36443Y-200077D01*
X-35703Y-200979D01*
X-34802Y-201719D01*
X-33773Y-202269D01*
X-32657Y-202607D01*
X-31996Y-202672D01*
Y-197272D01*
D02*
G37*
G36*
X-31496Y-164321D02*
X-32850Y-164454D01*
X-34152Y-164849D01*
X-35351Y-165490D01*
X-36403Y-166353D01*
X-37266Y-167405D01*
X-37907Y-168604D01*
X-38302Y-169906D01*
X-38435Y-171260D01*
X-38302Y-172614D01*
X-37907Y-173915D01*
X-37266Y-175115D01*
X-36403Y-176166D01*
X-35351Y-177029D01*
X-34152Y-177671D01*
X-32850Y-178065D01*
X-31923Y-178157D01*
Y-178659D01*
X-32657Y-178731D01*
X-33773Y-179070D01*
X-34802Y-179620D01*
X-35703Y-180360D01*
X-36443Y-181261D01*
X-36993Y-182290D01*
X-37332Y-183406D01*
X-37446Y-184567D01*
X-37332Y-185728D01*
X-36993Y-186844D01*
X-36443Y-187873D01*
X-35703Y-188774D01*
X-34802Y-189514D01*
X-33773Y-190064D01*
X-32657Y-190402D01*
X-32499Y-190418D01*
Y-190920D01*
X-32657Y-190936D01*
X-33773Y-191275D01*
X-34802Y-191824D01*
X-35703Y-192564D01*
X-36443Y-193466D01*
X-36993Y-194495D01*
X-37332Y-195611D01*
X-37397Y-196272D01*
X-25595D01*
X-25660Y-195611D01*
X-25999Y-194495D01*
X-26549Y-193466D01*
X-27289Y-192564D01*
X-28190Y-191824D01*
X-29219Y-191275D01*
X-30335Y-190936D01*
X-30493Y-190920D01*
Y-190418D01*
X-30335Y-190402D01*
X-29219Y-190064D01*
X-28190Y-189514D01*
X-27289Y-188774D01*
X-26549Y-187873D01*
X-25999Y-186844D01*
X-25660Y-185728D01*
X-25546Y-184567D01*
X-25660Y-183406D01*
X-25999Y-182290D01*
X-26549Y-181261D01*
X-27289Y-180360D01*
X-28190Y-179620D01*
X-29219Y-179070D01*
X-30335Y-178731D01*
X-31069Y-178659D01*
Y-178157D01*
X-30142Y-178065D01*
X-28841Y-177671D01*
X-27641Y-177029D01*
X-26590Y-176166D01*
X-25727Y-175115D01*
X-25085Y-173915D01*
X-24690Y-172614D01*
X-24557Y-171260D01*
X-24690Y-169906D01*
X-25085Y-168604D01*
X-25727Y-167405D01*
X-26590Y-166353D01*
X-27641Y-165490D01*
X-28841Y-164849D01*
X-30142Y-164454D01*
X-31496Y-164321D01*
D02*
G37*
G36*
X31496D02*
X30142Y-164454D01*
X28841Y-164849D01*
X27641Y-165490D01*
X26590Y-166353D01*
X25727Y-167405D01*
X25085Y-168604D01*
X24690Y-169906D01*
X24557Y-171260D01*
X24690Y-172614D01*
X25085Y-173915D01*
X25727Y-175115D01*
X26590Y-176166D01*
X27641Y-177029D01*
X28841Y-177671D01*
X30142Y-178065D01*
X31069Y-178157D01*
Y-178659D01*
X30335Y-178731D01*
X29219Y-179070D01*
X28190Y-179620D01*
X27289Y-180360D01*
X26549Y-181261D01*
X25999Y-182290D01*
X25660Y-183406D01*
X25546Y-184567D01*
X25660Y-185728D01*
X25999Y-186844D01*
X26549Y-187873D01*
X27289Y-188774D01*
X28190Y-189514D01*
X29219Y-190064D01*
X30335Y-190402D01*
X30493Y-190418D01*
Y-190920D01*
X30335Y-190936D01*
X29219Y-191275D01*
X28190Y-191824D01*
X27289Y-192564D01*
X26549Y-193466D01*
X25999Y-194495D01*
X25660Y-195611D01*
X25595Y-196272D01*
X37397D01*
X37332Y-195611D01*
X36993Y-194495D01*
X36443Y-193466D01*
X35703Y-192564D01*
X34802Y-191824D01*
X33773Y-191275D01*
X32657Y-190936D01*
X32499Y-190920D01*
Y-190418D01*
X32657Y-190402D01*
X33773Y-190064D01*
X34802Y-189514D01*
X35703Y-188774D01*
X36443Y-187873D01*
X36993Y-186844D01*
X37332Y-185728D01*
X37446Y-184567D01*
X37332Y-183406D01*
X36993Y-182290D01*
X36443Y-181261D01*
X35703Y-180360D01*
X34802Y-179620D01*
X33773Y-179070D01*
X32657Y-178731D01*
X31923Y-178659D01*
Y-178157D01*
X32850Y-178065D01*
X34152Y-177671D01*
X35351Y-177029D01*
X36403Y-176166D01*
X37266Y-175115D01*
X37907Y-173915D01*
X38302Y-172614D01*
X38435Y-171260D01*
X38302Y-169906D01*
X37907Y-168604D01*
X37266Y-167405D01*
X36403Y-166353D01*
X35351Y-165490D01*
X34152Y-164849D01*
X32850Y-164454D01*
X31496Y-164321D01*
D02*
G37*
G36*
X94488D02*
X93134Y-164454D01*
X91833Y-164849D01*
X90633Y-165490D01*
X89582Y-166353D01*
X88719Y-167405D01*
X88077Y-168604D01*
X87683Y-169906D01*
X87549Y-171260D01*
X87683Y-172614D01*
X88077Y-173915D01*
X88719Y-175115D01*
X89582Y-176166D01*
X90633Y-177029D01*
X91833Y-177671D01*
X93134Y-178065D01*
X94061Y-178157D01*
Y-178659D01*
X93327Y-178731D01*
X92211Y-179070D01*
X91183Y-179620D01*
X90281Y-180360D01*
X89541Y-181261D01*
X88991Y-182290D01*
X88653Y-183406D01*
X88538Y-184567D01*
X88653Y-185728D01*
X88991Y-186844D01*
X89541Y-187873D01*
X90281Y-188774D01*
X91183Y-189514D01*
X92211Y-190064D01*
X93327Y-190402D01*
X93485Y-190418D01*
Y-190920D01*
X93327Y-190936D01*
X92211Y-191275D01*
X91183Y-191824D01*
X90281Y-192564D01*
X89541Y-193466D01*
X88991Y-194495D01*
X88653Y-195611D01*
X88587Y-196272D01*
X100389D01*
X100324Y-195611D01*
X99985Y-194495D01*
X99435Y-193466D01*
X98695Y-192564D01*
X97794Y-191824D01*
X96765Y-191275D01*
X95649Y-190936D01*
X95491Y-190920D01*
Y-190418D01*
X95649Y-190402D01*
X96765Y-190064D01*
X97794Y-189514D01*
X98695Y-188774D01*
X99435Y-187873D01*
X99985Y-186844D01*
X100324Y-185728D01*
X100438Y-184567D01*
X100324Y-183406D01*
X99985Y-182290D01*
X99435Y-181261D01*
X98695Y-180360D01*
X97794Y-179620D01*
X96765Y-179070D01*
X95649Y-178731D01*
X94915Y-178659D01*
Y-178157D01*
X95842Y-178065D01*
X97144Y-177671D01*
X98343Y-177029D01*
X99395Y-176166D01*
X100258Y-175115D01*
X100899Y-173915D01*
X101294Y-172614D01*
X101427Y-171260D01*
X101294Y-169906D01*
X100899Y-168604D01*
X100258Y-167405D01*
X99395Y-166353D01*
X98343Y-165490D01*
X97144Y-164849D01*
X95842Y-164454D01*
X94488Y-164321D01*
D02*
G37*
G36*
X93988Y-197272D02*
X88587D01*
X88653Y-197932D01*
X88991Y-199049D01*
X89541Y-200077D01*
X90281Y-200979D01*
X91183Y-201719D01*
X92211Y-202269D01*
X93327Y-202607D01*
X93988Y-202672D01*
Y-197272D01*
D02*
G37*
G36*
X100389D02*
X94988D01*
Y-202672D01*
X95649Y-202607D01*
X96765Y-202269D01*
X97794Y-201719D01*
X98695Y-200979D01*
X99435Y-200077D01*
X99985Y-199049D01*
X100324Y-197932D01*
X100389Y-197272D01*
D02*
G37*
G36*
X-94488Y-164321D02*
X-95842Y-164454D01*
X-97144Y-164849D01*
X-98343Y-165490D01*
X-99395Y-166353D01*
X-100258Y-167405D01*
X-100899Y-168604D01*
X-101294Y-169906D01*
X-101427Y-171260D01*
X-101294Y-172614D01*
X-100899Y-173915D01*
X-100258Y-175115D01*
X-99395Y-176166D01*
X-98343Y-177029D01*
X-97144Y-177671D01*
X-95842Y-178065D01*
X-94915Y-178157D01*
Y-178659D01*
X-95649Y-178731D01*
X-96765Y-179070D01*
X-97794Y-179620D01*
X-98695Y-180360D01*
X-99435Y-181261D01*
X-99985Y-182290D01*
X-100324Y-183406D01*
X-100438Y-184567D01*
X-100324Y-185728D01*
X-99985Y-186844D01*
X-99435Y-187873D01*
X-98695Y-188774D01*
X-97794Y-189514D01*
X-96765Y-190064D01*
X-95649Y-190402D01*
X-95491Y-190418D01*
Y-190920D01*
X-95649Y-190936D01*
X-96765Y-191275D01*
X-97794Y-191824D01*
X-98695Y-192564D01*
X-99435Y-193466D01*
X-99985Y-194495D01*
X-100324Y-195611D01*
X-100389Y-196272D01*
X-88587D01*
X-88653Y-195611D01*
X-88991Y-194495D01*
X-89541Y-193466D01*
X-90281Y-192564D01*
X-91183Y-191824D01*
X-92211Y-191275D01*
X-93327Y-190936D01*
X-93485Y-190920D01*
Y-190418D01*
X-93327Y-190402D01*
X-92211Y-190064D01*
X-91183Y-189514D01*
X-90281Y-188774D01*
X-89541Y-187873D01*
X-88991Y-186844D01*
X-88653Y-185728D01*
X-88538Y-184567D01*
X-88653Y-183406D01*
X-88991Y-182290D01*
X-89541Y-181261D01*
X-90281Y-180360D01*
X-91183Y-179620D01*
X-92211Y-179070D01*
X-93327Y-178731D01*
X-94061Y-178659D01*
Y-178157D01*
X-93134Y-178065D01*
X-91833Y-177671D01*
X-90633Y-177029D01*
X-89582Y-176166D01*
X-88719Y-175115D01*
X-88077Y-173915D01*
X-87683Y-172614D01*
X-87549Y-171260D01*
X-87683Y-169906D01*
X-88077Y-168604D01*
X-88719Y-167405D01*
X-89582Y-166353D01*
X-90633Y-165490D01*
X-91833Y-164849D01*
X-93134Y-164454D01*
X-94488Y-164321D01*
D02*
G37*
G36*
X-15929Y-175500D02*
X-19185D01*
Y-178067D01*
X-15929D01*
Y-175500D01*
D02*
G37*
G36*
X-94988Y-130342D02*
X-100389D01*
X-100324Y-131003D01*
X-99985Y-132119D01*
X-99435Y-133148D01*
X-98695Y-134050D01*
X-97794Y-134790D01*
X-96765Y-135339D01*
X-95649Y-135678D01*
X-94988Y-135743D01*
Y-130342D01*
D02*
G37*
G36*
X-88587D02*
X-93988D01*
Y-135743D01*
X-93327Y-135678D01*
X-92211Y-135339D01*
X-91183Y-134790D01*
X-90281Y-134050D01*
X-89541Y-133148D01*
X-88991Y-132119D01*
X-88653Y-131003D01*
X-88587Y-130342D01*
D02*
G37*
G36*
X93988D02*
X88587D01*
X88653Y-131003D01*
X88991Y-132119D01*
X89541Y-133148D01*
X90281Y-134050D01*
X91183Y-134790D01*
X92211Y-135339D01*
X93327Y-135678D01*
X93988Y-135743D01*
Y-130342D01*
D02*
G37*
G36*
X-1441Y-134335D02*
X-8559D01*
Y-141453D01*
X-1441D01*
Y-134335D01*
D02*
G37*
G36*
X105799Y-136524D02*
X102543D01*
Y-139091D01*
X105799D01*
Y-136524D01*
D02*
G37*
G36*
X110055D02*
X106799D01*
Y-139091D01*
X110055D01*
Y-136524D01*
D02*
G37*
G36*
X10016Y-130974D02*
X9102Y-131094D01*
X8251Y-131447D01*
X7519Y-132008D01*
X7406Y-132156D01*
X6905Y-131987D01*
Y-131756D01*
X969D01*
Y-136906D01*
X2408D01*
Y-142622D01*
X969D01*
Y-146002D01*
X469Y-146502D01*
X-4020D01*
Y-144768D01*
X-11728D01*
Y-151295D01*
X-4020D01*
Y-149561D01*
X1102D01*
X1688Y-149444D01*
X2184Y-149113D01*
X3525Y-147772D01*
X6905D01*
Y-142622D01*
X5466D01*
Y-136906D01*
X6905D01*
X6905Y-136906D01*
Y-136906D01*
X7406Y-136852D01*
X7519Y-137000D01*
X8251Y-137561D01*
X9102Y-137914D01*
X10016Y-138034D01*
X10929Y-137914D01*
X11781Y-137561D01*
X12512Y-137000D01*
X13073Y-136269D01*
X13426Y-135418D01*
X13546Y-134504D01*
X13426Y-133590D01*
X13073Y-132739D01*
X12512Y-132008D01*
X11781Y-131447D01*
X10929Y-131094D01*
X10016Y-130974D01*
D02*
G37*
G36*
X94488Y-97392D02*
X93134Y-97525D01*
X91833Y-97920D01*
X90633Y-98561D01*
X89582Y-99424D01*
X88719Y-100476D01*
X88077Y-101675D01*
X87683Y-102977D01*
X87549Y-104331D01*
X87683Y-105684D01*
X88077Y-106986D01*
X88719Y-108186D01*
X89582Y-109237D01*
X90633Y-110100D01*
X91833Y-110741D01*
X93134Y-111136D01*
X94061Y-111228D01*
Y-111730D01*
X93327Y-111802D01*
X92211Y-112141D01*
X91183Y-112691D01*
X90281Y-113431D01*
X89541Y-114332D01*
X88991Y-115361D01*
X88653Y-116477D01*
X88538Y-117638D01*
X88653Y-118799D01*
X88991Y-119915D01*
X89541Y-120943D01*
X90281Y-121845D01*
X91183Y-122585D01*
X92211Y-123135D01*
X93327Y-123473D01*
X93485Y-123489D01*
Y-123991D01*
X93327Y-124007D01*
X92211Y-124346D01*
X91183Y-124895D01*
X90281Y-125635D01*
X89541Y-126537D01*
X88991Y-127566D01*
X88653Y-128682D01*
X88587Y-129342D01*
X100389D01*
X100324Y-128682D01*
X99985Y-127566D01*
X99435Y-126537D01*
X98695Y-125635D01*
X97794Y-124895D01*
X96765Y-124346D01*
X95649Y-124007D01*
X95491Y-123991D01*
Y-123489D01*
X95649Y-123473D01*
X96765Y-123135D01*
X97794Y-122585D01*
X98695Y-121845D01*
X99435Y-120943D01*
X99985Y-119915D01*
X100324Y-118799D01*
X100438Y-117638D01*
X100324Y-116477D01*
X99985Y-115361D01*
X99435Y-114332D01*
X98695Y-113431D01*
X97794Y-112691D01*
X96765Y-112141D01*
X95649Y-111802D01*
X94915Y-111730D01*
Y-111228D01*
X95842Y-111136D01*
X97144Y-110741D01*
X98343Y-110100D01*
X99395Y-109237D01*
X100258Y-108186D01*
X100899Y-106986D01*
X101294Y-105684D01*
X101427Y-104331D01*
X101294Y-102977D01*
X100899Y-101675D01*
X100258Y-100476D01*
X99395Y-99424D01*
X98343Y-98561D01*
X97144Y-97920D01*
X95842Y-97525D01*
X94488Y-97392D01*
D02*
G37*
G36*
X-102362Y-94927D02*
X-102947Y-95044D01*
X-103444Y-95375D01*
X-107381Y-99312D01*
X-107712Y-99808D01*
X-107829Y-100394D01*
Y-132957D01*
X-110055D01*
Y-139091D01*
X-105395D01*
X-104511Y-139975D01*
X-104702Y-140437D01*
X-105799D01*
Y-143004D01*
X-102543D01*
Y-142596D01*
X-102081Y-142404D01*
X-97972Y-146514D01*
X-98045Y-147148D01*
X-98695Y-147682D01*
X-99435Y-148584D01*
X-99985Y-149613D01*
X-100324Y-150729D01*
X-100438Y-151890D01*
X-100324Y-153050D01*
X-99985Y-154167D01*
X-99435Y-155195D01*
X-98695Y-156097D01*
X-97794Y-156837D01*
X-96765Y-157387D01*
X-95649Y-157725D01*
X-94488Y-157840D01*
X-93327Y-157725D01*
X-92211Y-157387D01*
X-91183Y-156837D01*
X-90281Y-156097D01*
X-89541Y-155195D01*
X-88991Y-154167D01*
X-88653Y-153050D01*
X-88538Y-151890D01*
X-88653Y-150729D01*
X-88991Y-149613D01*
X-89541Y-148584D01*
X-90281Y-147682D01*
X-91183Y-146943D01*
X-92211Y-146393D01*
X-93327Y-146054D01*
X-94191Y-145969D01*
X-102543Y-137617D01*
Y-132957D01*
X-104770D01*
Y-101027D01*
X-102147Y-98404D01*
X-101894Y-98455D01*
X-99001D01*
X-98823Y-98955D01*
X-99395Y-99424D01*
X-100258Y-100476D01*
X-100899Y-101675D01*
X-101294Y-102977D01*
X-101427Y-104331D01*
X-101294Y-105684D01*
X-100899Y-106986D01*
X-100258Y-108186D01*
X-99395Y-109237D01*
X-98343Y-110100D01*
X-97144Y-110741D01*
X-95842Y-111136D01*
X-94915Y-111228D01*
Y-111730D01*
X-95649Y-111802D01*
X-96765Y-112141D01*
X-97794Y-112691D01*
X-98695Y-113431D01*
X-99435Y-114332D01*
X-99985Y-115361D01*
X-100324Y-116477D01*
X-100438Y-117638D01*
X-100324Y-118799D01*
X-99985Y-119915D01*
X-99435Y-120943D01*
X-98695Y-121845D01*
X-97794Y-122585D01*
X-96765Y-123135D01*
X-95649Y-123473D01*
X-95491Y-123489D01*
Y-123991D01*
X-95649Y-124007D01*
X-96765Y-124346D01*
X-97794Y-124895D01*
X-98695Y-125635D01*
X-99435Y-126537D01*
X-99985Y-127566D01*
X-100324Y-128682D01*
X-100389Y-129342D01*
X-88587D01*
X-88653Y-128682D01*
X-88991Y-127566D01*
X-89541Y-126537D01*
X-90281Y-125635D01*
X-91183Y-124895D01*
X-92211Y-124346D01*
X-93327Y-124007D01*
X-93485Y-123991D01*
Y-123489D01*
X-93327Y-123473D01*
X-92211Y-123135D01*
X-91183Y-122585D01*
X-90281Y-121845D01*
X-89541Y-120943D01*
X-88991Y-119915D01*
X-88653Y-118799D01*
X-88538Y-117638D01*
X-88653Y-116477D01*
X-88991Y-115361D01*
X-89541Y-114332D01*
X-90281Y-113431D01*
X-91183Y-112691D01*
X-92211Y-112141D01*
X-93327Y-111802D01*
X-94061Y-111730D01*
Y-111228D01*
X-93134Y-111136D01*
X-91833Y-110741D01*
X-90633Y-110100D01*
X-89582Y-109237D01*
X-89112Y-108665D01*
X-88612Y-108844D01*
Y-111736D01*
X-88496Y-112321D01*
X-88164Y-112818D01*
X-87105Y-113877D01*
X-86609Y-114208D01*
X-86024Y-114325D01*
X-82890D01*
Y-119307D01*
X-74591D01*
Y-106283D01*
X-82890D01*
Y-111266D01*
X-85390D01*
X-85553Y-111103D01*
Y-101263D01*
X-85670Y-100678D01*
X-86001Y-100182D01*
X-90339Y-95844D01*
X-90835Y-95512D01*
X-91421Y-95396D01*
X-101260D01*
X-101281Y-95375D01*
X-101777Y-95044D01*
X-102362Y-94927D01*
D02*
G37*
G36*
X100389Y-130342D02*
X94988D01*
Y-135743D01*
X95649Y-135678D01*
X96765Y-135339D01*
X97794Y-134790D01*
X98695Y-134050D01*
X99435Y-133148D01*
X99985Y-132119D01*
X100324Y-131003D01*
X100389Y-130342D01*
D02*
G37*
G36*
X105799Y-132957D02*
X102543D01*
Y-135524D01*
X105799D01*
Y-132957D01*
D02*
G37*
G36*
X110055D02*
X106799D01*
Y-135524D01*
X110055D01*
Y-132957D01*
D02*
G37*
G36*
X-106799Y-140437D02*
X-110055D01*
Y-143004D01*
X-106799D01*
Y-140437D01*
D02*
G37*
G36*
X-4020Y-151854D02*
X-11728D01*
Y-158382D01*
X-4020D01*
Y-156648D01*
X469D01*
X969Y-157147D01*
Y-160528D01*
X3471D01*
Y-164675D01*
X3205Y-164785D01*
X2462Y-165355D01*
X1891Y-166099D01*
X1533Y-166965D01*
X1410Y-167894D01*
X1533Y-168823D01*
X1891Y-169689D01*
X2462Y-170432D01*
X3205Y-171002D01*
X4071Y-171361D01*
X5000Y-171483D01*
X5929Y-171361D01*
X6795Y-171002D01*
X7538Y-170432D01*
X8109Y-169689D01*
X8467Y-168823D01*
X8590Y-167894D01*
X8467Y-166965D01*
X8109Y-166099D01*
X7538Y-165355D01*
X6795Y-164785D01*
X6529Y-164675D01*
Y-160528D01*
X6905D01*
Y-155378D01*
X3525D01*
X2184Y-154037D01*
X1688Y-153705D01*
X1102Y-153589D01*
X-4020D01*
Y-151854D01*
D02*
G37*
G36*
X46744Y-159555D02*
X43488D01*
Y-162122D01*
X46744D01*
Y-159555D01*
D02*
G37*
G36*
X51000D02*
X47744D01*
Y-162122D01*
X51000D01*
Y-159555D01*
D02*
G37*
G36*
X-20185Y-171933D02*
X-23441D01*
Y-174500D01*
X-20185D01*
Y-171933D01*
D02*
G37*
G36*
X-15929D02*
X-19185D01*
Y-174500D01*
X-15929D01*
Y-171933D01*
D02*
G37*
G36*
X-67012Y-151854D02*
X-74721D01*
Y-158382D01*
X-69765D01*
X-69113Y-159034D01*
X-68617Y-159366D01*
X-68032Y-159482D01*
X-62024D01*
Y-160528D01*
X-59522D01*
Y-164675D01*
X-59787Y-164785D01*
X-60531Y-165355D01*
X-61101Y-166099D01*
X-61460Y-166965D01*
X-61582Y-167894D01*
X-61460Y-168823D01*
X-61101Y-169689D01*
X-60531Y-170432D01*
X-59787Y-171002D01*
X-58921Y-171361D01*
X-57992Y-171483D01*
X-57063Y-171361D01*
X-56197Y-171002D01*
X-55454Y-170432D01*
X-54883Y-169689D01*
X-54525Y-168823D01*
X-54402Y-167894D01*
X-54525Y-166965D01*
X-54883Y-166099D01*
X-55454Y-165355D01*
X-56197Y-164785D01*
X-56463Y-164675D01*
Y-160528D01*
X-56087D01*
Y-155378D01*
X-62024D01*
Y-156423D01*
X-67012D01*
Y-151854D01*
D02*
G37*
G36*
X-106799Y-144004D02*
X-110055D01*
Y-146571D01*
X-106799D01*
Y-144004D01*
D02*
G37*
G36*
X-102543D02*
X-105799D01*
Y-146571D01*
X-102543D01*
Y-144004D01*
D02*
G37*
G36*
X-56087Y-135693D02*
X-62024D01*
Y-140842D01*
X-60584D01*
Y-142622D01*
X-62024D01*
Y-143667D01*
X-68032D01*
X-68617Y-143784D01*
X-69113Y-144115D01*
X-69765Y-144768D01*
X-71967D01*
X-72672Y-144063D01*
X-72574Y-143827D01*
X-72454Y-142913D01*
X-72574Y-142000D01*
X-72927Y-141148D01*
X-73488Y-140417D01*
X-74219Y-139856D01*
X-75071Y-139504D01*
X-75984Y-139383D01*
X-76898Y-139504D01*
X-77749Y-139856D01*
X-78480Y-140417D01*
X-79041Y-141148D01*
X-79394Y-142000D01*
X-79514Y-142913D01*
X-79394Y-143827D01*
X-79041Y-144678D01*
X-78480Y-145410D01*
X-77749Y-145971D01*
X-76898Y-146323D01*
X-75984Y-146444D01*
X-75221Y-146343D01*
X-74848Y-146575D01*
X-74721Y-146720D01*
Y-151295D01*
X-67012D01*
Y-146726D01*
X-62024D01*
Y-147772D01*
X-58643D01*
X-50018Y-156396D01*
X-49522Y-156728D01*
X-48937Y-156844D01*
X-47063D01*
Y-158382D01*
X-39551D01*
Y-152248D01*
X-47063D01*
Y-153786D01*
X-48303D01*
X-56087Y-146002D01*
Y-142622D01*
X-57526D01*
Y-140842D01*
X-56087D01*
Y-135693D01*
D02*
G37*
G36*
X46744Y-155988D02*
X43488D01*
Y-158555D01*
X46744D01*
Y-155988D01*
D02*
G37*
G36*
X51000D02*
X47744D01*
Y-158555D01*
X51000D01*
Y-155988D01*
D02*
G37*
G36*
X82595Y-151461D02*
X74886D01*
Y-153195D01*
X70157D01*
X69572Y-153311D01*
X69076Y-153643D01*
X67341Y-155378D01*
X63961D01*
Y-160528D01*
X66463D01*
Y-164675D01*
X66197Y-164785D01*
X65454Y-165355D01*
X64883Y-166099D01*
X64525Y-166965D01*
X64402Y-167894D01*
X64525Y-168823D01*
X64883Y-169689D01*
X65454Y-170432D01*
X66197Y-171002D01*
X67063Y-171361D01*
X67992Y-171483D01*
X68921Y-171361D01*
X69787Y-171002D01*
X70530Y-170432D01*
X71101Y-169689D01*
X71460Y-168823D01*
X71582Y-167894D01*
X71460Y-166965D01*
X71101Y-166099D01*
X70530Y-165355D01*
X69787Y-164785D01*
X69521Y-164675D01*
Y-160528D01*
X69898D01*
Y-157147D01*
X70791Y-156254D01*
X74886D01*
Y-157988D01*
X82595D01*
Y-151461D01*
D02*
G37*
G36*
X-79413Y182890D02*
X-85547D01*
Y175378D01*
X-84403D01*
Y170937D01*
X-84694Y170817D01*
X-85530Y170176D01*
X-86171Y169340D01*
X-86574Y168367D01*
X-86712Y167323D01*
X-86574Y166279D01*
X-86171Y165306D01*
X-85530Y164470D01*
X-84694Y163829D01*
X-83721Y163426D01*
X-82677Y163288D01*
X-81633Y163426D01*
X-80660Y163829D01*
X-79824Y164470D01*
X-79183Y165306D01*
X-78780Y166279D01*
X-78643Y167323D01*
X-78780Y168367D01*
X-79183Y169340D01*
X-79824Y170176D01*
X-80660Y170817D01*
X-81345Y171100D01*
Y175378D01*
X-79413D01*
Y182890D01*
D02*
G37*
G36*
X86614Y171357D02*
X85570Y171220D01*
X84597Y170817D01*
X83761Y170176D01*
X83120Y169340D01*
X82717Y168367D01*
X82580Y167323D01*
X82717Y166279D01*
X83120Y165306D01*
X83761Y164470D01*
X84597Y163829D01*
X85570Y163426D01*
X86614Y163288D01*
X87658Y163426D01*
X88631Y163829D01*
X89467Y164470D01*
X90108Y165306D01*
X90511Y166279D01*
X90649Y167323D01*
X90511Y168367D01*
X90108Y169340D01*
X89467Y170176D01*
X88631Y170817D01*
X87658Y171220D01*
X86614Y171357D01*
D02*
G37*
G36*
X-73335Y166823D02*
X-76803D01*
X-76732Y166279D01*
X-76329Y165306D01*
X-75687Y164470D01*
X-74852Y163829D01*
X-73879Y163426D01*
X-73335Y163354D01*
Y166823D01*
D02*
G37*
G36*
X14567Y166388D02*
X13213Y166254D01*
X11912Y165859D01*
X10712Y165218D01*
X9660Y164355D01*
X8797Y163304D01*
X8156Y162104D01*
X7761Y160802D01*
X7628Y159449D01*
X7761Y158095D01*
X8156Y156793D01*
X8797Y155594D01*
X9660Y154542D01*
X10712Y153679D01*
X11912Y153038D01*
X13213Y152643D01*
X14567Y152510D01*
X15921Y152643D01*
X17222Y153038D01*
X18422Y153679D01*
X19474Y154542D01*
X20336Y155594D01*
X20978Y156793D01*
X21373Y158095D01*
X21506Y159449D01*
X21373Y160802D01*
X20978Y162104D01*
X20336Y163304D01*
X19474Y164355D01*
X18422Y165218D01*
X17222Y165859D01*
X15921Y166254D01*
X14567Y166388D01*
D02*
G37*
G36*
X56299D02*
X54945Y166254D01*
X53644Y165859D01*
X52444Y165218D01*
X51393Y164355D01*
X50530Y163304D01*
X49889Y162104D01*
X49494Y160802D01*
X49360Y159449D01*
X49494Y158095D01*
X49889Y156793D01*
X50530Y155594D01*
X51393Y154542D01*
X52444Y153679D01*
X53644Y153038D01*
X54945Y152643D01*
X56299Y152510D01*
X57653Y152643D01*
X58955Y153038D01*
X60154Y153679D01*
X61206Y154542D01*
X62069Y155594D01*
X62710Y156793D01*
X63105Y158095D01*
X63238Y159449D01*
X63105Y160802D01*
X62710Y162104D01*
X62069Y163304D01*
X61206Y164355D01*
X60154Y165218D01*
X58955Y165859D01*
X57653Y166254D01*
X56299Y166388D01*
D02*
G37*
G36*
X-92520Y171357D02*
X-93564Y171220D01*
X-94537Y170817D01*
X-95372Y170176D01*
X-96014Y169340D01*
X-96417Y168367D01*
X-96554Y167323D01*
X-96417Y166279D01*
X-96018Y165315D01*
Y121551D01*
X-96765Y121324D01*
X-97794Y120774D01*
X-98695Y120034D01*
X-99435Y119132D01*
X-99985Y118104D01*
X-100324Y116988D01*
X-100438Y115827D01*
X-100324Y114666D01*
X-99985Y113550D01*
X-99435Y112521D01*
X-98695Y111620D01*
X-97794Y110880D01*
X-96765Y110330D01*
X-95649Y109991D01*
X-94488Y109877D01*
X-93327Y109991D01*
X-92211Y110330D01*
X-91183Y110880D01*
X-90281Y111620D01*
X-89541Y112521D01*
X-88991Y113550D01*
X-88653Y114666D01*
X-88538Y115827D01*
X-88653Y116988D01*
X-88991Y118104D01*
X-89541Y119132D01*
X-90281Y120034D01*
X-91183Y120774D01*
X-92211Y121324D01*
X-92959Y121551D01*
Y162967D01*
X-92583Y163297D01*
X-92520Y163288D01*
X-91475Y163426D01*
X-90502Y163829D01*
X-89667Y164470D01*
X-89026Y165306D01*
X-88623Y166279D01*
X-88485Y167323D01*
X-88623Y168367D01*
X-89026Y169340D01*
X-89667Y170176D01*
X-90502Y170817D01*
X-91475Y171220D01*
X-92520Y171357D01*
D02*
G37*
G36*
X-73335Y171291D02*
X-73879Y171220D01*
X-74852Y170817D01*
X-75687Y170176D01*
X-76329Y169340D01*
X-76732Y168367D01*
X-76803Y167823D01*
X-73335D01*
Y171291D01*
D02*
G37*
G36*
X-72335D02*
Y167823D01*
X-68866D01*
X-68938Y168367D01*
X-69341Y169340D01*
X-69982Y170176D01*
X-70817Y170817D01*
X-71790Y171220D01*
X-72335Y171291D01*
D02*
G37*
G36*
X7543Y200445D02*
X4122D01*
Y197024D01*
X4654Y197094D01*
X5615Y197492D01*
X6441Y198126D01*
X7075Y198951D01*
X7473Y199913D01*
X7543Y200445D01*
D02*
G37*
G36*
X-68866Y166823D02*
X-72335D01*
Y163354D01*
X-71790Y163426D01*
X-70817Y163829D01*
X-69982Y164470D01*
X-69341Y165306D01*
X-68938Y166279D01*
X-68866Y166823D01*
D02*
G37*
G36*
X95957D02*
X92488D01*
X92560Y166279D01*
X92963Y165306D01*
X93604Y164470D01*
X94439Y163829D01*
X95412Y163426D01*
X95957Y163354D01*
Y166823D01*
D02*
G37*
G36*
X100425D02*
X96957D01*
Y163354D01*
X97501Y163426D01*
X98474Y163829D01*
X99309Y164470D01*
X99951Y165306D01*
X100354Y166279D01*
X100425Y166823D01*
D02*
G37*
G36*
X-10630Y166388D02*
X-11984Y166254D01*
X-13285Y165859D01*
X-14485Y165218D01*
X-15537Y164355D01*
X-16399Y163304D01*
X-17041Y162104D01*
X-17436Y160802D01*
X-17569Y159449D01*
X-17436Y158095D01*
X-17041Y156793D01*
X-16399Y155594D01*
X-15537Y154542D01*
X-14485Y153679D01*
X-13285Y153038D01*
X-11984Y152643D01*
X-10630Y152510D01*
X-9276Y152643D01*
X-7975Y153038D01*
X-6775Y153679D01*
X-5723Y154542D01*
X-4860Y155594D01*
X-4219Y156793D01*
X-3824Y158095D01*
X-3691Y159449D01*
X-3824Y160802D01*
X-4219Y162104D01*
X-4860Y163304D01*
X-5723Y164355D01*
X-6775Y165218D01*
X-7975Y165859D01*
X-9276Y166254D01*
X-10630Y166388D01*
D02*
G37*
G36*
X3122Y204866D02*
X2590Y204796D01*
X1629Y204398D01*
X803Y203764D01*
X169Y202938D01*
X-229Y201977D01*
X-299Y201445D01*
X3122D01*
Y204866D01*
D02*
G37*
G36*
X88413Y149500D02*
X82795D01*
Y145850D01*
X88413D01*
Y149500D01*
D02*
G37*
G36*
X95031D02*
X89413D01*
Y145850D01*
X95031D01*
Y149500D01*
D02*
G37*
G36*
X45776Y135859D02*
Y132390D01*
X49244D01*
X49173Y132934D01*
X48770Y133907D01*
X48128Y134743D01*
X47293Y135384D01*
X46320Y135787D01*
X45776Y135859D01*
D02*
G37*
G36*
X30626Y147457D02*
X24492D01*
Y144443D01*
X19602D01*
Y146177D01*
X11894D01*
Y139650D01*
X19602D01*
Y141384D01*
X24492D01*
Y139945D01*
X30626D01*
Y147457D01*
D02*
G37*
G36*
X-36106Y147457D02*
X-42240D01*
Y145230D01*
X-51264D01*
Y146571D01*
X-58973D01*
Y140043D01*
X-51264D01*
Y142171D01*
X-42240D01*
Y139945D01*
X-36106D01*
Y147457D01*
D02*
G37*
G36*
X88413Y154150D02*
X82795D01*
Y150500D01*
X88413D01*
Y154150D01*
D02*
G37*
G36*
X95031D02*
X89413D01*
Y150500D01*
X95031D01*
Y154150D01*
D02*
G37*
G36*
X-52362Y166388D02*
X-53716Y166254D01*
X-55018Y165859D01*
X-56217Y165218D01*
X-57269Y164355D01*
X-58132Y163304D01*
X-58773Y162104D01*
X-59168Y160802D01*
X-59301Y159449D01*
X-59168Y158095D01*
X-58773Y156793D01*
X-58132Y155594D01*
X-57269Y154542D01*
X-56217Y153679D01*
X-55018Y153038D01*
X-53716Y152643D01*
X-52362Y152510D01*
X-51008Y152643D01*
X-49707Y153038D01*
X-48507Y153679D01*
X-47456Y154542D01*
X-46593Y155594D01*
X-45952Y156793D01*
X-45557Y158095D01*
X-45423Y159449D01*
X-45557Y160802D01*
X-45952Y162104D01*
X-46593Y163304D01*
X-47456Y164355D01*
X-48507Y165218D01*
X-49707Y165859D01*
X-51008Y166254D01*
X-52362Y166388D01*
D02*
G37*
G36*
X-6878Y204866D02*
X-7410Y204796D01*
X-8371Y204398D01*
X-9197Y203764D01*
X-9831Y202938D01*
X-10229Y201977D01*
X-10299Y201445D01*
X-6878D01*
Y204866D01*
D02*
G37*
G36*
X76772Y171357D02*
X75727Y171220D01*
X74754Y170817D01*
X73919Y170176D01*
X73278Y169340D01*
X72875Y168367D01*
X72737Y167323D01*
X72875Y166279D01*
X73278Y165306D01*
X73919Y164470D01*
X74754Y163829D01*
X75242Y163627D01*
Y149862D01*
X74742Y149692D01*
X74512Y149992D01*
X73781Y150553D01*
X72929Y150906D01*
X72016Y151026D01*
X71102Y150906D01*
X70251Y150553D01*
X69520Y149992D01*
X68958Y149261D01*
X68606Y148410D01*
X68486Y147496D01*
X68606Y146582D01*
X68958Y145731D01*
X69520Y145000D01*
X69537Y144731D01*
X68325Y143520D01*
X63665D01*
Y136008D01*
X69799D01*
Y140668D01*
X73097Y143966D01*
X73273Y144228D01*
X73781Y144439D01*
X74512Y145000D01*
X74742Y145300D01*
X75242Y145130D01*
Y133543D01*
X75359Y132958D01*
X75690Y132462D01*
X89359Y118793D01*
X88991Y118104D01*
X88653Y116988D01*
X88538Y115827D01*
X88653Y114666D01*
X88991Y113550D01*
X89541Y112521D01*
X90281Y111620D01*
X91183Y110880D01*
X92211Y110330D01*
X93327Y109991D01*
X94488Y109877D01*
X95649Y109991D01*
X96765Y110330D01*
X97794Y110880D01*
X98695Y111620D01*
X99435Y112521D01*
X99985Y113550D01*
X100324Y114666D01*
X100438Y115827D01*
X100324Y116988D01*
X99985Y118104D01*
X99435Y119132D01*
X98695Y120034D01*
X97794Y120774D01*
X96765Y121324D01*
X95649Y121662D01*
X94488Y121777D01*
X93327Y121662D01*
X92211Y121324D01*
X91522Y120956D01*
X78301Y134177D01*
Y163627D01*
X78789Y163829D01*
X79624Y164470D01*
X80266Y165306D01*
X80669Y166279D01*
X80806Y167323D01*
X80669Y168367D01*
X80266Y169340D01*
X79624Y170176D01*
X78789Y170817D01*
X77816Y171220D01*
X76772Y171357D01*
D02*
G37*
G36*
X17543Y200445D02*
X14122D01*
Y197024D01*
X14654Y197094D01*
X15616Y197492D01*
X16441Y198126D01*
X17075Y198951D01*
X17473Y199913D01*
X17543Y200445D01*
D02*
G37*
G36*
X99146Y208878D02*
X92421D01*
Y204122D01*
X93744D01*
Y185713D01*
X93900Y184932D01*
X94341Y184271D01*
X101047Y177565D01*
Y174539D01*
X95667D01*
X91048Y179158D01*
X90387Y179601D01*
X89606Y179756D01*
X88878D01*
Y181079D01*
X84122D01*
Y174354D01*
X88878D01*
Y174908D01*
X89340Y175099D01*
X93381Y171058D01*
X93676Y170861D01*
X93696Y170246D01*
X93604Y170176D01*
X92963Y169340D01*
X92560Y168367D01*
X92488Y167823D01*
X100425D01*
X100354Y168367D01*
X99951Y169340D01*
X99474Y169961D01*
X99721Y170461D01*
X101047D01*
Y154150D01*
X96969D01*
Y145850D01*
X104063D01*
Y135630D01*
X103608Y135354D01*
X102779D01*
Y127646D01*
X104260D01*
Y-20809D01*
X101518Y-23551D01*
X97783D01*
X97658Y-23051D01*
X97794Y-22979D01*
X98695Y-22239D01*
X99435Y-21337D01*
X99985Y-20308D01*
X100324Y-19192D01*
X100438Y-18032D01*
X100324Y-16871D01*
X99985Y-15755D01*
X99435Y-14726D01*
X98695Y-13824D01*
X97794Y-13084D01*
X96765Y-12535D01*
X95649Y-12196D01*
X94488Y-12082D01*
X93327Y-12196D01*
X92211Y-12535D01*
X91183Y-13084D01*
X90376Y-13746D01*
X81709D01*
Y-12701D01*
X80270D01*
Y-8579D01*
X82299D01*
Y-3232D01*
X75181D01*
Y-8579D01*
X77211D01*
Y-12701D01*
X75772D01*
Y-17850D01*
X81709D01*
Y-16805D01*
X88164D01*
X88610Y-17305D01*
X88538Y-18032D01*
X88653Y-19192D01*
X88991Y-20308D01*
X89541Y-21337D01*
X90281Y-22239D01*
X91183Y-22979D01*
X92211Y-23528D01*
X92805Y-23709D01*
X92874Y-23834D01*
X92927Y-24268D01*
X89953Y-27242D01*
X89480Y-27008D01*
X89546Y-26504D01*
X89426Y-25590D01*
X89073Y-24739D01*
X88512Y-24008D01*
X87781Y-23447D01*
X86929Y-23094D01*
X86016Y-22974D01*
X85102Y-23094D01*
X84251Y-23447D01*
X83520Y-24008D01*
X82959Y-24739D01*
X82606Y-25590D01*
X82486Y-26504D01*
X82606Y-27418D01*
X82959Y-28269D01*
X83449Y-28908D01*
X82209Y-30148D01*
X81709Y-29941D01*
Y-25457D01*
X75772D01*
Y-27801D01*
X70685D01*
Y-26264D01*
X63173D01*
Y-32398D01*
X67990D01*
X68182Y-32860D01*
X51862Y-49179D01*
X37220D01*
X36993Y-48432D01*
X36443Y-47403D01*
X35703Y-46501D01*
X34802Y-45761D01*
X33773Y-45212D01*
X32657Y-44873D01*
X31923Y-44801D01*
Y-44298D01*
X32850Y-44207D01*
X34152Y-43812D01*
X35351Y-43171D01*
X36403Y-42308D01*
X37266Y-41257D01*
X37907Y-40057D01*
X38153Y-39247D01*
X38217Y-39224D01*
X38685Y-39213D01*
X38934Y-39585D01*
X41769Y-42420D01*
X42265Y-42752D01*
X42850Y-42868D01*
X43488D01*
Y-44405D01*
X51000D01*
Y-38272D01*
X43488D01*
Y-39106D01*
X42988Y-39314D01*
X41545Y-37870D01*
Y-34504D01*
X41429Y-33919D01*
X41097Y-33422D01*
X35097Y-27422D01*
X34601Y-27091D01*
X34016Y-26974D01*
X20016D01*
X19431Y-27091D01*
X18934Y-27422D01*
X17548Y-28809D01*
X17060Y-28607D01*
X16016Y-28469D01*
X14972Y-28607D01*
X13998Y-29010D01*
X13163Y-29651D01*
X12522Y-30487D01*
X12119Y-31460D01*
X11981Y-32504D01*
X11996Y-32617D01*
X11539Y-32974D01*
X-7984D01*
X-8569Y-33091D01*
X-9066Y-33422D01*
X-16713Y-41070D01*
X-16898Y-41094D01*
X-17749Y-41447D01*
X-18481Y-42008D01*
X-19041Y-42739D01*
X-19394Y-43590D01*
X-19514Y-44504D01*
X-19394Y-45418D01*
X-19041Y-46269D01*
X-18481Y-47000D01*
X-17749Y-47561D01*
X-16898Y-47914D01*
X-15984Y-48034D01*
X-15071Y-47914D01*
X-14583Y-48253D01*
Y-49461D01*
X-11130D01*
Y-47878D01*
X-13811D01*
X-13980Y-47378D01*
X-13488Y-47000D01*
X-12927Y-46269D01*
X-12574Y-45418D01*
X-12454Y-44504D01*
X-12574Y-43590D01*
X-12927Y-42739D01*
X-13417Y-42100D01*
X-9996Y-38678D01*
X-9468Y-38858D01*
X-9394Y-39418D01*
X-9042Y-40269D01*
X-8480Y-41000D01*
X-7749Y-41561D01*
X-7514Y-41659D01*
Y-47878D01*
X-10130D01*
Y-49961D01*
Y-52043D01*
X-8340D01*
X-8148Y-52505D01*
X-8521Y-52878D01*
X-14583D01*
Y-53431D01*
X-17241D01*
X-20455Y-50217D01*
Y-34504D01*
X-20571Y-33919D01*
X-20903Y-33422D01*
X-24486Y-29839D01*
X-24571Y-29411D01*
X-24903Y-28915D01*
X-25399Y-28583D01*
X-25649Y-28533D01*
X-25600Y-28033D01*
X-18717D01*
Y-30606D01*
X-12779D01*
Y-25457D01*
X-16160D01*
X-16194Y-25422D01*
X-16690Y-25091D01*
X-17276Y-24974D01*
X-39984D01*
X-40569Y-25091D01*
X-41066Y-25422D01*
X-42104Y-26461D01*
X-47063D01*
Y-31565D01*
X-66760D01*
X-72672Y-25653D01*
X-72574Y-25418D01*
X-72454Y-24504D01*
X-72574Y-23590D01*
X-72927Y-22739D01*
X-73488Y-22008D01*
X-74219Y-21447D01*
X-75071Y-21094D01*
X-75984Y-20974D01*
X-76898Y-21094D01*
X-77749Y-21447D01*
X-78480Y-22008D01*
X-79041Y-22739D01*
X-79394Y-23590D01*
X-79514Y-24504D01*
X-79394Y-25418D01*
X-79041Y-26269D01*
X-78480Y-27000D01*
X-77749Y-27561D01*
X-76898Y-27914D01*
X-75984Y-28034D01*
X-75071Y-27914D01*
X-74835Y-27816D01*
X-68475Y-34176D01*
X-68005Y-34490D01*
X-68003Y-34609D01*
X-68091Y-34988D01*
X-68898Y-35094D01*
X-69749Y-35447D01*
X-70481Y-36008D01*
X-71042Y-36739D01*
X-71394Y-37590D01*
X-71514Y-38504D01*
X-71394Y-39418D01*
X-71042Y-40269D01*
X-70481Y-41000D01*
X-69749Y-41561D01*
X-69521Y-41655D01*
Y-45902D01*
X-77836Y-54216D01*
X-82496D01*
Y-55754D01*
X-82874D01*
X-83459Y-55870D01*
X-83956Y-56202D01*
X-87696Y-59942D01*
X-88027Y-60438D01*
X-88144Y-61024D01*
Y-61820D01*
X-88644Y-61844D01*
X-88653Y-61753D01*
X-88991Y-60637D01*
X-89541Y-59608D01*
X-90281Y-58706D01*
X-91183Y-57966D01*
X-92211Y-57416D01*
X-93327Y-57078D01*
X-93485Y-57062D01*
Y-56560D01*
X-93327Y-56544D01*
X-92211Y-56206D01*
X-91183Y-55656D01*
X-90281Y-54916D01*
X-89541Y-54014D01*
X-88991Y-52986D01*
X-88653Y-51869D01*
X-88538Y-50709D01*
X-88653Y-49548D01*
X-88991Y-48432D01*
X-89541Y-47403D01*
X-90281Y-46501D01*
X-91183Y-45761D01*
X-92211Y-45212D01*
X-93327Y-44873D01*
X-94061Y-44801D01*
Y-44298D01*
X-93134Y-44207D01*
X-91833Y-43812D01*
X-90633Y-43171D01*
X-89582Y-42308D01*
X-88719Y-41257D01*
X-88077Y-40057D01*
X-87683Y-38755D01*
X-87549Y-37402D01*
X-87683Y-36048D01*
X-88077Y-34746D01*
X-88719Y-33547D01*
X-89582Y-32495D01*
X-90633Y-31632D01*
X-91833Y-30991D01*
X-93134Y-30596D01*
X-94488Y-30463D01*
X-95842Y-30596D01*
X-97144Y-30991D01*
X-98343Y-31632D01*
X-99395Y-32495D01*
X-100258Y-33547D01*
X-100899Y-34746D01*
X-101294Y-36048D01*
X-101427Y-37402D01*
X-101294Y-38755D01*
X-100899Y-40057D01*
X-100258Y-41257D01*
X-99395Y-42308D01*
X-98343Y-43171D01*
X-97144Y-43812D01*
X-95842Y-44207D01*
X-94915Y-44298D01*
Y-44801D01*
X-95649Y-44873D01*
X-96765Y-45212D01*
X-97794Y-45761D01*
X-98695Y-46501D01*
X-99435Y-47403D01*
X-99985Y-48432D01*
X-100324Y-49548D01*
X-100438Y-50709D01*
X-100324Y-51869D01*
X-99985Y-52986D01*
X-99435Y-54014D01*
X-98695Y-54916D01*
X-97794Y-55656D01*
X-96765Y-56206D01*
X-95649Y-56544D01*
X-95491Y-56560D01*
Y-57062D01*
X-95649Y-57078D01*
X-96765Y-57416D01*
X-97794Y-57966D01*
X-98695Y-58706D01*
X-99435Y-59608D01*
X-99985Y-60637D01*
X-100324Y-61753D01*
X-100389Y-62413D01*
X-94488D01*
Y-63413D01*
X-100389D01*
X-100324Y-64074D01*
X-99985Y-65190D01*
X-99435Y-66219D01*
X-98695Y-67121D01*
X-98435Y-67335D01*
X-98603Y-67805D01*
X-98862D01*
X-99448Y-67922D01*
X-99944Y-68253D01*
X-105789Y-74098D01*
X-109858D01*
Y-79445D01*
X-102740D01*
Y-75375D01*
X-98229Y-70864D01*
X-91828D01*
X-91243Y-70748D01*
X-90747Y-70416D01*
X-87895Y-67564D01*
X-87422Y-67798D01*
X-87514Y-68504D01*
X-87512Y-68524D01*
X-87633Y-68706D01*
X-87750Y-69291D01*
Y-72917D01*
X-89484D01*
Y-80626D01*
X-84682D01*
X-79581Y-85727D01*
X-79085Y-86059D01*
X-78499Y-86175D01*
X-71855D01*
X-71270Y-86059D01*
X-70774Y-85727D01*
X-66834Y-81787D01*
X-66517D01*
X-66514Y-81790D01*
X-66018Y-82122D01*
X-65433Y-82238D01*
X-60134D01*
Y-83677D01*
X-54984D01*
Y-80297D01*
X-50721Y-76033D01*
X-19635D01*
X-19049Y-75917D01*
X-18553Y-75585D01*
X-14886Y-71918D01*
X-14583Y-72043D01*
Y-72043D01*
X-6677D01*
Y-67878D01*
X-14583D01*
Y-68431D01*
X-15091D01*
X-15676Y-68548D01*
X-16173Y-68879D01*
X-20268Y-72974D01*
X-25991D01*
X-26183Y-72513D01*
X-24097Y-70427D01*
X-19685D01*
X-19100Y-70311D01*
X-18604Y-69979D01*
X-15114Y-66490D01*
X-14583D01*
Y-67043D01*
X-6677D01*
Y-62878D01*
X-14583D01*
Y-63431D01*
X-15748D01*
X-16333Y-63548D01*
X-16829Y-63879D01*
X-20319Y-67368D01*
X-23213D01*
X-23405Y-66906D01*
X-17989Y-61490D01*
X-14583D01*
Y-62043D01*
X-6677D01*
Y-61480D01*
X-6177Y-61233D01*
X-5749Y-61561D01*
X-4898Y-61914D01*
X-3984Y-62034D01*
X-3071Y-61914D01*
X-2219Y-61561D01*
X-1488Y-61000D01*
X-927Y-60269D01*
X-574Y-59418D01*
X-454Y-58504D01*
X-574Y-57590D01*
X-672Y-57354D01*
X192Y-56490D01*
X6677D01*
Y-57043D01*
X14583D01*
Y-52878D01*
X6677D01*
Y-53431D01*
X-441D01*
X-1026Y-53548D01*
X-1522Y-53879D01*
X-2835Y-55192D01*
X-3071Y-55094D01*
X-3984Y-54974D01*
X-4898Y-55094D01*
X-5749Y-55447D01*
X-5841Y-55517D01*
X-6383Y-55303D01*
X-6417Y-55099D01*
X-4903Y-53585D01*
X-4571Y-53089D01*
X-4455Y-52504D01*
Y-41659D01*
X-4219Y-41561D01*
X-3488Y-41000D01*
X-2927Y-40269D01*
X-2574Y-39418D01*
X-2454Y-38504D01*
X-2574Y-37590D01*
X-2927Y-36739D01*
X-3124Y-36482D01*
X-2903Y-36033D01*
X11018D01*
X25559Y-50574D01*
X25546Y-50709D01*
X25660Y-51869D01*
X25999Y-52986D01*
X26549Y-54014D01*
X27289Y-54916D01*
X28190Y-55656D01*
X29219Y-56206D01*
X30335Y-56544D01*
X30493Y-56560D01*
Y-57062D01*
X30335Y-57078D01*
X29219Y-57416D01*
X28190Y-57966D01*
X27289Y-58706D01*
X26947Y-59123D01*
X26444Y-58948D01*
X26132Y-58196D01*
X25571Y-57464D01*
X24840Y-56903D01*
X23989Y-56551D01*
X23075Y-56430D01*
X22161Y-56551D01*
X21310Y-56903D01*
X20579Y-57464D01*
X20018Y-58196D01*
X19920Y-58431D01*
X14583D01*
Y-57878D01*
X6677D01*
Y-62043D01*
X14583D01*
Y-61490D01*
X17552D01*
X17681Y-61990D01*
X17063Y-62464D01*
X16502Y-63196D01*
X16404Y-63431D01*
X14583D01*
Y-62878D01*
X6677D01*
Y-67043D01*
X14583D01*
Y-66490D01*
X16404D01*
X16502Y-66726D01*
X17063Y-67457D01*
X17681Y-67931D01*
X17552Y-68431D01*
X14583D01*
Y-67878D01*
X6677D01*
Y-72043D01*
X14583D01*
Y-71490D01*
X15552D01*
X15681Y-71990D01*
X15063Y-72464D01*
X14955Y-72605D01*
X14583Y-72878D01*
Y-72878D01*
X14583Y-72878D01*
X6677D01*
Y-77043D01*
X14583D01*
X14583Y-77043D01*
Y-77043D01*
X14956Y-77318D01*
X15063Y-77457D01*
X15794Y-78018D01*
X16645Y-78370D01*
X17117Y-78433D01*
X17159Y-78457D01*
X17479Y-78985D01*
X17384Y-79461D01*
Y-80252D01*
X15949Y-81686D01*
X14583D01*
Y-77878D01*
X6677D01*
Y-77921D01*
X6559D01*
X5779Y-78077D01*
X5117Y-78519D01*
X3723Y-79912D01*
X3281Y-80574D01*
X3126Y-81354D01*
Y-86650D01*
X2295D01*
Y-94358D01*
X7291D01*
X7498Y-94858D01*
X5382Y-96974D01*
X-829D01*
X-927Y-96739D01*
X-1488Y-96008D01*
X-2219Y-95447D01*
X-3071Y-95094D01*
X-3984Y-94974D01*
X-4898Y-95094D01*
X-5749Y-95447D01*
X-6481Y-96008D01*
X-7041Y-96739D01*
X-7394Y-97590D01*
X-7514Y-98504D01*
X-7394Y-99418D01*
X-7041Y-100269D01*
X-6481Y-101000D01*
X-5749Y-101561D01*
X-4898Y-101914D01*
X-3984Y-102034D01*
X-3071Y-101914D01*
X-2219Y-101561D01*
X-1488Y-101000D01*
X-927Y-100269D01*
X-829Y-100033D01*
X6016D01*
X6601Y-99917D01*
X7097Y-99585D01*
X10404Y-96278D01*
X10736Y-95782D01*
X10852Y-95197D01*
Y-91915D01*
X11110Y-91711D01*
X11598Y-91928D01*
Y-102378D01*
X18775D01*
X19042Y-102878D01*
X18978Y-102974D01*
X12016D01*
X11430Y-103091D01*
X10934Y-103422D01*
X9382Y-104974D01*
X-14829D01*
X-14927Y-104739D01*
X-15488Y-104008D01*
X-16219Y-103447D01*
X-17071Y-103094D01*
X-17984Y-102974D01*
X-18898Y-103094D01*
X-19749Y-103447D01*
X-20481Y-104008D01*
X-21042Y-104739D01*
X-21394Y-105590D01*
X-21514Y-106504D01*
X-21394Y-107418D01*
X-21042Y-108269D01*
X-20481Y-109000D01*
X-19749Y-109561D01*
X-18898Y-109914D01*
X-17984Y-110034D01*
X-17071Y-109914D01*
X-16219Y-109561D01*
X-15488Y-109000D01*
X-14927Y-108269D01*
X-14829Y-108033D01*
X10016D01*
X10601Y-107917D01*
X11097Y-107585D01*
X11136Y-107546D01*
X11598Y-107737D01*
Y-119307D01*
X16486D01*
Y-121423D01*
X16038Y-121644D01*
X15781Y-121447D01*
X14929Y-121094D01*
X14016Y-120974D01*
X13102Y-121094D01*
X12251Y-121447D01*
X11519Y-122008D01*
X10959Y-122739D01*
X10861Y-122975D01*
X7500D01*
X6905Y-122380D01*
Y-119000D01*
X969D01*
Y-124150D01*
X4349D01*
X5785Y-125585D01*
X6281Y-125917D01*
X6866Y-126033D01*
X10861D01*
X10959Y-126269D01*
X11519Y-127000D01*
X12251Y-127561D01*
X13102Y-127914D01*
X14016Y-128034D01*
X14929Y-127914D01*
X15781Y-127561D01*
X16038Y-127364D01*
X16486Y-127585D01*
Y-140504D01*
X16603Y-141089D01*
X16934Y-141585D01*
X25758Y-150409D01*
X25660Y-150729D01*
X25546Y-151890D01*
X25660Y-153050D01*
X25999Y-154167D01*
X26549Y-155195D01*
X27289Y-156097D01*
X28190Y-156837D01*
X29219Y-157387D01*
X30335Y-157725D01*
X31496Y-157840D01*
X32657Y-157725D01*
X33773Y-157387D01*
X34802Y-156837D01*
X35703Y-156097D01*
X36443Y-155195D01*
X36993Y-154167D01*
X37315Y-153104D01*
X43488D01*
Y-154642D01*
X51000D01*
Y-148508D01*
X51000D01*
X51019Y-148363D01*
X51545Y-148196D01*
X52486Y-149137D01*
Y-150276D01*
X52603Y-150861D01*
X52934Y-151357D01*
X55299Y-153722D01*
Y-158382D01*
X62811D01*
Y-153722D01*
X68011Y-148522D01*
X68342Y-148026D01*
X68393Y-147772D01*
X69898D01*
Y-146726D01*
X74886D01*
Y-150902D01*
X82595D01*
Y-144374D01*
X77639D01*
X77381Y-144115D01*
X76885Y-143784D01*
X76299Y-143667D01*
X69898D01*
Y-142622D01*
X68458D01*
Y-140842D01*
X69898D01*
Y-135693D01*
X63961D01*
Y-140842D01*
X65400D01*
Y-142622D01*
X63961D01*
Y-147772D01*
X63961D01*
X64100Y-148108D01*
X63273Y-148934D01*
X62811Y-148743D01*
Y-144768D01*
X60584D01*
Y-141453D01*
X61551D01*
Y-134335D01*
X56647D01*
Y-133382D01*
X58677D01*
Y-128035D01*
X51559D01*
Y-129179D01*
X47811D01*
X47226Y-129296D01*
X46730Y-129627D01*
X41382Y-134975D01*
X35365D01*
X35186Y-134475D01*
X35703Y-134050D01*
X36443Y-133148D01*
X36993Y-132119D01*
X37332Y-131003D01*
X37397Y-130342D01*
X25595D01*
X25660Y-131003D01*
X25999Y-132119D01*
X26549Y-133148D01*
X27289Y-134050D01*
X27806Y-134475D01*
X27628Y-134975D01*
X25171D01*
X25073Y-134739D01*
X24512Y-134008D01*
X23781Y-133447D01*
X22929Y-133094D01*
X22016Y-132974D01*
X21102Y-133094D01*
X20251Y-133447D01*
X19994Y-133644D01*
X19545Y-133423D01*
Y-119307D01*
X19898D01*
Y-106283D01*
X20273Y-105982D01*
X20601Y-105917D01*
X21097Y-105585D01*
X24369Y-102313D01*
X24811Y-102578D01*
X24690Y-102977D01*
X24557Y-104331D01*
X24690Y-105684D01*
X25085Y-106986D01*
X25727Y-108186D01*
X26590Y-109237D01*
X27641Y-110100D01*
X28841Y-110741D01*
X30142Y-111136D01*
X31069Y-111228D01*
Y-111730D01*
X30335Y-111802D01*
X29219Y-112141D01*
X28190Y-112691D01*
X27289Y-113431D01*
X26549Y-114332D01*
X25999Y-115361D01*
X25660Y-116477D01*
X25546Y-117638D01*
X25660Y-118799D01*
X25999Y-119915D01*
X26549Y-120943D01*
X27289Y-121845D01*
X28190Y-122585D01*
X29219Y-123135D01*
X30335Y-123473D01*
X30493Y-123489D01*
Y-123991D01*
X30335Y-124007D01*
X29219Y-124346D01*
X28190Y-124895D01*
X27289Y-125635D01*
X26549Y-126537D01*
X25999Y-127566D01*
X25660Y-128682D01*
X25595Y-129342D01*
X37397D01*
X37332Y-128682D01*
X36993Y-127566D01*
X36443Y-126537D01*
X35703Y-125635D01*
X34802Y-124895D01*
X33773Y-124346D01*
X32657Y-124007D01*
X32499Y-123991D01*
Y-123489D01*
X32657Y-123473D01*
X33773Y-123135D01*
X34802Y-122585D01*
X35703Y-121845D01*
X36443Y-120943D01*
X36993Y-119915D01*
X37332Y-118799D01*
X37446Y-117638D01*
X37332Y-116477D01*
X36993Y-115361D01*
X36443Y-114332D01*
X35703Y-113431D01*
X34802Y-112691D01*
X33773Y-112141D01*
X32657Y-111802D01*
X31923Y-111730D01*
Y-111228D01*
X32850Y-111136D01*
X34152Y-110741D01*
X35351Y-110100D01*
X36403Y-109237D01*
X37266Y-108186D01*
X37907Y-106986D01*
X38302Y-105684D01*
X38435Y-104331D01*
X38302Y-102977D01*
X37907Y-101675D01*
X37436Y-100794D01*
X37842Y-100493D01*
X48934Y-111585D01*
X49431Y-111917D01*
X50016Y-112033D01*
X62016D01*
X62601Y-111917D01*
X62796Y-111787D01*
X63102Y-111914D01*
X64016Y-112034D01*
X64262Y-112002D01*
X64496Y-112475D01*
X55629Y-121343D01*
X51559D01*
Y-126689D01*
X58677D01*
Y-122620D01*
X62318Y-118979D01*
X62742Y-119262D01*
X62606Y-119590D01*
X62486Y-120504D01*
X62606Y-121418D01*
X62959Y-122269D01*
X63520Y-123000D01*
X63961Y-123339D01*
Y-128087D01*
X69898D01*
Y-122937D01*
X69126D01*
X68905Y-122489D01*
X69073Y-122269D01*
X69426Y-121418D01*
X69546Y-120504D01*
X69426Y-119590D01*
X69073Y-118739D01*
X68512Y-118008D01*
X67781Y-117447D01*
X66929Y-117094D01*
X66016Y-116974D01*
X65102Y-117094D01*
X64774Y-117230D01*
X64491Y-116806D01*
X74129Y-107168D01*
X74591Y-107360D01*
Y-119307D01*
X77211D01*
Y-136142D01*
X77327Y-136727D01*
X77659Y-137223D01*
X89359Y-148924D01*
X88991Y-149613D01*
X88653Y-150729D01*
X88538Y-151890D01*
X88653Y-153050D01*
X88991Y-154167D01*
X89541Y-155195D01*
X90281Y-156097D01*
X91183Y-156837D01*
X92211Y-157387D01*
X93327Y-157725D01*
X94488Y-157840D01*
X95649Y-157725D01*
X96765Y-157387D01*
X97794Y-156837D01*
X98695Y-156097D01*
X99435Y-155195D01*
X99985Y-154167D01*
X100324Y-153050D01*
X100438Y-151890D01*
X100406Y-151560D01*
X105395Y-146571D01*
X110055D01*
Y-140437D01*
X102543D01*
Y-145097D01*
X99528Y-148113D01*
X99028Y-148088D01*
X98695Y-147682D01*
X97794Y-146943D01*
X96765Y-146393D01*
X95649Y-146054D01*
X94488Y-145940D01*
X93327Y-146054D01*
X92211Y-146393D01*
X91522Y-146761D01*
X80270Y-135508D01*
Y-119307D01*
X82890D01*
Y-106283D01*
X78952D01*
X78801Y-105783D01*
X79097Y-105585D01*
X81097Y-103585D01*
X81429Y-103089D01*
X81545Y-102504D01*
Y-102378D01*
X82890D01*
Y-89354D01*
X80839D01*
X80631Y-88854D01*
X83311Y-86175D01*
X88669D01*
X88991Y-87238D01*
X89541Y-88266D01*
X90281Y-89168D01*
X91183Y-89908D01*
X92211Y-90458D01*
X93327Y-90796D01*
X94488Y-90911D01*
X95649Y-90796D01*
X96765Y-90458D01*
X97794Y-89908D01*
X98695Y-89168D01*
X99435Y-88266D01*
X99985Y-87238D01*
X100324Y-86121D01*
X100438Y-84961D01*
X100324Y-83800D01*
X99985Y-82684D01*
X99435Y-81655D01*
X98695Y-80753D01*
X97794Y-80014D01*
X96765Y-79464D01*
X95649Y-79125D01*
X94488Y-79011D01*
X93327Y-79125D01*
X92211Y-79464D01*
X91183Y-80014D01*
X90281Y-80753D01*
X89541Y-81655D01*
X88991Y-82684D01*
X88860Y-83116D01*
X82677D01*
X82092Y-83233D01*
X81596Y-83564D01*
X77659Y-87501D01*
X77327Y-87997D01*
X77211Y-88583D01*
Y-89354D01*
X74591D01*
Y-102378D01*
X76829D01*
X77096Y-102878D01*
X77031Y-102974D01*
X74630D01*
X74045Y-103091D01*
X73966Y-103144D01*
X73500Y-102854D01*
X73546Y-102504D01*
X73426Y-101590D01*
X73073Y-100739D01*
X72512Y-100008D01*
X71781Y-99447D01*
X70929Y-99094D01*
X70016Y-98974D01*
X69102Y-99094D01*
X68251Y-99447D01*
X67519Y-100008D01*
X66958Y-100739D01*
X66606Y-101590D01*
X66524Y-102211D01*
X58677D01*
Y-101067D01*
X51559D01*
Y-102211D01*
X49413D01*
X36004Y-88802D01*
X36443Y-88266D01*
X36993Y-87238D01*
X37332Y-86121D01*
X37446Y-84961D01*
X37332Y-83800D01*
X36993Y-82684D01*
X36611Y-81969D01*
X37017Y-81668D01*
X40486Y-85137D01*
Y-90504D01*
X40603Y-91089D01*
X40934Y-91585D01*
X47478Y-98129D01*
X47974Y-98460D01*
X48559Y-98577D01*
X51559D01*
Y-99721D01*
X58677D01*
Y-94374D01*
X56647D01*
Y-91453D01*
X58874D01*
Y-85319D01*
X51362D01*
Y-91453D01*
X53589D01*
Y-94374D01*
X51559D01*
Y-95518D01*
X49193D01*
X43545Y-89871D01*
Y-84504D01*
X43429Y-83919D01*
X43097Y-83422D01*
X37097Y-77422D01*
X36601Y-77091D01*
X36016Y-76974D01*
X26016D01*
X25431Y-77091D01*
X24934Y-77422D01*
X24127Y-78230D01*
X23738Y-77912D01*
X23943Y-77605D01*
X23979Y-77425D01*
X26530Y-74874D01*
X47244D01*
X48024Y-74719D01*
X48686Y-74277D01*
X70037Y-52926D01*
X70565Y-53105D01*
X70606Y-53418D01*
X70959Y-54269D01*
X71449Y-54908D01*
X70178Y-56178D01*
X69847Y-56675D01*
X69749Y-57169D01*
X67996D01*
Y-64878D01*
X73494D01*
Y-69079D01*
X71933D01*
Y-70974D01*
X67171D01*
X67073Y-70739D01*
X66512Y-70008D01*
X65781Y-69447D01*
X64929Y-69094D01*
X64016Y-68974D01*
X63102Y-69094D01*
X62251Y-69447D01*
X61519Y-70008D01*
X60958Y-70739D01*
X60606Y-71590D01*
X60486Y-72504D01*
X60606Y-73418D01*
X60958Y-74269D01*
X61519Y-75000D01*
X62251Y-75561D01*
X63102Y-75914D01*
X64016Y-76034D01*
X64929Y-75914D01*
X65781Y-75561D01*
X66512Y-75000D01*
X67073Y-74269D01*
X67171Y-74033D01*
X71933D01*
Y-76591D01*
X78067D01*
Y-69079D01*
X76553D01*
Y-64980D01*
X76655Y-64878D01*
X81610D01*
Y-57169D01*
X75083D01*
Y-61721D01*
X75024Y-61760D01*
X74524Y-61493D01*
Y-57169D01*
X74167D01*
X73975Y-56707D01*
X74744Y-55938D01*
X74929Y-55914D01*
X75781Y-55561D01*
X76512Y-55000D01*
X77073Y-54269D01*
X77426Y-53418D01*
X77546Y-52504D01*
X77426Y-51590D01*
X77073Y-50739D01*
X76512Y-50008D01*
X75781Y-49447D01*
X74929Y-49094D01*
X74617Y-49053D01*
X74438Y-48525D01*
X87289Y-35673D01*
X87718Y-35930D01*
X87683Y-36048D01*
X87549Y-37402D01*
X87683Y-38755D01*
X88077Y-40057D01*
X88719Y-41257D01*
X89582Y-42308D01*
X90633Y-43171D01*
X91833Y-43812D01*
X93134Y-44207D01*
X94061Y-44298D01*
Y-44801D01*
X93327Y-44873D01*
X92211Y-45212D01*
X91183Y-45761D01*
X90281Y-46501D01*
X89541Y-47403D01*
X88991Y-48432D01*
X88653Y-49548D01*
X88538Y-50709D01*
X88653Y-51869D01*
X88991Y-52986D01*
X89541Y-54014D01*
X90281Y-54916D01*
X91183Y-55656D01*
X92211Y-56206D01*
X93327Y-56544D01*
X93485Y-56560D01*
Y-57062D01*
X93327Y-57078D01*
X92211Y-57416D01*
X91183Y-57966D01*
X90281Y-58706D01*
X89541Y-59608D01*
X88991Y-60637D01*
X88653Y-61753D01*
X88587Y-62413D01*
X100389D01*
X100324Y-61753D01*
X99985Y-60637D01*
X99435Y-59608D01*
X98695Y-58706D01*
X97794Y-57966D01*
X96765Y-57416D01*
X95649Y-57078D01*
X95491Y-57062D01*
Y-56560D01*
X95649Y-56544D01*
X96765Y-56206D01*
X97454Y-55837D01*
X103331Y-61714D01*
Y-65095D01*
X109268D01*
Y-59945D01*
X105887D01*
X99617Y-53675D01*
X99985Y-52986D01*
X100324Y-51869D01*
X100438Y-50709D01*
X100324Y-49548D01*
X99985Y-48432D01*
X99435Y-47403D01*
X98695Y-46501D01*
X97794Y-45761D01*
X96765Y-45212D01*
X95649Y-44873D01*
X94915Y-44801D01*
Y-44298D01*
X95842Y-44207D01*
X97144Y-43812D01*
X98343Y-43171D01*
X99395Y-42308D01*
X100258Y-41257D01*
X100899Y-40057D01*
X101294Y-38755D01*
X101427Y-37402D01*
X101294Y-36048D01*
X100899Y-34746D01*
X100258Y-33547D01*
X99395Y-32495D01*
X98343Y-31632D01*
X97144Y-30991D01*
X95842Y-30596D01*
X94488Y-30463D01*
X93134Y-30596D01*
X93017Y-30632D01*
X92760Y-30203D01*
X95333Y-27630D01*
X102362D01*
X103143Y-27474D01*
X103804Y-27033D01*
X107741Y-23096D01*
X108183Y-22434D01*
X108338Y-21654D01*
Y127646D01*
X109307D01*
Y135354D01*
X108338D01*
Y135433D01*
X108183Y136213D01*
X108142Y136276D01*
Y145850D01*
X109205D01*
Y154150D01*
X105126D01*
Y172500D01*
Y178409D01*
X104971Y179190D01*
X104528Y179851D01*
X97823Y186557D01*
Y204122D01*
X99146D01*
Y208878D01*
D02*
G37*
G36*
X4122Y194866D02*
Y191445D01*
X7543D01*
X7473Y191977D01*
X7075Y192938D01*
X6441Y193764D01*
X5615Y194398D01*
X4654Y194796D01*
X4122Y194866D01*
D02*
G37*
G36*
X14122D02*
Y191445D01*
X17543D01*
X17473Y191977D01*
X17075Y192938D01*
X16441Y193764D01*
X15616Y194398D01*
X14654Y194796D01*
X14122Y194866D01*
D02*
G37*
G36*
X86000Y195646D02*
X84122D01*
Y192783D01*
X86000D01*
Y195646D01*
D02*
G37*
G36*
X3122Y194866D02*
X2590Y194796D01*
X1629Y194398D01*
X803Y193764D01*
X169Y192938D01*
X-229Y191977D01*
X-299Y191445D01*
X3122D01*
Y194866D01*
D02*
G37*
G36*
X13122D02*
X12590Y194796D01*
X11629Y194398D01*
X10803Y193764D01*
X10169Y192938D01*
X9771Y191977D01*
X9701Y191445D01*
X13122D01*
Y194866D01*
D02*
G37*
G36*
X-5878Y194866D02*
Y191445D01*
X-2457D01*
X-2527Y191977D01*
X-2925Y192938D01*
X-3559Y193764D01*
X-4385Y194398D01*
X-5346Y194796D01*
X-5878Y194866D01*
D02*
G37*
G36*
X3122Y200445D02*
X-299D01*
X-229Y199913D01*
X169Y198951D01*
X803Y198126D01*
X1629Y197492D01*
X2590Y197094D01*
X3122Y197024D01*
Y200445D01*
D02*
G37*
G36*
X13122D02*
X9701D01*
X9771Y199913D01*
X10169Y198951D01*
X10803Y198126D01*
X11629Y197492D01*
X12590Y197094D01*
X13122Y197024D01*
Y200445D01*
D02*
G37*
G36*
X-2457D02*
X-5878D01*
Y197024D01*
X-5346Y197094D01*
X-4385Y197492D01*
X-3559Y198126D01*
X-2925Y198951D01*
X-2527Y199913D01*
X-2457Y200445D01*
D02*
G37*
G36*
X88878Y195646D02*
X87000D01*
Y192783D01*
X88878D01*
Y195646D01*
D02*
G37*
G36*
X-16378Y204932D02*
X-17410Y204796D01*
X-18371Y204398D01*
X-19197Y203764D01*
X-19831Y202938D01*
X-20229Y201977D01*
X-20365Y200945D01*
X-20229Y199913D01*
X-19831Y198951D01*
X-19197Y198126D01*
X-18371Y197492D01*
X-17410Y197094D01*
X-16378Y196958D01*
X-15346Y197094D01*
X-14385Y197492D01*
X-13559Y198126D01*
X-12925Y198951D01*
X-12527Y199913D01*
X-12391Y200945D01*
X-12527Y201977D01*
X-12925Y202938D01*
X-13559Y203764D01*
X-14385Y204398D01*
X-15346Y204796D01*
X-16378Y204932D01*
D02*
G37*
G36*
X-6878Y200445D02*
X-10299D01*
X-10229Y199913D01*
X-9831Y198951D01*
X-9197Y198126D01*
X-8371Y197492D01*
X-7410Y197094D01*
X-6878Y197024D01*
Y200445D01*
D02*
G37*
G36*
Y194866D02*
X-7410Y194796D01*
X-8371Y194398D01*
X-9197Y193764D01*
X-9831Y192938D01*
X-10229Y191977D01*
X-10299Y191445D01*
X-6878D01*
Y194866D01*
D02*
G37*
G36*
X3122Y190445D02*
X-299D01*
X-229Y189913D01*
X169Y188951D01*
X803Y188126D01*
X1629Y187492D01*
X2590Y187094D01*
X3122Y187024D01*
Y190445D01*
D02*
G37*
G36*
X13122D02*
X9701D01*
X9771Y189913D01*
X10169Y188951D01*
X10803Y188126D01*
X11629Y187492D01*
X12590Y187094D01*
X13122Y187024D01*
Y190445D01*
D02*
G37*
G36*
X-2457D02*
X-5878D01*
Y187024D01*
X-5346Y187094D01*
X-4385Y187492D01*
X-3559Y188126D01*
X-2925Y188951D01*
X-2527Y189913D01*
X-2457Y190445D01*
D02*
G37*
G36*
X65748Y201821D02*
X64394Y201688D01*
X63093Y201293D01*
X61893Y200651D01*
X60842Y199788D01*
X59978Y198737D01*
X59337Y197537D01*
X58942Y196236D01*
X58809Y194882D01*
X58942Y193528D01*
X59337Y192227D01*
X59978Y191027D01*
X60842Y189975D01*
X61390Y189525D01*
X61211Y189025D01*
X34016D01*
X33430Y188909D01*
X32934Y188577D01*
X25020Y180663D01*
X-71933D01*
Y182890D01*
X-78067D01*
Y175378D01*
X-71933D01*
Y177604D01*
X25653D01*
X26239Y177721D01*
X26735Y178052D01*
X34649Y185967D01*
X62582D01*
X62681Y185947D01*
X68166D01*
X68495Y185571D01*
X68486Y185496D01*
X68606Y184582D01*
X68958Y183731D01*
X69520Y183000D01*
X70251Y182439D01*
X71102Y182086D01*
X72016Y181966D01*
X72929Y182086D01*
X73781Y182439D01*
X74512Y183000D01*
X75073Y183731D01*
X75426Y184582D01*
X75546Y185496D01*
X75426Y186410D01*
X75073Y187261D01*
X74512Y187992D01*
X73781Y188553D01*
X72929Y188906D01*
X72016Y189026D01*
X71102Y188906D01*
X70796Y188779D01*
X70601Y188909D01*
X70233Y188982D01*
X70089Y189511D01*
X70655Y189975D01*
X71517Y191027D01*
X72159Y192227D01*
X72554Y193528D01*
X72687Y194882D01*
X72554Y196236D01*
X72159Y197537D01*
X71517Y198737D01*
X70655Y199788D01*
X69603Y200651D01*
X68403Y201293D01*
X67102Y201688D01*
X65748Y201821D01*
D02*
G37*
G36*
X-16378Y194932D02*
X-17410Y194796D01*
X-18371Y194398D01*
X-19197Y193764D01*
X-19831Y192938D01*
X-20229Y191977D01*
X-20365Y190945D01*
X-20229Y189913D01*
X-19831Y188951D01*
X-19197Y188126D01*
X-18371Y187492D01*
X-17410Y187094D01*
X-16378Y186958D01*
X-15346Y187094D01*
X-14385Y187492D01*
X-13559Y188126D01*
X-12925Y188951D01*
X-12527Y189913D01*
X-12391Y190945D01*
X-12527Y191977D01*
X-12925Y192938D01*
X-13559Y193764D01*
X-14385Y194398D01*
X-15346Y194796D01*
X-16378Y194932D01*
D02*
G37*
G36*
X-6878Y190445D02*
X-10299D01*
X-10229Y189913D01*
X-9831Y188951D01*
X-9197Y188126D01*
X-8371Y187492D01*
X-7410Y187094D01*
X-6878Y187024D01*
Y190445D01*
D02*
G37*
G36*
X-61811Y201821D02*
X-63165Y201688D01*
X-64466Y201293D01*
X-65666Y200651D01*
X-66718Y199788D01*
X-67580Y198737D01*
X-68222Y197537D01*
X-68617Y196236D01*
X-68750Y194882D01*
X-68617Y193528D01*
X-68222Y192227D01*
X-67580Y191027D01*
X-66718Y189975D01*
X-65666Y189112D01*
X-64466Y188471D01*
X-63165Y188076D01*
X-61811Y187943D01*
X-60457Y188076D01*
X-59156Y188471D01*
X-57956Y189112D01*
X-56905Y189975D01*
X-56042Y191027D01*
X-55400Y192227D01*
X-55005Y193528D01*
X-54872Y194882D01*
X-55005Y196236D01*
X-55400Y197537D01*
X-56042Y198737D01*
X-56905Y199788D01*
X-57956Y200651D01*
X-59156Y201293D01*
X-60457Y201688D01*
X-61811Y201821D01*
D02*
G37*
G36*
X86000Y191783D02*
X84122D01*
Y188921D01*
X86000D01*
Y191783D01*
D02*
G37*
G36*
X88878D02*
X87000D01*
Y188921D01*
X88878D01*
Y191783D01*
D02*
G37*
G36*
X7543Y190445D02*
X4122D01*
Y187024D01*
X4654Y187094D01*
X5615Y187492D01*
X6441Y188126D01*
X7075Y188951D01*
X7473Y189913D01*
X7543Y190445D01*
D02*
G37*
G36*
X17543D02*
X14122D01*
Y187024D01*
X14654Y187094D01*
X15616Y187492D01*
X16441Y188126D01*
X17075Y188951D01*
X17473Y189913D01*
X17543Y190445D01*
D02*
G37*
G36*
X-103543Y201821D02*
X-104897Y201688D01*
X-106199Y201293D01*
X-107398Y200651D01*
X-108450Y199788D01*
X-109313Y198737D01*
X-109954Y197537D01*
X-110349Y196236D01*
X-110482Y194882D01*
X-110349Y193528D01*
X-109954Y192227D01*
X-109313Y191027D01*
X-108450Y189975D01*
X-107398Y189112D01*
X-106199Y188471D01*
X-104897Y188076D01*
X-103543Y187943D01*
X-102190Y188076D01*
X-100888Y188471D01*
X-99688Y189112D01*
X-98637Y189975D01*
X-97774Y191027D01*
X-97133Y192227D01*
X-96738Y193528D01*
X-96604Y194882D01*
X-96738Y196236D01*
X-97133Y197537D01*
X-97774Y198737D01*
X-98637Y199788D01*
X-99688Y200651D01*
X-100888Y201293D01*
X-102190Y201688D01*
X-103543Y201821D01*
D02*
G37*
G36*
X44776Y135859D02*
X44231Y135787D01*
X43258Y135384D01*
X42423Y134743D01*
X41782Y133907D01*
X41379Y132934D01*
X41307Y132390D01*
X44776D01*
Y135859D01*
D02*
G37*
G36*
X82299Y64461D02*
X79240D01*
Y62287D01*
X82299D01*
Y64461D01*
D02*
G37*
G36*
X-94988Y70445D02*
X-100389D01*
X-100324Y69784D01*
X-99985Y68668D01*
X-99435Y67639D01*
X-98695Y66738D01*
X-97794Y65998D01*
X-96765Y65448D01*
X-95649Y65109D01*
X-94988Y65044D01*
Y70445D01*
D02*
G37*
G36*
X-88587D02*
X-93988D01*
Y65044D01*
X-93327Y65109D01*
X-92211Y65448D01*
X-91183Y65998D01*
X-90281Y66738D01*
X-89541Y67639D01*
X-88991Y68668D01*
X-88653Y69784D01*
X-88587Y70445D01*
D02*
G37*
G36*
X-20185Y59169D02*
X-23244D01*
Y56996D01*
X-20185D01*
Y59169D01*
D02*
G37*
G36*
X-16126D02*
X-19185D01*
Y56996D01*
X-16126D01*
Y59169D01*
D02*
G37*
G36*
X78240Y64461D02*
X75181D01*
Y62287D01*
X78240D01*
Y64461D01*
D02*
G37*
G36*
X100389Y70445D02*
X94988D01*
Y65044D01*
X95649Y65109D01*
X96765Y65448D01*
X97794Y65998D01*
X98695Y66738D01*
X99435Y67639D01*
X99985Y68668D01*
X100324Y69784D01*
X100389Y70445D01*
D02*
G37*
G36*
X78240Y67634D02*
X75181D01*
Y65461D01*
X78240D01*
Y67634D01*
D02*
G37*
G36*
X82299D02*
X79240D01*
Y65461D01*
X82299D01*
Y67634D01*
D02*
G37*
G36*
X30996Y70445D02*
X25595D01*
X25660Y69784D01*
X25999Y68668D01*
X26549Y67639D01*
X27289Y66738D01*
X28190Y65998D01*
X29219Y65448D01*
X30335Y65109D01*
X30996Y65044D01*
Y70445D01*
D02*
G37*
G36*
X37397D02*
X31996D01*
Y65044D01*
X32657Y65109D01*
X33773Y65448D01*
X34802Y65998D01*
X35703Y66738D01*
X36443Y67639D01*
X36993Y68668D01*
X37332Y69784D01*
X37397Y70445D01*
D02*
G37*
G36*
X93988D02*
X88587D01*
X88653Y69784D01*
X88991Y68668D01*
X89541Y67639D01*
X90281Y66738D01*
X91183Y65998D01*
X92211Y65448D01*
X93327Y65109D01*
X93988Y65044D01*
Y70445D01*
D02*
G37*
G36*
X-16126Y55996D02*
X-19185D01*
Y53823D01*
X-16126D01*
Y55996D01*
D02*
G37*
G36*
X42807Y40839D02*
X39748D01*
Y38665D01*
X42807D01*
Y40839D01*
D02*
G37*
G36*
X46866D02*
X43807D01*
Y38665D01*
X46866D01*
Y40839D01*
D02*
G37*
G36*
X42807Y44012D02*
X39748D01*
Y41839D01*
X42807D01*
Y44012D01*
D02*
G37*
G36*
X81709Y37535D02*
X75772D01*
Y34797D01*
X70685D01*
Y36335D01*
X63173D01*
Y30201D01*
X70685D01*
Y31738D01*
X77047D01*
X77632Y31855D01*
X78129Y32186D01*
X78328Y32386D01*
X81709D01*
Y37535D01*
D02*
G37*
G36*
X-5984Y43026D02*
X-6898Y42906D01*
X-7749Y42553D01*
X-8480Y41992D01*
X-9042Y41261D01*
X-9139Y41026D01*
X-35984D01*
X-36569Y40909D01*
X-37066Y40578D01*
X-43814Y33830D01*
X-44276Y34021D01*
Y37535D01*
X-50213D01*
Y36490D01*
X-57362D01*
X-57947Y36374D01*
X-58006Y36335D01*
X-62811D01*
Y30201D01*
X-55299D01*
Y33431D01*
X-50213D01*
Y32386D01*
X-45911D01*
X-45719Y31924D01*
X-50618Y27025D01*
X-55299D01*
Y28854D01*
X-62811D01*
Y22720D01*
X-55299D01*
Y23967D01*
X-49984D01*
X-49399Y24083D01*
X-48903Y24415D01*
X-35351Y37967D01*
X-9139D01*
X-9042Y37731D01*
X-8480Y37000D01*
X-7749Y36439D01*
X-6898Y36086D01*
X-5984Y35966D01*
X-5071Y36086D01*
X-4219Y36439D01*
X-3488Y37000D01*
X-2927Y37731D01*
X-2574Y38582D01*
X-2454Y39496D01*
X-2574Y40410D01*
X-2927Y41261D01*
X-3488Y41992D01*
X-4219Y42553D01*
X-5071Y42906D01*
X-5984Y43026D01*
D02*
G37*
G36*
X-64425Y45055D02*
X-71543D01*
Y37937D01*
X-64425D01*
Y45055D01*
D02*
G37*
G36*
X31496Y54848D02*
X30335Y54733D01*
X29219Y54395D01*
X28190Y53845D01*
X27289Y53105D01*
X26549Y52203D01*
X25999Y51175D01*
X25660Y50058D01*
X25580Y49246D01*
X18717D01*
Y50291D01*
X12779D01*
Y45142D01*
X18717D01*
Y46187D01*
X26231D01*
X26549Y45592D01*
X27289Y44690D01*
X28190Y43951D01*
X29219Y43401D01*
X30335Y43062D01*
X31496Y42948D01*
X32657Y43062D01*
X33773Y43401D01*
X34802Y43951D01*
X35703Y44690D01*
X36443Y45592D01*
X36930Y46502D01*
X39748D01*
Y45358D01*
X46866D01*
Y50705D01*
X39748D01*
Y49561D01*
X37381D01*
X37332Y50058D01*
X36993Y51175D01*
X36443Y52203D01*
X35703Y53105D01*
X34802Y53845D01*
X33773Y54395D01*
X32657Y54733D01*
X31496Y54848D01*
D02*
G37*
G36*
X-94488D02*
X-95649Y54733D01*
X-96765Y54395D01*
X-97794Y53845D01*
X-98695Y53105D01*
X-99435Y52203D01*
X-99985Y51175D01*
X-100324Y50058D01*
X-100388Y49403D01*
X-105016D01*
Y50449D01*
X-110953D01*
Y45299D01*
X-105016D01*
Y46345D01*
X-99838D01*
X-99435Y45592D01*
X-98695Y44690D01*
X-97794Y43951D01*
X-96765Y43401D01*
X-95649Y43062D01*
X-94488Y42948D01*
X-93327Y43062D01*
X-92211Y43401D01*
X-91522Y43769D01*
X-87514Y39760D01*
Y32047D01*
X-88014Y31973D01*
X-88077Y32183D01*
X-88719Y33383D01*
X-89582Y34434D01*
X-90633Y35297D01*
X-91833Y35938D01*
X-93134Y36333D01*
X-94488Y36467D01*
X-95842Y36333D01*
X-97144Y35938D01*
X-98343Y35297D01*
X-99395Y34434D01*
X-100258Y33383D01*
X-100899Y32183D01*
X-101294Y30881D01*
X-101427Y29528D01*
X-101294Y28174D01*
X-100899Y26872D01*
X-100258Y25673D01*
X-99395Y24621D01*
X-98343Y23758D01*
X-97144Y23117D01*
X-95842Y22722D01*
X-94915Y22631D01*
Y22128D01*
X-95649Y22056D01*
X-96765Y21718D01*
X-97794Y21168D01*
X-98695Y20428D01*
X-99435Y19526D01*
X-99985Y18497D01*
X-100324Y17381D01*
X-100438Y16220D01*
X-100324Y15060D01*
X-99985Y13943D01*
X-99435Y12915D01*
X-98695Y12013D01*
X-97794Y11273D01*
X-96765Y10723D01*
X-95649Y10385D01*
X-95491Y10369D01*
Y9867D01*
X-95649Y9851D01*
X-96765Y9513D01*
X-97794Y8963D01*
X-98695Y8223D01*
X-99435Y7321D01*
X-99985Y6293D01*
X-100324Y5176D01*
X-100389Y4516D01*
X-88587D01*
X-88653Y5176D01*
X-88991Y6293D01*
X-89541Y7321D01*
X-90281Y8223D01*
X-91183Y8963D01*
X-92211Y9513D01*
X-93327Y9851D01*
X-93485Y9867D01*
Y10369D01*
X-93327Y10385D01*
X-92211Y10723D01*
X-91183Y11273D01*
X-90281Y12013D01*
X-89541Y12915D01*
X-88991Y13943D01*
X-88653Y15060D01*
X-88538Y16220D01*
X-88653Y17381D01*
X-88991Y18497D01*
X-89541Y19526D01*
X-90281Y20428D01*
X-91183Y21168D01*
X-92211Y21718D01*
X-93327Y22056D01*
X-94061Y22128D01*
Y22631D01*
X-93134Y22722D01*
X-91833Y23117D01*
X-90633Y23758D01*
X-89582Y24621D01*
X-88719Y25673D01*
X-88077Y26872D01*
X-87683Y28174D01*
X-87660Y28404D01*
X-87145Y28533D01*
X-87066Y28415D01*
X-73790Y15139D01*
X-73294Y14807D01*
X-72709Y14691D01*
X-60488D01*
X-60318Y14191D01*
X-60523Y14034D01*
X-61093Y13291D01*
X-61452Y12425D01*
X-61574Y11496D01*
X-61452Y10567D01*
X-61093Y9701D01*
X-60523Y8958D01*
X-59779Y8387D01*
X-58913Y8029D01*
X-57984Y7906D01*
X-57055Y8029D01*
X-56189Y8387D01*
X-55446Y8958D01*
X-54875Y9701D01*
X-54517Y10567D01*
X-54395Y11496D01*
X-54517Y12425D01*
X-54875Y13291D01*
X-55446Y14034D01*
X-55650Y14191D01*
X-55480Y14691D01*
X-37220D01*
X-36993Y13943D01*
X-36443Y12915D01*
X-35703Y12013D01*
X-34802Y11273D01*
X-33773Y10723D01*
X-32657Y10385D01*
X-32499Y10369D01*
Y9867D01*
X-32657Y9851D01*
X-33773Y9513D01*
X-34802Y8963D01*
X-35703Y8223D01*
X-36443Y7321D01*
X-36993Y6293D01*
X-37332Y5176D01*
X-37397Y4516D01*
X-25595D01*
X-25660Y5176D01*
X-25999Y6293D01*
X-26549Y7321D01*
X-27289Y8223D01*
X-28190Y8963D01*
X-29219Y9513D01*
X-30335Y9851D01*
X-30493Y9867D01*
Y10369D01*
X-30335Y10385D01*
X-29219Y10723D01*
X-28190Y11273D01*
X-27289Y12013D01*
X-26549Y12915D01*
X-26404Y13185D01*
X-25910Y13259D01*
X-25066Y12415D01*
X-24569Y12083D01*
X-23984Y11967D01*
X27346D01*
X28190Y11273D01*
X29219Y10723D01*
X30335Y10385D01*
X30493Y10369D01*
Y9867D01*
X30335Y9851D01*
X29219Y9513D01*
X28190Y8963D01*
X27289Y8223D01*
X26549Y7321D01*
X25999Y6293D01*
X25660Y5176D01*
X25595Y4516D01*
X37397D01*
X37332Y5176D01*
X36993Y6293D01*
X36443Y7321D01*
X35703Y8223D01*
X34802Y8963D01*
X33773Y9513D01*
X32657Y9851D01*
X32499Y9867D01*
Y10369D01*
X32657Y10385D01*
X33773Y10723D01*
X34802Y11273D01*
X35703Y12013D01*
X36443Y12915D01*
X36993Y13943D01*
X37220Y14691D01*
X79118D01*
Y14453D01*
X86236D01*
Y14691D01*
X88764D01*
X88991Y13943D01*
X89541Y12915D01*
X90281Y12013D01*
X91183Y11273D01*
X92211Y10723D01*
X93327Y10385D01*
X93485Y10369D01*
Y9867D01*
X93327Y9851D01*
X92211Y9513D01*
X91183Y8963D01*
X90281Y8223D01*
X89541Y7321D01*
X88991Y6293D01*
X88653Y5176D01*
X88587Y4516D01*
X100389D01*
X100324Y5176D01*
X99985Y6293D01*
X99435Y7321D01*
X98695Y8223D01*
X97794Y8963D01*
X96765Y9513D01*
X95649Y9851D01*
X95491Y9867D01*
Y10369D01*
X95649Y10385D01*
X96765Y10723D01*
X97794Y11273D01*
X98695Y12013D01*
X99435Y12915D01*
X99985Y13943D01*
X100324Y15060D01*
X100438Y16220D01*
X100324Y17381D01*
X99985Y18497D01*
X99435Y19526D01*
X98695Y20428D01*
X97794Y21168D01*
X96765Y21718D01*
X95649Y22056D01*
X94915Y22128D01*
Y22631D01*
X95842Y22722D01*
X97144Y23117D01*
X98343Y23758D01*
X99395Y24621D01*
X100258Y25673D01*
X100899Y26872D01*
X101294Y28174D01*
X101427Y29528D01*
X101294Y30881D01*
X100899Y32183D01*
X100258Y33383D01*
X99395Y34434D01*
X98343Y35297D01*
X97144Y35938D01*
X95842Y36333D01*
X94488Y36467D01*
X93134Y36333D01*
X91833Y35938D01*
X90633Y35297D01*
X89582Y34434D01*
X88719Y33383D01*
X88077Y32183D01*
X87683Y30881D01*
X87549Y29528D01*
X87683Y28174D01*
X88077Y26872D01*
X88719Y25673D01*
X89582Y24621D01*
X90633Y23758D01*
X91833Y23117D01*
X93134Y22722D01*
X94061Y22631D01*
Y22128D01*
X93327Y22056D01*
X92211Y21718D01*
X91183Y21168D01*
X90281Y20428D01*
X89541Y19526D01*
X88991Y18497D01*
X88764Y17750D01*
X86236D01*
Y19799D01*
X79118D01*
Y17750D01*
X37220D01*
X36993Y18497D01*
X36443Y19526D01*
X35703Y20428D01*
X34802Y21168D01*
X33773Y21718D01*
X32657Y22056D01*
X31923Y22128D01*
Y22631D01*
X32850Y22722D01*
X34152Y23117D01*
X35351Y23758D01*
X36403Y24621D01*
X37266Y25673D01*
X37907Y26872D01*
X38302Y28174D01*
X38435Y29528D01*
X38302Y30881D01*
X37907Y32183D01*
X37266Y33383D01*
X37653Y33696D01*
X46643Y24706D01*
X47139Y24374D01*
X47724Y24258D01*
X63173D01*
Y22720D01*
X70685D01*
Y28854D01*
X63173D01*
Y27317D01*
X48358D01*
X35097Y40578D01*
X34601Y40909D01*
X34016Y41026D01*
X29171D01*
X29073Y41261D01*
X28512Y41992D01*
X27781Y42553D01*
X26929Y42906D01*
X26016Y43026D01*
X25102Y42906D01*
X24251Y42553D01*
X23519Y41992D01*
X22959Y41261D01*
X22606Y40410D01*
X22486Y39496D01*
X22606Y38582D01*
X22959Y37731D01*
X23519Y37000D01*
X24251Y36439D01*
X25102Y36086D01*
X26016Y35966D01*
X26929Y36086D01*
X27781Y36439D01*
X28512Y37000D01*
X29073Y37731D01*
X29171Y37967D01*
X33382D01*
X35664Y35685D01*
X35351Y35297D01*
X34152Y35938D01*
X32850Y36333D01*
X31496Y36467D01*
X30142Y36333D01*
X28841Y35938D01*
X27641Y35297D01*
X26590Y34434D01*
X25727Y33383D01*
X25085Y32183D01*
X24690Y30881D01*
X24557Y29528D01*
X24690Y28174D01*
X25085Y26872D01*
X25727Y25673D01*
X26590Y24621D01*
X27641Y23758D01*
X28841Y23117D01*
X30142Y22722D01*
X31069Y22631D01*
Y22128D01*
X30335Y22056D01*
X29219Y21718D01*
X28190Y21168D01*
X27289Y20428D01*
X26549Y19526D01*
X25999Y18497D01*
X25660Y17381D01*
X25546Y16220D01*
X25615Y15526D01*
X25161Y15025D01*
X-23351D01*
X-25627Y17302D01*
X-25655Y17320D01*
X-25660Y17381D01*
X-25999Y18497D01*
X-26549Y19526D01*
X-27289Y20428D01*
X-28190Y21168D01*
X-29219Y21718D01*
X-30335Y22056D01*
X-31069Y22128D01*
Y22631D01*
X-30142Y22722D01*
X-28841Y23117D01*
X-27641Y23758D01*
X-26590Y24621D01*
X-25727Y25673D01*
X-25085Y26872D01*
X-24690Y28174D01*
X-24557Y29528D01*
X-24690Y30881D01*
X-25085Y32183D01*
X-25727Y33383D01*
X-26590Y34434D01*
X-27641Y35297D01*
X-28841Y35938D01*
X-30142Y36333D01*
X-31496Y36467D01*
X-32850Y36333D01*
X-34152Y35938D01*
X-35351Y35297D01*
X-36403Y34434D01*
X-37266Y33383D01*
X-37907Y32183D01*
X-38302Y30881D01*
X-38435Y29528D01*
X-38302Y28174D01*
X-37907Y26872D01*
X-37266Y25673D01*
X-36403Y24621D01*
X-35351Y23758D01*
X-34152Y23117D01*
X-32850Y22722D01*
X-31923Y22631D01*
Y22128D01*
X-32657Y22056D01*
X-33773Y21718D01*
X-34802Y21168D01*
X-35703Y20428D01*
X-36443Y19526D01*
X-36993Y18497D01*
X-37220Y17750D01*
X-72075D01*
X-84455Y30130D01*
Y40394D01*
X-84571Y40979D01*
X-84903Y41475D01*
X-89359Y45932D01*
X-88991Y46621D01*
X-88653Y47737D01*
X-88538Y48898D01*
X-88653Y50058D01*
X-88991Y51175D01*
X-89541Y52203D01*
X-90281Y53105D01*
X-91183Y53845D01*
X-92211Y54395D01*
X-93327Y54733D01*
X-94488Y54848D01*
D02*
G37*
G36*
X-20185Y55996D02*
X-23244D01*
Y53823D01*
X-20185D01*
Y55996D01*
D02*
G37*
G36*
X46866Y44012D02*
X43807D01*
Y41839D01*
X46866D01*
Y44012D01*
D02*
G37*
G36*
X82299Y60941D02*
X75181D01*
Y55594D01*
X77211D01*
Y50291D01*
X75772D01*
Y45142D01*
X81709D01*
Y47368D01*
X88764D01*
X88991Y46621D01*
X89541Y45592D01*
X90281Y44690D01*
X91183Y43951D01*
X92211Y43401D01*
X93327Y43062D01*
X94488Y42948D01*
X95649Y43062D01*
X96765Y43401D01*
X97794Y43951D01*
X98695Y44690D01*
X99435Y45592D01*
X99985Y46621D01*
X100324Y47737D01*
X100438Y48898D01*
X100324Y50058D01*
X99985Y51175D01*
X99435Y52203D01*
X98695Y53105D01*
X97794Y53845D01*
X96765Y54395D01*
X95649Y54733D01*
X94488Y54848D01*
X93327Y54733D01*
X92211Y54395D01*
X91183Y53845D01*
X90281Y53105D01*
X89541Y52203D01*
X88991Y51175D01*
X88764Y50427D01*
X80270D01*
Y55594D01*
X82299D01*
Y60941D01*
D02*
G37*
G36*
X-31496Y54848D02*
X-32657Y54733D01*
X-33773Y54395D01*
X-34802Y53845D01*
X-35703Y53105D01*
X-36443Y52203D01*
X-36993Y51175D01*
X-37332Y50058D01*
X-37412Y49246D01*
X-44276D01*
Y50291D01*
X-50213D01*
Y45142D01*
X-44276D01*
Y46187D01*
X-36761D01*
X-36443Y45592D01*
X-35703Y44690D01*
X-34802Y43951D01*
X-33773Y43401D01*
X-32657Y43062D01*
X-31496Y42948D01*
X-30335Y43062D01*
X-29219Y43401D01*
X-28190Y43951D01*
X-27289Y44690D01*
X-26549Y45592D01*
X-25999Y46621D01*
X-25772Y47368D01*
X-23244D01*
Y47130D01*
X-16126D01*
Y52476D01*
X-23244D01*
Y50427D01*
X-25772D01*
X-25999Y51175D01*
X-26549Y52203D01*
X-27289Y53105D01*
X-28190Y53845D01*
X-29219Y54395D01*
X-30335Y54733D01*
X-31496Y54848D01*
D02*
G37*
G36*
X-94488Y103396D02*
X-95842Y103262D01*
X-97144Y102867D01*
X-98343Y102226D01*
X-99395Y101363D01*
X-100258Y100312D01*
X-100899Y99112D01*
X-101294Y97810D01*
X-101427Y96457D01*
X-101294Y95103D01*
X-100899Y93801D01*
X-100258Y92602D01*
X-99395Y91550D01*
X-98343Y90687D01*
X-97144Y90046D01*
X-95842Y89651D01*
X-94915Y89560D01*
Y89057D01*
X-95649Y88985D01*
X-96765Y88647D01*
X-97794Y88097D01*
X-98695Y87357D01*
X-99435Y86455D01*
X-99985Y85426D01*
X-100324Y84310D01*
X-100438Y83150D01*
X-100324Y81989D01*
X-99985Y80873D01*
X-99435Y79844D01*
X-98695Y78942D01*
X-97794Y78202D01*
X-96765Y77653D01*
X-95649Y77314D01*
X-95491Y77298D01*
Y76796D01*
X-95649Y76780D01*
X-96765Y76442D01*
X-97794Y75892D01*
X-98695Y75152D01*
X-99435Y74251D01*
X-99985Y73222D01*
X-100324Y72106D01*
X-100389Y71445D01*
X-88587D01*
X-88653Y72106D01*
X-88991Y73222D01*
X-89541Y74251D01*
X-90281Y75152D01*
X-91183Y75892D01*
X-92211Y76442D01*
X-93327Y76780D01*
X-93485Y76796D01*
Y77298D01*
X-93327Y77314D01*
X-92211Y77653D01*
X-91183Y78202D01*
X-90281Y78942D01*
X-89541Y79844D01*
X-88991Y80873D01*
X-88653Y81989D01*
X-88538Y83150D01*
X-88653Y84310D01*
X-88991Y85426D01*
X-89541Y86455D01*
X-90281Y87357D01*
X-91183Y88097D01*
X-92211Y88647D01*
X-93327Y88985D01*
X-94061Y89057D01*
Y89560D01*
X-93134Y89651D01*
X-91833Y90046D01*
X-90633Y90687D01*
X-89582Y91550D01*
X-88719Y92602D01*
X-88077Y93801D01*
X-87683Y95103D01*
X-87549Y96457D01*
X-87683Y97810D01*
X-88077Y99112D01*
X-88719Y100312D01*
X-89582Y101363D01*
X-90633Y102226D01*
X-91833Y102867D01*
X-93134Y103262D01*
X-94488Y103396D01*
D02*
G37*
G36*
X62319Y143520D02*
X56185D01*
Y136008D01*
X57723D01*
Y135415D01*
X57487Y135317D01*
X56756Y134756D01*
X56195Y134025D01*
X55842Y133174D01*
X55722Y132260D01*
X55842Y131346D01*
X56195Y130495D01*
X56756Y129764D01*
X57487Y129203D01*
X58338Y128850D01*
X59252Y128730D01*
X60166Y128850D01*
X61017Y129203D01*
X61748Y129764D01*
X62309Y130495D01*
X62662Y131346D01*
X62782Y132260D01*
X62662Y133174D01*
X62309Y134025D01*
X61748Y134756D01*
X61017Y135317D01*
X60781Y135415D01*
Y136008D01*
X62319D01*
Y143520D01*
D02*
G37*
G36*
X14122Y204866D02*
Y201445D01*
X17543D01*
X17473Y201977D01*
X17075Y202938D01*
X16441Y203764D01*
X15616Y204398D01*
X14654Y204796D01*
X14122Y204866D01*
D02*
G37*
G36*
X4122D02*
Y201445D01*
X7543D01*
X7473Y201977D01*
X7075Y202938D01*
X6441Y203764D01*
X5615Y204398D01*
X4654Y204796D01*
X4122Y204866D01*
D02*
G37*
G36*
X44776Y131390D02*
X41307D01*
X41379Y130846D01*
X41782Y129873D01*
X42423Y129037D01*
X43258Y128396D01*
X44231Y127993D01*
X44776Y127921D01*
Y131390D01*
D02*
G37*
G36*
X53000Y210030D02*
X52086Y209910D01*
X51235Y209557D01*
X50504Y208996D01*
X45983Y204475D01*
X25428D01*
X24654Y204796D01*
X23622Y204932D01*
X22590Y204796D01*
X21629Y204398D01*
X20803Y203764D01*
X20169Y202938D01*
X19771Y201977D01*
X19635Y200945D01*
X19771Y199913D01*
X20092Y199138D01*
Y194898D01*
X19669D01*
Y186992D01*
X27575D01*
Y194898D01*
X27152D01*
Y197415D01*
X47445D01*
X48359Y197535D01*
X49210Y197888D01*
X49941Y198449D01*
X54462Y202970D01*
X81217D01*
X82130Y203090D01*
X82982Y203443D01*
X83713Y204004D01*
X83803Y204122D01*
X84579D01*
Y205471D01*
X84626Y205586D01*
X84747Y206500D01*
X84626Y207414D01*
X84579Y207529D01*
Y208878D01*
X83803D01*
X83713Y208996D01*
X82982Y209557D01*
X82130Y209910D01*
X81217Y210030D01*
X53000D01*
X53000Y210030D01*
D02*
G37*
G36*
X49244Y131390D02*
X45776D01*
Y127921D01*
X46320Y127993D01*
X47293Y128396D01*
X48128Y129037D01*
X48770Y129873D01*
X49173Y130846D01*
X49244Y131390D01*
D02*
G37*
G36*
X13122Y204866D02*
X12590Y204796D01*
X11629Y204398D01*
X10803Y203764D01*
X10169Y202938D01*
X9771Y201977D01*
X9701Y201445D01*
X13122D01*
Y204866D01*
D02*
G37*
G36*
X-22153Y135859D02*
X-22698Y135787D01*
X-23671Y135384D01*
X-24506Y134743D01*
X-25148Y133907D01*
X-25551Y132934D01*
X-25622Y132390D01*
X-22153D01*
Y135859D01*
D02*
G37*
G36*
X-21154D02*
Y132390D01*
X-17685D01*
X-17756Y132934D01*
X-18159Y133907D01*
X-18801Y134743D01*
X-19636Y135384D01*
X-20609Y135787D01*
X-21154Y135859D01*
D02*
G37*
G36*
X98457Y135354D02*
X95693D01*
Y132000D01*
X98457D01*
Y135354D01*
D02*
G37*
G36*
X102220D02*
X99457D01*
Y132000D01*
X102220D01*
Y135354D01*
D02*
G37*
G36*
X-5878Y204866D02*
Y201445D01*
X-2457D01*
X-2527Y201977D01*
X-2925Y202938D01*
X-3559Y203764D01*
X-4385Y204398D01*
X-5346Y204796D01*
X-5878Y204866D01*
D02*
G37*
G36*
X-17685Y131390D02*
X-21154D01*
Y127921D01*
X-20609Y127993D01*
X-19636Y128396D01*
X-18801Y129037D01*
X-18159Y129873D01*
X-17756Y130846D01*
X-17685Y131390D01*
D02*
G37*
G36*
X-41339Y135924D02*
X-42383Y135787D01*
X-43356Y135384D01*
X-44191Y134743D01*
X-44833Y133907D01*
X-45236Y132934D01*
X-45373Y131890D01*
X-45236Y130846D01*
X-44833Y129873D01*
X-44191Y129037D01*
X-43356Y128396D01*
X-42383Y127993D01*
X-41339Y127855D01*
X-40294Y127993D01*
X-39807Y128195D01*
X-33474Y121863D01*
X-33596Y121378D01*
X-33773Y121324D01*
X-34802Y120774D01*
X-35703Y120034D01*
X-36443Y119132D01*
X-36993Y118104D01*
X-37332Y116988D01*
X-37446Y115827D01*
X-37332Y114666D01*
X-36993Y113550D01*
X-36443Y112521D01*
X-35703Y111620D01*
X-34802Y110880D01*
X-33773Y110330D01*
X-32657Y109991D01*
X-31496Y109877D01*
X-30335Y109991D01*
X-29219Y110330D01*
X-28190Y110880D01*
X-27289Y111620D01*
X-26549Y112521D01*
X-25999Y113550D01*
X-25660Y114666D01*
X-25546Y115827D01*
X-25660Y116988D01*
X-25999Y118104D01*
X-26549Y119132D01*
X-27289Y120034D01*
X-28190Y120774D01*
X-29219Y121324D01*
X-29967Y121551D01*
Y122047D01*
X-30083Y122633D01*
X-30415Y123129D01*
X-37644Y130358D01*
X-37442Y130846D01*
X-37304Y131890D01*
X-37442Y132934D01*
X-37845Y133907D01*
X-38486Y134743D01*
X-39321Y135384D01*
X-40294Y135787D01*
X-41339Y135924D01*
D02*
G37*
G36*
X25591D02*
X24546Y135787D01*
X23573Y135384D01*
X22738Y134743D01*
X22096Y133907D01*
X21693Y132934D01*
X21556Y131890D01*
X21693Y130846D01*
X22096Y129873D01*
X22738Y129037D01*
X23573Y128396D01*
X24546Y127993D01*
X25591Y127855D01*
X26635Y127993D01*
X27123Y128195D01*
X29967Y125351D01*
Y121551D01*
X29219Y121324D01*
X28190Y120774D01*
X27289Y120034D01*
X26549Y119132D01*
X25999Y118104D01*
X25660Y116988D01*
X25546Y115827D01*
X25660Y114666D01*
X25999Y113550D01*
X26549Y112521D01*
X27289Y111620D01*
X28190Y110880D01*
X29219Y110330D01*
X30335Y109991D01*
X31496Y109877D01*
X32657Y109991D01*
X33773Y110330D01*
X34802Y110880D01*
X35703Y111620D01*
X36443Y112521D01*
X36993Y113550D01*
X37332Y114666D01*
X37446Y115827D01*
X37332Y116988D01*
X36993Y118104D01*
X36443Y119132D01*
X35703Y120034D01*
X34802Y120774D01*
X33773Y121324D01*
X33026Y121551D01*
Y125984D01*
X32909Y126569D01*
X32577Y127066D01*
X29285Y130358D01*
X29488Y130846D01*
X29625Y131890D01*
X29488Y132934D01*
X29085Y133907D01*
X28443Y134743D01*
X27608Y135384D01*
X26635Y135787D01*
X25591Y135924D01*
D02*
G37*
G36*
X-51264Y139484D02*
X-58973D01*
Y132957D01*
X-56647D01*
Y131775D01*
X-57042Y131261D01*
X-57394Y130410D01*
X-57514Y129496D01*
X-57394Y128582D01*
X-57042Y127731D01*
X-56480Y127000D01*
X-55749Y126439D01*
X-54898Y126086D01*
X-53984Y125966D01*
X-53071Y126086D01*
X-52219Y126439D01*
X-51488Y127000D01*
X-50927Y127731D01*
X-50574Y128582D01*
X-50454Y129496D01*
X-50574Y130410D01*
X-50927Y131261D01*
X-51488Y131992D01*
X-52093Y132457D01*
X-51940Y132957D01*
X-51264D01*
Y139484D01*
D02*
G37*
G36*
X31496Y103396D02*
X30142Y103262D01*
X28841Y102867D01*
X27641Y102226D01*
X26590Y101363D01*
X25727Y100312D01*
X25085Y99112D01*
X24690Y97810D01*
X24557Y96457D01*
X24690Y95103D01*
X25085Y93801D01*
X25727Y92602D01*
X26590Y91550D01*
X27641Y90687D01*
X28841Y90046D01*
X30142Y89651D01*
X31069Y89560D01*
Y89057D01*
X30335Y88985D01*
X29219Y88647D01*
X28190Y88097D01*
X27289Y87357D01*
X26549Y86455D01*
X25999Y85426D01*
X25772Y84679D01*
X17669D01*
X17084Y84563D01*
X16588Y84231D01*
X-2618Y65026D01*
X-28949D01*
X-29074Y65526D01*
X-28190Y65998D01*
X-27289Y66738D01*
X-26549Y67639D01*
X-25999Y68668D01*
X-25660Y69784D01*
X-25595Y70445D01*
X-37397D01*
X-37332Y69784D01*
X-36993Y68668D01*
X-36443Y67639D01*
X-35703Y66738D01*
X-34802Y65998D01*
X-33918Y65526D01*
X-34043Y65026D01*
X-50829D01*
X-50927Y65261D01*
X-51488Y65992D01*
X-52219Y66553D01*
X-53071Y66906D01*
X-53984Y67026D01*
X-54898Y66906D01*
X-55749Y66553D01*
X-56480Y65992D01*
X-57042Y65261D01*
X-57394Y64410D01*
X-57514Y63496D01*
X-57394Y62582D01*
X-57042Y61731D01*
X-56480Y61000D01*
X-55749Y60439D01*
X-54898Y60086D01*
X-53984Y59966D01*
X-53071Y60086D01*
X-52219Y60439D01*
X-51488Y61000D01*
X-50927Y61731D01*
X-50829Y61967D01*
X-1984D01*
X-1399Y62083D01*
X-903Y62415D01*
X18303Y81620D01*
X25772D01*
X25999Y80873D01*
X26549Y79844D01*
X27289Y78942D01*
X28190Y78202D01*
X29219Y77653D01*
X30335Y77314D01*
X30493Y77298D01*
Y76796D01*
X30335Y76780D01*
X29219Y76442D01*
X28190Y75892D01*
X27289Y75152D01*
X26549Y74251D01*
X25999Y73222D01*
X25660Y72106D01*
X25595Y71445D01*
X37397D01*
X37332Y72106D01*
X36993Y73222D01*
X36443Y74251D01*
X35703Y75152D01*
X34802Y75892D01*
X33773Y76442D01*
X32657Y76780D01*
X32499Y76796D01*
Y77298D01*
X32657Y77314D01*
X33773Y77653D01*
X34802Y78202D01*
X35703Y78942D01*
X36443Y79844D01*
X36993Y80873D01*
X37332Y81989D01*
X37446Y83150D01*
X37332Y84310D01*
X36993Y85426D01*
X36443Y86455D01*
X35703Y87357D01*
X34802Y88097D01*
X33773Y88647D01*
X32657Y88985D01*
X31923Y89057D01*
Y89560D01*
X32850Y89651D01*
X34152Y90046D01*
X35351Y90687D01*
X36403Y91550D01*
X37266Y92602D01*
X37907Y93801D01*
X38302Y95103D01*
X38435Y96457D01*
X38302Y97810D01*
X37907Y99112D01*
X37266Y100312D01*
X36403Y101363D01*
X35351Y102226D01*
X34152Y102867D01*
X32850Y103262D01*
X31496Y103396D01*
D02*
G37*
G36*
X94488D02*
X93134Y103262D01*
X91833Y102867D01*
X90633Y102226D01*
X89582Y101363D01*
X88719Y100312D01*
X88077Y99112D01*
X87683Y97810D01*
X87549Y96457D01*
X87683Y95103D01*
X88077Y93801D01*
X88719Y92602D01*
X89582Y91550D01*
X90633Y90687D01*
X91833Y90046D01*
X93134Y89651D01*
X94061Y89560D01*
Y89057D01*
X93327Y88985D01*
X92211Y88647D01*
X91183Y88097D01*
X90281Y87357D01*
X89541Y86455D01*
X88991Y85426D01*
X88653Y84310D01*
X88538Y83150D01*
X88653Y81989D01*
X88991Y80873D01*
X89541Y79844D01*
X90281Y78942D01*
X91183Y78202D01*
X92211Y77653D01*
X93327Y77314D01*
X93485Y77298D01*
Y76796D01*
X93327Y76780D01*
X92211Y76442D01*
X91183Y75892D01*
X90281Y75152D01*
X89541Y74251D01*
X88991Y73222D01*
X88653Y72106D01*
X88587Y71445D01*
X100389D01*
X100324Y72106D01*
X99985Y73222D01*
X99435Y74251D01*
X98695Y75152D01*
X97794Y75892D01*
X96765Y76442D01*
X95649Y76780D01*
X95491Y76796D01*
Y77298D01*
X95649Y77314D01*
X96765Y77653D01*
X97794Y78202D01*
X98695Y78942D01*
X99435Y79844D01*
X99985Y80873D01*
X100324Y81989D01*
X100438Y83150D01*
X100324Y84310D01*
X99985Y85426D01*
X99435Y86455D01*
X98695Y87357D01*
X97794Y88097D01*
X96765Y88647D01*
X95649Y88985D01*
X94915Y89057D01*
Y89560D01*
X95842Y89651D01*
X97144Y90046D01*
X98343Y90687D01*
X99395Y91550D01*
X100258Y92602D01*
X100899Y93801D01*
X101294Y95103D01*
X101427Y96457D01*
X101294Y97810D01*
X100899Y99112D01*
X100258Y100312D01*
X99395Y101363D01*
X98343Y102226D01*
X97144Y102867D01*
X95842Y103262D01*
X94488Y103396D01*
D02*
G37*
G36*
X-31496D02*
X-32850Y103262D01*
X-34152Y102867D01*
X-35351Y102226D01*
X-36403Y101363D01*
X-37266Y100312D01*
X-37907Y99112D01*
X-38302Y97810D01*
X-38435Y96457D01*
X-38302Y95103D01*
X-37907Y93801D01*
X-37266Y92602D01*
X-36403Y91550D01*
X-35351Y90687D01*
X-34152Y90046D01*
X-32850Y89651D01*
X-31923Y89560D01*
Y89057D01*
X-32657Y88985D01*
X-33773Y88647D01*
X-34802Y88097D01*
X-35703Y87357D01*
X-36443Y86455D01*
X-36993Y85426D01*
X-37332Y84310D01*
X-37446Y83150D01*
X-37558Y83025D01*
X-78829D01*
X-78927Y83261D01*
X-79488Y83992D01*
X-80219Y84553D01*
X-81071Y84906D01*
X-81984Y85026D01*
X-82898Y84906D01*
X-83749Y84553D01*
X-84481Y83992D01*
X-85041Y83261D01*
X-85394Y82410D01*
X-85514Y81496D01*
X-85394Y80582D01*
X-85041Y79731D01*
X-84481Y79000D01*
X-83749Y78439D01*
X-82898Y78086D01*
X-81984Y77966D01*
X-81071Y78086D01*
X-80219Y78439D01*
X-79488Y79000D01*
X-78927Y79731D01*
X-78829Y79967D01*
X-36509D01*
X-36443Y79844D01*
X-35703Y78942D01*
X-34802Y78202D01*
X-33773Y77653D01*
X-32657Y77314D01*
X-32499Y77298D01*
Y76796D01*
X-32657Y76780D01*
X-33773Y76442D01*
X-34802Y75892D01*
X-35703Y75152D01*
X-36443Y74251D01*
X-36993Y73222D01*
X-37332Y72106D01*
X-37397Y71445D01*
X-25595D01*
X-25660Y72106D01*
X-25999Y73222D01*
X-26549Y74251D01*
X-27289Y75152D01*
X-28190Y75892D01*
X-29219Y76442D01*
X-30335Y76780D01*
X-30493Y76796D01*
Y77298D01*
X-30335Y77314D01*
X-29219Y77653D01*
X-28190Y78202D01*
X-27289Y78942D01*
X-26549Y79844D01*
X-25999Y80873D01*
X-25660Y81989D01*
X-25546Y83150D01*
X-25660Y84310D01*
X-25999Y85426D01*
X-26549Y86455D01*
X-27289Y87357D01*
X-28190Y88097D01*
X-29219Y88647D01*
X-30335Y88985D01*
X-31069Y89057D01*
Y89560D01*
X-30142Y89651D01*
X-28841Y90046D01*
X-27641Y90687D01*
X-26590Y91550D01*
X-25727Y92602D01*
X-25085Y93801D01*
X-24690Y95103D01*
X-24557Y96457D01*
X-24690Y97810D01*
X-25085Y99112D01*
X-25727Y100312D01*
X-26590Y101363D01*
X-27641Y102226D01*
X-28841Y102867D01*
X-30142Y103262D01*
X-31496Y103396D01*
D02*
G37*
G36*
X-28626Y147457D02*
X-34760D01*
Y139945D01*
X-33026D01*
Y135586D01*
X-33513Y135384D01*
X-34349Y134743D01*
X-34990Y133907D01*
X-35393Y132934D01*
X-35531Y131890D01*
X-35393Y130846D01*
X-34990Y129873D01*
X-34349Y129037D01*
X-33513Y128396D01*
X-32540Y127993D01*
X-31496Y127855D01*
X-30452Y127993D01*
X-29479Y128396D01*
X-28643Y129037D01*
X-28002Y129873D01*
X-27599Y130846D01*
X-27461Y131890D01*
X-27599Y132934D01*
X-28002Y133907D01*
X-28643Y134743D01*
X-29479Y135384D01*
X-29967Y135586D01*
Y139945D01*
X-28626D01*
Y147457D01*
D02*
G37*
G36*
X38106Y147457D02*
X31972D01*
Y139945D01*
X33904D01*
Y135586D01*
X33416Y135384D01*
X32580Y134743D01*
X31939Y133907D01*
X31536Y132934D01*
X31399Y131890D01*
X31536Y130846D01*
X31939Y129873D01*
X32580Y129037D01*
X33416Y128396D01*
X34389Y127993D01*
X35433Y127855D01*
X36477Y127993D01*
X37450Y128396D01*
X38286Y129037D01*
X38927Y129873D01*
X39330Y130846D01*
X39468Y131890D01*
X39330Y132934D01*
X38927Y133907D01*
X38286Y134743D01*
X37450Y135384D01*
X36963Y135586D01*
Y139945D01*
X38106D01*
Y147457D01*
D02*
G37*
G36*
X-22153Y131390D02*
X-25622D01*
X-25551Y130846D01*
X-25148Y129873D01*
X-24506Y129037D01*
X-23671Y128396D01*
X-22698Y127993D01*
X-22153Y127921D01*
Y131390D01*
D02*
G37*
G36*
X19602Y139091D02*
X11894D01*
Y132563D01*
X13442D01*
X13612Y132063D01*
X13520Y131992D01*
X12958Y131261D01*
X12606Y130410D01*
X12486Y129496D01*
X12606Y128582D01*
X12958Y127731D01*
X13520Y127000D01*
X14251Y126439D01*
X15102Y126086D01*
X16016Y125966D01*
X16929Y126086D01*
X17781Y126439D01*
X18512Y127000D01*
X19073Y127731D01*
X19426Y128582D01*
X19546Y129496D01*
X19426Y130410D01*
X19073Y131261D01*
X18512Y131992D01*
X18420Y132063D01*
X18590Y132563D01*
X19602D01*
Y139091D01*
D02*
G37*
G36*
X98457Y131000D02*
X95693D01*
Y127646D01*
X98457D01*
Y131000D01*
D02*
G37*
G36*
X102220D02*
X99457D01*
Y127646D01*
X102220D01*
Y131000D01*
D02*
G37*
%LPD*%
G36*
X-37907Y-106986D02*
X-37266Y-108186D01*
X-36403Y-109237D01*
X-35351Y-110100D01*
X-34152Y-110741D01*
X-32850Y-111136D01*
X-31923Y-111228D01*
Y-111730D01*
X-32657Y-111802D01*
X-33773Y-112141D01*
X-34802Y-112691D01*
X-35703Y-113431D01*
X-36443Y-114332D01*
X-36993Y-115361D01*
X-37332Y-116477D01*
X-37446Y-117638D01*
X-37332Y-118799D01*
X-36993Y-119915D01*
X-36443Y-120943D01*
X-35703Y-121845D01*
X-34802Y-122585D01*
X-33773Y-123135D01*
X-32657Y-123473D01*
X-32499Y-123489D01*
Y-123991D01*
X-32657Y-124007D01*
X-33773Y-124346D01*
X-34802Y-124895D01*
X-35703Y-125635D01*
X-35955Y-125942D01*
X-36455Y-125763D01*
Y-124504D01*
X-36571Y-123919D01*
X-36903Y-123423D01*
X-38550Y-121775D01*
X-38574Y-121590D01*
X-38927Y-120739D01*
X-39488Y-120008D01*
X-40219Y-119447D01*
X-41071Y-119094D01*
X-41984Y-118974D01*
X-42595Y-119054D01*
X-43095Y-118674D01*
Y-114325D01*
X-42276D01*
X-41690Y-114208D01*
X-41194Y-113877D01*
X-38903Y-111585D01*
X-38571Y-111089D01*
X-38455Y-110504D01*
Y-106902D01*
X-37955Y-106828D01*
X-37907Y-106986D01*
D02*
G37*
G36*
X-23514Y-35137D02*
Y-50850D01*
X-23397Y-51436D01*
X-23066Y-51932D01*
X-18956Y-56042D01*
X-18459Y-56374D01*
X-17874Y-56490D01*
X-14583D01*
Y-57043D01*
X-7681D01*
X-7397Y-57452D01*
X-7544Y-57878D01*
X-14583D01*
Y-58431D01*
X-18622D01*
X-19207Y-58548D01*
X-19703Y-58879D01*
X-25265Y-64440D01*
X-25694Y-64183D01*
X-25660Y-64074D01*
X-25595Y-63413D01*
X-37397D01*
X-37332Y-64074D01*
X-36993Y-65190D01*
X-36443Y-66219D01*
X-35703Y-67121D01*
X-34802Y-67861D01*
X-33773Y-68410D01*
X-33562Y-68475D01*
X-33636Y-68975D01*
X-34800D01*
X-38352Y-65422D01*
X-38848Y-65091D01*
X-39433Y-64974D01*
X-44829D01*
X-44927Y-64739D01*
X-45488Y-64008D01*
X-46219Y-63447D01*
X-47071Y-63094D01*
X-47984Y-62974D01*
X-48898Y-63094D01*
X-49749Y-63447D01*
X-50481Y-64008D01*
X-51042Y-64739D01*
X-51394Y-65590D01*
X-51514Y-66504D01*
X-51394Y-67418D01*
X-51042Y-68269D01*
X-50481Y-69000D01*
X-49749Y-69561D01*
X-48898Y-69914D01*
X-47984Y-70034D01*
X-47071Y-69914D01*
X-46219Y-69561D01*
X-45488Y-69000D01*
X-44927Y-68269D01*
X-44829Y-68033D01*
X-40067D01*
X-37587Y-70513D01*
X-37779Y-70974D01*
X-55287D01*
X-55872Y-71091D01*
X-56369Y-71422D01*
X-57921Y-72974D01*
X-67885D01*
X-68470Y-73091D01*
X-68967Y-73422D01*
X-72617Y-77073D01*
X-73370Y-76974D01*
X-74284Y-77094D01*
X-75135Y-77447D01*
X-75370Y-77627D01*
X-75870Y-77380D01*
Y-75671D01*
X-73722Y-73522D01*
X-73390Y-73026D01*
X-73274Y-72441D01*
Y-69531D01*
X-70398Y-66655D01*
X-69898Y-66862D01*
Y-69032D01*
X-63961D01*
Y-67986D01*
X-63159D01*
X-63042Y-68269D01*
X-62480Y-69000D01*
X-61749Y-69561D01*
X-60898Y-69914D01*
X-59984Y-70034D01*
X-59071Y-69914D01*
X-58219Y-69561D01*
X-57488Y-69000D01*
X-56927Y-68269D01*
X-56574Y-67418D01*
X-56454Y-66504D01*
X-56574Y-65590D01*
X-56927Y-64739D01*
X-57488Y-64008D01*
X-58219Y-63447D01*
X-59071Y-63094D01*
X-59984Y-62974D01*
X-60898Y-63094D01*
X-61749Y-63447D01*
X-62480Y-64008D01*
X-63042Y-64739D01*
X-63120Y-64927D01*
X-63961D01*
Y-63882D01*
X-67341D01*
X-67344Y-63879D01*
X-67840Y-63548D01*
X-68425Y-63431D01*
X-69311D01*
X-69435Y-62931D01*
X-68927Y-62269D01*
X-68574Y-61418D01*
X-68454Y-60504D01*
X-68574Y-59590D01*
X-68927Y-58739D01*
X-69488Y-58008D01*
X-70219Y-57447D01*
X-71071Y-57094D01*
X-71984Y-56974D01*
X-72898Y-57094D01*
X-73749Y-57447D01*
X-74480Y-58008D01*
X-74511Y-58047D01*
X-74984Y-57886D01*
Y-55690D01*
X-66911Y-47617D01*
X-66579Y-47121D01*
X-66463Y-46535D01*
Y-41662D01*
X-66219Y-41561D01*
X-65488Y-41000D01*
X-64927Y-40269D01*
X-64574Y-39418D01*
X-64454Y-38504D01*
X-64574Y-37590D01*
X-64927Y-36739D01*
X-65488Y-36008D01*
X-66219Y-35447D01*
X-67071Y-35094D01*
X-66961Y-34624D01*
X-47063D01*
Y-40075D01*
X-45073D01*
X-44916Y-40575D01*
X-45041Y-40739D01*
X-45394Y-41590D01*
X-45514Y-42504D01*
X-45394Y-43418D01*
X-45041Y-44269D01*
X-44480Y-45000D01*
X-43749Y-45561D01*
X-42898Y-45914D01*
X-41984Y-46034D01*
X-41071Y-45914D01*
X-40219Y-45561D01*
X-39488Y-45000D01*
X-38927Y-44269D01*
X-38574Y-43418D01*
X-38454Y-42504D01*
X-38574Y-41590D01*
X-38927Y-40739D01*
X-39488Y-40008D01*
X-39551Y-39959D01*
Y-34624D01*
X-38392D01*
X-38021Y-35124D01*
X-38302Y-36048D01*
X-38435Y-37402D01*
X-38302Y-38755D01*
X-37907Y-40057D01*
X-37266Y-41257D01*
X-36403Y-42308D01*
X-35351Y-43171D01*
X-34152Y-43812D01*
X-32850Y-44207D01*
X-31923Y-44298D01*
Y-44801D01*
X-32657Y-44873D01*
X-33773Y-45212D01*
X-34802Y-45761D01*
X-35703Y-46501D01*
X-36443Y-47403D01*
X-36993Y-48432D01*
X-37332Y-49548D01*
X-37446Y-50709D01*
X-37332Y-51869D01*
X-36993Y-52986D01*
X-36443Y-54014D01*
X-35703Y-54916D01*
X-34802Y-55656D01*
X-33773Y-56206D01*
X-32657Y-56544D01*
X-32499Y-56560D01*
Y-57062D01*
X-32657Y-57078D01*
X-33773Y-57416D01*
X-34802Y-57966D01*
X-35703Y-58706D01*
X-36443Y-59608D01*
X-36993Y-60637D01*
X-37332Y-61753D01*
X-37397Y-62413D01*
X-25595D01*
X-25660Y-61753D01*
X-25999Y-60637D01*
X-26549Y-59608D01*
X-27289Y-58706D01*
X-28190Y-57966D01*
X-29219Y-57416D01*
X-30335Y-57078D01*
X-30493Y-57062D01*
Y-56560D01*
X-30335Y-56544D01*
X-29219Y-56206D01*
X-28190Y-55656D01*
X-27289Y-54916D01*
X-26549Y-54014D01*
X-25999Y-52986D01*
X-25660Y-51869D01*
X-25546Y-50709D01*
X-25660Y-49548D01*
X-25999Y-48432D01*
X-26549Y-47403D01*
X-27289Y-46501D01*
X-28190Y-45761D01*
X-29219Y-45212D01*
X-30335Y-44873D01*
X-31069Y-44801D01*
Y-44298D01*
X-30142Y-44207D01*
X-28841Y-43812D01*
X-27641Y-43171D01*
X-26590Y-42308D01*
X-25727Y-41257D01*
X-25085Y-40057D01*
X-24690Y-38755D01*
X-24557Y-37402D01*
X-24690Y-36048D01*
X-25085Y-34746D01*
X-25629Y-33729D01*
X-25223Y-33428D01*
X-23514Y-35137D01*
D02*
G37*
G36*
X59102Y-55914D02*
X60016Y-56034D01*
X60520Y-55968D01*
X60754Y-56441D01*
X46399Y-70796D01*
X44540D01*
X44349Y-70333D01*
X58866Y-55816D01*
X59102Y-55914D01*
D02*
G37*
G36*
X30778Y-30533D02*
X30142Y-30596D01*
X28841Y-30991D01*
X27641Y-31632D01*
X26590Y-32495D01*
X25727Y-33547D01*
X25085Y-34746D01*
X24690Y-36048D01*
X24557Y-37402D01*
X24690Y-38755D01*
X25085Y-40057D01*
X25727Y-41257D01*
X26590Y-42308D01*
X27641Y-43171D01*
X28841Y-43812D01*
X30142Y-44207D01*
X31069Y-44298D01*
Y-44801D01*
X30335Y-44873D01*
X29219Y-45212D01*
X28190Y-45761D01*
X27289Y-46501D01*
X26859Y-47025D01*
X26360Y-47049D01*
X16314Y-37003D01*
X16493Y-36476D01*
X17060Y-36401D01*
X18033Y-35998D01*
X18869Y-35357D01*
X19510Y-34521D01*
X19913Y-33548D01*
X20050Y-32504D01*
X19913Y-31460D01*
X19711Y-30972D01*
X20649Y-30033D01*
X30754D01*
X30778Y-30533D01*
D02*
G37*
G36*
X82593Y-33947D02*
X82724Y-34471D01*
X63953Y-53242D01*
X63480Y-53008D01*
X63546Y-52504D01*
X63426Y-51590D01*
X63073Y-50739D01*
X62512Y-50008D01*
X61781Y-49447D01*
X60929Y-49094D01*
X60016Y-48974D01*
X59102Y-49094D01*
X58251Y-49447D01*
X57520Y-50008D01*
X56959Y-50739D01*
X56606Y-51590D01*
X56486Y-52504D01*
X56606Y-53418D01*
X56704Y-53653D01*
X41926Y-68431D01*
X34795D01*
X34669Y-67931D01*
X34802Y-67861D01*
X35703Y-67121D01*
X36443Y-66219D01*
X36993Y-65190D01*
X37332Y-64074D01*
X37397Y-63413D01*
X31496D01*
Y-62413D01*
X37397D01*
X37332Y-61753D01*
X36993Y-60637D01*
X36443Y-59608D01*
X35703Y-58706D01*
X34802Y-57966D01*
X33773Y-57416D01*
X32657Y-57078D01*
X32499Y-57062D01*
Y-56560D01*
X32657Y-56544D01*
X33773Y-56206D01*
X34802Y-55656D01*
X35703Y-54916D01*
X36443Y-54014D01*
X36993Y-52986D01*
X37220Y-52238D01*
X52495D01*
X53081Y-52122D01*
X53577Y-51790D01*
X71334Y-34033D01*
X82016D01*
X82563Y-33924D01*
X82593Y-33947D01*
D02*
G37*
G36*
X-76210Y-68242D02*
X-76220Y-68331D01*
X-76332Y-68898D01*
Y-71807D01*
X-77442Y-72917D01*
X-82398D01*
Y-77394D01*
X-82898Y-77661D01*
X-82957Y-77622D01*
Y-72917D01*
X-84691D01*
Y-72320D01*
X-84315Y-71991D01*
X-83984Y-72034D01*
X-83071Y-71914D01*
X-82219Y-71561D01*
X-81488Y-71000D01*
X-80927Y-70269D01*
X-80574Y-69418D01*
X-80454Y-68504D01*
X-80493Y-68207D01*
X-80164Y-67831D01*
X-76477D01*
X-76210Y-68242D01*
D02*
G37*
G36*
X51559Y-133382D02*
X53589D01*
Y-135020D01*
X53705Y-135605D01*
X54037Y-136101D01*
X54433Y-136497D01*
Y-141453D01*
X57526D01*
Y-144768D01*
X55299D01*
Y-146917D01*
X54799Y-147125D01*
X53097Y-145422D01*
X52601Y-145091D01*
X52016Y-144975D01*
X35825D01*
X35237Y-144387D01*
X34741Y-144055D01*
X34156Y-143939D01*
X31696D01*
X31376Y-143538D01*
X31426Y-143418D01*
X31546Y-142504D01*
X31426Y-141590D01*
X31073Y-140739D01*
X30512Y-140008D01*
X29781Y-139447D01*
X28929Y-139094D01*
X28016Y-138974D01*
X27102Y-139094D01*
X26251Y-139447D01*
X25519Y-140008D01*
X24959Y-140739D01*
X24606Y-141590D01*
X24486Y-142504D01*
X24606Y-143418D01*
X24959Y-144269D01*
X25519Y-145000D01*
X26251Y-145561D01*
X27102Y-145914D01*
X28016Y-146034D01*
X28742Y-145939D01*
X28837Y-146030D01*
X28763Y-146636D01*
X28190Y-146943D01*
X27326Y-147652D01*
X19712Y-140037D01*
X19741Y-139800D01*
X20251Y-139561D01*
X21102Y-139914D01*
X22016Y-140034D01*
X22929Y-139914D01*
X23781Y-139561D01*
X24512Y-139000D01*
X25073Y-138269D01*
X25171Y-138033D01*
X42016D01*
X42601Y-137917D01*
X43097Y-137585D01*
X48445Y-132238D01*
X51559D01*
Y-133382D01*
D02*
G37*
G36*
X27593Y-80504D02*
X27289Y-80753D01*
X26549Y-81655D01*
X25999Y-82684D01*
X25660Y-83800D01*
X25546Y-84961D01*
X25660Y-86121D01*
X25999Y-87238D01*
X26367Y-87927D01*
X20398Y-93896D01*
X19898Y-93689D01*
Y-89354D01*
X13982D01*
X13790Y-88892D01*
X14649Y-88033D01*
X18016D01*
X18601Y-87917D01*
X19097Y-87585D01*
X26649Y-80033D01*
X27424D01*
X27593Y-80504D01*
D02*
G37*
G36*
X29219Y-90458D02*
X30335Y-90796D01*
X31496Y-90911D01*
X32657Y-90796D01*
X33436Y-90560D01*
X47698Y-104822D01*
X48194Y-105153D01*
X48779Y-105270D01*
X51559D01*
Y-106413D01*
X58677D01*
Y-105270D01*
X61660D01*
X61830Y-105770D01*
X61519Y-106008D01*
X60958Y-106739D01*
X60606Y-107590D01*
X60486Y-108504D01*
X60498Y-108599D01*
X60168Y-108975D01*
X50649D01*
X37097Y-95423D01*
X36601Y-95091D01*
X36016Y-94974D01*
X28016D01*
X27430Y-95091D01*
X26934Y-95423D01*
X20398Y-101959D01*
X19898Y-101752D01*
Y-97395D01*
X20591D01*
X21176Y-97279D01*
X21672Y-96948D01*
X28530Y-90089D01*
X29219Y-90458D01*
D02*
G37*
D10*
X-82874Y167520D02*
Y179134D01*
X-86221Y-69291D02*
X-82677Y-65748D01*
X80016Y-102504D02*
Y-97142D01*
X82016Y-32504D02*
X86016Y-28504D01*
X70700Y-32504D02*
X82016D01*
X52495Y-50709D02*
X70700Y-32504D01*
X31496Y-50709D02*
X52495D01*
X-31693Y143701D02*
X-31496Y143504D01*
Y131890D02*
Y143504D01*
X35039Y143701D02*
X35433Y143307D01*
Y131890D02*
Y143307D01*
X15748Y135827D02*
X16016Y135559D01*
Y129496D02*
Y135559D01*
X-15748Y-9843D02*
X-15748Y-9843D01*
Y-15276D02*
Y-9843D01*
X31496Y48898D02*
X32362Y48031D01*
X43307D01*
X30315Y47717D02*
X31496Y48898D01*
X15748Y47717D02*
X30315D01*
X14055Y33268D02*
X15748Y34961D01*
X3937Y33268D02*
X14055D01*
X60016Y614D02*
X66929Y-6299D01*
X60016Y614D02*
Y3496D01*
X59252Y132260D02*
Y139764D01*
X47724Y25787D02*
X66929D01*
X34016Y39496D02*
X47724Y25787D01*
X26016Y39496D02*
X34016D01*
X10630Y-59961D02*
X23075D01*
X74669Y-72504D02*
X75000Y-72835D01*
X64016Y-72504D02*
X74669D01*
X62016Y-110504D02*
X64016Y-108504D01*
X50016Y-110504D02*
X62016D01*
X36016Y-96504D02*
X50016Y-110504D01*
X55118Y-124016D02*
X74630Y-104504D01*
X28016Y-96504D02*
X36016D01*
X20016Y-104504D02*
X28016Y-96504D01*
X31496Y-86457D02*
X48779Y-103740D01*
X31496Y-86457D02*
Y-84961D01*
X12016Y-104504D02*
X20016D01*
X10016Y-106504D02*
X12016Y-104504D01*
X-17984Y-106504D02*
X10016D01*
X-42598Y-78504D02*
X-17984D01*
X-14441Y-74961D02*
X-10630D01*
X-17984Y-78504D02*
X-14441Y-74961D01*
X42559Y-69961D02*
X60016Y-52504D01*
X10630Y-69961D02*
X42559D01*
X10016Y-24504D02*
X54016D01*
X55118Y-80905D02*
Y-75606D01*
X3937Y-121575D02*
X6866Y-124504D01*
X14016D01*
X15748Y-112795D02*
X18016Y-115063D01*
Y-140504D02*
Y-115063D01*
Y-140504D02*
X29402Y-151890D01*
X20591Y-95866D02*
X31496Y-84961D01*
X-3984Y-98504D02*
X6016D01*
X14016Y-86504D02*
X18016D01*
X26016Y-78504D01*
X48559Y-97047D02*
X55118D01*
X42016Y-90504D02*
X48559Y-97047D01*
X42016Y-90504D02*
Y-84504D01*
X36016Y-78504D02*
X42016Y-84504D01*
X26016Y-78504D02*
X36016D01*
X68779Y-103740D02*
X70016Y-102504D01*
X55118Y-103740D02*
X68779D01*
X66016Y-120504D02*
X66929Y-121417D01*
Y-125512D02*
Y-121417D01*
X60669Y-21850D02*
X66929D01*
Y-13386D01*
X29402Y-151890D02*
X31496D01*
X9843Y-134331D02*
X10016Y-134504D01*
X3937Y-134331D02*
X9843D01*
X11652Y-34504D02*
X27856Y-50709D01*
X31496D01*
X42850Y-41339D02*
X47244D01*
X40016Y-38504D02*
X42850Y-41339D01*
X40016Y-38504D02*
Y-34504D01*
X34016Y-28504D02*
X40016Y-34504D01*
X20016Y-28504D02*
X34016D01*
X16016Y-32504D02*
X20016Y-28504D01*
X17669Y83150D02*
X31496D01*
X-1984Y63496D02*
X17669Y83150D01*
X-53984Y63496D02*
X-1984D01*
X-47984Y-66504D02*
X-39433D01*
X-35433Y-70504D01*
X-38441Y-84961D02*
X-31496D01*
X-47244Y-93764D02*
X-38441Y-84961D01*
X-47244Y-95866D02*
Y-93764D01*
X-39984Y-122504D02*
X-37984Y-124504D01*
Y-130504D02*
Y-124504D01*
X-42717Y-135236D02*
X-37984Y-130504D01*
X-43307Y-135236D02*
X-42717D01*
X-51346Y-95866D02*
X-47244D01*
X-53984Y-98504D02*
X-51346Y-95866D01*
X-53984Y-117866D02*
Y-98504D01*
Y-117866D02*
X-43307Y-128543D01*
X-31984Y-151402D02*
X-31496Y-151890D01*
X-31984Y-151402D02*
Y-144504D01*
X-23984Y-136504D01*
Y-98504D01*
X-25984Y-96504D02*
X-23984Y-98504D01*
X-35984Y-96504D02*
X-25984D01*
X-39984Y-100504D02*
X-35984Y-96504D01*
X-39984Y-110504D02*
Y-100504D01*
X-42276Y-112795D02*
X-39984Y-110504D01*
X-47244Y-112795D02*
X-42276D01*
X-52976Y-125512D02*
X-51984Y-126504D01*
X-59055Y-125512D02*
X-52976D01*
X-34563Y-29996D02*
X-25984D01*
Y-30504D02*
X-21984Y-34504D01*
Y-50850D02*
Y-34504D01*
Y-50850D02*
X-17874Y-54961D01*
X-15984Y-44504D02*
Y-42504D01*
X-7984Y-34504D01*
X11652D01*
X71260Y-61024D02*
Y-57260D01*
X74016Y-54504D01*
Y-52504D01*
X72016Y145047D02*
Y147496D01*
X66732Y139764D02*
X72016Y145047D01*
X70016Y187496D02*
X72016Y185496D01*
X68835Y187496D02*
X70016D01*
X68815Y187476D02*
X68835Y187496D01*
X62681Y187476D02*
X68815D01*
X62661Y187496D02*
X62681Y187476D01*
X34016Y187496D02*
X62661D01*
X25653Y179134D02*
X34016Y187496D01*
X-75000Y179134D02*
X25653D01*
X-55118Y130630D02*
X-53984Y129496D01*
X-55118Y130630D02*
Y136221D01*
X-59055Y25787D02*
X-58764Y25496D01*
X-49984D01*
X-35984Y39496D01*
X-5984D01*
Y-52504D02*
Y-38504D01*
X-8441Y-54961D02*
X-5984Y-52504D01*
X-10630Y-54961D02*
X-8441D01*
X-59055Y33268D02*
X-57362Y34961D01*
X-47244D01*
X-20591Y48898D02*
X-19685Y49803D01*
X-31496Y48898D02*
X-20591D01*
X-32677Y47717D02*
X-31496Y48898D01*
X-47244Y47717D02*
X-32677D01*
X-33150Y81496D02*
X-31496Y83150D01*
X-81984Y81496D02*
X-33150D01*
X-85984Y29496D02*
X-72709Y16220D01*
X-85984Y29496D02*
Y40394D01*
X-94488Y48898D02*
X-85984Y40394D01*
Y-504D02*
Y21496D01*
X-93984Y-8504D02*
X-85984Y-504D01*
X-78740Y-57284D02*
X-75520Y-60504D01*
X-71984D01*
X-86614Y-64120D02*
Y-61024D01*
X-91828Y-69335D02*
X-86614Y-64120D01*
X-73370Y-79989D02*
X-67885Y-74504D01*
X-57287D02*
X-55287Y-72504D01*
X-67885Y-74504D02*
X-57287D01*
X-73370Y-80504D02*
Y-79989D01*
X-78499Y-84646D02*
X-71855D01*
X-66929Y-79720D01*
Y-79213D01*
X-55287Y-72504D02*
X-28337D01*
X-24731Y-68898D01*
X-19685D01*
X-17276Y-26504D02*
X-15748Y-28032D01*
X-39984Y-26504D02*
X-17276D01*
X-43008Y-29528D02*
X-39984Y-26504D01*
X-43307Y-29528D02*
X-43008D01*
X-75984Y-24504D02*
X-67394Y-33094D01*
X-37662D02*
X-34563Y-29996D01*
X-67394Y-33094D02*
X-37662D01*
X-31496Y-18032D02*
X-28740Y-15276D01*
X-15748D01*
X-94488Y-18032D02*
X-48457D01*
X-67992Y-46535D02*
Y-39469D01*
X-78740Y-57284D02*
X-67992Y-46535D01*
X-106299Y-17717D02*
X-105984Y-18032D01*
X-94488D01*
X-95512Y47874D02*
X-94488Y48898D01*
X-107984Y47874D02*
X-95512D01*
X-107984Y32709D02*
Y35118D01*
Y32709D02*
X-106299Y31024D01*
Y17520D02*
Y31024D01*
Y10039D02*
X-105984Y9724D01*
Y-504D02*
Y9724D01*
X-82677Y-65748D02*
X-79724D01*
X-75984Y-142913D02*
X-70866Y-148031D01*
X-101894Y-96925D02*
X-91421D01*
X-87083Y-101263D01*
Y-111736D02*
Y-101263D01*
X-65433Y-80709D02*
X-57559D01*
X-66929Y-79213D02*
X-65433Y-80709D01*
X-51181Y-131890D02*
X-47835Y-135236D01*
X-61988Y-131890D02*
X-51181D01*
X-43307Y-135236D02*
X-43307Y-135236D01*
Y-147835D02*
Y-135236D01*
X-106299Y-136024D02*
Y-100394D01*
X78740Y-95866D02*
X80016Y-97142D01*
X78016Y-104504D02*
X80016Y-102504D01*
X74630Y-104504D02*
X78016D01*
X54016Y-150276D02*
X59055Y-155315D01*
X54016Y-150276D02*
Y-148504D01*
X52016Y-146504D02*
X54016Y-148504D01*
X35191Y-146504D02*
X52016D01*
X34156Y-145468D02*
X35191Y-146504D01*
X30980Y-145468D02*
X34156D01*
X28016Y-142504D02*
X30980Y-145468D01*
X22016Y-136504D02*
X42016D01*
X47811Y-130709D01*
X55118D01*
X81772Y16220D02*
X82677Y17126D01*
X31496Y16220D02*
X81772D01*
X28772Y13496D02*
X31496Y16220D01*
X-23984Y13496D02*
X28772D01*
X-26709Y16220D02*
X-23984Y13496D01*
X-31496Y16220D02*
X-26709D01*
X-72709D02*
X-31496D01*
X15748Y-95866D02*
X20591D01*
X48779Y-103740D02*
X55118D01*
X10630Y-64961D02*
X19559D01*
X10630Y-74961D02*
X17559D01*
X-3984Y-58504D02*
X-441Y-54961D01*
X10630D01*
X3937Y19575D02*
X4016Y19496D01*
X3937Y19575D02*
Y25787D01*
X10630Y-49961D02*
Y-45118D01*
X-43307Y-41181D02*
Y-37008D01*
Y-41181D02*
X-41984Y-42504D01*
X-9984Y-84504D02*
Y-80606D01*
X-10630Y-79961D02*
X-9984Y-80606D01*
X-44803Y-80709D02*
X-42598Y-78504D01*
X-15091Y-69961D02*
X-10630D01*
X-19635Y-74504D02*
X-15091Y-69961D01*
X-51354Y-74504D02*
X-19635D01*
X-57559Y-80709D02*
X-51354Y-74504D01*
X-29165Y-70504D02*
X-18622Y-59961D01*
X-35433Y-70504D02*
X-29165D01*
X-15748Y-64961D02*
X-10630D01*
X-19685Y-68898D02*
X-15748Y-64961D01*
X-18622Y-59961D02*
X-10630D01*
X-17874Y-54961D02*
X-10630D01*
X-82874Y-57284D02*
X-78740D01*
X-86614Y-61024D02*
X-82874Y-57284D01*
X-98862Y-69335D02*
X-91828D01*
X-106299Y-76772D02*
X-98862Y-69335D01*
X-86221Y-76772D02*
Y-69291D01*
X-47835Y-135236D02*
X-43307D01*
X-68425Y-64961D02*
X-66929Y-66457D01*
X-70866Y-64961D02*
X-68425D01*
X-82087Y-92520D02*
X-78740Y-95866D01*
X-86929Y-92520D02*
X-82087D01*
X-94488Y-84961D02*
X-86929Y-92520D01*
X-86024Y-112795D02*
X-78740D01*
X-87083Y-111736D02*
X-86024Y-112795D01*
X-102362Y-96457D02*
X-101894Y-96925D01*
X-106299Y-100394D02*
X-102362Y-96457D01*
X-86221Y-76925D02*
Y-76772D01*
Y-76925D02*
X-78499Y-84646D01*
X-66929Y-66457D02*
X-61004D01*
X-74803Y-68898D02*
X-70866Y-64961D01*
X-74803Y-72441D02*
Y-68898D01*
X-79134Y-76772D02*
X-74803Y-72441D01*
X-79724Y-65748D02*
X-78740Y-64764D01*
X-95984Y-83465D02*
X-94488Y-84961D01*
X-106299Y-83465D02*
X-95984D01*
X3937Y-145197D02*
Y-134331D01*
X55118Y-88386D02*
X55118Y-88386D01*
Y-97047D02*
Y-88386D01*
X94173Y-84646D02*
X94488Y-84961D01*
X82677Y-84646D02*
X94173D01*
X78740Y-88583D02*
X82677Y-84646D01*
X78740Y-95866D02*
Y-88583D01*
X94488Y-50709D02*
Y-50709D01*
Y-50709D02*
X106299Y-62520D01*
X103858Y-72835D02*
X106299Y-75276D01*
X82480Y-72835D02*
X103858D01*
X75024Y-64346D02*
X78347Y-61024D01*
X75024Y-72811D02*
Y-64346D01*
X75000Y-72835D02*
X75024Y-72811D01*
X47244Y-33858D02*
Y-28032D01*
X31496Y-18032D02*
X34252Y-15276D01*
X47244D01*
X48425Y-14095D01*
Y-5906D01*
X66929Y-13386D02*
X66929Y-13386D01*
X78740Y-15276D02*
Y-5906D01*
X77441Y-29331D02*
X78740Y-28032D01*
X66929Y-29331D02*
X77441D01*
X91732Y-15276D02*
X94488Y-18032D01*
X78740Y-15276D02*
X91732D01*
X78740Y47717D02*
Y58268D01*
Y47717D02*
X79921Y48898D01*
X94488D01*
X77047Y33268D02*
X78740Y34961D01*
X66929Y33268D02*
X77047D01*
X82677Y17126D02*
X83583Y16220D01*
X94488D01*
X76772Y133543D02*
Y167323D01*
Y133543D02*
X94488Y115827D01*
X-94488Y165354D02*
X-92520Y167323D01*
X-94488Y115827D02*
Y165354D01*
X-41339Y131890D02*
X-31496Y122047D01*
Y115827D02*
Y122047D01*
X25591Y131890D02*
X31496Y125984D01*
Y115827D02*
Y125984D01*
X26772Y142913D02*
X27559Y143701D01*
X15748Y142913D02*
X26772D01*
X-55118Y143307D02*
X-54724Y143701D01*
X-39173D01*
X-82874Y167520D02*
X-82677Y167323D01*
X78740Y-136142D02*
Y-112795D01*
Y-136142D02*
X94488Y-151890D01*
X55118Y-135020D02*
Y-130709D01*
Y-135020D02*
X57992Y-137894D01*
X66929Y-145197D02*
Y-138268D01*
X57992Y-137894D02*
X59055Y-138957D01*
Y-147835D02*
Y-138957D01*
X97913Y-151890D02*
X106299Y-143504D01*
X94488Y-151890D02*
X97913D01*
X76299Y-145197D02*
X78740Y-147638D01*
X66929Y-145197D02*
X76299D01*
X66929Y-157953D02*
X70157Y-154724D01*
X78740D01*
X66929Y-157953D02*
X67992Y-159016D01*
Y-167894D02*
Y-159016D01*
X66929Y-147441D02*
Y-145197D01*
X59055Y-155315D02*
X66929Y-147441D01*
X31496Y-151890D02*
X31811Y-151575D01*
X47244D01*
X1102Y-148031D02*
X3937Y-145197D01*
X-7874Y-148031D02*
X1102D01*
X3937Y-157953D02*
X5000Y-159016D01*
Y-167894D02*
Y-159016D01*
X1102Y-155118D02*
X3937Y-157953D01*
X-7874Y-155118D02*
X1102D01*
X-31496Y-151890D02*
X-19685Y-163701D01*
Y-167520D02*
Y-163701D01*
X-67992Y-137894D02*
X-61988Y-131890D01*
X-48937Y-155315D02*
X-43307D01*
X-59055Y-145197D02*
X-48937Y-155315D01*
X-59055Y-157953D02*
X-57992Y-159016D01*
Y-167894D02*
Y-159016D01*
X-70866Y-155118D02*
X-68032Y-157953D01*
X-59055D01*
X-70866Y-148031D02*
X-68032Y-145197D01*
X-59055D01*
X-94488Y-151890D02*
Y-147835D01*
X-106299Y-136024D02*
X-94488Y-147835D01*
X-59055Y-145197D02*
Y-138268D01*
X9323Y-91197D02*
X14016Y-86504D01*
X9323Y-95197D02*
Y-91197D01*
X6016Y-98504D02*
X9323Y-95197D01*
D11*
X31496Y-62913D02*
D03*
Y-50709D02*
D03*
Y-18032D02*
D03*
X-94488Y4016D02*
D03*
Y16220D02*
D03*
Y48898D02*
D03*
Y-129842D02*
D03*
Y-117638D02*
D03*
Y-84961D02*
D03*
X-31496Y4016D02*
D03*
Y16220D02*
D03*
Y48898D02*
D03*
Y-129842D02*
D03*
Y-117638D02*
D03*
Y-84961D02*
D03*
X-94488Y-196772D02*
D03*
Y-184567D02*
D03*
Y-151890D02*
D03*
Y70945D02*
D03*
Y83150D02*
D03*
Y115827D02*
D03*
X-31496Y-196772D02*
D03*
Y-184567D02*
D03*
Y-151890D02*
D03*
Y70945D02*
D03*
Y83150D02*
D03*
Y115827D02*
D03*
X-94488Y-62913D02*
D03*
Y-50709D02*
D03*
Y-18032D02*
D03*
X-31496Y-62913D02*
D03*
Y-50709D02*
D03*
Y-18032D02*
D03*
X94488Y4016D02*
D03*
Y16220D02*
D03*
Y48898D02*
D03*
Y-129842D02*
D03*
Y-117638D02*
D03*
Y-84961D02*
D03*
X31496Y4016D02*
D03*
Y16220D02*
D03*
Y48898D02*
D03*
Y-129842D02*
D03*
Y-117638D02*
D03*
Y-84961D02*
D03*
X94488Y-196772D02*
D03*
Y-184567D02*
D03*
Y-151890D02*
D03*
Y70945D02*
D03*
Y83150D02*
D03*
Y115827D02*
D03*
X31496Y-196772D02*
D03*
Y-184567D02*
D03*
Y-151890D02*
D03*
Y70945D02*
D03*
Y83150D02*
D03*
Y115827D02*
D03*
X94488Y-62913D02*
D03*
Y-50709D02*
D03*
Y-18032D02*
D03*
D12*
X31496Y-37402D02*
D03*
X45276Y131890D02*
D03*
X25591D02*
D03*
X35433D02*
D03*
X-94488Y29528D02*
D03*
Y-104331D02*
D03*
X-31496Y29528D02*
D03*
Y-104331D02*
D03*
X-94488Y-171260D02*
D03*
Y96457D02*
D03*
X-31496Y-171260D02*
D03*
Y96457D02*
D03*
X-94488Y-37402D02*
D03*
X-31496D02*
D03*
X94488Y29528D02*
D03*
Y-104331D02*
D03*
X31496Y29528D02*
D03*
Y-104331D02*
D03*
X94488Y-171260D02*
D03*
Y96457D02*
D03*
X31496Y-171260D02*
D03*
Y96457D02*
D03*
X94488Y-37402D02*
D03*
X-72835Y167323D02*
D03*
X-92520D02*
D03*
X-82677D02*
D03*
X-21654Y131890D02*
D03*
X-41339D02*
D03*
X-31496D02*
D03*
X96457Y167323D02*
D03*
X76772D02*
D03*
X86614D02*
D03*
X16016Y-32504D02*
D03*
D13*
X14567Y159449D02*
D03*
X56299D02*
D03*
X-103543Y194882D02*
D03*
X-61811D02*
D03*
X-52362Y159449D02*
D03*
X-10630D02*
D03*
X65748Y194882D02*
D03*
X107480D02*
D03*
D14*
X-16378Y200945D02*
D03*
Y190945D02*
D03*
X-6378Y200945D02*
D03*
Y190945D02*
D03*
X3622Y200945D02*
D03*
Y190945D02*
D03*
X13622Y200945D02*
D03*
Y190945D02*
D03*
X23622Y200945D02*
D03*
D15*
Y190945D02*
D03*
D16*
X-5000Y-137894D02*
D03*
X-67984Y41496D02*
D03*
X-67992Y-137894D02*
D03*
X57992D02*
D03*
D17*
X5000Y-167894D02*
D03*
X-5000Y-187894D02*
D03*
X-57984Y11496D02*
D03*
X-67984Y-8504D02*
D03*
X-57992Y-167894D02*
D03*
X-67992Y-187894D02*
D03*
X67992Y-167894D02*
D03*
X57992Y-187894D02*
D03*
D18*
X-67984Y-38504D02*
D03*
X-59984Y-66504D02*
D03*
X86016Y-26504D02*
D03*
X16016Y129496D02*
D03*
X60016Y3496D02*
D03*
X59252Y132260D02*
D03*
X26016Y39496D02*
D03*
X23075Y-59961D02*
D03*
X64016Y-72504D02*
D03*
Y-108504D02*
D03*
X-17984Y-106504D02*
D03*
Y-80504D02*
D03*
X60016Y-52504D02*
D03*
X10016Y-24504D02*
D03*
X54016D02*
D03*
X55118Y-75606D02*
D03*
X14016Y-124504D02*
D03*
X-3984Y-98504D02*
D03*
X70016Y-102504D02*
D03*
X66016Y-120504D02*
D03*
X60016Y-22504D02*
D03*
X-3984Y-58504D02*
D03*
X10016Y-134504D02*
D03*
X-53984Y63496D02*
D03*
X-47984Y-66504D02*
D03*
X-41984Y-122504D02*
D03*
X-51984Y-126504D02*
D03*
X-15984Y-44504D02*
D03*
X74016Y-52504D02*
D03*
X72016Y147496D02*
D03*
Y185496D02*
D03*
X-53984Y129496D02*
D03*
X-5984Y39496D02*
D03*
Y-38504D02*
D03*
X-81984Y81496D02*
D03*
X-85984Y21496D02*
D03*
X-93984Y-8504D02*
D03*
X-71984Y-60504D02*
D03*
X-83984Y-68504D02*
D03*
X-73370Y-80504D02*
D03*
X-48457Y-18032D02*
D03*
X-105984Y-504D02*
D03*
X-75984Y-24504D02*
D03*
Y-142913D02*
D03*
X28016Y-142504D02*
D03*
X22016Y-136504D02*
D03*
X19559Y-64961D02*
D03*
X17559Y-74961D02*
D03*
X4016Y19496D02*
D03*
X10630Y-45118D02*
D03*
X-41984Y-42504D02*
D03*
X-9984Y-84504D02*
D03*
D19*
X47244Y-41339D02*
D03*
Y-33858D02*
D03*
X-78740Y-57284D02*
D03*
Y-64764D02*
D03*
X-106299Y10039D02*
D03*
Y17520D02*
D03*
X-43307Y-147835D02*
D03*
Y-155315D02*
D03*
X-59055Y25787D02*
D03*
Y33268D02*
D03*
X-106299Y-136024D02*
D03*
Y-143504D02*
D03*
X-19685Y-167520D02*
D03*
Y-175000D02*
D03*
X-43307Y-37008D02*
D03*
Y-29528D02*
D03*
X59055Y-147835D02*
D03*
Y-155315D02*
D03*
X66929Y25787D02*
D03*
Y33268D02*
D03*
X55118Y-88386D02*
D03*
Y-80905D02*
D03*
X3937Y25787D02*
D03*
Y33268D02*
D03*
X106299Y-143504D02*
D03*
Y-136024D02*
D03*
X47244Y-151575D02*
D03*
Y-159055D02*
D03*
X66929Y-21850D02*
D03*
Y-29331D02*
D03*
D20*
X55118Y-5906D02*
D03*
X48425D02*
D03*
D21*
X15748Y-95866D02*
D03*
Y-112795D02*
D03*
X-78740Y-95866D02*
D03*
Y-112795D02*
D03*
X-47244Y-95866D02*
D03*
Y-112795D02*
D03*
X78740Y-95866D02*
D03*
Y-112795D02*
D03*
D22*
X103087Y150000D02*
D03*
X88913D02*
D03*
D23*
X-10630Y-79961D02*
D03*
X10630D02*
D03*
X-10630Y-74961D02*
D03*
X10630D02*
D03*
X-10630Y-69961D02*
D03*
X10630D02*
D03*
Y-49961D02*
D03*
X-10630D02*
D03*
X10630Y-54961D02*
D03*
X-10630D02*
D03*
X10630Y-59961D02*
D03*
X-10630D02*
D03*
Y-64961D02*
D03*
X10630D02*
D03*
D24*
X47244Y-28032D02*
D03*
Y-15276D02*
D03*
X-66929Y-79213D02*
D03*
Y-66457D02*
D03*
X-59055Y-145197D02*
D03*
Y-157953D02*
D03*
X-107984Y35118D02*
D03*
Y47874D02*
D03*
X-47244Y34961D02*
D03*
Y47717D02*
D03*
X-59055Y-125512D02*
D03*
Y-138268D02*
D03*
X106299Y-75276D02*
D03*
Y-62520D02*
D03*
X-15748Y-28032D02*
D03*
Y-15276D02*
D03*
X66929Y-145197D02*
D03*
Y-157953D02*
D03*
X78740Y34961D02*
D03*
Y47717D02*
D03*
X3937Y-145197D02*
D03*
Y-157953D02*
D03*
X15748Y34961D02*
D03*
Y47717D02*
D03*
X66929Y-125512D02*
D03*
Y-138268D02*
D03*
X3937Y-121575D02*
D03*
Y-134331D02*
D03*
X78740Y-28032D02*
D03*
Y-15276D02*
D03*
D25*
X86500Y192283D02*
D03*
Y177717D02*
D03*
D26*
X98957Y131500D02*
D03*
X106043D02*
D03*
X5559Y-90504D02*
D03*
X-1527D02*
D03*
X-86221Y-76772D02*
D03*
X-79134D02*
D03*
X71260Y-61024D02*
D03*
X78347D02*
D03*
D27*
X-70866Y-148031D02*
D03*
Y-155118D02*
D03*
X-55118Y143307D02*
D03*
Y136221D02*
D03*
X78740Y-147638D02*
D03*
Y-154724D02*
D03*
X-7874Y-148031D02*
D03*
Y-155118D02*
D03*
X66929Y-6299D02*
D03*
Y-13386D02*
D03*
X15748Y142913D02*
D03*
Y135827D02*
D03*
D28*
X-44803Y-80709D02*
D03*
X-57559D02*
D03*
D29*
X81217Y206500D02*
D03*
X95784D02*
D03*
D30*
X82677Y10433D02*
D03*
Y17126D02*
D03*
X-19685Y56496D02*
D03*
Y49803D02*
D03*
X-106299Y-76772D02*
D03*
Y-83465D02*
D03*
X-43307Y-135236D02*
D03*
Y-128543D02*
D03*
X-106299Y-24409D02*
D03*
Y-17717D02*
D03*
X-15748Y-3150D02*
D03*
Y-9843D02*
D03*
X78740Y64961D02*
D03*
Y58268D02*
D03*
X55118Y-130709D02*
D03*
Y-124016D02*
D03*
X43307Y41339D02*
D03*
Y48031D02*
D03*
X55118Y-97047D02*
D03*
Y-103740D02*
D03*
X78740Y787D02*
D03*
Y-5906D02*
D03*
D31*
X-75000Y179134D02*
D03*
X-82480D02*
D03*
X-39173Y143701D02*
D03*
X-31693D02*
D03*
X75000Y-72835D02*
D03*
X82480D02*
D03*
X59252Y139764D02*
D03*
X66732D02*
D03*
X27559Y143701D02*
D03*
X35039D02*
D03*
D32*
X16794Y-83726D02*
X19423Y-81097D01*
X11944Y-83726D02*
X16794D01*
X5165Y-90504D02*
X11944Y-83726D01*
X19423Y-81097D02*
Y-79461D01*
X22059Y-76825D02*
Y-76461D01*
X19423Y-79461D02*
X22059Y-76825D01*
Y-76461D02*
X25685Y-72835D01*
X47244D01*
X94488Y-25591D01*
X6559Y-79961D02*
X10630D01*
X5165Y-81354D02*
X6559Y-79961D01*
X5165Y-90504D02*
Y-81354D01*
X94488Y-25591D02*
X102362D01*
X106299Y-21654D01*
Y135433D01*
X106102Y135630D02*
X106299Y135433D01*
X95784Y185713D02*
Y206500D01*
X106102Y135630D02*
Y146984D01*
X103087Y150000D02*
X106102Y146984D01*
X95784Y185713D02*
X103087Y178409D01*
X86500Y177717D02*
X89606D01*
X94823Y172500D01*
X103087D01*
Y150000D02*
Y172500D01*
Y178409D01*
D33*
X23622Y190945D02*
Y200945D01*
X47445D01*
X53000Y206500D01*
X81217D01*
M02*
