G04 Layer_Color=16711935*
%FSLAX25Y25*%
%MOIN*%
G70*
G01*
G75*
%ADD35C,0.00600*%
%ADD59C,0.00039*%
%ADD60C,0.00394*%
%ADD61R,0.06693X0.01509*%
%ADD62R,0.01509X0.06693*%
D35*
X-114327Y-218676D02*
Y218332D01*
X-114173Y218504D02*
X114173D01*
X-114173Y-218504D02*
X114173D01*
Y-218676D02*
Y218332D01*
D59*
X14468Y-100100D02*
G03*
X17027Y-100100I1280J0D01*
G01*
Y-108565D02*
G03*
X14468Y-108565I-1280J0D01*
G01*
X-80020Y-100100D02*
G03*
X-77461Y-100100I1280J0D01*
G01*
Y-108565D02*
G03*
X-80020Y-108565I-1280J0D01*
G01*
X-48524Y-100100D02*
G03*
X-45965Y-100100I1280J0D01*
G01*
Y-108565D02*
G03*
X-48524Y-108565I-1280J0D01*
G01*
X77460Y-100100D02*
G03*
X80019Y-100100I1280J0D01*
G01*
Y-108565D02*
G03*
X77460Y-108565I-1280J0D01*
G01*
X14468Y-115947D02*
X17027D01*
Y-108565D01*
X14468Y-100100D02*
Y-92718D01*
X17027D01*
Y-100100D02*
Y-92718D01*
X14468Y-100100D02*
X17027D01*
X14468Y-108565D02*
X17027D01*
X14468Y-115947D02*
Y-108565D01*
X5707Y-96571D02*
X7987Y-94291D01*
X7988D02*
X23508D01*
X25788Y-96571D01*
Y-114370D02*
Y-96571D01*
X5709Y-114370D02*
Y-96571D01*
Y-114370D02*
X25788D01*
Y-99606D02*
X26181D01*
X5315D02*
X5709D01*
X5315Y-109055D02*
X5709D01*
X25788D02*
X26181D01*
X-80020Y-115947D02*
X-77461D01*
Y-108565D01*
X-80020Y-100100D02*
Y-92718D01*
X-77461D01*
Y-100100D02*
Y-92718D01*
X-80020Y-100100D02*
X-77461D01*
X-80020Y-108565D02*
X-77461D01*
X-80020Y-115947D02*
Y-108565D01*
X-88781Y-96571D02*
X-86501Y-94291D01*
X-86501D02*
X-70980D01*
X-68701Y-96571D01*
Y-114370D02*
Y-96571D01*
X-88779Y-114370D02*
Y-96571D01*
Y-114370D02*
X-68701D01*
Y-99606D02*
X-68307D01*
X-89173D02*
X-88779D01*
X-89173Y-109055D02*
X-88779D01*
X-68701D02*
X-68307D01*
X-48524Y-115947D02*
X-45965D01*
Y-108565D01*
X-48524Y-100100D02*
Y-92718D01*
X-45965D01*
Y-100100D02*
Y-92718D01*
X-48524Y-100100D02*
X-45965D01*
X-48524Y-108565D02*
X-45965D01*
X-48524Y-115947D02*
Y-108565D01*
X-57285Y-96571D02*
X-55005Y-94291D01*
X-55005D02*
X-39484D01*
X-37205Y-96571D01*
Y-114370D02*
Y-96571D01*
X-57283Y-114370D02*
Y-96571D01*
Y-114370D02*
X-37205D01*
Y-99606D02*
X-36811D01*
X-57677D02*
X-57283D01*
X-57677Y-109055D02*
X-57283D01*
X-37205D02*
X-36811D01*
X77460Y-115947D02*
X80019D01*
Y-108565D01*
X77460Y-100100D02*
Y-92718D01*
X80019D01*
Y-100100D02*
Y-92718D01*
X77460Y-100100D02*
X80019D01*
X77460Y-108565D02*
X80019D01*
X77460Y-115947D02*
Y-108565D01*
X68699Y-96571D02*
X70979Y-94291D01*
X70980D02*
X86500D01*
X88780Y-96571D01*
Y-114370D02*
Y-96571D01*
X68701Y-114370D02*
Y-96571D01*
Y-114370D02*
X88780D01*
Y-99606D02*
X89173D01*
X68307D02*
X68701D01*
X68307Y-109055D02*
X68701D01*
X88780D02*
X89173D01*
D60*
X103874Y150000D02*
G03*
X103874Y150000I-7874J0D01*
G01*
X49902Y-41929D02*
Y-33268D01*
X44587Y-41929D02*
Y-33268D01*
Y-41929D02*
X49902D01*
X44587Y-33268D02*
X49902D01*
X56102Y-8563D02*
Y-3248D01*
X47441Y-8563D02*
Y-3248D01*
X56102D01*
X47441Y-8563D02*
X56102D01*
X7874Y-93897D02*
X23621D01*
X5315Y-96456D02*
X7874Y-93897D01*
X5315Y-114764D02*
Y-96456D01*
X26181Y-114764D02*
Y-96457D01*
X23621Y-93898D02*
X26180Y-96457D01*
X5315Y-114764D02*
X26181D01*
X44094Y-16339D02*
X50394D01*
X44094Y-26969D02*
X50394D01*
Y-16339D01*
X44094Y-26969D02*
Y-16339D01*
X83153Y190610D02*
X89846D01*
X83153Y179390D02*
X89846D01*
X83153D02*
Y190610D01*
X89846Y179390D02*
Y190610D01*
X98169Y128646D02*
Y134354D01*
X106831Y128646D02*
Y134354D01*
X98169Y128646D02*
X106831D01*
X98169Y134354D02*
X106831D01*
X-2315Y-87650D02*
X6346D01*
X-2315Y-93358D02*
X6346D01*
Y-87650D01*
X-2315Y-93358D02*
Y-87650D01*
X-9508Y-128878D02*
X9508D01*
X-9508Y-197894D02*
X9508D01*
X-9508Y-200886D02*
Y-125886D01*
Y-200886D02*
X9508D01*
X-9508Y-125886D02*
X9508D01*
Y-200886D02*
Y-125886D01*
X-87008Y-79626D02*
Y-73917D01*
X-78346Y-79626D02*
Y-73917D01*
X-87008Y-79626D02*
X-78346D01*
X-87008Y-73917D02*
X-78346D01*
X-73721Y-147244D02*
X-68012D01*
X-73721Y-155905D02*
X-68012D01*
X-73721D02*
Y-147244D01*
X-68012Y-155905D02*
Y-147244D01*
X-86615Y-93897D02*
X-70867D01*
X-89173Y-96456D02*
X-86615Y-93897D01*
X-89173Y-114764D02*
Y-96456D01*
X-68307Y-114764D02*
Y-96457D01*
X-70867Y-93898D02*
X-68308Y-96457D01*
X-89173Y-114764D02*
X-68307D01*
X70473Y-63878D02*
Y-58169D01*
X79134Y-63878D02*
Y-58169D01*
X70473Y-63878D02*
X79134D01*
X70473Y-58169D02*
X79134D01*
X-55119Y-93897D02*
X-39371D01*
X-57677Y-96456D02*
X-55119Y-93897D01*
X-57677Y-114764D02*
Y-96456D01*
X-36811Y-114764D02*
Y-96457D01*
X-39371Y-93898D02*
X-36812Y-96457D01*
X-57677Y-114764D02*
X-36811D01*
X-57973Y144095D02*
X-52264D01*
X-57973Y135433D02*
X-52264D01*
X-57973D02*
Y144095D01*
X-52264Y135433D02*
Y144095D01*
X75886Y-146850D02*
X81595D01*
X75886Y-155512D02*
X81595D01*
X75886D02*
Y-146850D01*
X81595Y-155512D02*
Y-146850D01*
X-10728Y-147244D02*
X-5020D01*
X-10728Y-155905D02*
X-5020D01*
X-10728D02*
Y-147244D01*
X-5020Y-155905D02*
Y-147244D01*
X70866Y-93897D02*
X86613D01*
X68307Y-96456D02*
X70866Y-93897D01*
X68307Y-114764D02*
Y-96456D01*
X89173Y-114764D02*
Y-96457D01*
X86614Y-93898D02*
X89173Y-96457D01*
X68307Y-114764D02*
X89173D01*
X64075Y-5512D02*
X69784D01*
X64075Y-14173D02*
X69784D01*
X64075D02*
Y-5512D01*
X69784Y-14173D02*
Y-5512D01*
X12894Y143701D02*
X18602D01*
X12894Y135039D02*
X18602D01*
X12894D02*
Y143701D01*
X18602Y135039D02*
Y143701D01*
X-70079Y-67520D02*
X-63779D01*
X-70079Y-78150D02*
X-63779D01*
Y-67520D01*
X-70079Y-78150D02*
Y-67520D01*
X-62205Y-156890D02*
X-55905D01*
X-62205Y-146260D02*
X-55905D01*
X-62205Y-156890D02*
Y-146260D01*
X-55905Y-156890D02*
Y-146260D01*
X-111134Y46811D02*
X-104835D01*
X-111134Y36181D02*
X-104835D01*
Y46811D01*
X-111134Y36181D02*
Y46811D01*
X-50394Y46654D02*
X-44094D01*
X-50394Y36024D02*
X-44094D01*
Y46654D01*
X-50394Y36024D02*
Y46654D01*
X-56496Y-83858D02*
Y-77559D01*
X-45866Y-83858D02*
Y-77559D01*
X-56496D02*
X-45866D01*
X-56496Y-83858D02*
X-45866D01*
X-62205Y-137205D02*
X-55905D01*
X-62205Y-126575D02*
X-55905D01*
X-62205Y-137205D02*
Y-126575D01*
X-55905Y-137205D02*
Y-126575D01*
X103150Y-63583D02*
X109449D01*
X103150Y-74213D02*
X109449D01*
Y-63583D01*
X103150Y-74213D02*
Y-63583D01*
X-18898Y-16339D02*
X-12598D01*
X-18898Y-26969D02*
X-12598D01*
Y-16339D01*
X-18898Y-26969D02*
Y-16339D01*
X63779Y-156890D02*
X70079D01*
X63779Y-146260D02*
X70079D01*
X63779Y-156890D02*
Y-146260D01*
X70079Y-156890D02*
Y-146260D01*
X75590Y46654D02*
X81890D01*
X75590Y36024D02*
X81890D01*
Y46654D01*
X75590Y36024D02*
Y46654D01*
X787Y-156890D02*
X7087D01*
X787Y-146260D02*
X7087D01*
X787Y-156890D02*
Y-146260D01*
X7087Y-156890D02*
Y-146260D01*
X12598Y46654D02*
X18898D01*
X12598Y36024D02*
X18898D01*
Y46654D01*
X12598Y36024D02*
Y46654D01*
X63779Y-137205D02*
X70079D01*
X63779Y-126575D02*
X70079D01*
X63779Y-137205D02*
Y-126575D01*
X70079Y-137205D02*
Y-126575D01*
X787Y-133268D02*
X7087D01*
X787Y-122638D02*
X7087D01*
X787Y-133268D02*
Y-122638D01*
X7087Y-133268D02*
Y-122638D01*
X75590Y-16339D02*
X81890D01*
X75590Y-26969D02*
X81890D01*
Y-16339D01*
X75590Y-26969D02*
Y-16339D01*
X82890Y203153D02*
Y209846D01*
X94110Y203153D02*
Y209846D01*
X82890Y203153D02*
X94110D01*
X82890Y209846D02*
X94110D01*
X-81398Y-65354D02*
Y-56693D01*
X-76083Y-65354D02*
Y-56693D01*
X-81398D02*
X-76083D01*
X-81398Y-65354D02*
X-76083D01*
X-103642Y9449D02*
Y18110D01*
X-108957Y9449D02*
Y18110D01*
Y9449D02*
X-103642D01*
X-108957Y18110D02*
X-103642D01*
X-45965Y-155905D02*
Y-147244D01*
X-40650Y-155905D02*
Y-147244D01*
X-45965D02*
X-40650D01*
X-45965Y-155905D02*
X-40650D01*
X-56398Y25197D02*
Y33858D01*
X-61713Y25197D02*
Y33858D01*
Y25197D02*
X-56398D01*
X-61713Y33858D02*
X-56398D01*
X80020Y9449D02*
X85335D01*
X80020Y18110D02*
X85335D01*
Y9449D02*
Y18110D01*
X80020Y9449D02*
Y18110D01*
X-22343Y57480D02*
X-17028D01*
X-22343Y48819D02*
X-17028D01*
X-22343D02*
Y57480D01*
X-17028Y48819D02*
Y57480D01*
X-108957Y-75787D02*
X-103642D01*
X-108957Y-84449D02*
X-103642D01*
X-108957D02*
Y-75787D01*
X-103642Y-84449D02*
Y-75787D01*
X-45965Y-136221D02*
X-40650D01*
X-45965Y-127559D02*
X-40650D01*
Y-136221D02*
Y-127559D01*
X-45965Y-136221D02*
Y-127559D01*
X-83071Y181791D02*
X-74409D01*
X-83071Y176476D02*
X-74409D01*
Y181791D01*
X-83071Y176476D02*
Y181791D01*
X-39764Y141043D02*
X-31102D01*
X-39764Y146358D02*
X-31102D01*
X-39764Y141043D02*
Y146358D01*
X-31102Y141043D02*
Y146358D01*
X-108957Y-144095D02*
Y-135433D01*
X-103642Y-144095D02*
Y-135433D01*
X-108957D02*
X-103642D01*
X-108957Y-144095D02*
X-103642D01*
X-22343Y-175591D02*
Y-166929D01*
X-17028Y-175591D02*
Y-166929D01*
X-22343D02*
X-17028D01*
X-22343Y-175591D02*
X-17028D01*
X74409Y-75492D02*
X83071D01*
X74409Y-70177D02*
X83071D01*
X74409Y-75492D02*
Y-70177D01*
X83071Y-75492D02*
Y-70177D01*
X-40650Y-37598D02*
Y-28937D01*
X-45965Y-37598D02*
Y-28937D01*
Y-37598D02*
X-40650D01*
X-45965Y-28937D02*
X-40650D01*
X-108957Y-25394D02*
X-103642D01*
X-108957Y-16732D02*
X-103642D01*
Y-25394D02*
Y-16732D01*
X-108957Y-25394D02*
Y-16732D01*
X-18406Y-2165D02*
X-13091D01*
X-18406Y-10827D02*
X-13091D01*
X-18406D02*
Y-2165D01*
X-13091Y-10827D02*
Y-2165D01*
X56398Y-155905D02*
Y-147244D01*
X61713Y-155905D02*
Y-147244D01*
X56398D02*
X61713D01*
X56398Y-155905D02*
X61713D01*
X69587Y25197D02*
Y33858D01*
X64272Y25197D02*
Y33858D01*
Y25197D02*
X69587D01*
X64272Y33858D02*
X69587D01*
X76083Y65945D02*
X81398D01*
X76083Y57284D02*
X81398D01*
X76083D02*
Y65945D01*
X81398Y57284D02*
Y65945D01*
X57776Y-88976D02*
Y-80315D01*
X52461Y-88976D02*
Y-80315D01*
Y-88976D02*
X57776D01*
X52461Y-80315D02*
X57776D01*
X6594Y25197D02*
Y33858D01*
X1280Y25197D02*
Y33858D01*
Y25197D02*
X6594D01*
X1280Y33858D02*
X6594D01*
X52461Y-131693D02*
X57776D01*
X52461Y-123031D02*
X57776D01*
Y-131693D02*
Y-123031D01*
X52461Y-131693D02*
Y-123031D01*
X40650Y40354D02*
X45965D01*
X40650Y49016D02*
X45965D01*
Y40354D02*
Y49016D01*
X40650Y40354D02*
Y49016D01*
X58661Y137106D02*
X67323D01*
X58661Y142421D02*
X67323D01*
X58661Y137106D02*
Y142421D01*
X67323Y137106D02*
Y142421D01*
X52461Y-96063D02*
X57776D01*
X52461Y-104724D02*
X57776D01*
X52461D02*
Y-96063D01*
X57776Y-104724D02*
Y-96063D01*
X108957Y-144095D02*
Y-135433D01*
X103642Y-144095D02*
Y-135433D01*
Y-144095D02*
X108957D01*
X103642Y-135433D02*
X108957D01*
X26969Y141043D02*
X35630D01*
X26969Y146358D02*
X35630D01*
X26969Y141043D02*
Y146358D01*
X35630Y141043D02*
Y146358D01*
X44587Y-159646D02*
Y-150984D01*
X49902Y-159646D02*
Y-150984D01*
X44587D02*
X49902D01*
X44587Y-159646D02*
X49902D01*
X64272Y-29921D02*
Y-21260D01*
X69587Y-29921D02*
Y-21260D01*
X64272D02*
X69587D01*
X64272Y-29921D02*
X69587D01*
X76083Y1772D02*
X81398D01*
X76083Y-6890D02*
X81398D01*
X76083D02*
Y1772D01*
X81398Y-6890D02*
Y1772D01*
X-72492Y50512D02*
X-53476D01*
X-72492Y-18504D02*
X-53476D01*
X-72492Y-21496D02*
Y53504D01*
Y-21496D02*
X-53476D01*
X-72492Y53504D02*
X-53476D01*
Y-21496D02*
Y53504D01*
X-72500Y-128878D02*
X-53484D01*
X-72500Y-197894D02*
X-53484D01*
X-72500Y-200886D02*
Y-125886D01*
Y-200886D02*
X-53484D01*
X-72500Y-125886D02*
X-53484D01*
Y-200886D02*
Y-125886D01*
X53484Y-128878D02*
X72500D01*
X53484Y-197894D02*
X72500D01*
X53484Y-200886D02*
Y-125886D01*
Y-200886D02*
X72500D01*
X53484Y-125886D02*
X72500D01*
Y-200886D02*
Y-125886D01*
D61*
X86500Y180145D02*
D03*
D62*
X93355Y206500D02*
D03*
M02*
