G04 Layer_Color=32896*
%FSLAX25Y25*%
%MOIN*%
G70*
G01*
G75*
%ADD10C,0.01000*%
%ADD33C,0.05000*%
%ADD34C,0.00984*%
%ADD35C,0.00600*%
%ADD36C,0.00787*%
%ADD57R,0.06299X0.03150*%
%ADD58R,0.03150X0.06299*%
D10*
X-30984Y216138D02*
Y211640D01*
Y213889D01*
X-31734Y214639D01*
X-33233D01*
X-33983Y213889D01*
Y211640D01*
X-35483D02*
X-36982D01*
X-36233D01*
Y214639D01*
X-35483D01*
X-39981Y210890D02*
X-40731Y211640D01*
Y212389D01*
X-39981D01*
Y211640D01*
X-40731D01*
X-39981Y210890D01*
X-39232Y210140D01*
X-48229Y214639D02*
Y211640D01*
Y213139D01*
X-48978Y213889D01*
X-49728Y214639D01*
X-50478D01*
X-54976Y211640D02*
X-53477D01*
X-52727Y212389D01*
Y213889D01*
X-53477Y214639D01*
X-54976D01*
X-55726Y213889D01*
Y213139D01*
X-52727D01*
X-60225Y216138D02*
Y211640D01*
X-57976D01*
X-57226Y212389D01*
Y213889D01*
X-57976Y214639D01*
X-60225D01*
X-30984Y203841D02*
X-33233D01*
X-33983Y204591D01*
X-33233Y205341D01*
X-31734D01*
X-30984Y206091D01*
X-31734Y206840D01*
X-33983D01*
X-36233Y207590D02*
Y206840D01*
X-35483D01*
X-36982D01*
X-36233D01*
Y204591D01*
X-36982Y203841D01*
X-39232Y206840D02*
Y203841D01*
Y205341D01*
X-39981Y206091D01*
X-40731Y206840D01*
X-41481D01*
X-43730Y203841D02*
X-45230D01*
X-44480D01*
Y206840D01*
X-43730D01*
X-47479Y202342D02*
Y206840D01*
X-49728D01*
X-50478Y206091D01*
Y204591D01*
X-49728Y203841D01*
X-47479D01*
X-54227D02*
X-52727D01*
X-51977Y204591D01*
Y206091D01*
X-52727Y206840D01*
X-54227D01*
X-54976Y206091D01*
Y205341D01*
X-51977D01*
X-31734Y194544D02*
X-33233D01*
X-33983Y195293D01*
Y196793D01*
X-33233Y197543D01*
X-31734D01*
X-30984Y196793D01*
Y195293D01*
X-31734Y194544D01*
X-35483D02*
Y197543D01*
X-37732D01*
X-38482Y196793D01*
Y194544D01*
X-44480D02*
Y197543D01*
X-45230D01*
X-45979Y196793D01*
Y194544D01*
Y196793D01*
X-46729Y197543D01*
X-47479Y196793D01*
Y194544D01*
X-48978Y197543D02*
Y195293D01*
X-49728Y194544D01*
X-51977D01*
Y193794D01*
X-51228Y193044D01*
X-50478D01*
X-51977Y194544D02*
Y197543D01*
X-30984Y184496D02*
X-33233D01*
X-33983Y185246D01*
X-33233Y185996D01*
X-31734D01*
X-30984Y186745D01*
X-31734Y187495D01*
X-33983D01*
X-35483Y184496D02*
X-36982D01*
X-36233D01*
Y187495D01*
X-35483D01*
X-42231Y188995D02*
Y184496D01*
X-39981D01*
X-39232Y185246D01*
Y186745D01*
X-39981Y187495D01*
X-42231D01*
X-45979Y184496D02*
X-44480D01*
X-43730Y185246D01*
Y186745D01*
X-44480Y187495D01*
X-45979D01*
X-46729Y186745D01*
Y185996D01*
X-43730D01*
X-48229D02*
Y189744D01*
Y185246D02*
Y184496D01*
X56404Y134500D02*
X62402D01*
Y131501D01*
X61403Y130501D01*
X57404D01*
X56404Y131501D01*
Y134500D01*
X62402Y125503D02*
Y127502D01*
X61403Y128502D01*
X59403D01*
X58404Y127502D01*
Y125503D01*
X59403Y124503D01*
X60403D01*
Y128502D01*
X62402Y122504D02*
Y119505D01*
X61403Y118505D01*
X60403Y119505D01*
Y121504D01*
X59403Y122504D01*
X58404Y121504D01*
Y118505D01*
X62402Y116506D02*
Y114506D01*
Y115506D01*
X58404D01*
Y116506D01*
X64402Y109508D02*
Y108508D01*
X63402Y107509D01*
X58404D01*
Y110508D01*
X59403Y111507D01*
X61403D01*
X62402Y110508D01*
Y107509D01*
Y105509D02*
X58404D01*
Y102510D01*
X59403Y101511D01*
X62402D01*
Y96512D02*
Y98512D01*
X61403Y99511D01*
X59403D01*
X58404Y98512D01*
Y96512D01*
X59403Y95513D01*
X60403D01*
Y99511D01*
X56404Y89514D02*
X62402D01*
Y92514D01*
X61403Y93513D01*
X59403D01*
X58404Y92514D01*
Y89514D01*
X56404Y81517D02*
X62402D01*
Y78518D01*
X61403Y77518D01*
X60403D01*
X59403Y78518D01*
Y81517D01*
Y78518D01*
X58404Y77518D01*
X57404D01*
X56404Y78518D01*
Y81517D01*
X58404Y75519D02*
X61403D01*
X62402Y74519D01*
Y71520D01*
X63402D01*
X64402Y72520D01*
Y73520D01*
X62402Y71520D02*
X58404D01*
Y69521D02*
Y68521D01*
X59403D01*
Y69521D01*
X58404D01*
X61403D02*
Y68521D01*
X62402D01*
Y69521D01*
X61403D01*
X68001Y133500D02*
Y131501D01*
X69001Y130501D01*
X72000D01*
Y133500D01*
X71000Y134500D01*
X70001Y133500D01*
Y130501D01*
X68001Y128502D02*
X71000D01*
X72000Y127502D01*
Y124503D01*
X68001D01*
Y122504D02*
X72000Y118505D01*
X70001Y120504D01*
X68001Y118505D01*
X72000Y122504D01*
X68001Y116506D02*
X72000D01*
X70001D01*
X69001Y115506D01*
X68001Y114506D01*
Y113507D01*
X72000Y107509D02*
Y109508D01*
X71000Y110508D01*
X69001D01*
X68001Y109508D01*
Y107509D01*
X69001Y106509D01*
X70001D01*
Y110508D01*
X72000Y104510D02*
X68001D01*
Y101511D01*
X69001Y100511D01*
X72000D01*
X-10694Y116501D02*
X-11694D01*
Y117501D01*
X-10694D01*
Y116501D01*
X-11694Y115501D01*
X-13693D01*
X-14693Y116501D01*
Y118500D01*
X-13693Y119500D01*
X-9694D01*
X-8695Y118500D01*
Y115501D01*
X-12693Y112502D02*
Y110503D01*
X-11694Y109503D01*
X-8695D01*
Y112502D01*
X-9694Y113502D01*
X-10694Y112502D01*
Y109503D01*
X-12693Y107504D02*
X-9694D01*
X-8695Y106504D01*
Y103505D01*
X-12693D01*
Y101506D02*
X-8695Y97507D01*
X-10694Y99506D01*
X-12693Y97507D01*
X-8695Y101506D01*
X-12693Y95508D02*
X-8695D01*
X-10694D01*
X-11694Y94508D01*
X-12693Y93508D01*
Y92509D01*
X-8695Y86511D02*
Y88510D01*
X-9694Y89510D01*
X-11694D01*
X-12693Y88510D01*
Y86511D01*
X-11694Y85511D01*
X-10694D01*
Y89510D01*
X-8695Y83512D02*
X-12693D01*
Y80513D01*
X-11694Y79513D01*
X-8695D01*
X903Y118500D02*
X-4095D01*
X-2096D01*
Y119500D01*
Y117501D01*
Y118500D01*
X-4095D01*
X-5095Y117501D01*
X903Y113502D02*
Y111503D01*
X-97Y110503D01*
X-2096D01*
X-3096Y111503D01*
Y113502D01*
X-2096Y114502D01*
X-97D01*
X903Y113502D01*
X-3096Y108504D02*
X903D01*
X-1096D01*
X-2096Y107504D01*
X-3096Y106504D01*
Y105505D01*
X12500Y115501D02*
X6502D01*
Y118500D01*
X7502Y119500D01*
X9501D01*
X10501Y118500D01*
Y115501D01*
X6502Y113502D02*
X9501D01*
X10501Y112502D01*
Y109503D01*
X6502D01*
X10501Y104505D02*
Y106504D01*
X9501Y107504D01*
X7502D01*
X6502Y106504D01*
Y104505D01*
X7502Y103505D01*
X8501D01*
Y107504D01*
X10501Y101506D02*
Y98507D01*
X9501Y97507D01*
X8501Y98507D01*
Y100506D01*
X7502Y101506D01*
X6502Y100506D01*
Y97507D01*
X5502Y94508D02*
X6502D01*
Y95508D01*
Y93508D01*
Y94508D01*
X9501D01*
X10501Y93508D01*
Y90509D02*
Y88510D01*
Y89510D01*
X6502D01*
Y90509D01*
X10501Y84511D02*
Y82512D01*
X9501Y81512D01*
X7502D01*
X6502Y82512D01*
Y84511D01*
X7502Y85511D01*
X9501D01*
X10501Y84511D01*
Y79513D02*
X6502D01*
Y76514D01*
X7502Y75514D01*
X10501D01*
Y73515D02*
Y70516D01*
X9501Y69516D01*
X8501Y70516D01*
Y72515D01*
X7502Y73515D01*
X6502Y72515D01*
Y69516D01*
X50500Y-46000D02*
X44502D01*
Y-48999D01*
X45502Y-49999D01*
X47501D01*
X48501Y-48999D01*
Y-46000D01*
Y-47999D02*
X50500Y-49999D01*
X45502Y-51998D02*
X44502Y-52998D01*
Y-54997D01*
X45502Y-55997D01*
X46501D01*
X47501Y-54997D01*
Y-53997D01*
Y-54997D01*
X48501Y-55997D01*
X49500D01*
X50500Y-54997D01*
Y-52998D01*
X49500Y-51998D01*
X50500Y-57996D02*
Y-59996D01*
Y-58996D01*
X44502D01*
X45502Y-57996D01*
X54000Y500D02*
Y6498D01*
X51001D01*
X50001Y5498D01*
Y3499D01*
X51001Y2499D01*
X54000D01*
X52001D02*
X50001Y500D01*
X48002Y5498D02*
X47002Y6498D01*
X45003D01*
X44003Y5498D01*
Y4499D01*
X45003Y3499D01*
X46003D01*
X45003D01*
X44003Y2499D01*
Y1500D01*
X45003Y500D01*
X47002D01*
X48002Y1500D01*
X38005Y500D02*
X42004D01*
X38005Y4499D01*
Y5498D01*
X39005Y6498D01*
X41004D01*
X42004Y5498D01*
X-499Y-111002D02*
X501Y-110002D01*
X2500D01*
X3500Y-111002D01*
Y-115000D01*
X2500Y-116000D01*
X501D01*
X-499Y-115000D01*
X-2498Y-116000D02*
X-4497D01*
X-3498D01*
Y-110002D01*
X-2498Y-111002D01*
X-7496Y-116000D02*
X-9496D01*
X-8496D01*
Y-110002D01*
X-7496Y-111002D01*
X104002Y172001D02*
X103002Y173001D01*
Y175000D01*
X104002Y176000D01*
X108000D01*
X109000Y175000D01*
Y173001D01*
X108000Y172001D01*
X109000Y170002D02*
Y168003D01*
Y169002D01*
X103002D01*
X104002Y170002D01*
Y165004D02*
X103002Y164004D01*
Y162004D01*
X104002Y161005D01*
X105001D01*
X106001Y162004D01*
Y163004D01*
Y162004D01*
X107001Y161005D01*
X108000D01*
X109000Y162004D01*
Y164004D01*
X108000Y165004D01*
X12959Y-37200D02*
Y-42198D01*
X11959Y-43198D01*
X9960D01*
X8960Y-42198D01*
Y-37200D01*
X6961Y-43198D02*
X4962D01*
X5961D01*
Y-37200D01*
X6961Y-38199D01*
X2998Y-78961D02*
X-3000D01*
X-1D01*
Y-74962D01*
X2998D01*
X-3000D01*
X2998Y-68964D02*
Y-72963D01*
X-3000D01*
Y-68964D01*
X-1Y-72963D02*
Y-70963D01*
X2998Y-66965D02*
X-3000D01*
Y-62966D01*
X2998Y-60966D02*
X-3000D01*
Y-56968D01*
X2998Y-51969D02*
Y-53969D01*
X1998Y-54968D01*
X-2000D01*
X-3000Y-53969D01*
Y-51969D01*
X-2000Y-50970D01*
X1998D01*
X2998Y-51969D01*
X-1001Y-48970D02*
X3998D01*
X-2000D02*
X-3000D01*
X52002Y-14500D02*
X58000D01*
Y-17499D01*
X57000Y-18499D01*
X53002D01*
X52002Y-17499D01*
Y-14500D01*
X58000Y-20498D02*
Y-22497D01*
Y-21498D01*
X52002D01*
X53002Y-20498D01*
X52002Y-29495D02*
X53002Y-27496D01*
X55001Y-25496D01*
X57000D01*
X58000Y-26496D01*
Y-28495D01*
X57000Y-29495D01*
X56001D01*
X55001Y-28495D01*
Y-25496D01*
X91825Y194882D02*
X97823D01*
Y191883D01*
X96823Y190883D01*
X92824D01*
X91825Y191883D01*
Y194882D01*
X97823Y188884D02*
Y186884D01*
Y187884D01*
X91825D01*
X92824Y188884D01*
Y183885D02*
X91825Y182886D01*
Y180886D01*
X92824Y179887D01*
X93824D01*
X94824Y180886D01*
X95823Y179887D01*
X96823D01*
X97823Y180886D01*
Y182886D01*
X96823Y183885D01*
X95823D01*
X94824Y182886D01*
X93824Y183885D01*
X92824D01*
X94824Y182886D02*
Y180886D01*
X89501Y132498D02*
X90501Y133498D01*
X92500D01*
X93500Y132498D01*
Y128500D01*
X92500Y127500D01*
X90501D01*
X89501Y128500D01*
X87502Y127500D02*
X85503D01*
X86502D01*
Y133498D01*
X87502Y132498D01*
X79505Y127500D02*
Y133498D01*
X82504Y130499D01*
X78505D01*
X-9983Y-89506D02*
X-8983Y-88506D01*
X-6984D01*
X-5984Y-89506D01*
Y-93504D01*
X-6984Y-94504D01*
X-8983D01*
X-9983Y-93504D01*
X-11982Y-94504D02*
X-13982D01*
X-12982D01*
Y-88506D01*
X-11982Y-89506D01*
X-20979Y-88506D02*
X-16981D01*
Y-91505D01*
X-18980Y-90505D01*
X-19980D01*
X-20979Y-91505D01*
Y-93504D01*
X-19980Y-94504D01*
X-17980D01*
X-16981Y-93504D01*
X-93983Y-73506D02*
X-92983Y-72506D01*
X-90984D01*
X-89984Y-73506D01*
Y-77504D01*
X-90984Y-78504D01*
X-92983D01*
X-93983Y-77504D01*
X-95982Y-78504D02*
X-97982D01*
X-96982D01*
Y-72506D01*
X-95982Y-73506D01*
X-81983Y-151506D02*
X-80983Y-150506D01*
X-78984D01*
X-77984Y-151506D01*
Y-155504D01*
X-78984Y-156504D01*
X-80983D01*
X-81983Y-155504D01*
X-87981Y-156504D02*
X-83982D01*
X-87981Y-152505D01*
Y-151506D01*
X-86981Y-150506D01*
X-84982D01*
X-83982Y-151506D01*
X-93983Y-91506D02*
X-92983Y-90506D01*
X-90984D01*
X-89984Y-91506D01*
Y-95504D01*
X-90984Y-96504D01*
X-92983D01*
X-93983Y-95504D01*
X-95982Y-91506D02*
X-96982Y-90506D01*
X-98981D01*
X-99981Y-91506D01*
Y-92505D01*
X-98981Y-93505D01*
X-97982D01*
X-98981D01*
X-99981Y-94505D01*
Y-95504D01*
X-98981Y-96504D01*
X-96982D01*
X-95982Y-95504D01*
X63001Y-60502D02*
X64001Y-59502D01*
X66000D01*
X67000Y-60502D01*
Y-64500D01*
X66000Y-65500D01*
X64001D01*
X63001Y-64500D01*
X58003Y-65500D02*
Y-59502D01*
X61002Y-62501D01*
X57003D01*
X-27983Y-93506D02*
X-26983Y-92506D01*
X-24984D01*
X-23984Y-93506D01*
Y-97504D01*
X-24984Y-98504D01*
X-26983D01*
X-27983Y-97504D01*
X-33981Y-92506D02*
X-29982D01*
Y-95505D01*
X-31982Y-94505D01*
X-32981D01*
X-33981Y-95505D01*
Y-97504D01*
X-32981Y-98504D01*
X-30982D01*
X-29982Y-97504D01*
X-65983Y142494D02*
X-64983Y143494D01*
X-62984D01*
X-61984Y142494D01*
Y138496D01*
X-62984Y137496D01*
X-64983D01*
X-65983Y138496D01*
X-71981Y143494D02*
X-69982Y142494D01*
X-67982Y140495D01*
Y138496D01*
X-68982Y137496D01*
X-70981D01*
X-71981Y138496D01*
Y139495D01*
X-70981Y140495D01*
X-67982D01*
X77002Y-162999D02*
X76002Y-161999D01*
Y-160000D01*
X77002Y-159000D01*
X81000D01*
X82000Y-160000D01*
Y-161999D01*
X81000Y-162999D01*
X76002Y-164998D02*
Y-168997D01*
X77002D01*
X81000Y-164998D01*
X82000D01*
X-15983Y-149506D02*
X-14983Y-148506D01*
X-12984D01*
X-11984Y-149506D01*
Y-153504D01*
X-12984Y-154504D01*
X-14983D01*
X-15983Y-153504D01*
X-17982Y-149506D02*
X-18982Y-148506D01*
X-20981D01*
X-21981Y-149506D01*
Y-150505D01*
X-20981Y-151505D01*
X-21981Y-152505D01*
Y-153504D01*
X-20981Y-154504D01*
X-18982D01*
X-17982Y-153504D01*
Y-152505D01*
X-18982Y-151505D01*
X-17982Y-150505D01*
Y-149506D01*
X-18982Y-151505D02*
X-20981D01*
X68501Y-86502D02*
X69501Y-85502D01*
X71500D01*
X72500Y-86502D01*
Y-90500D01*
X71500Y-91500D01*
X69501D01*
X68501Y-90500D01*
X66502D02*
X65502Y-91500D01*
X63503D01*
X62503Y-90500D01*
Y-86502D01*
X63503Y-85502D01*
X65502D01*
X66502Y-86502D01*
Y-87501D01*
X65502Y-88501D01*
X62503D01*
X70001Y3998D02*
X71001Y4998D01*
X73000D01*
X74000Y3998D01*
Y-0D01*
X73000Y-1000D01*
X71001D01*
X70001Y-0D01*
X68002Y-1000D02*
X66003D01*
X67002D01*
Y4998D01*
X68002Y3998D01*
X63004D02*
X62004Y4998D01*
X60005D01*
X59005Y3998D01*
Y-0D01*
X60005Y-1000D01*
X62004D01*
X63004Y-0D01*
Y3998D01*
X4017Y140494D02*
X5017Y141494D01*
X7016D01*
X8016Y140494D01*
Y136496D01*
X7016Y135496D01*
X5017D01*
X4017Y136496D01*
X2018Y135496D02*
X18D01*
X1018D01*
Y141494D01*
X2018Y140494D01*
X-6979Y135496D02*
X-2981D01*
X-6979Y139495D01*
Y140494D01*
X-5980Y141494D01*
X-3980D01*
X-2981Y140494D01*
X-59984Y-56506D02*
Y-62504D01*
X-62983D01*
X-63983Y-61504D01*
Y-57506D01*
X-62983Y-56506D01*
X-59984D01*
X-65982Y-62504D02*
X-67982D01*
X-66982D01*
Y-56506D01*
X-65982Y-57506D01*
X-54498Y-150000D02*
X-48500D01*
Y-152999D01*
X-49500Y-153999D01*
X-53498D01*
X-54498Y-152999D01*
Y-150000D01*
X-48500Y-159997D02*
Y-155998D01*
X-52499Y-159997D01*
X-53498D01*
X-54498Y-158997D01*
Y-156998D01*
X-53498Y-155998D01*
X-93984Y43494D02*
Y37496D01*
X-96983D01*
X-97983Y38496D01*
Y42494D01*
X-96983Y43494D01*
X-93984D01*
X-99982Y42494D02*
X-100982Y43494D01*
X-102981D01*
X-103981Y42494D01*
Y41495D01*
X-102981Y40495D01*
X-101982D01*
X-102981D01*
X-103981Y39495D01*
Y38496D01*
X-102981Y37496D01*
X-100982D01*
X-99982Y38496D01*
X-53984Y47494D02*
Y41496D01*
X-56983D01*
X-57983Y42496D01*
Y46494D01*
X-56983Y47494D01*
X-53984D01*
X-62981Y41496D02*
Y47494D01*
X-59982Y44495D01*
X-63981D01*
X-41984Y-68506D02*
Y-74504D01*
X-44983D01*
X-45983Y-73504D01*
Y-69506D01*
X-44983Y-68506D01*
X-41984D01*
X-51981D02*
X-47982D01*
Y-71505D01*
X-49982Y-70505D01*
X-50981D01*
X-51981Y-71505D01*
Y-73504D01*
X-50981Y-74504D01*
X-48982D01*
X-47982Y-73504D01*
X-65984Y-124506D02*
Y-130504D01*
X-68983D01*
X-69983Y-129504D01*
Y-125506D01*
X-68983Y-124506D01*
X-65984D01*
X-75981D02*
X-73982Y-125506D01*
X-71982Y-127505D01*
Y-129504D01*
X-72982Y-130504D01*
X-74981D01*
X-75981Y-129504D01*
Y-128505D01*
X-74981Y-127505D01*
X-71982D01*
X101000Y-70502D02*
Y-76500D01*
X98001D01*
X97001Y-75500D01*
Y-71502D01*
X98001Y-70502D01*
X101000D01*
X95002D02*
X91003D01*
Y-71502D01*
X95002Y-75500D01*
Y-76500D01*
X16Y-18506D02*
Y-24504D01*
X-2983D01*
X-3983Y-23504D01*
Y-19506D01*
X-2983Y-18506D01*
X16D01*
X-5982Y-19506D02*
X-6982Y-18506D01*
X-8981D01*
X-9981Y-19506D01*
Y-20505D01*
X-8981Y-21505D01*
X-9981Y-22505D01*
Y-23504D01*
X-8981Y-24504D01*
X-6982D01*
X-5982Y-23504D01*
Y-22505D01*
X-6982Y-21505D01*
X-5982Y-20505D01*
Y-19506D01*
X-6982Y-21505D02*
X-8981D01*
X57502Y-162000D02*
X63500D01*
Y-164999D01*
X62500Y-165999D01*
X58502D01*
X57502Y-164999D01*
Y-162000D01*
X62500Y-167998D02*
X63500Y-168998D01*
Y-170997D01*
X62500Y-171997D01*
X58502D01*
X57502Y-170997D01*
Y-168998D01*
X58502Y-167998D01*
X59501D01*
X60501Y-168998D01*
Y-171997D01*
X73000Y45998D02*
Y40000D01*
X70001D01*
X69001Y41000D01*
Y44998D01*
X70001Y45998D01*
X73000D01*
X67002Y40000D02*
X65003D01*
X66002D01*
Y45998D01*
X67002Y44998D01*
X62004D02*
X61004Y45998D01*
X59004D01*
X58005Y44998D01*
Y41000D01*
X59004Y40000D01*
X61004D01*
X62004Y41000D01*
Y44998D01*
X22016Y-146506D02*
Y-152504D01*
X19017D01*
X18017Y-151504D01*
Y-147506D01*
X19017Y-146506D01*
X22016D01*
X16018Y-152504D02*
X14018D01*
X15018D01*
Y-146506D01*
X16018Y-147506D01*
X11019Y-152504D02*
X9020D01*
X10020D01*
Y-146506D01*
X11019Y-147506D01*
X10016Y45494D02*
Y39496D01*
X7017D01*
X6017Y40496D01*
Y44494D01*
X7017Y45494D01*
X10016D01*
X4018Y39496D02*
X2018D01*
X3018D01*
Y45494D01*
X4018Y44494D01*
X-4979Y39496D02*
X-981D01*
X-4979Y43495D01*
Y44494D01*
X-3980Y45494D01*
X-1980D01*
X-981Y44494D01*
X73002Y-124500D02*
X79000D01*
Y-127499D01*
X78000Y-128499D01*
X74002D01*
X73002Y-127499D01*
Y-124500D01*
X79000Y-130498D02*
Y-132497D01*
Y-131498D01*
X73002D01*
X74002Y-130498D01*
Y-135496D02*
X73002Y-136496D01*
Y-138496D01*
X74002Y-139495D01*
X75001D01*
X76001Y-138496D01*
Y-137496D01*
Y-138496D01*
X77001Y-139495D01*
X78000D01*
X79000Y-138496D01*
Y-136496D01*
X78000Y-135496D01*
X-1984Y-126506D02*
Y-132504D01*
X-4983D01*
X-5983Y-131504D01*
Y-127506D01*
X-4983Y-126506D01*
X-1984D01*
X-7982Y-132504D02*
X-9982D01*
X-8982D01*
Y-126506D01*
X-7982Y-127506D01*
X-15980Y-132504D02*
Y-126506D01*
X-12981Y-129505D01*
X-16979D01*
X77502Y-31000D02*
X83500D01*
Y-33999D01*
X82500Y-34999D01*
X78502D01*
X77502Y-33999D01*
Y-31000D01*
X83500Y-36998D02*
Y-38997D01*
Y-37998D01*
X77502D01*
X78502Y-36998D01*
X77502Y-45995D02*
Y-41996D01*
X80501D01*
X79501Y-43996D01*
Y-44995D01*
X80501Y-45995D01*
X82500D01*
X83500Y-44995D01*
Y-42996D01*
X82500Y-41996D01*
X76000Y211498D02*
Y205500D01*
X73001D01*
X72001Y206500D01*
Y210498D01*
X73001Y211498D01*
X76000D01*
X70002Y205500D02*
X68003D01*
X69002D01*
Y211498D01*
X70002Y210498D01*
X65004Y211498D02*
X61005D01*
Y210498D01*
X65004Y206500D01*
Y205500D01*
X-67984Y-54504D02*
Y-48506D01*
X-70983D01*
X-71983Y-49506D01*
Y-51505D01*
X-70983Y-52505D01*
X-67984D01*
X-69984D02*
X-71983Y-54504D01*
X-73982D02*
X-75982D01*
X-74982D01*
Y-48506D01*
X-73982Y-49506D01*
X-101984Y21496D02*
Y27494D01*
X-104983D01*
X-105983Y26494D01*
Y24495D01*
X-104983Y23495D01*
X-101984D01*
X-103984D02*
X-105983Y21496D01*
X-111981D02*
X-107982D01*
X-111981Y25495D01*
Y26494D01*
X-110981Y27494D01*
X-108982D01*
X-107982Y26494D01*
X-35099Y-165355D02*
Y-159357D01*
X-38098D01*
X-39097Y-160357D01*
Y-162356D01*
X-38098Y-163356D01*
X-35099D01*
X-37098D02*
X-39097Y-165355D01*
X-41097Y-160357D02*
X-42096Y-159357D01*
X-44096D01*
X-45095Y-160357D01*
Y-161357D01*
X-44096Y-162356D01*
X-43096D01*
X-44096D01*
X-45095Y-163356D01*
Y-164356D01*
X-44096Y-165355D01*
X-42096D01*
X-41097Y-164356D01*
X-63984Y27496D02*
Y33494D01*
X-66983D01*
X-67983Y32494D01*
Y30495D01*
X-66983Y29495D01*
X-63984D01*
X-65984D02*
X-67983Y27496D01*
X-72981D02*
Y33494D01*
X-69982Y30495D01*
X-73981D01*
X78000Y18500D02*
X72002D01*
Y15501D01*
X73002Y14501D01*
X75001D01*
X76001Y15501D01*
Y18500D01*
Y16501D02*
X78000Y14501D01*
X72002Y8503D02*
Y12502D01*
X75001D01*
X74001Y10503D01*
Y9503D01*
X75001Y8503D01*
X77000D01*
X78000Y9503D01*
Y11502D01*
X77000Y12502D01*
X-5984Y51496D02*
Y57494D01*
X-8983D01*
X-9983Y56494D01*
Y54495D01*
X-8983Y53495D01*
X-5984D01*
X-7984D02*
X-9983Y51496D01*
X-15981Y57494D02*
X-13982Y56494D01*
X-11982Y54495D01*
Y52496D01*
X-12982Y51496D01*
X-14981D01*
X-15981Y52496D01*
Y53495D01*
X-14981Y54495D01*
X-11982D01*
X-104241Y-71472D02*
Y-65474D01*
X-107240D01*
X-108240Y-66473D01*
Y-68473D01*
X-107240Y-69472D01*
X-104241D01*
X-106240D02*
X-108240Y-71472D01*
X-110239Y-65474D02*
X-114238D01*
Y-66473D01*
X-110239Y-70472D01*
Y-71472D01*
X-29500Y-142500D02*
Y-136502D01*
X-32499D01*
X-33499Y-137502D01*
Y-139501D01*
X-32499Y-140501D01*
X-29500D01*
X-31499D02*
X-33499Y-142500D01*
X-35498Y-137502D02*
X-36498Y-136502D01*
X-38497D01*
X-39497Y-137502D01*
Y-138501D01*
X-38497Y-139501D01*
X-39497Y-140501D01*
Y-141500D01*
X-38497Y-142500D01*
X-36498D01*
X-35498Y-141500D01*
Y-140501D01*
X-36498Y-139501D01*
X-35498Y-138501D01*
Y-137502D01*
X-36498Y-139501D02*
X-38497D01*
X-73984Y185496D02*
Y191494D01*
X-76983D01*
X-77983Y190494D01*
Y188495D01*
X-76983Y187495D01*
X-73984D01*
X-75984D02*
X-77983Y185496D01*
X-79982Y186496D02*
X-80982Y185496D01*
X-82981D01*
X-83981Y186496D01*
Y190494D01*
X-82981Y191494D01*
X-80982D01*
X-79982Y190494D01*
Y189495D01*
X-80982Y188495D01*
X-83981D01*
X-27984Y149496D02*
Y155494D01*
X-30983D01*
X-31983Y154494D01*
Y152495D01*
X-30983Y151495D01*
X-27984D01*
X-29984D02*
X-31983Y149496D01*
X-33982D02*
X-35982D01*
X-34982D01*
Y155494D01*
X-33982Y154494D01*
X-38981D02*
X-39980Y155494D01*
X-41980D01*
X-42979Y154494D01*
Y150496D01*
X-41980Y149496D01*
X-39980D01*
X-38981Y150496D01*
Y154494D01*
X-87984Y-142504D02*
Y-136506D01*
X-90983D01*
X-91983Y-137506D01*
Y-139505D01*
X-90983Y-140505D01*
X-87984D01*
X-89984D02*
X-91983Y-142504D01*
X-93982D02*
X-95982D01*
X-94982D01*
Y-136506D01*
X-93982Y-137506D01*
X-98981Y-142504D02*
X-100980D01*
X-99980D01*
Y-136506D01*
X-98981Y-137506D01*
X2016Y-176504D02*
Y-170506D01*
X-983D01*
X-1983Y-171506D01*
Y-173505D01*
X-983Y-174505D01*
X2016D01*
X16D02*
X-1983Y-176504D01*
X-3982D02*
X-5982D01*
X-4982D01*
Y-170506D01*
X-3982Y-171506D01*
X-12979Y-176504D02*
X-8981D01*
X-12979Y-172505D01*
Y-171506D01*
X-11980Y-170506D01*
X-9980D01*
X-8981Y-171506D01*
X86500Y-83500D02*
Y-77502D01*
X83501D01*
X82501Y-78502D01*
Y-80501D01*
X83501Y-81501D01*
X86500D01*
X84501D02*
X82501Y-83500D01*
X80502D02*
X78503D01*
X79502D01*
Y-77502D01*
X80502Y-78502D01*
X75504D02*
X74504Y-77502D01*
X72505D01*
X71505Y-78502D01*
Y-79501D01*
X72505Y-80501D01*
X73504D01*
X72505D01*
X71505Y-81501D01*
Y-82500D01*
X72505Y-83500D01*
X74504D01*
X75504Y-82500D01*
X-47984Y-32504D02*
Y-26506D01*
X-50983D01*
X-51983Y-27506D01*
Y-29505D01*
X-50983Y-30505D01*
X-47984D01*
X-49984D02*
X-51983Y-32504D01*
X-53982D02*
X-55982D01*
X-54982D01*
Y-26506D01*
X-53982Y-27506D01*
X-61980Y-32504D02*
Y-26506D01*
X-58981Y-29505D01*
X-62979D01*
X-87984Y-30504D02*
Y-24506D01*
X-90983D01*
X-91983Y-25506D01*
Y-27505D01*
X-90983Y-28505D01*
X-87984D01*
X-89984D02*
X-91983Y-30504D01*
X-93982D02*
X-95982D01*
X-94982D01*
Y-24506D01*
X-93982Y-25506D01*
X-102979Y-24506D02*
X-98981D01*
Y-27505D01*
X-100980Y-26505D01*
X-101980D01*
X-102979Y-27505D01*
Y-29504D01*
X-101980Y-30504D01*
X-99980D01*
X-98981Y-29504D01*
X6016Y-8504D02*
Y-2506D01*
X3017D01*
X2017Y-3506D01*
Y-5505D01*
X3017Y-6505D01*
X6016D01*
X4016D02*
X2017Y-8504D01*
X18D02*
X-1982D01*
X-982D01*
Y-2506D01*
X18Y-3506D01*
X-8979Y-2506D02*
X-6980Y-3506D01*
X-4981Y-5505D01*
Y-7504D01*
X-5980Y-8504D01*
X-7980D01*
X-8979Y-7504D01*
Y-6505D01*
X-7980Y-5505D01*
X-4981D01*
X54500Y-147000D02*
Y-141002D01*
X51501D01*
X50501Y-142002D01*
Y-144001D01*
X51501Y-145001D01*
X54500D01*
X52501D02*
X50501Y-147000D01*
X48502D02*
X46503D01*
X47502D01*
Y-141002D01*
X48502Y-142002D01*
X43504Y-141002D02*
X39505D01*
Y-142002D01*
X43504Y-146000D01*
Y-147000D01*
X62000Y34000D02*
X56002D01*
Y31001D01*
X57002Y30001D01*
X59001D01*
X60001Y31001D01*
Y34000D01*
Y32001D02*
X62000Y30001D01*
Y28002D02*
Y26003D01*
Y27002D01*
X56002D01*
X57002Y28002D01*
Y23004D02*
X56002Y22004D01*
Y20005D01*
X57002Y19005D01*
X58001D01*
X59001Y20005D01*
X60001Y19005D01*
X61000D01*
X62000Y20005D01*
Y22004D01*
X61000Y23004D01*
X60001D01*
X59001Y22004D01*
X58001Y23004D01*
X57002D01*
X59001Y22004D02*
Y20005D01*
X73000Y60000D02*
Y65998D01*
X70001D01*
X69001Y64998D01*
Y62999D01*
X70001Y61999D01*
X73000D01*
X71001D02*
X69001Y60000D01*
X67002D02*
X65003D01*
X66002D01*
Y65998D01*
X67002Y64998D01*
X62004Y61000D02*
X61004Y60000D01*
X59004D01*
X58005Y61000D01*
Y64998D01*
X59004Y65998D01*
X61004D01*
X62004Y64998D01*
Y63999D01*
X61004Y62999D01*
X58005D01*
X50500Y-75500D02*
X44502D01*
Y-78499D01*
X45502Y-79499D01*
X47501D01*
X48501Y-78499D01*
Y-75500D01*
Y-77499D02*
X50500Y-79499D01*
Y-85497D02*
Y-81498D01*
X46501Y-85497D01*
X45502D01*
X44502Y-84497D01*
Y-82498D01*
X45502Y-81498D01*
Y-87496D02*
X44502Y-88496D01*
Y-90495D01*
X45502Y-91495D01*
X49500D01*
X50500Y-90495D01*
Y-88496D01*
X49500Y-87496D01*
X45502D01*
X-1984Y23496D02*
Y29494D01*
X-4983D01*
X-5983Y28494D01*
Y26495D01*
X-4983Y25495D01*
X-1984D01*
X-3984D02*
X-5983Y23496D01*
X-11981D02*
X-7982D01*
X-11981Y27495D01*
Y28494D01*
X-10981Y29494D01*
X-8982D01*
X-7982Y28494D01*
X-13980Y23496D02*
X-15980D01*
X-14980D01*
Y29494D01*
X-13980Y28494D01*
X50000Y-120500D02*
X44002D01*
Y-123499D01*
X45002Y-124499D01*
X47001D01*
X48001Y-123499D01*
Y-120500D01*
Y-122499D02*
X50000Y-124499D01*
Y-130497D02*
Y-126498D01*
X46001Y-130497D01*
X45002D01*
X44002Y-129497D01*
Y-127498D01*
X45002Y-126498D01*
X50000Y-136495D02*
Y-132496D01*
X46001Y-136495D01*
X45002D01*
X44002Y-135495D01*
Y-133496D01*
X45002Y-132496D01*
X54016Y51496D02*
Y57494D01*
X51017D01*
X50017Y56494D01*
Y54495D01*
X51017Y53495D01*
X54016D01*
X52016D02*
X50017Y51496D01*
X44019D02*
X48018D01*
X44019Y55495D01*
Y56494D01*
X45019Y57494D01*
X47018D01*
X48018Y56494D01*
X42020D02*
X41020Y57494D01*
X39021D01*
X38021Y56494D01*
Y55495D01*
X39021Y54495D01*
X40020D01*
X39021D01*
X38021Y53495D01*
Y52496D01*
X39021Y51496D01*
X41020D01*
X42020Y52496D01*
X65500Y145000D02*
Y150998D01*
X62501D01*
X61501Y149998D01*
Y147999D01*
X62501Y146999D01*
X65500D01*
X63501D02*
X61501Y145000D01*
X55503D02*
X59502D01*
X55503Y148999D01*
Y149998D01*
X56503Y150998D01*
X58502D01*
X59502Y149998D01*
X50505Y145000D02*
Y150998D01*
X53504Y147999D01*
X49505D01*
X50500Y-94500D02*
X44502D01*
Y-97499D01*
X45502Y-98499D01*
X47501D01*
X48501Y-97499D01*
Y-94500D01*
Y-96499D02*
X50500Y-98499D01*
Y-104497D02*
Y-100498D01*
X46501Y-104497D01*
X45502D01*
X44502Y-103497D01*
Y-101498D01*
X45502Y-100498D01*
X44502Y-110495D02*
Y-106496D01*
X47501D01*
X46501Y-108495D01*
Y-109495D01*
X47501Y-110495D01*
X49500D01*
X50500Y-109495D01*
Y-107496D01*
X49500Y-106496D01*
X109500Y-114000D02*
X103502D01*
Y-116999D01*
X104502Y-117999D01*
X106501D01*
X107501Y-116999D01*
Y-114000D01*
Y-115999D02*
X109500Y-117999D01*
Y-123997D02*
Y-119998D01*
X105501Y-123997D01*
X104502D01*
X103502Y-122997D01*
Y-120998D01*
X104502Y-119998D01*
X103502Y-129995D02*
X104502Y-127996D01*
X106501Y-125996D01*
X108500D01*
X109500Y-126996D01*
Y-128995D01*
X108500Y-129995D01*
X107501D01*
X106501Y-128995D01*
Y-125996D01*
X40016Y149496D02*
Y155494D01*
X37017D01*
X36017Y154494D01*
Y152495D01*
X37017Y151495D01*
X40016D01*
X38016D02*
X36017Y149496D01*
X30019D02*
X34018D01*
X30019Y153495D01*
Y154494D01*
X31019Y155494D01*
X33018D01*
X34018Y154494D01*
X28020Y155494D02*
X24021D01*
Y154494D01*
X28020Y150496D01*
Y149496D01*
X49500Y-163500D02*
X43502D01*
Y-166499D01*
X44502Y-167499D01*
X46501D01*
X47501Y-166499D01*
Y-163500D01*
Y-165499D02*
X49500Y-167499D01*
Y-173497D02*
Y-169498D01*
X45501Y-173497D01*
X44502D01*
X43502Y-172497D01*
Y-170498D01*
X44502Y-169498D01*
Y-175496D02*
X43502Y-176496D01*
Y-178495D01*
X44502Y-179495D01*
X45501D01*
X46501Y-178495D01*
X47501Y-179495D01*
X48500D01*
X49500Y-178495D01*
Y-176496D01*
X48500Y-175496D01*
X47501D01*
X46501Y-176496D01*
X45501Y-175496D01*
X44502D01*
X46501Y-176496D02*
Y-178495D01*
X72016Y-38504D02*
Y-32506D01*
X69017D01*
X68017Y-33506D01*
Y-35505D01*
X69017Y-36505D01*
X72016D01*
X70016D02*
X68017Y-38504D01*
X62019D02*
X66018D01*
X62019Y-34505D01*
Y-33506D01*
X63019Y-32506D01*
X65018D01*
X66018Y-33506D01*
X60020Y-37504D02*
X59020Y-38504D01*
X57021D01*
X56021Y-37504D01*
Y-33506D01*
X57021Y-32506D01*
X59020D01*
X60020Y-33506D01*
Y-34505D01*
X59020Y-35505D01*
X56021D01*
X100000Y-8500D02*
Y-2502D01*
X97001D01*
X96001Y-3502D01*
Y-5501D01*
X97001Y-6501D01*
X100000D01*
X98001D02*
X96001Y-8500D01*
X94002Y-3502D02*
X93002Y-2502D01*
X91003D01*
X90003Y-3502D01*
Y-4501D01*
X91003Y-5501D01*
X92003D01*
X91003D01*
X90003Y-6501D01*
Y-7500D01*
X91003Y-8500D01*
X93002D01*
X94002Y-7500D01*
X88004Y-3502D02*
X87004Y-2502D01*
X85005D01*
X84005Y-3502D01*
Y-7500D01*
X85005Y-8500D01*
X87004D01*
X88004Y-7500D01*
Y-3502D01*
D33*
X-25984Y185496D02*
Y205496D01*
D34*
X83449Y177717D02*
G03*
X83449Y177717I-492J0D01*
G01*
X96276Y202957D02*
G03*
X96276Y202957I-492J0D01*
G01*
D35*
X-2500Y-84461D02*
Y-82461D01*
X-1500Y-81461D01*
X1500D01*
X2500Y-82461D01*
Y-84461D02*
Y-82461D01*
X6500Y-84461D02*
Y-46461D01*
X-5500D02*
X6500D01*
X-5500Y-84461D02*
Y-46461D01*
Y-84461D02*
X6500D01*
D36*
X49606Y-37795D02*
Y-37402D01*
X44882Y-37795D02*
Y-37402D01*
X51575Y-3740D02*
X51968D01*
X51575Y-8071D02*
X51968D01*
X21455Y-98915D02*
Y-96947D01*
X20471Y-97931D02*
X22439D01*
X5315Y-114764D02*
X11024D01*
X20472D02*
X26181D01*
Y-96457D01*
X23622Y-93898D02*
X26181Y-96457D01*
X20472Y-93898D02*
X23622D01*
X5315Y-114764D02*
Y-96457D01*
X7874Y-93898D01*
X11024D01*
X104858Y143898D02*
Y145276D01*
X102102Y141142D02*
X104858Y143898D01*
X87142Y141142D02*
X102102D01*
X104858Y154724D02*
Y156102D01*
X102102Y158858D02*
X104858Y156102D01*
X87142Y158858D02*
X102102D01*
X87142Y141142D02*
Y145276D01*
Y154724D02*
Y158858D01*
X50394Y-24016D02*
Y-19685D01*
X44094Y-24016D02*
X50394D01*
X44094D02*
Y-19685D01*
X-21378Y185945D02*
X28622D01*
X-21378Y205945D02*
X28622D01*
Y185945D02*
Y205945D01*
X-21378Y185945D02*
Y205945D01*
X83153Y179390D02*
Y190610D01*
X89846Y179390D02*
Y190610D01*
X83153Y179390D02*
X83547D01*
X83153Y190610D02*
X83547D01*
X89453Y179390D02*
X89846D01*
X89453Y190610D02*
X89846D01*
X102303Y129039D02*
X102697D01*
X102303Y133961D02*
X102697D01*
X1819Y-88043D02*
X2213D01*
X1819Y-92965D02*
X2213D01*
X-82874Y-79232D02*
X-82480D01*
X-82874Y-74311D02*
X-82480D01*
X-73327Y-151772D02*
Y-151378D01*
X-68405Y-151772D02*
Y-151378D01*
X-73033Y-98915D02*
Y-96947D01*
X-74017Y-97931D02*
X-72049D01*
X-89173Y-114764D02*
X-83465D01*
X-74016D02*
X-68307D01*
Y-96457D01*
X-70866Y-93898D02*
X-68307Y-96457D01*
X-74016Y-93898D02*
X-70866D01*
X-89173Y-114764D02*
Y-96457D01*
X-86614Y-93898D01*
X-83465D01*
X74606Y-63484D02*
X75000D01*
X74606Y-58563D02*
X75000D01*
X-41537Y-98915D02*
Y-96947D01*
X-42521Y-97931D02*
X-40553D01*
X-57677Y-114764D02*
X-51968D01*
X-42520D02*
X-36811D01*
Y-96457D01*
X-39370Y-93898D02*
X-36811Y-96457D01*
X-42520Y-93898D02*
X-39370D01*
X-57677Y-114764D02*
Y-96457D01*
X-55118Y-93898D01*
X-51968D01*
X-57579Y139567D02*
Y139961D01*
X-52658Y139567D02*
Y139961D01*
X76279Y-151378D02*
Y-150984D01*
X81201Y-151378D02*
Y-150984D01*
X-10335Y-151772D02*
Y-151378D01*
X-5413Y-151772D02*
Y-151378D01*
X84447Y-98915D02*
Y-96947D01*
X83463Y-97931D02*
X85431D01*
X68307Y-114764D02*
X74016D01*
X83465D02*
X89173D01*
Y-96457D01*
X86614Y-93898D02*
X89173Y-96457D01*
X83465Y-93898D02*
X86614D01*
X68307Y-114764D02*
Y-96457D01*
X70866Y-93898D01*
X74016D01*
X64468Y-10039D02*
Y-9646D01*
X69390Y-10039D02*
Y-9646D01*
X13287Y139173D02*
Y139567D01*
X18209Y139173D02*
Y139567D01*
X-63779Y-75197D02*
Y-70866D01*
X-70079Y-75197D02*
X-63779D01*
X-70079D02*
Y-70866D01*
X-62205Y-153543D02*
Y-149213D01*
X-55905D01*
Y-153543D02*
Y-149213D01*
X-104835Y39134D02*
Y43465D01*
X-111134Y39134D02*
X-104835D01*
X-111134D02*
Y43465D01*
X-44094Y38976D02*
Y43307D01*
X-50394Y38976D02*
X-44094D01*
X-50394D02*
Y43307D01*
X-53150Y-77559D02*
X-48819D01*
Y-83858D02*
Y-77559D01*
X-53150Y-83858D02*
X-48819D01*
X-62205Y-133858D02*
Y-129528D01*
X-55905D01*
Y-133858D02*
Y-129528D01*
X109449Y-71260D02*
Y-66929D01*
X103150Y-71260D02*
X109449D01*
X103150D02*
Y-66929D01*
X-12598Y-24016D02*
Y-19685D01*
X-18898Y-24016D02*
X-12598D01*
X-18898D02*
Y-19685D01*
X63779Y-153543D02*
Y-149213D01*
X70079D01*
Y-153543D02*
Y-149213D01*
X81890Y38976D02*
Y43307D01*
X75590Y38976D02*
X81890D01*
X75590D02*
Y43307D01*
X787Y-153543D02*
Y-149213D01*
X7087D01*
Y-153543D02*
Y-149213D01*
X18898Y38976D02*
Y43307D01*
X12598Y38976D02*
X18898D01*
X12598D02*
Y43307D01*
X63779Y-133858D02*
Y-129528D01*
X70079D01*
Y-133858D02*
Y-129528D01*
X787Y-129921D02*
Y-125591D01*
X7087D01*
Y-129921D02*
Y-125591D01*
X81890Y-24016D02*
Y-19685D01*
X75590Y-24016D02*
X81890D01*
X75590D02*
Y-19685D01*
X82890Y203153D02*
X94110D01*
X82890Y209846D02*
X94110D01*
Y203153D02*
Y203547D01*
X82890Y203153D02*
Y203547D01*
X94110Y209453D02*
Y209846D01*
X82890Y209453D02*
Y209846D01*
X-81102Y-61221D02*
Y-60827D01*
X-76378Y-61221D02*
Y-60827D01*
X-103937Y13583D02*
Y13976D01*
X-108661Y13583D02*
Y13976D01*
X-45669Y-151772D02*
Y-151378D01*
X-40945Y-151772D02*
Y-151378D01*
X-56693Y29331D02*
Y29724D01*
X-61417Y29331D02*
Y29724D01*
X84842Y13583D02*
Y13976D01*
X80512Y13583D02*
Y13976D01*
X-21850Y52953D02*
Y53346D01*
X-17520Y52953D02*
Y53346D01*
X-108465Y-80315D02*
Y-79921D01*
X-104134Y-80315D02*
Y-79921D01*
X-41142Y-132087D02*
Y-131693D01*
X-45472Y-132087D02*
Y-131693D01*
X-78937Y181496D02*
X-78543D01*
X-78937Y176772D02*
X-78543D01*
X-35630Y141339D02*
X-35236D01*
X-35630Y146063D02*
X-35236D01*
X-108661Y-139961D02*
Y-139567D01*
X-103937Y-139961D02*
Y-139567D01*
X-22047Y-171457D02*
Y-171063D01*
X-17323Y-171457D02*
Y-171063D01*
X78543Y-75197D02*
X78937D01*
X78543Y-70472D02*
X78937D01*
X-40945Y-33465D02*
Y-33071D01*
X-45669Y-33465D02*
Y-33071D01*
X-104134Y-21260D02*
Y-20866D01*
X-108465Y-21260D02*
Y-20866D01*
X-17913Y-6693D02*
Y-6299D01*
X-13583Y-6693D02*
Y-6299D01*
X56693Y-151772D02*
Y-151378D01*
X61417Y-151772D02*
Y-151378D01*
X69291Y29331D02*
Y29724D01*
X64567Y29331D02*
Y29724D01*
X76575Y61417D02*
Y61811D01*
X80905Y61417D02*
Y61811D01*
X57480Y-84842D02*
Y-84449D01*
X52756Y-84842D02*
Y-84449D01*
X6299Y29331D02*
Y29724D01*
X1575Y29331D02*
Y29724D01*
X57284Y-127559D02*
Y-127165D01*
X52953Y-127559D02*
Y-127165D01*
X45472Y44488D02*
Y44882D01*
X41142Y44488D02*
Y44882D01*
X62795Y137402D02*
X63189D01*
X62795Y142126D02*
X63189D01*
X52953Y-100591D02*
Y-100197D01*
X57284Y-100591D02*
Y-100197D01*
X108661Y-139961D02*
Y-139567D01*
X103937Y-139961D02*
Y-139567D01*
X31102Y141339D02*
X31496D01*
X31102Y146063D02*
X31496D01*
X44882Y-155512D02*
Y-155118D01*
X49606Y-155512D02*
Y-155118D01*
X64567Y-25787D02*
Y-25394D01*
X69291Y-25787D02*
Y-25394D01*
X76575Y-2756D02*
Y-2362D01*
X80905Y-2756D02*
Y-2362D01*
D57*
X47244Y-22441D02*
D03*
X-66929Y-73622D02*
D03*
X-59055Y-150787D02*
D03*
X-107984Y40709D02*
D03*
X-47244Y40551D02*
D03*
X-59055Y-131102D02*
D03*
X106299Y-69685D02*
D03*
X-15747Y-22441D02*
D03*
X66929Y-150786D02*
D03*
X78740Y40551D02*
D03*
X3937Y-150788D02*
D03*
X15748Y40551D02*
D03*
X66929Y-131103D02*
D03*
X3937Y-127166D02*
D03*
X78741Y-22441D02*
D03*
D58*
X-50394Y-80709D02*
D03*
M02*
